M48
;Layer_Color=9474304
;FILE_FORMAT=4:4
METRIC,LZ
;TYPE=PLATED
T01F00S00C0.2000
T02F00S00C0.4000
T03F00S00C0.7112
T04F00S00C0.8500
T05F00S00C1.0000
T06F00S00C1.1000
T07F00S00C1.3000
T08F00S00C1.6000
T09F00S00C1.8500
T10F00S00C2.1100
T11F00S00C3.4000
;TYPE=NON_PLATED
T12F00S00C1.8000
T13F00S00C3.4500
%
T01
X0099857Y0027871
Y0028771
X0100457Y0028321
X0101057Y0028771
Y0027871
T02
X018923Y0060071
Y0061214
X01905
Y0060071
X0011049Y0060833
Y0061976
X0009779
Y0060833
T03
X0025908Y0002921
X0026035Y001651
X002794Y0023876
X0037338Y0024638
X0037973Y0013716
X0042418Y0020193
X0042926Y0033782
X0058801Y0035687
X0055118Y001397
X0065024Y0010033
X0063373Y0007112
X0070739Y0014351
X0082804Y0012192
X0086868Y0012446
X0091059Y0009271
X0109728Y0009144
X0117475Y0002794
X0117094Y0018542
X0109601Y0030353
X0094996Y0031296
X0085471Y0028448
X0082804Y0026416
X0131699Y0027813
X0134366Y0024003
X0178816Y0028448
X0182245Y0026035
X0185674Y0027178
X0196215Y0042291
X0197993Y0064389
X0179197
X0180721Y0056642
X0146685Y0053594
X0146812Y0050419
X0144272Y0048641
X0136525Y004826
X0133985Y004953
X01315358Y005
X0128905Y0051054
X0126746Y0047498
X0129032Y0043307
X0131572Y0044704
X0137668Y0043307
X0123444Y0042545
X0141859Y005461
X0150495Y0065532
X0113157Y0061722
X0117221Y0057531
X0114808Y0053213
X0113157Y0070485
X0091313Y0058039
X0093091Y0053086
X0090551Y0051689
X0080137Y00508
X0081153Y0054102
X0085725Y0059309
X0087122Y0042164
X0074295
X0075692Y0046863
X0072263Y005334
X007239Y0055626
X0074295Y0057023
X0076581Y0058547
X0069088Y0057277
X0063627Y0048641
X0059055Y0051308
X0063627Y004064
X004318Y0068072
X0020701Y0061214
X0009271Y0057785
X0005715Y0058674
X0054356Y0086741
X0064643Y0080645
X0065024Y0093218
X00786376Y0095
X0189357Y0088138
T04
X00908728Y0038393
X00934128Y0038647
X00959528Y0038393
X00984928Y0038647
X01010328Y0038393
X01035728Y0038647
X01061128Y0038393
X01238948
X01264348Y0038647
X01289748Y0038393
X01315148Y0038647
X01340548Y0038393
X01365948Y0038647
X01391348Y0038393
X01416748Y0038647
X01442148Y0038393
X01467548Y0038647
X01492948Y0038393
X01518348Y0038647
X01543748Y0038393
X01569148Y0038647
X01594548Y0038393
X01619948Y0038647
X01645348Y0038393
X01670748Y0038647
X01696148Y0038393
X01721548Y0038647
X01746948Y0038393
Y0061253
X01721548Y0061507
X01696148Y0061253
X01670748Y0061507
X01645348Y0061253
X01619948Y0061507
X01594548Y0061253
X01569148Y0061507
X01543748Y0061253
X01518348Y0061507
X01492948Y0061253
X01467548Y0061507
X01442148Y0061253
X01416748Y0061507
X01391348Y0061253
X01365948Y0061507
X01340548Y0061253
X01315148Y0061507
X01289748Y0061253
X01264348Y0061507
X01238948Y0061253
X01061128Y0061353
X01035728Y0061607
X01010328Y0061353
X00984928Y0061607
X00959528Y0061353
X00934128Y0061607
X00908728Y0061353
T05
X00327502Y0036
Y0056
T06
X0121285Y0006604
X0123825
X0126365
X0128905
X0131445
X0133985
X0141694Y00067428
X0144234
X0146774
X0149314
X0151854
X0154394
X018542Y004572
Y004826
Y00508
Y005334
X00138659Y005381
Y005127
Y004873
Y004619
X0122809Y0093726
X0125349
X0127889
X0135763Y0093599
X0138303
X0140843
X0143383
T07
X0097917Y0009144
X0102997
X0193929Y0047117
Y0052197
X0007112Y0052451
Y0047371
T08
X0046482Y0015875
X0033401Y0082042
X0085725Y0094107
X0144018Y0081407
X0149225Y008128
X0154813Y0081153
T09
X0060706Y0006729
Y0011429
Y0016129
X0060833Y0083818
Y0088518
Y0093218
T10
X0053617Y0075438
X0066317
T11
X0005Y0005
X0195
X0005Y0095
X0195
T12
X00423502Y005
X00283502Y00581
Y00419
T13
X0048052Y0037968
X0071882
Y0060198
X0048052
M30
