G04*
G04 #@! TF.GenerationSoftware,Altium Limited,Altium Designer,25.8.1 (18)*
G04*
G04 Layer_Color=16711935*
%FSLAX44Y44*%
%MOMM*%
G71*
G04*
G04 #@! TF.SameCoordinates,3252FE53-E486-4FD3-897B-B0AFD7199433*
G04*
G04*
G04 #@! TF.FilePolarity,Negative*
G04*
G01*
G75*
%ADD55C,2.5000*%
%ADD70C,2.3032*%
%ADD71C,1.8032*%
%ADD72C,1.7032*%
G04:AMPARAMS|DCode=73|XSize=1.8032mm|YSize=1.8032mm|CornerRadius=0.5016mm|HoleSize=0mm|Usage=FLASHONLY|Rotation=180.000|XOffset=0mm|YOffset=0mm|HoleType=Round|Shape=RoundedRectangle|*
%AMROUNDEDRECTD73*
21,1,1.8032,0.8000,0,0,180.0*
21,1,0.8000,1.8032,0,0,180.0*
1,1,1.0032,-0.4000,0.4000*
1,1,1.0032,0.4000,0.4000*
1,1,1.0032,0.4000,-0.4000*
1,1,1.0032,-0.4000,-0.4000*
%
%ADD73ROUNDEDRECTD73*%
%ADD74C,1.0032*%
%ADD75R,1.7032X1.7032*%
%ADD76C,3.3292*%
%ADD77C,2.1532*%
%ADD78R,2.1532X2.1532*%
G04:AMPARAMS|DCode=79|XSize=1.8032mm|YSize=1.8032mm|CornerRadius=0.5016mm|HoleSize=0mm|Usage=FLASHONLY|Rotation=90.000|XOffset=0mm|YOffset=0mm|HoleType=Round|Shape=RoundedRectangle|*
%AMROUNDEDRECTD79*
21,1,1.8032,0.8000,0,0,90.0*
21,1,0.8000,1.8032,0,0,90.0*
1,1,1.0032,0.4000,0.4000*
1,1,1.0032,0.4000,-0.4000*
1,1,1.0032,-0.4000,-0.4000*
1,1,1.0032,-0.4000,0.4000*
%
%ADD79ROUNDEDRECTD79*%
%ADD80C,3.6532*%
%ADD81R,2.1532X2.1532*%
%ADD82C,2.0032*%
%ADD83C,2.9782*%
%ADD84R,2.9782X2.9782*%
%ADD85C,1.4732*%
%ADD86C,0.7032*%
D55*
X1962500Y950000D02*
G03*
X1962500Y950000I-12500J0D01*
G01*
Y50000D02*
G03*
X1962500Y50000I-12500J0D01*
G01*
X62500Y950000D02*
G03*
X62500Y950000I-12500J0D01*
G01*
Y50000D02*
G03*
X62500Y50000I-12500J0D01*
G01*
D70*
X1440180Y814070D02*
D03*
X1548130Y811530D02*
D03*
X857250Y941070D02*
D03*
X334010Y820420D02*
D03*
X1492250Y812800D02*
D03*
X464820Y158750D02*
D03*
D71*
X1263650Y66040D02*
D03*
X1357630Y935990D02*
D03*
X1383030D02*
D03*
X1408430D02*
D03*
X1854200Y533400D02*
D03*
X138659Y538100D02*
D03*
X1253490Y937260D02*
D03*
X1854200Y482600D02*
D03*
Y508000D02*
D03*
X1467740Y67428D02*
D03*
X138659Y487300D02*
D03*
X1442340Y67428D02*
D03*
X1339850Y66040D02*
D03*
X1228090Y937260D02*
D03*
X1543940Y67428D02*
D03*
X1314450Y66040D02*
D03*
X138659Y512700D02*
D03*
X1493140Y67428D02*
D03*
X1518540D02*
D03*
X1289050Y66040D02*
D03*
X1238250D02*
D03*
D72*
X1315148Y386470D02*
D03*
X1035728Y616070D02*
D03*
X1721548Y615070D02*
D03*
X1238948Y612530D02*
D03*
X1721548Y386470D02*
D03*
X1238948Y383930D02*
D03*
X327502Y560000D02*
D03*
X1696148Y612530D02*
D03*
X1645348D02*
D03*
X1594548D02*
D03*
X1543748D02*
D03*
X1492948D02*
D03*
X1442148D02*
D03*
X1391348D02*
D03*
X1340548D02*
D03*
X1289748D02*
D03*
X1264348Y615070D02*
D03*
X1315148D02*
D03*
X1365948D02*
D03*
X1416748D02*
D03*
X1467548D02*
D03*
X1518348D02*
D03*
X1569148D02*
D03*
X1619948D02*
D03*
X1670748D02*
D03*
Y386470D02*
D03*
X1619948D02*
D03*
X1569148D02*
D03*
X1518348D02*
D03*
X1467548D02*
D03*
X1416748D02*
D03*
X1365948D02*
D03*
X1264348D02*
D03*
X1289748Y383930D02*
D03*
X1340548D02*
D03*
X1391348D02*
D03*
X1442148D02*
D03*
X1492948D02*
D03*
X1543748D02*
D03*
X1594548D02*
D03*
X1645348D02*
D03*
X1696148D02*
D03*
X1035728Y386470D02*
D03*
X984928D02*
D03*
X934128D02*
D03*
X908728Y383930D02*
D03*
X959528D02*
D03*
X1010328D02*
D03*
X984928Y616070D02*
D03*
X934128D02*
D03*
X908728Y613530D02*
D03*
X959528D02*
D03*
X1010328D02*
D03*
X327502Y360000D02*
D03*
D73*
X1433830Y935990D02*
D03*
X1278890Y937260D02*
D03*
X1212850Y66040D02*
D03*
X1416940Y67428D02*
D03*
D74*
X1892300Y612140D02*
D03*
X1905000D02*
D03*
X1892300Y600710D02*
D03*
X1905000D02*
D03*
X110490Y619760D02*
D03*
X97790Y608330D02*
D03*
X110490D02*
D03*
X97790Y619760D02*
D03*
D75*
X1061128Y383930D02*
D03*
X1746948Y612530D02*
D03*
Y383930D02*
D03*
X1061128Y613530D02*
D03*
D76*
X536170Y754380D02*
D03*
X663170D02*
D03*
D77*
X71120Y524510D02*
D03*
X1939290Y521970D02*
D03*
X1029970Y91440D02*
D03*
D78*
X71120Y473710D02*
D03*
X1939290Y471170D02*
D03*
D79*
X1854200Y457200D02*
D03*
X138659Y461900D02*
D03*
D80*
X480520Y601980D02*
D03*
Y379680D02*
D03*
X718820Y601980D02*
D03*
Y379680D02*
D03*
D81*
X979170Y91440D02*
D03*
D82*
X423502Y500000D02*
D03*
X283502Y581000D02*
D03*
Y419000D02*
D03*
D83*
X608330Y885180D02*
D03*
Y932180D02*
D03*
X607060Y114290D02*
D03*
Y161290D02*
D03*
D84*
X608330Y838180D02*
D03*
X607060Y67290D02*
D03*
D85*
X1365250Y482600D02*
D03*
X742950Y421640D02*
D03*
X854710Y284480D02*
D03*
X742950Y570230D02*
D03*
X871220Y421640D02*
D03*
X1315720Y447040D02*
D03*
X1893570Y881380D02*
D03*
X1791970Y643890D02*
D03*
X786376Y950000D02*
D03*
X1807210Y566420D02*
D03*
X857250Y593090D02*
D03*
X913130Y580390D02*
D03*
X1962150Y422910D02*
D03*
X801370Y508000D02*
D03*
X756920Y468630D02*
D03*
X868680Y124460D02*
D03*
X646430Y806450D02*
D03*
X543560Y867410D02*
D03*
X431800Y680720D02*
D03*
X207010Y612140D02*
D03*
X722630Y533400D02*
D03*
X707390Y143510D02*
D03*
X551180Y139700D02*
D03*
X379730Y137160D02*
D03*
X650240Y100330D02*
D03*
X633730Y71120D02*
D03*
X57150Y586740D02*
D03*
X373380Y246380D02*
D03*
X279400Y238760D02*
D03*
X1856740Y271780D02*
D03*
X1466850Y535940D02*
D03*
X1148080Y532130D02*
D03*
X690880Y572770D02*
D03*
X1131570Y617220D02*
D03*
Y704850D02*
D03*
X636270Y406400D02*
D03*
X949960Y312960D02*
D03*
X828040Y121920D02*
D03*
Y264160D02*
D03*
X1979930Y643890D02*
D03*
X930910Y530860D02*
D03*
X1315358Y500000D02*
D03*
X1290320Y433070D02*
D03*
X1339850Y495300D02*
D03*
X1267460Y474980D02*
D03*
X1418590Y546100D02*
D03*
X1289050Y510540D02*
D03*
X905510Y516890D02*
D03*
X811530Y541020D02*
D03*
X424180Y201930D02*
D03*
X429260Y337820D02*
D03*
X1442720Y486410D02*
D03*
X636270D02*
D03*
X1343660Y240030D02*
D03*
X1822450Y260350D02*
D03*
X1234440Y425450D02*
D03*
X1316990Y278130D02*
D03*
X1788160Y284480D02*
D03*
X1504950Y655320D02*
D03*
X1170940Y185420D02*
D03*
X1172210Y575310D02*
D03*
X590550Y513080D02*
D03*
X588010Y356870D02*
D03*
X1468120Y504190D02*
D03*
X765810Y585470D02*
D03*
X723900Y556260D02*
D03*
X1174750Y27940D02*
D03*
X259080Y29210D02*
D03*
X260350Y165100D02*
D03*
X910590Y92710D02*
D03*
X1096010Y303530D02*
D03*
X1097280Y91440D02*
D03*
X650240Y932180D02*
D03*
X1376680Y433070D02*
D03*
X92710Y577850D02*
D03*
D86*
X1010570Y287710D02*
D03*
Y278710D02*
D03*
X998570Y287710D02*
D03*
X1004570Y283210D02*
D03*
X998570Y278710D02*
D03*
M02*
