G04*
G04 #@! TF.GenerationSoftware,Altium Limited,Altium Designer,25.8.1 (18)*
G04*
G04 Layer_Physical_Order=1*
G04 Layer_Color=255*
%FSLAX44Y44*%
%MOMM*%
G71*
G04*
G04 #@! TF.SameCoordinates,3252FE53-E486-4FD3-897B-B0AFD7199433*
G04*
G04*
G04 #@! TF.FilePolarity,Positive*
G04*
G01*
G75*
%ADD10C,0.2000*%
%ADD12C,0.2540*%
G04:AMPARAMS|DCode=20|XSize=1.97mm|YSize=0.6mm|CornerRadius=0.075mm|HoleSize=0mm|Usage=FLASHONLY|Rotation=270.000|XOffset=0mm|YOffset=0mm|HoleType=Round|Shape=RoundedRectangle|*
%AMROUNDEDRECTD20*
21,1,1.9700,0.4500,0,0,270.0*
21,1,1.8200,0.6000,0,0,270.0*
1,1,0.1500,-0.2250,-0.9100*
1,1,0.1500,-0.2250,0.9100*
1,1,0.1500,0.2250,0.9100*
1,1,0.1500,0.2250,-0.9100*
%
%ADD20ROUNDEDRECTD20*%
%ADD21R,1.3500X1.0000*%
%ADD22R,0.9500X1.3500*%
%ADD23R,3.2000X1.6000*%
%ADD24R,2.2900X2.2900*%
%ADD25R,1.4500X0.6000*%
%ADD26R,1.3082X1.0057*%
%ADD27R,1.2546X1.4562*%
%ADD28R,1.3500X0.9500*%
G04:AMPARAMS|DCode=29|XSize=0.45mm|YSize=1.15mm|CornerRadius=0.0495mm|HoleSize=0mm|Usage=FLASHONLY|Rotation=180.000|XOffset=0mm|YOffset=0mm|HoleType=Round|Shape=RoundedRectangle|*
%AMROUNDEDRECTD29*
21,1,0.4500,1.0510,0,0,180.0*
21,1,0.3510,1.1500,0,0,180.0*
1,1,0.0990,-0.1755,0.5255*
1,1,0.0990,0.1755,0.5255*
1,1,0.0990,0.1755,-0.5255*
1,1,0.0990,-0.1755,-0.5255*
%
%ADD29ROUNDEDRECTD29*%
%ADD30R,1.3000X1.4500*%
G04:AMPARAMS|DCode=31|XSize=1.57mm|YSize=1.89mm|CornerRadius=0.0471mm|HoleSize=0mm|Usage=FLASHONLY|Rotation=90.000|XOffset=0mm|YOffset=0mm|HoleType=Round|Shape=RoundedRectangle|*
%AMROUNDEDRECTD31*
21,1,1.5700,1.7958,0,0,90.0*
21,1,1.4758,1.8900,0,0,90.0*
1,1,0.0942,0.8979,0.7379*
1,1,0.0942,0.8979,-0.7379*
1,1,0.0942,-0.8979,-0.7379*
1,1,0.0942,-0.8979,0.7379*
%
%ADD31ROUNDEDRECTD31*%
%ADD32R,1.5750X0.2800*%
%ADD33R,1.4500X1.3000*%
%ADD34R,1.6000X3.5000*%
%ADD35R,1.4562X1.2546*%
%ADD36R,1.3000X0.9000*%
%ADD37R,0.5321X1.2544*%
%ADD38R,0.5868X1.3587*%
%ADD39R,1.2544X0.5321*%
%ADD40R,1.3587X0.5868*%
%ADD41R,2.3000X2.5000*%
%ADD42R,1.3000X1.1000*%
%ADD43R,1.3500X0.9500*%
%ADD44R,2.0000X6.0000*%
G04:AMPARAMS|DCode=45|XSize=1.3587mm|YSize=0.5868mm|CornerRadius=0.2934mm|HoleSize=0mm|Usage=FLASHONLY|Rotation=270.000|XOffset=0mm|YOffset=0mm|HoleType=Round|Shape=RoundedRectangle|*
%AMROUNDEDRECTD45*
21,1,1.3587,0.0000,0,0,270.0*
21,1,0.7719,0.5868,0,0,270.0*
1,1,0.5868,0.0000,-0.3859*
1,1,0.5868,0.0000,0.3859*
1,1,0.5868,0.0000,0.3859*
1,1,0.5868,0.0000,-0.3859*
%
%ADD45ROUNDEDRECTD45*%
%ADD46R,0.9000X1.3000*%
G04:AMPARAMS|DCode=47|XSize=1.3587mm|YSize=0.5868mm|CornerRadius=0.2934mm|HoleSize=0mm|Usage=FLASHONLY|Rotation=180.000|XOffset=0mm|YOffset=0mm|HoleType=Round|Shape=RoundedRectangle|*
%AMROUNDEDRECTD47*
21,1,1.3587,0.0000,0,0,180.0*
21,1,0.7719,0.5868,0,0,180.0*
1,1,0.5868,-0.3859,0.0000*
1,1,0.5868,0.3859,0.0000*
1,1,0.5868,0.3859,0.0000*
1,1,0.5868,-0.3859,0.0000*
%
%ADD47ROUNDEDRECTD47*%
G04:AMPARAMS|DCode=48|XSize=1.2544mm|YSize=0.5321mm|CornerRadius=0.2661mm|HoleSize=0mm|Usage=FLASHONLY|Rotation=0.000|XOffset=0mm|YOffset=0mm|HoleType=Round|Shape=RoundedRectangle|*
%AMROUNDEDRECTD48*
21,1,1.2544,0.0000,0,0,0.0*
21,1,0.7223,0.5321,0,0,0.0*
1,1,0.5321,0.3611,0.0000*
1,1,0.5321,-0.3611,0.0000*
1,1,0.5321,-0.3611,0.0000*
1,1,0.5321,0.3611,0.0000*
%
%ADD48ROUNDEDRECTD48*%
%ADD49R,1.5000X1.3000*%
%ADD50R,1.7000X0.9000*%
%ADD51R,0.2800X1.5750*%
G04:AMPARAMS|DCode=52|XSize=1.2544mm|YSize=0.5321mm|CornerRadius=0.2661mm|HoleSize=0mm|Usage=FLASHONLY|Rotation=270.000|XOffset=0mm|YOffset=0mm|HoleType=Round|Shape=RoundedRectangle|*
%AMROUNDEDRECTD52*
21,1,1.2544,0.0000,0,0,270.0*
21,1,0.7223,0.5321,0,0,270.0*
1,1,0.5321,0.0000,-0.3611*
1,1,0.5321,0.0000,0.3611*
1,1,0.5321,0.0000,0.3611*
1,1,0.5321,0.0000,-0.3611*
%
%ADD52ROUNDEDRECTD52*%
%ADD53R,1.3546X1.4621*%
%ADD54R,1.1000X1.9000*%
%ADD58R,1.5750X0.2800*%
%ADD64R,0.2799X1.5750*%
%ADD87C,2.1000*%
%ADD88C,1.6000*%
%ADD89C,1.5000*%
G04:AMPARAMS|DCode=90|XSize=1.6mm|YSize=1.6mm|CornerRadius=0.4mm|HoleSize=0mm|Usage=FLASHONLY|Rotation=180.000|XOffset=0mm|YOffset=0mm|HoleType=Round|Shape=RoundedRectangle|*
%AMROUNDEDRECTD90*
21,1,1.6000,0.8000,0,0,180.0*
21,1,0.8000,1.6000,0,0,180.0*
1,1,0.8000,-0.4000,0.4000*
1,1,0.8000,0.4000,0.4000*
1,1,0.8000,0.4000,-0.4000*
1,1,0.8000,-0.4000,-0.4000*
%
%ADD90ROUNDEDRECTD90*%
%ADD91C,0.8000*%
%ADD92R,1.5000X1.5000*%
%ADD93C,3.1260*%
%ADD94C,1.9500*%
%ADD95R,1.9500X1.9500*%
G04:AMPARAMS|DCode=96|XSize=1.6mm|YSize=1.6mm|CornerRadius=0.4mm|HoleSize=0mm|Usage=FLASHONLY|Rotation=90.000|XOffset=0mm|YOffset=0mm|HoleType=Round|Shape=RoundedRectangle|*
%AMROUNDEDRECTD96*
21,1,1.6000,0.8000,0,0,90.0*
21,1,0.8000,1.6000,0,0,90.0*
1,1,0.8000,0.4000,0.4000*
1,1,0.8000,0.4000,-0.4000*
1,1,0.8000,-0.4000,-0.4000*
1,1,0.8000,-0.4000,0.4000*
%
%ADD96ROUNDEDRECTD96*%
%ADD97C,3.4500*%
%ADD98R,1.9500X1.9500*%
%ADD99C,1.8000*%
%ADD100C,2.7750*%
%ADD101R,2.7750X2.7750*%
%ADD102C,4.4000*%
%ADD103C,1.2700*%
%ADD104C,0.5000*%
G36*
X1629410Y728980D02*
X784860D01*
Y797560D01*
X709454D01*
Y823740D01*
X714620D01*
Y836740D01*
X697620D01*
Y823740D01*
X702786D01*
Y798711D01*
X701635Y797560D01*
X651732D01*
X651196Y799560D01*
X651557Y799768D01*
X653112Y801323D01*
X654211Y803227D01*
X654702Y805060D01*
X656539D01*
X657814Y805314D01*
X658896Y806037D01*
X676536Y823676D01*
X682570D01*
X682892Y823740D01*
X694300D01*
Y836740D01*
X677300D01*
Y830344D01*
X675155D01*
X674770Y830660D01*
Y832990D01*
X666750D01*
Y826970D01*
X667786D01*
X668552Y825122D01*
X655158Y811728D01*
X652961D01*
X651557Y813132D01*
X649653Y814231D01*
X647529Y814800D01*
X645331D01*
X643207Y814231D01*
X642144Y813617D01*
X640144Y814657D01*
Y838203D01*
X654882Y852941D01*
X656730Y852175D01*
Y843010D01*
X656730Y843010D01*
X656190Y841550D01*
X656190Y841550D01*
X656190Y841218D01*
Y835530D01*
X665480D01*
X674770D01*
Y841218D01*
X674770Y841550D01*
X674770Y841550D01*
X674230Y843010D01*
X674230Y843010D01*
Y847906D01*
X677300D01*
Y844740D01*
X694300D01*
Y853025D01*
X695167Y853893D01*
X695620Y854570D01*
X697620Y854199D01*
Y844740D01*
X714620D01*
Y853318D01*
X716468Y854083D01*
X727366Y843185D01*
Y839140D01*
X727430Y838818D01*
Y826910D01*
X740930D01*
Y826910D01*
X742430D01*
Y826910D01*
X755930D01*
Y844410D01*
X752514D01*
Y852700D01*
X752260Y853976D01*
X751537Y855058D01*
X748690Y857905D01*
Y917190D01*
X730630D01*
X729865Y919038D01*
X731192Y920365D01*
X760074D01*
X761350Y920619D01*
X762432Y921341D01*
X783277Y942186D01*
X785276Y941650D01*
X787475D01*
X789475Y942186D01*
X818994Y912667D01*
Y908441D01*
X814625D01*
Y908981D01*
X807082D01*
Y899160D01*
Y889339D01*
X814625D01*
Y889879D01*
X818994D01*
Y877961D01*
X814625D01*
Y878501D01*
X807082D01*
Y868680D01*
Y858859D01*
X814625D01*
Y859399D01*
X830601D01*
Y877961D01*
X825662D01*
Y889879D01*
X830601D01*
Y908441D01*
X825662D01*
Y914048D01*
X825408Y915324D01*
X824685Y916405D01*
X794190Y946901D01*
X794726Y948901D01*
Y951099D01*
X794157Y953223D01*
X793057Y955127D01*
X791503Y956682D01*
X789599Y957781D01*
X787475Y958350D01*
X785276D01*
X783153Y957781D01*
X781249Y956682D01*
X779694Y955127D01*
X778659Y953334D01*
X755301D01*
Y954091D01*
X738219D01*
Y950396D01*
X726091D01*
Y952821D01*
X709009D01*
Y949127D01*
X697090D01*
Y954050D01*
X679590D01*
Y950634D01*
X650992D01*
X649716Y950380D01*
X648634Y949658D01*
X637723Y938746D01*
X637000Y937664D01*
X636746Y936388D01*
Y923976D01*
X637000Y922701D01*
X637723Y921619D01*
X667156Y892186D01*
Y879314D01*
X677024D01*
Y896901D01*
X671871D01*
X646726Y922045D01*
X646791Y922389D01*
X649098Y923841D01*
X649141Y923830D01*
X651339D01*
X653463Y924399D01*
X655367Y925498D01*
X656922Y927053D01*
X657957Y928846D01*
X679590D01*
Y925550D01*
X685006D01*
Y896365D01*
X685260Y895089D01*
X685983Y894008D01*
X688099Y891891D01*
X688058Y891684D01*
Y884462D01*
X688420Y882643D01*
X689450Y881102D01*
X690992Y880071D01*
X692810Y879710D01*
X694629Y880071D01*
X696170Y881102D01*
X696357Y881382D01*
X698763D01*
X698950Y881102D01*
X700491Y880071D01*
X701417Y879887D01*
X702235Y879069D01*
X702259Y878947D01*
X702982Y877865D01*
X703643Y877204D01*
X702657Y875361D01*
X702310Y875430D01*
X700491Y875069D01*
X698950Y874038D01*
X698763Y873758D01*
X696357D01*
X696170Y874038D01*
X694629Y875069D01*
X692810Y875430D01*
X690992Y875069D01*
X689450Y874038D01*
X688420Y872497D01*
X688058Y870678D01*
Y863456D01*
X688420Y861637D01*
X689450Y860096D01*
X689476Y860078D01*
Y857740D01*
X677300D01*
Y854574D01*
X674230D01*
Y856510D01*
X661065D01*
X660299Y858358D01*
X662677Y860735D01*
X662940Y860683D01*
X664865Y861066D01*
X666497Y862156D01*
X667588Y863788D01*
X667971Y865714D01*
Y873432D01*
X667588Y875358D01*
X666497Y876990D01*
X664865Y878080D01*
X662940Y878463D01*
X661015Y878080D01*
X659383Y876990D01*
X658292Y875358D01*
X657909Y873432D01*
Y865714D01*
X657962Y865450D01*
X634453Y841941D01*
X633730Y840860D01*
X633476Y839584D01*
Y797560D01*
X579120D01*
Y730250D01*
X577850Y728980D01*
X457200D01*
Y984250D01*
X1629410D01*
Y728980D01*
D02*
G37*
G36*
X1990090Y645962D02*
X1988090Y645698D01*
X1987711Y647113D01*
X1986612Y649017D01*
X1985057Y650572D01*
X1983153Y651671D01*
X1981029Y652240D01*
X1978831D01*
X1976707Y651671D01*
X1974803Y650572D01*
X1973248Y649017D01*
X1972213Y647224D01*
X1949200D01*
X1947924Y646970D01*
X1946842Y646247D01*
X1930435Y629840D01*
X1916650D01*
Y619840D01*
X1932144D01*
X1933262Y617840D01*
X1932831Y617140D01*
X1916650D01*
Y607140D01*
X1935150D01*
Y608806D01*
X1935480D01*
X1936756Y609060D01*
X1937430Y609510D01*
X1939430Y608840D01*
Y602720D01*
X1944846D01*
Y554990D01*
X1942624D01*
Y590300D01*
X1942370Y591576D01*
X1941647Y592658D01*
X1935150Y599155D01*
Y604440D01*
X1916650D01*
Y594440D01*
X1928712D01*
X1928819Y594280D01*
X1927750Y592280D01*
X1927170D01*
Y586740D01*
Y581200D01*
X1935690D01*
X1935956Y579310D01*
Y554990D01*
X1907540D01*
Y592340D01*
X1912100D01*
Y619240D01*
X1907540D01*
Y664210D01*
X1896110Y675640D01*
X1889760Y669290D01*
X96520D01*
Y637282D01*
X94520Y636453D01*
X57186Y673788D01*
X56104Y674510D01*
X54828Y674764D01*
X44730D01*
Y685660D01*
X42584D01*
Y698640D01*
X46000D01*
Y716140D01*
X42584D01*
Y720509D01*
X65967Y743892D01*
X66690Y744974D01*
X66944Y746250D01*
Y752000D01*
X96340D01*
Y772000D01*
X82944D01*
Y832010D01*
X97610D01*
Y852010D01*
X61610D01*
Y832010D01*
X76276D01*
Y772000D01*
X60340D01*
Y755592D01*
X60276Y755270D01*
Y747631D01*
X36892Y724248D01*
X36170Y723166D01*
X35916Y721890D01*
Y716140D01*
X33316D01*
X31540Y716680D01*
X30724Y716680D01*
X25520D01*
Y707390D01*
Y698100D01*
X30724D01*
X31540Y698100D01*
X33316Y698640D01*
X35916D01*
Y685660D01*
X32046D01*
X30270Y686200D01*
X29454Y686200D01*
X24250D01*
Y676910D01*
Y667620D01*
X29454D01*
X30270Y667620D01*
X32046Y668160D01*
X41138D01*
X41460Y668096D01*
X53447D01*
X80425Y641118D01*
X79660Y639270D01*
X78160D01*
Y633730D01*
Y628190D01*
X86680D01*
Y632250D01*
X88528Y633015D01*
X90626Y630917D01*
Y624860D01*
X90690Y624538D01*
Y618808D01*
X88842Y618043D01*
X86140Y620745D01*
Y626030D01*
X67640D01*
Y620572D01*
X67204Y620140D01*
X65640Y619244D01*
X64916Y619388D01*
X58750D01*
Y626784D01*
X41250D01*
Y622974D01*
X27800D01*
Y626640D01*
X10300D01*
Y612640D01*
X10300D01*
Y611640D01*
X10300D01*
Y597640D01*
X27800D01*
Y601306D01*
X41250D01*
Y597784D01*
X46666D01*
Y593958D01*
X46920Y592682D01*
X47642Y591601D01*
X49350Y589893D01*
X48800Y587839D01*
Y586740D01*
X7620D01*
Y864870D01*
X452120D01*
Y725170D01*
X459740Y717550D01*
X463550Y721360D01*
X589280D01*
X593090Y725170D01*
Y784860D01*
X633476D01*
Y780740D01*
X633730Y779464D01*
X634453Y778382D01*
X648182Y764653D01*
X647068Y762987D01*
X645698Y759680D01*
X645000Y756170D01*
Y755650D01*
X661900D01*
Y772550D01*
X661380D01*
X657870Y771852D01*
X654563Y770482D01*
X652897Y769368D01*
X640144Y782121D01*
Y784860D01*
X686322D01*
X687087Y783012D01*
X673443Y769368D01*
X671777Y770482D01*
X668470Y771852D01*
X664960Y772550D01*
X664440D01*
Y755650D01*
X681340D01*
Y756170D01*
X680642Y759680D01*
X679272Y762987D01*
X678158Y764653D01*
X698365Y784860D01*
X764540D01*
X767080Y782320D01*
Y721360D01*
X1049297D01*
X1049490Y719440D01*
X1049490Y719360D01*
Y690440D01*
X1076490D01*
Y701516D01*
X1123853D01*
X1124888Y699723D01*
X1126443Y698168D01*
X1128347Y697069D01*
X1130471Y696500D01*
X1132669D01*
X1134793Y697069D01*
X1136697Y698168D01*
X1138252Y699723D01*
X1139351Y701627D01*
X1139920Y703751D01*
Y705949D01*
X1139351Y708073D01*
X1138252Y709977D01*
X1136697Y711532D01*
X1134793Y712631D01*
X1132669Y713200D01*
X1130471D01*
X1128347Y712631D01*
X1126443Y711532D01*
X1124888Y709977D01*
X1123853Y708184D01*
X1076490D01*
Y719360D01*
X1076490Y719440D01*
X1076683Y721360D01*
X1657350D01*
Y895350D01*
X1990090D01*
Y645962D01*
D02*
G37*
G36*
X1498268Y650193D02*
X1499823Y648638D01*
X1501727Y647539D01*
X1503851Y646970D01*
X1506049D01*
X1508173Y647539D01*
X1510077Y648638D01*
X1510570Y649131D01*
X1512570Y648303D01*
Y622704D01*
X1512515Y622672D01*
X1510746Y620903D01*
X1509495Y618737D01*
X1508848Y616321D01*
Y613819D01*
X1509495Y611403D01*
X1510746Y609237D01*
X1512515Y607468D01*
X1512570Y607436D01*
Y511334D01*
X1474679D01*
X1473403Y511080D01*
X1473163Y510920D01*
X1471343Y511971D01*
X1469219Y512540D01*
X1467021D01*
X1464897Y511971D01*
X1462993Y510872D01*
X1461438Y509317D01*
X1460339Y507413D01*
X1459770Y505289D01*
Y503091D01*
X1460339Y500967D01*
X1461438Y499063D01*
X1462993Y497508D01*
X1464897Y496409D01*
X1467021Y495840D01*
X1469219D01*
X1471343Y496409D01*
X1473247Y497508D01*
X1474802Y499063D01*
X1475901Y500967D01*
X1476470Y503091D01*
Y504666D01*
X1512570D01*
Y485934D01*
X1451070D01*
Y487509D01*
X1450501Y489633D01*
X1449402Y491537D01*
X1447847Y493092D01*
X1445943Y494191D01*
X1443819Y494760D01*
X1441621D01*
X1439497Y494191D01*
X1437593Y493092D01*
X1436038Y491537D01*
X1434939Y489633D01*
X1434370Y487509D01*
Y485311D01*
X1434939Y483187D01*
X1436038Y481283D01*
X1437593Y479728D01*
X1439497Y478629D01*
X1441621Y478060D01*
X1443819D01*
X1445943Y478629D01*
X1447763Y479680D01*
X1448003Y479520D01*
X1449279Y479266D01*
X1512570D01*
Y414814D01*
X1249791D01*
X1242254Y422351D01*
X1242790Y424351D01*
Y426549D01*
X1242221Y428673D01*
X1241122Y430577D01*
X1239567Y432132D01*
X1237663Y433231D01*
X1235539Y433800D01*
X1233341D01*
X1231217Y433231D01*
X1229313Y432132D01*
X1227758Y430577D01*
X1226659Y428673D01*
X1226090Y426549D01*
Y424351D01*
X1226659Y422227D01*
X1227758Y420323D01*
X1229313Y418768D01*
X1231217Y417669D01*
X1233341Y417100D01*
X1235539D01*
X1237539Y417636D01*
X1243593Y411582D01*
X1242828Y409734D01*
X643987D01*
X642952Y411527D01*
X641397Y413082D01*
X639493Y414181D01*
X637369Y414750D01*
X635171D01*
X633047Y414181D01*
X631143Y413082D01*
X629588Y411527D01*
X628489Y409623D01*
X627920Y407499D01*
Y405301D01*
X628489Y403177D01*
X629588Y401273D01*
X631143Y399718D01*
X633047Y398619D01*
X635171Y398050D01*
X637369D01*
X639493Y398619D01*
X641397Y399718D01*
X642952Y401273D01*
X643987Y403066D01*
X1367497D01*
X1382668Y387895D01*
X1382495Y387597D01*
X1381848Y385181D01*
Y382679D01*
X1382495Y380263D01*
X1383746Y378097D01*
X1385515Y376328D01*
X1387681Y375077D01*
X1390097Y374430D01*
X1392599D01*
X1395015Y375077D01*
X1397181Y376328D01*
X1398950Y378097D01*
X1400201Y380263D01*
X1400848Y382679D01*
Y385181D01*
X1400201Y387597D01*
X1398950Y389763D01*
X1397181Y391532D01*
X1395015Y392783D01*
X1392599Y393430D01*
X1390097D01*
X1387681Y392783D01*
X1387383Y392610D01*
X1373695Y406298D01*
X1374460Y408146D01*
X1512570D01*
Y394104D01*
X1512515Y394072D01*
X1510746Y392303D01*
X1509495Y390137D01*
X1508848Y387721D01*
Y385219D01*
X1509495Y382803D01*
X1510746Y380637D01*
X1512515Y378868D01*
X1512570Y378836D01*
Y325914D01*
X939615D01*
X937971Y327558D01*
X938737Y329406D01*
X1363018D01*
X1364294Y329660D01*
X1365376Y330382D01*
X1412783Y377790D01*
X1413081Y377617D01*
X1415497Y376970D01*
X1417999D01*
X1420415Y377617D01*
X1422581Y378868D01*
X1424350Y380637D01*
X1425600Y382803D01*
X1426248Y385219D01*
Y387721D01*
X1425600Y390137D01*
X1424350Y392303D01*
X1422581Y394072D01*
X1420415Y395323D01*
X1417999Y395970D01*
X1415497D01*
X1413081Y395323D01*
X1410915Y394072D01*
X1409146Y392303D01*
X1407895Y390137D01*
X1407248Y387721D01*
Y385219D01*
X1407895Y382803D01*
X1408068Y382505D01*
X1361637Y336074D01*
X935876D01*
X930533Y341418D01*
X929451Y342140D01*
X928175Y342394D01*
X905705D01*
X904429Y342140D01*
X903347Y341418D01*
X898004Y336074D01*
X613521D01*
X595824Y353771D01*
X596360Y355771D01*
Y357969D01*
X595791Y360093D01*
X594692Y361997D01*
X593137Y363552D01*
X591233Y364651D01*
X589109Y365220D01*
X586911D01*
X584787Y364651D01*
X582883Y363552D01*
X581328Y361997D01*
X580229Y360093D01*
X579660Y357969D01*
Y355771D01*
X580229Y353647D01*
X581328Y351743D01*
X582883Y350188D01*
X584787Y349089D01*
X586911Y348520D01*
X589109D01*
X591109Y349056D01*
X609782Y330382D01*
X610864Y329660D01*
X612140Y329406D01*
X895143D01*
X895909Y327558D01*
X894265Y325914D01*
X445881D01*
X437074Y334721D01*
X437610Y336721D01*
Y338919D01*
X437041Y341043D01*
X435942Y342947D01*
X434387Y344502D01*
X432483Y345601D01*
X430359Y346170D01*
X428161D01*
X426037Y345601D01*
X424133Y344502D01*
X422578Y342947D01*
X421479Y341043D01*
X420910Y338919D01*
Y336721D01*
X421479Y334597D01*
X422578Y332693D01*
X424133Y331138D01*
X426037Y330039D01*
X428161Y329470D01*
X430359D01*
X432359Y330006D01*
X442142Y320223D01*
X443224Y319500D01*
X444500Y319246D01*
X895646D01*
X896921Y319500D01*
X898003Y320223D01*
X904552Y326772D01*
X906400Y326006D01*
Y315020D01*
X916940D01*
X927480D01*
Y326006D01*
X929328Y326772D01*
X935877Y320223D01*
X936959Y319500D01*
X938234Y319246D01*
X941753D01*
X942793Y317246D01*
X942179Y316183D01*
X941610Y314059D01*
Y311861D01*
X942179Y309737D01*
X943278Y307833D01*
X944833Y306278D01*
X946737Y305179D01*
X948861Y304610D01*
X951059D01*
X953183Y305179D01*
X955087Y306278D01*
X956491Y307682D01*
X957603D01*
X959197Y306087D01*
X959239Y306060D01*
X959220Y304060D01*
X959220Y304060D01*
Y296290D01*
X969010D01*
X978800D01*
Y304060D01*
X980365Y305111D01*
X990521D01*
Y299205D01*
X990715Y298232D01*
X991266Y297406D01*
X992092Y296855D01*
X993065Y296661D01*
X996575D01*
X997837Y295108D01*
X997460Y293108D01*
X995591D01*
X994627Y292917D01*
X993810Y292370D01*
X993263Y291553D01*
X993072Y290589D01*
Y284734D01*
X980284D01*
X978800Y285980D01*
Y293750D01*
X969010D01*
X959220D01*
Y285980D01*
X959760D01*
Y275235D01*
X945609Y261084D01*
X926940D01*
Y277250D01*
X906940D01*
Y238250D01*
X926940D01*
Y254416D01*
X946990D01*
X948266Y254670D01*
X949348Y255392D01*
X964475Y270520D01*
X978260D01*
Y278066D01*
X993072D01*
Y275831D01*
X993263Y274867D01*
X993810Y274049D01*
X994627Y273503D01*
X995591Y273312D01*
X1013549D01*
X1014513Y273503D01*
X1014908Y273767D01*
X1019166D01*
X1045615Y247318D01*
X1044850Y245470D01*
X1033790D01*
Y245470D01*
X1032850Y244520D01*
X1017757D01*
X1017011Y246520D01*
X1017400Y247102D01*
X1017654Y248378D01*
Y254759D01*
X1017874Y254906D01*
X1018425Y255732D01*
X1018619Y256705D01*
Y267215D01*
X1018425Y268188D01*
X1017874Y269014D01*
X1017048Y269565D01*
X1016075Y269759D01*
X1012565D01*
X1011591Y269565D01*
X1011070Y269217D01*
X1010548Y269565D01*
X1009575Y269759D01*
X1006065D01*
X1005091Y269565D01*
X1004570Y269217D01*
X1004048Y269565D01*
X1003075Y269759D01*
X999565D01*
X998592Y269565D01*
X998070Y269217D01*
X997549Y269565D01*
X996575Y269759D01*
X993065D01*
X992092Y269565D01*
X991266Y269014D01*
X990715Y268188D01*
X990521Y267215D01*
Y258876D01*
X975423Y243778D01*
X974700Y242696D01*
X974446Y241420D01*
Y239230D01*
X962050D01*
Y222270D01*
X962050Y222230D01*
X961954Y220270D01*
X961510D01*
Y212500D01*
X971550D01*
X981590D01*
Y220270D01*
X981146D01*
X981050Y222230D01*
X981050Y222270D01*
Y235638D01*
X981114Y235960D01*
Y240039D01*
X983268Y242193D01*
X985180Y241276D01*
Y228980D01*
X1006180D01*
Y228980D01*
X1008070Y228713D01*
X1011786Y224997D01*
Y212250D01*
X1011850Y211928D01*
Y202520D01*
X1032850D01*
Y215520D01*
X1018454D01*
Y226378D01*
X1018200Y227654D01*
X1017477Y228736D01*
X1016541Y229672D01*
X1017306Y231520D01*
X1032850D01*
X1033790Y229909D01*
Y226970D01*
X1066790D01*
Y245470D01*
X1056219D01*
X1056140Y245864D01*
X1055417Y246946D01*
X1022905Y279459D01*
X1021823Y280181D01*
X1020547Y280435D01*
X1016068D01*
Y290589D01*
X1015877Y291553D01*
X1015331Y292370D01*
X1014513Y292917D01*
X1013549Y293108D01*
X1006220D01*
X1005659Y294279D01*
X1006550Y295582D01*
Y304460D01*
Y312810D01*
X1006065D01*
X1004881Y312574D01*
X1004084Y312041D01*
X1004048Y312065D01*
X1003075Y312259D01*
X999565D01*
X998592Y312065D01*
X998070Y311717D01*
X997549Y312065D01*
X996575Y312259D01*
X993065D01*
X992092Y312065D01*
X991663Y311779D01*
X962936D01*
X961341Y313374D01*
X960260Y314096D01*
X958984Y314350D01*
X958232D01*
X957741Y316183D01*
X957127Y317246D01*
X958167Y319246D01*
X1512570D01*
Y297180D01*
X1853406D01*
Y280090D01*
X1853309Y280064D01*
X1851281Y278894D01*
X1849626Y277239D01*
X1848456Y275211D01*
X1847877Y273050D01*
X1865603D01*
X1865024Y275211D01*
X1863854Y277239D01*
X1862199Y278894D01*
X1860171Y280064D01*
X1860074Y280090D01*
Y297180D01*
X1878330D01*
Y292100D01*
X1879144Y291286D01*
Y4604D01*
X111760D01*
Y599516D01*
X113760Y600345D01*
X115555Y598550D01*
X116636Y597828D01*
X117912Y597574D01*
X120481D01*
X122140Y595915D01*
Y590630D01*
X140640D01*
Y600630D01*
X128030D01*
X127530Y601330D01*
X128560Y603330D01*
X140640D01*
Y604996D01*
X146445D01*
X160528Y590913D01*
X161610Y590190D01*
X162886Y589936D01*
X274053D01*
X274882Y587936D01*
X274700Y587754D01*
X273252Y585246D01*
X272502Y582448D01*
Y579552D01*
X273252Y576754D01*
X274700Y574246D01*
X276748Y572198D01*
X279256Y570750D01*
X282054Y570000D01*
X284950D01*
X287748Y570750D01*
X290256Y572198D01*
X292304Y574246D01*
X293752Y576754D01*
X294502Y579552D01*
Y582448D01*
X293752Y585246D01*
X292304Y587754D01*
X292122Y587936D01*
X292951Y589936D01*
X408649D01*
X428173Y570412D01*
X429254Y569690D01*
X430530Y569436D01*
X683163D01*
X684198Y567643D01*
X685753Y566088D01*
X687657Y564989D01*
X689781Y564420D01*
X691979D01*
X694103Y564989D01*
X696007Y566088D01*
X697562Y567643D01*
X698661Y569547D01*
X699230Y571671D01*
Y573869D01*
X698661Y575993D01*
X697562Y577897D01*
X696007Y579452D01*
X694103Y580551D01*
X691979Y581120D01*
X689781D01*
X687657Y580551D01*
X685753Y579452D01*
X684198Y577897D01*
X683163Y576104D01*
X431911D01*
X412388Y595628D01*
X411306Y596350D01*
X410030Y596604D01*
X164266D01*
X153398Y607472D01*
X154164Y609320D01*
X164960D01*
Y612736D01*
X198660D01*
Y611041D01*
X199229Y608917D01*
X200328Y607013D01*
X201883Y605458D01*
X203787Y604359D01*
X205911Y603790D01*
X208109D01*
X210233Y604359D01*
X212137Y605458D01*
X213692Y607013D01*
X214791Y608917D01*
X215360Y611041D01*
Y613239D01*
X214791Y615363D01*
X213692Y617267D01*
X212137Y618822D01*
X210233Y619921D01*
X208109Y620490D01*
X205911D01*
X203787Y619921D01*
X201999Y618888D01*
X201607Y619150D01*
X200331Y619404D01*
X164960D01*
Y622820D01*
X165500Y623780D01*
X165500D01*
Y629800D01*
X156210D01*
X146920D01*
Y623780D01*
X146920D01*
X147460Y622820D01*
Y611664D01*
X140640D01*
Y613330D01*
X122140D01*
Y604470D01*
X121862Y604242D01*
X119293D01*
X117590Y605945D01*
Y623036D01*
X119590Y623865D01*
X122140Y621315D01*
Y616030D01*
X140640D01*
Y626030D01*
X128578D01*
X128471Y626190D01*
X129540Y628190D01*
X130120D01*
Y633730D01*
X131390D01*
Y635000D01*
X141180D01*
Y637206D01*
X146920D01*
Y632340D01*
X156210D01*
X165500D01*
Y637206D01*
X1025872D01*
X1035508Y627570D01*
X1034679Y625570D01*
X1034477D01*
X1032061Y624922D01*
X1029895Y623672D01*
X1028126Y621903D01*
X1026875Y619737D01*
X1026228Y617321D01*
Y614819D01*
X1026875Y612403D01*
X1028126Y610237D01*
X1029895Y608468D01*
X1032061Y607217D01*
X1034477Y606570D01*
X1036979D01*
X1039395Y607217D01*
X1041561Y608468D01*
X1041704Y608611D01*
X1043704Y607783D01*
Y607232D01*
X1043958Y605956D01*
X1044680Y604874D01*
X1049692Y599863D01*
X1050774Y599140D01*
X1052050Y598886D01*
X1212643D01*
X1213919Y599140D01*
X1215001Y599863D01*
X1227448Y612310D01*
X1229448Y611481D01*
Y611279D01*
X1230095Y608863D01*
X1231346Y606697D01*
X1233115Y604928D01*
X1235281Y603677D01*
X1237697Y603030D01*
X1240199D01*
X1242615Y603677D01*
X1244781Y604928D01*
X1246550Y606697D01*
X1247801Y608863D01*
X1248448Y611279D01*
Y613781D01*
X1247801Y616197D01*
X1246550Y618363D01*
X1244781Y620132D01*
X1242615Y621383D01*
X1240199Y622030D01*
X1239997D01*
X1239168Y624030D01*
X1267124Y651986D01*
X1497233D01*
X1498268Y650193D01*
D02*
G37*
%LPC*%
G36*
X552600Y951990D02*
X544830D01*
Y945220D01*
X552600D01*
Y951990D01*
D02*
G37*
G36*
X542290D02*
X534520D01*
Y945220D01*
X542290D01*
Y951990D01*
D02*
G37*
G36*
X858967Y954110D02*
X858520D01*
Y942340D01*
X870290D01*
Y942787D01*
X869401Y946103D01*
X867685Y949077D01*
X865257Y951505D01*
X862283Y953221D01*
X858967Y954110D01*
D02*
G37*
G36*
X855980D02*
X855533D01*
X852217Y953221D01*
X849243Y951505D01*
X846815Y949077D01*
X845099Y946103D01*
X844210Y942787D01*
Y942340D01*
X855980D01*
Y954110D01*
D02*
G37*
G36*
X1254878Y947800D02*
X1254760D01*
Y938530D01*
X1264030D01*
Y938648D01*
X1263312Y941328D01*
X1261924Y943732D01*
X1259962Y945694D01*
X1257558Y947082D01*
X1254878Y947800D01*
D02*
G37*
G36*
X1252220D02*
X1252102D01*
X1249422Y947082D01*
X1247018Y945694D01*
X1245056Y943732D01*
X1243668Y941328D01*
X1242950Y938648D01*
Y938530D01*
X1252220D01*
Y947800D01*
D02*
G37*
G36*
X1409818Y946530D02*
X1409700D01*
Y937260D01*
X1418970D01*
Y937378D01*
X1418252Y940058D01*
X1416864Y942462D01*
X1414902Y944424D01*
X1412498Y945812D01*
X1409818Y946530D01*
D02*
G37*
G36*
X1407160D02*
X1407042D01*
X1404362Y945812D01*
X1401958Y944424D01*
X1399996Y942462D01*
X1398608Y940058D01*
X1397890Y937378D01*
Y937260D01*
X1407160D01*
Y946530D01*
D02*
G37*
G36*
X552600Y942680D02*
X544830D01*
Y935910D01*
X552600D01*
Y942680D01*
D02*
G37*
G36*
X542290D02*
X534520D01*
Y935910D01*
X542290D01*
Y942680D01*
D02*
G37*
G36*
X870290Y939800D02*
X858520D01*
Y928030D01*
X858967D01*
X862283Y928919D01*
X865257Y930635D01*
X867685Y933063D01*
X869401Y936037D01*
X870290Y939353D01*
Y939800D01*
D02*
G37*
G36*
X855980D02*
X844210D01*
Y939353D01*
X845099Y936037D01*
X846815Y933063D01*
X849243Y930635D01*
X852217Y928919D01*
X855533Y928030D01*
X855980D01*
Y939800D01*
D02*
G37*
G36*
X1229407Y947260D02*
X1226774D01*
X1224230Y946579D01*
X1221950Y945262D01*
X1220088Y943400D01*
X1218772Y941120D01*
X1218090Y938577D01*
Y935944D01*
X1218772Y933400D01*
X1220088Y931120D01*
X1221950Y929258D01*
X1224230Y927942D01*
X1226774Y927260D01*
X1229407D01*
X1231950Y927942D01*
X1234230Y929258D01*
X1236092Y931120D01*
X1237409Y933400D01*
X1238090Y935944D01*
Y938577D01*
X1237409Y941120D01*
X1236092Y943400D01*
X1234230Y945262D01*
X1231950Y946579D01*
X1229407Y947260D01*
D02*
G37*
G36*
X1282890Y947377D02*
X1274890D01*
X1272549Y946912D01*
X1270564Y945586D01*
X1269238Y943601D01*
X1268773Y941260D01*
Y933260D01*
X1269238Y930919D01*
X1270564Y928934D01*
X1272549Y927608D01*
X1274890Y927142D01*
X1282890D01*
X1285231Y927608D01*
X1287216Y928934D01*
X1288542Y930919D01*
X1289008Y933260D01*
Y941260D01*
X1288542Y943601D01*
X1287216Y945586D01*
X1285231Y946912D01*
X1282890Y947377D01*
D02*
G37*
G36*
X1264030Y935990D02*
X1254760D01*
Y926720D01*
X1254878D01*
X1257558Y927438D01*
X1259962Y928826D01*
X1261924Y930788D01*
X1263312Y933192D01*
X1264030Y935872D01*
Y935990D01*
D02*
G37*
G36*
X1252220D02*
X1242950D01*
Y935872D01*
X1243668Y933192D01*
X1245056Y930788D01*
X1247018Y928826D01*
X1249422Y927438D01*
X1252102Y926720D01*
X1252220D01*
Y935990D01*
D02*
G37*
G36*
X1384346Y945990D02*
X1381714D01*
X1379170Y945309D01*
X1376890Y943992D01*
X1375028Y942130D01*
X1373712Y939850D01*
X1373030Y937307D01*
Y934673D01*
X1373712Y932130D01*
X1375028Y929850D01*
X1376890Y927988D01*
X1379170Y926672D01*
X1381714Y925990D01*
X1384346D01*
X1386890Y926672D01*
X1389170Y927988D01*
X1391032Y929850D01*
X1392348Y932130D01*
X1393030Y934673D01*
Y937307D01*
X1392348Y939850D01*
X1391032Y942130D01*
X1389170Y943992D01*
X1386890Y945309D01*
X1384346Y945990D01*
D02*
G37*
G36*
X1358947D02*
X1356313D01*
X1353770Y945309D01*
X1351490Y943992D01*
X1349628Y942130D01*
X1348311Y939850D01*
X1347630Y937307D01*
Y934673D01*
X1348311Y932130D01*
X1349628Y929850D01*
X1351490Y927988D01*
X1353770Y926672D01*
X1356313Y925990D01*
X1358947D01*
X1361490Y926672D01*
X1363770Y927988D01*
X1365632Y929850D01*
X1366949Y932130D01*
X1367630Y934673D01*
Y937307D01*
X1366949Y939850D01*
X1365632Y942130D01*
X1363770Y943992D01*
X1361490Y945309D01*
X1358947Y945990D01*
D02*
G37*
G36*
X1437830Y946107D02*
X1429830D01*
X1427489Y945642D01*
X1425504Y944316D01*
X1424178Y942331D01*
X1423712Y939990D01*
Y931990D01*
X1424178Y929649D01*
X1425504Y927664D01*
X1427489Y926338D01*
X1429830Y925872D01*
X1437830D01*
X1440171Y926338D01*
X1442156Y927664D01*
X1443482Y929649D01*
X1443947Y931990D01*
Y939990D01*
X1443482Y942331D01*
X1442156Y944316D01*
X1440171Y945642D01*
X1437830Y946107D01*
D02*
G37*
G36*
X1418970Y934720D02*
X1409700D01*
Y925450D01*
X1409818D01*
X1412498Y926168D01*
X1414902Y927556D01*
X1416864Y929518D01*
X1418252Y931922D01*
X1418970Y934602D01*
Y934720D01*
D02*
G37*
G36*
X1407160D02*
X1397890D01*
Y934602D01*
X1398608Y931922D01*
X1399996Y929518D01*
X1401958Y927556D01*
X1404362Y926168D01*
X1407042Y925450D01*
X1407160D01*
Y934720D01*
D02*
G37*
G36*
X804542Y908981D02*
X796999D01*
Y900430D01*
X804542D01*
Y908981D01*
D02*
G37*
G36*
Y897890D02*
X796999D01*
Y889339D01*
X804542D01*
Y897890D01*
D02*
G37*
G36*
X792230Y917730D02*
X780960D01*
Y886460D01*
X792230D01*
Y917730D01*
D02*
G37*
G36*
X778420D02*
X767150D01*
Y886460D01*
X778420D01*
Y917730D01*
D02*
G37*
G36*
X609893Y948055D02*
X606767D01*
X603699Y947445D01*
X600810Y946248D01*
X598210Y944511D01*
X595999Y942300D01*
X594262Y939700D01*
X593065Y936811D01*
X592455Y933744D01*
Y930617D01*
X593065Y927549D01*
X594262Y924660D01*
X595999Y922060D01*
X598210Y919849D01*
X600810Y918112D01*
X603699Y916915D01*
X606767Y916305D01*
X609893D01*
X612961Y916915D01*
X615850Y918112D01*
X618450Y919849D01*
X619371Y920770D01*
X648759Y891382D01*
Y884248D01*
X649142Y882322D01*
X650233Y880690D01*
X651865Y879600D01*
X653790Y879217D01*
X655715Y879600D01*
X657347Y880690D01*
X658438Y882322D01*
X658821Y884248D01*
Y891966D01*
X658438Y893892D01*
X657347Y895524D01*
X655715Y896614D01*
X653790Y896997D01*
X652775Y896796D01*
X623134Y926437D01*
X623595Y927549D01*
X624205Y930617D01*
Y933744D01*
X623595Y936811D01*
X622398Y939700D01*
X620661Y942300D01*
X618450Y944511D01*
X615850Y946248D01*
X612961Y947445D01*
X609893Y948055D01*
D02*
G37*
G36*
X804542Y878501D02*
X796999D01*
Y869950D01*
X804542D01*
Y878501D01*
D02*
G37*
G36*
X609893Y901055D02*
X606767D01*
X603699Y900445D01*
X600810Y899248D01*
X598210Y897511D01*
X595999Y895300D01*
X594262Y892700D01*
X593065Y889811D01*
X592455Y886743D01*
Y883616D01*
X593065Y880549D01*
X594262Y877660D01*
X595999Y875060D01*
X598210Y872849D01*
X600810Y871112D01*
X603699Y869915D01*
X606767Y869305D01*
X609893D01*
X612961Y869915D01*
X615850Y871112D01*
X618450Y872849D01*
X620661Y875060D01*
X622398Y877660D01*
X623595Y880549D01*
X624205Y883616D01*
Y886743D01*
X623595Y889811D01*
X622398Y892700D01*
X620661Y895300D01*
X618450Y897511D01*
X615850Y899248D01*
X612961Y900445D01*
X609893Y901055D01*
D02*
G37*
G36*
X552060Y930450D02*
X535060D01*
Y915450D01*
X540226D01*
Y909970D01*
X534810D01*
Y896970D01*
X534810Y895470D01*
X534810Y893970D01*
Y880970D01*
X540226D01*
Y875127D01*
X538433Y874092D01*
X536878Y872537D01*
X535779Y870633D01*
X535210Y868509D01*
Y866311D01*
X535779Y864187D01*
X536878Y862283D01*
X538433Y860728D01*
X540337Y859629D01*
X542461Y859060D01*
X544659D01*
X546783Y859629D01*
X548687Y860728D01*
X550242Y862283D01*
X551341Y864187D01*
X551910Y866311D01*
Y868509D01*
X551341Y870633D01*
X550242Y872537D01*
X548687Y874092D01*
X546894Y875127D01*
Y880970D01*
X552310D01*
Y893970D01*
X552310Y895470D01*
X552310Y896970D01*
Y909970D01*
X546894D01*
Y915450D01*
X552060D01*
Y930450D01*
D02*
G37*
G36*
X804542Y867410D02*
X796999D01*
Y858859D01*
X804542D01*
Y867410D01*
D02*
G37*
G36*
X792230Y883920D02*
X780960D01*
Y852650D01*
X792230D01*
Y883920D01*
D02*
G37*
G36*
X778420D02*
X767150D01*
Y852650D01*
X778420D01*
Y883920D01*
D02*
G37*
G36*
X664210Y832990D02*
X656190D01*
Y826970D01*
X664210D01*
Y832990D01*
D02*
G37*
G36*
X624205Y854055D02*
X592455D01*
Y822305D01*
X624205D01*
Y854055D01*
D02*
G37*
G36*
X1441826Y826570D02*
X1438534D01*
X1435355Y825718D01*
X1432505Y824072D01*
X1430177Y821745D01*
X1428532Y818895D01*
X1427680Y815716D01*
Y812424D01*
X1428532Y809245D01*
X1430177Y806395D01*
X1432505Y804068D01*
X1435355Y802422D01*
X1438534Y801570D01*
X1441826D01*
X1445005Y802422D01*
X1447855Y804068D01*
X1450182Y806395D01*
X1451828Y809245D01*
X1452680Y812424D01*
Y815716D01*
X1451828Y818895D01*
X1450182Y821745D01*
X1447855Y824072D01*
X1445005Y825718D01*
X1441826Y826570D01*
D02*
G37*
G36*
X1493896Y825300D02*
X1490604D01*
X1487425Y824448D01*
X1484575Y822803D01*
X1482247Y820475D01*
X1480602Y817625D01*
X1479750Y814446D01*
Y811154D01*
X1480602Y807975D01*
X1482247Y805125D01*
X1484575Y802797D01*
X1487425Y801152D01*
X1490604Y800300D01*
X1493896D01*
X1497075Y801152D01*
X1499925Y802797D01*
X1502253Y805125D01*
X1503898Y807975D01*
X1504750Y811154D01*
Y814446D01*
X1503898Y817625D01*
X1502253Y820475D01*
X1499925Y822803D01*
X1497075Y824448D01*
X1493896Y825300D01*
D02*
G37*
G36*
X1549776Y824030D02*
X1546484D01*
X1543305Y823178D01*
X1540455Y821533D01*
X1538127Y819205D01*
X1536482Y816355D01*
X1535630Y813176D01*
Y809884D01*
X1536482Y806705D01*
X1538127Y803855D01*
X1540455Y801527D01*
X1543305Y799882D01*
X1546484Y799030D01*
X1549776D01*
X1552955Y799882D01*
X1555805Y801527D01*
X1558132Y803855D01*
X1559778Y806705D01*
X1560630Y809884D01*
Y813176D01*
X1559778Y816355D01*
X1558132Y819205D01*
X1555805Y821533D01*
X1552955Y823178D01*
X1549776Y824030D01*
D02*
G37*
G36*
X1077030Y762980D02*
X1064260D01*
Y749210D01*
X1077030D01*
Y762980D01*
D02*
G37*
G36*
X1061720D02*
X1048950D01*
Y749210D01*
X1061720D01*
Y762980D01*
D02*
G37*
G36*
X537906Y772010D02*
X534434D01*
X531027Y771332D01*
X527819Y770004D01*
X524931Y768074D01*
X522476Y765619D01*
X520546Y762731D01*
X519217Y759522D01*
X518540Y756116D01*
Y752644D01*
X519217Y749238D01*
X520546Y746029D01*
X522476Y743141D01*
X524931Y740686D01*
X527819Y738756D01*
X531027Y737428D01*
X534434Y736750D01*
X537906D01*
X541312Y737428D01*
X544521Y738756D01*
X547408Y740686D01*
X549864Y743141D01*
X551794Y746029D01*
X553122Y749238D01*
X553800Y752644D01*
Y756116D01*
X553122Y759522D01*
X551794Y762731D01*
X549864Y765619D01*
X547408Y768074D01*
X544521Y770004D01*
X541312Y771332D01*
X537906Y772010D01*
D02*
G37*
G36*
X1077030Y746670D02*
X1064260D01*
Y732900D01*
X1077030D01*
Y746670D01*
D02*
G37*
G36*
X1061720D02*
X1048950D01*
Y732900D01*
X1061720D01*
Y746670D01*
D02*
G37*
G36*
X1936640Y857630D02*
X1919370D01*
Y848360D01*
X1936640D01*
Y857630D01*
D02*
G37*
G36*
X1916830D02*
X1899560D01*
Y848360D01*
X1916830D01*
Y857630D01*
D02*
G37*
G36*
X48150Y852550D02*
X30880D01*
Y843280D01*
X48150D01*
Y852550D01*
D02*
G37*
G36*
X28340D02*
X11070D01*
Y843280D01*
X28340D01*
Y852550D01*
D02*
G37*
G36*
X1936640Y845820D02*
X1919370D01*
Y836550D01*
X1936640D01*
Y845820D01*
D02*
G37*
G36*
X1916830D02*
X1899560D01*
Y836550D01*
X1916830D01*
Y845820D01*
D02*
G37*
G36*
X48150Y840740D02*
X30880D01*
Y831470D01*
X48150D01*
Y840740D01*
D02*
G37*
G36*
X28340D02*
X11070D01*
Y831470D01*
X28340D01*
Y840740D01*
D02*
G37*
G36*
X335727Y833460D02*
X335280D01*
Y821690D01*
X347050D01*
Y822137D01*
X346161Y825453D01*
X344445Y828427D01*
X342017Y830855D01*
X339043Y832571D01*
X335727Y833460D01*
D02*
G37*
G36*
X332740D02*
X332293D01*
X328977Y832571D01*
X326003Y830855D01*
X323575Y828427D01*
X321859Y825453D01*
X320970Y822137D01*
Y821690D01*
X332740D01*
Y833460D01*
D02*
G37*
G36*
X347050Y819150D02*
X335280D01*
Y807380D01*
X335727D01*
X339043Y808269D01*
X342017Y809985D01*
X344445Y812413D01*
X346161Y815387D01*
X347050Y818703D01*
Y819150D01*
D02*
G37*
G36*
X332740D02*
X320970D01*
Y818703D01*
X321859Y815387D01*
X323575Y812413D01*
X326003Y809985D01*
X328977Y808269D01*
X332293Y807380D01*
X332740D01*
Y819150D01*
D02*
G37*
G36*
X1935370Y780160D02*
X1918100D01*
Y770890D01*
X1935370D01*
Y780160D01*
D02*
G37*
G36*
X1915560D02*
X1898290D01*
Y770890D01*
X1915560D01*
Y780160D01*
D02*
G37*
G36*
X440840Y770380D02*
X433070D01*
Y763610D01*
X440840D01*
Y770380D01*
D02*
G37*
G36*
X430530D02*
X422760D01*
Y763610D01*
X430530D01*
Y770380D01*
D02*
G37*
G36*
X46880Y772540D02*
X29610D01*
Y763270D01*
X46880D01*
Y772540D01*
D02*
G37*
G36*
X27070D02*
X9800D01*
Y763270D01*
X27070D01*
Y772540D01*
D02*
G37*
G36*
X1935370Y768350D02*
X1918100D01*
Y759080D01*
X1935370D01*
Y768350D01*
D02*
G37*
G36*
X1915560D02*
X1898290D01*
Y759080D01*
X1915560D01*
Y768350D01*
D02*
G37*
G36*
X440840Y761070D02*
X433070D01*
Y754300D01*
X440840D01*
Y761070D01*
D02*
G37*
G36*
X430530D02*
X422760D01*
Y754300D01*
X430530D01*
Y761070D01*
D02*
G37*
G36*
X46880Y760730D02*
X29610D01*
Y751460D01*
X46880D01*
Y760730D01*
D02*
G37*
G36*
X27070D02*
X9800D01*
Y751460D01*
X27070D01*
Y760730D01*
D02*
G37*
G36*
X681340Y753110D02*
X664440D01*
Y736210D01*
X664960D01*
X668470Y736908D01*
X671777Y738278D01*
X674753Y740266D01*
X677284Y742797D01*
X679272Y745773D01*
X680642Y749080D01*
X681340Y752590D01*
Y753110D01*
D02*
G37*
G36*
X661900D02*
X645000D01*
Y752590D01*
X645698Y749080D01*
X647068Y745773D01*
X649056Y742797D01*
X651587Y740266D01*
X654563Y738278D01*
X657870Y736908D01*
X661380Y736210D01*
X661900D01*
Y753110D01*
D02*
G37*
G36*
X1894669Y889730D02*
X1892471D01*
X1890347Y889161D01*
X1888443Y888062D01*
X1886888Y886507D01*
X1885789Y884603D01*
X1885220Y882479D01*
Y880281D01*
X1885789Y878157D01*
X1886888Y876253D01*
X1888443Y874698D01*
X1890347Y873599D01*
X1892471Y873030D01*
X1894669D01*
X1896793Y873599D01*
X1898697Y874698D01*
X1900252Y876253D01*
X1901287Y878046D01*
X1924429D01*
X1950100Y852375D01*
Y837090D01*
X1964766D01*
Y779620D01*
X1948830D01*
Y759620D01*
X1972666D01*
Y717410D01*
X1970066D01*
X1968290Y717950D01*
X1967474Y717950D01*
X1962270D01*
Y708660D01*
Y699370D01*
X1967474D01*
X1968290Y699370D01*
X1970066Y699910D01*
X1972666D01*
Y686930D01*
X1969946D01*
X1968170Y687470D01*
X1967354Y687470D01*
X1962150D01*
Y678180D01*
Y668890D01*
X1967354D01*
X1968170Y668890D01*
X1969946Y669430D01*
X1982630D01*
Y686930D01*
X1979334D01*
Y699910D01*
X1982750D01*
Y717410D01*
X1979334D01*
Y759620D01*
X1984830D01*
Y779620D01*
X1971434D01*
Y837090D01*
X1986100D01*
Y857090D01*
X1954815D01*
X1928168Y883737D01*
X1927086Y884460D01*
X1925810Y884714D01*
X1901287D01*
X1900252Y886507D01*
X1898697Y888062D01*
X1896793Y889161D01*
X1894669Y889730D01*
D02*
G37*
G36*
X1959730Y717950D02*
X1953710D01*
Y709930D01*
X1959730D01*
Y717950D01*
D02*
G37*
G36*
X22980Y716680D02*
X16960D01*
Y708660D01*
X22980D01*
Y716680D01*
D02*
G37*
G36*
X1959730Y707390D02*
X1953710D01*
Y699370D01*
X1959730D01*
Y707390D01*
D02*
G37*
G36*
X22980Y706120D02*
X16960D01*
Y698100D01*
X22980D01*
Y706120D01*
D02*
G37*
G36*
X1959610Y687470D02*
X1953590D01*
Y679450D01*
X1959610D01*
Y687470D01*
D02*
G37*
G36*
X21710Y686200D02*
X15690D01*
Y678180D01*
X21710D01*
Y686200D01*
D02*
G37*
G36*
X440300Y748840D02*
X423300D01*
Y733840D01*
X428466D01*
Y724430D01*
X423050D01*
Y711430D01*
X423050Y709930D01*
X423050Y708430D01*
Y695430D01*
X428466D01*
Y688437D01*
X426673Y687402D01*
X425118Y685847D01*
X424019Y683943D01*
X423450Y681819D01*
Y679621D01*
X424019Y677497D01*
X425118Y675593D01*
X426673Y674038D01*
X428577Y672939D01*
X430701Y672370D01*
X432899D01*
X435023Y672939D01*
X436927Y674038D01*
X438482Y675593D01*
X439581Y677497D01*
X440150Y679621D01*
Y681819D01*
X439581Y683943D01*
X438482Y685847D01*
X436927Y687402D01*
X435134Y688437D01*
Y695430D01*
X440550D01*
Y708430D01*
X440550Y709930D01*
X440550Y711430D01*
Y724430D01*
X435134D01*
Y733840D01*
X440300D01*
Y748840D01*
D02*
G37*
G36*
X1959610Y676910D02*
X1953590D01*
Y668890D01*
X1959610D01*
Y676910D01*
D02*
G37*
G36*
X21710Y675640D02*
X15690D01*
Y667620D01*
X21710D01*
Y675640D01*
D02*
G37*
G36*
X75620Y639270D02*
X67100D01*
Y635000D01*
X75620D01*
Y639270D01*
D02*
G37*
G36*
Y632460D02*
X67100D01*
Y628190D01*
X75620D01*
Y632460D01*
D02*
G37*
G36*
X1924630Y592280D02*
X1916110D01*
Y588010D01*
X1924630D01*
Y592280D01*
D02*
G37*
G36*
Y585470D02*
X1916110D01*
Y581200D01*
X1924630D01*
Y585470D01*
D02*
G37*
G36*
X141180Y632460D02*
X132660D01*
Y628190D01*
X141180D01*
Y632460D01*
D02*
G37*
G36*
X986179Y625570D02*
X983677D01*
X981261Y624922D01*
X979095Y623672D01*
X977326Y621903D01*
X976075Y619737D01*
X975428Y617321D01*
Y614819D01*
X976075Y612403D01*
X977326Y610237D01*
X979095Y608468D01*
X981261Y607217D01*
X983677Y606570D01*
X986179D01*
X988595Y607217D01*
X990761Y608468D01*
X992530Y610237D01*
X993781Y612403D01*
X994428Y614819D01*
Y617321D01*
X993781Y619737D01*
X992530Y621903D01*
X990761Y623672D01*
X988595Y624922D01*
X986179Y625570D01*
D02*
G37*
G36*
X935379D02*
X932877D01*
X930461Y624922D01*
X928295Y623672D01*
X926526Y621903D01*
X925275Y619737D01*
X924628Y617321D01*
Y614819D01*
X925275Y612403D01*
X926526Y610237D01*
X928295Y608468D01*
X930461Y607217D01*
X932877Y606570D01*
X935379D01*
X937795Y607217D01*
X939961Y608468D01*
X941730Y610237D01*
X942980Y612403D01*
X943628Y614819D01*
Y617321D01*
X942980Y619737D01*
X941730Y621903D01*
X939961Y623672D01*
X937795Y624922D01*
X935379Y625570D01*
D02*
G37*
G36*
X1468799Y624570D02*
X1466297D01*
X1463881Y623923D01*
X1461715Y622672D01*
X1459946Y620903D01*
X1458695Y618737D01*
X1458048Y616321D01*
Y613819D01*
X1458695Y611403D01*
X1459946Y609237D01*
X1461715Y607468D01*
X1463881Y606217D01*
X1466297Y605570D01*
X1468799D01*
X1471215Y606217D01*
X1473381Y607468D01*
X1475150Y609237D01*
X1476400Y611403D01*
X1477048Y613819D01*
Y616321D01*
X1476400Y618737D01*
X1475150Y620903D01*
X1473381Y622672D01*
X1471215Y623923D01*
X1468799Y624570D01*
D02*
G37*
G36*
X1367199D02*
X1364697D01*
X1362281Y623923D01*
X1360115Y622672D01*
X1358346Y620903D01*
X1357095Y618737D01*
X1356448Y616321D01*
Y613819D01*
X1357095Y611403D01*
X1358346Y609237D01*
X1360115Y607468D01*
X1362281Y606217D01*
X1364697Y605570D01*
X1367199D01*
X1369615Y606217D01*
X1371781Y607468D01*
X1373550Y609237D01*
X1374801Y611403D01*
X1375448Y613819D01*
Y616321D01*
X1374801Y618737D01*
X1373550Y620903D01*
X1371781Y622672D01*
X1369615Y623923D01*
X1367199Y624570D01*
D02*
G37*
G36*
X1316399D02*
X1313897D01*
X1311481Y623923D01*
X1309315Y622672D01*
X1307546Y620903D01*
X1306295Y618737D01*
X1305648Y616321D01*
Y613819D01*
X1306295Y611403D01*
X1307546Y609237D01*
X1309315Y607468D01*
X1311481Y606217D01*
X1313897Y605570D01*
X1316399D01*
X1318815Y606217D01*
X1320981Y607468D01*
X1322750Y609237D01*
X1324001Y611403D01*
X1324648Y613819D01*
Y616321D01*
X1324001Y618737D01*
X1322750Y620903D01*
X1320981Y622672D01*
X1318815Y623923D01*
X1316399Y624570D01*
D02*
G37*
G36*
X1265599D02*
X1263097D01*
X1260681Y623923D01*
X1258515Y622672D01*
X1256746Y620903D01*
X1255495Y618737D01*
X1254848Y616321D01*
Y613819D01*
X1255495Y611403D01*
X1256746Y609237D01*
X1258515Y607468D01*
X1260681Y606217D01*
X1263097Y605570D01*
X1265599D01*
X1268015Y606217D01*
X1270181Y607468D01*
X1271950Y609237D01*
X1273201Y611403D01*
X1273848Y613819D01*
Y616321D01*
X1273201Y618737D01*
X1271950Y620903D01*
X1270181Y622672D01*
X1268015Y623923D01*
X1265599Y624570D01*
D02*
G37*
G36*
X799230Y610900D02*
X791210D01*
Y604630D01*
X799230D01*
Y610900D01*
D02*
G37*
G36*
X788670D02*
X780650D01*
Y604630D01*
X788670D01*
Y610900D01*
D02*
G37*
G36*
X1011579Y623030D02*
X1009077D01*
X1006661Y622383D01*
X1004495Y621132D01*
X1002726Y619363D01*
X1001475Y617197D01*
X1000828Y614781D01*
Y612279D01*
X1001475Y609863D01*
X1002726Y607697D01*
X1004495Y605928D01*
X1006661Y604677D01*
X1009077Y604030D01*
X1011579D01*
X1013995Y604677D01*
X1016161Y605928D01*
X1017930Y607697D01*
X1019181Y609863D01*
X1019828Y612279D01*
Y614781D01*
X1019181Y617197D01*
X1017930Y619363D01*
X1016161Y621132D01*
X1013995Y622383D01*
X1011579Y623030D01*
D02*
G37*
G36*
X960779D02*
X958277D01*
X955861Y622383D01*
X953695Y621132D01*
X951926Y619363D01*
X950675Y617197D01*
X950028Y614781D01*
Y612279D01*
X950675Y609863D01*
X951926Y607697D01*
X953695Y605928D01*
X955861Y604677D01*
X958277Y604030D01*
X960779D01*
X963195Y604677D01*
X965361Y605928D01*
X967130Y607697D01*
X968381Y609863D01*
X969028Y612279D01*
Y614781D01*
X968381Y617197D01*
X967130Y619363D01*
X965361Y621132D01*
X963195Y622383D01*
X960779Y623030D01*
D02*
G37*
G36*
X909979D02*
X907477D01*
X905061Y622383D01*
X902895Y621132D01*
X901126Y619363D01*
X899875Y617197D01*
X899228Y614781D01*
Y612279D01*
X899875Y609863D01*
X901126Y607697D01*
X902895Y605928D01*
X905061Y604677D01*
X907477Y604030D01*
X909979D01*
X912395Y604677D01*
X914561Y605928D01*
X916330Y607697D01*
X917580Y609863D01*
X918228Y612279D01*
Y614781D01*
X917580Y617197D01*
X916330Y619363D01*
X914561Y621132D01*
X912395Y622383D01*
X909979Y623030D01*
D02*
G37*
G36*
X1494199Y622030D02*
X1491697D01*
X1489281Y621383D01*
X1487115Y620132D01*
X1485346Y618363D01*
X1484095Y616197D01*
X1483448Y613781D01*
Y611279D01*
X1484095Y608863D01*
X1485346Y606697D01*
X1487115Y604928D01*
X1489281Y603677D01*
X1491697Y603030D01*
X1494199D01*
X1496615Y603677D01*
X1498781Y604928D01*
X1500550Y606697D01*
X1501801Y608863D01*
X1502448Y611279D01*
Y613781D01*
X1501801Y616197D01*
X1500550Y618363D01*
X1498781Y620132D01*
X1496615Y621383D01*
X1494199Y622030D01*
D02*
G37*
G36*
X1417999Y624570D02*
X1415497D01*
X1413081Y623923D01*
X1410915Y622672D01*
X1409146Y620903D01*
X1407895Y618737D01*
X1407248Y616321D01*
Y613819D01*
X1407895Y611403D01*
X1409146Y609237D01*
X1410915Y607468D01*
X1413081Y606217D01*
X1415497Y605570D01*
X1415699D01*
X1416528Y603570D01*
X1391602Y578644D01*
X1179927D01*
X1178892Y580437D01*
X1177337Y581992D01*
X1175433Y583091D01*
X1173309Y583660D01*
X1171111D01*
X1168987Y583091D01*
X1167083Y581992D01*
X1165528Y580437D01*
X1164429Y578533D01*
X1163860Y576409D01*
Y574211D01*
X1164429Y572087D01*
X1165528Y570183D01*
X1167083Y568628D01*
X1168987Y567529D01*
X1171111Y566960D01*
X1173309D01*
X1175433Y567529D01*
X1177337Y568628D01*
X1178892Y570183D01*
X1179927Y571976D01*
X1392983D01*
X1394259Y572230D01*
X1395340Y572952D01*
X1431306Y608918D01*
X1432237Y608892D01*
X1433383Y608711D01*
X1434546Y606697D01*
X1436315Y604928D01*
X1438481Y603677D01*
X1440897Y603030D01*
X1443399D01*
X1445815Y603677D01*
X1447981Y604928D01*
X1449750Y606697D01*
X1451001Y608863D01*
X1451648Y611279D01*
Y613781D01*
X1451001Y616197D01*
X1449750Y618363D01*
X1447981Y620132D01*
X1445815Y621383D01*
X1443399Y622030D01*
X1440897D01*
X1438481Y621383D01*
X1436315Y620132D01*
X1434546Y618363D01*
X1433295Y616197D01*
X1433206Y615864D01*
X1430203D01*
X1428927Y615610D01*
X1428248Y615157D01*
X1426924Y615598D01*
X1426248Y616119D01*
Y616321D01*
X1425600Y618737D01*
X1424350Y620903D01*
X1422581Y622672D01*
X1420415Y623923D01*
X1417999Y624570D01*
D02*
G37*
G36*
X1392599Y622030D02*
X1390097D01*
X1387681Y621383D01*
X1385515Y620132D01*
X1383746Y618363D01*
X1382495Y616197D01*
X1381848Y613781D01*
Y611279D01*
X1382495Y608863D01*
X1383746Y606697D01*
X1385515Y604928D01*
X1387681Y603677D01*
X1390097Y603030D01*
X1392599D01*
X1395015Y603677D01*
X1397181Y604928D01*
X1398950Y606697D01*
X1400201Y608863D01*
X1400848Y611279D01*
Y613781D01*
X1400201Y616197D01*
X1398950Y618363D01*
X1397181Y620132D01*
X1395015Y621383D01*
X1392599Y622030D01*
D02*
G37*
G36*
X1341799D02*
X1339297D01*
X1336881Y621383D01*
X1334715Y620132D01*
X1332946Y618363D01*
X1331695Y616197D01*
X1331048Y613781D01*
Y611279D01*
X1331695Y608863D01*
X1332946Y606697D01*
X1334715Y604928D01*
X1336881Y603677D01*
X1339297Y603030D01*
X1341799D01*
X1344215Y603677D01*
X1346381Y604928D01*
X1348150Y606697D01*
X1349400Y608863D01*
X1350048Y611279D01*
Y613781D01*
X1349400Y616197D01*
X1348150Y618363D01*
X1346381Y620132D01*
X1344215Y621383D01*
X1341799Y622030D01*
D02*
G37*
G36*
X1290999D02*
X1288497D01*
X1286081Y621383D01*
X1283915Y620132D01*
X1282146Y618363D01*
X1280895Y616197D01*
X1280248Y613781D01*
Y611279D01*
X1280895Y608863D01*
X1282146Y606697D01*
X1283915Y604928D01*
X1286081Y603677D01*
X1288497Y603030D01*
X1290999D01*
X1293415Y603677D01*
X1295581Y604928D01*
X1297350Y606697D01*
X1298600Y608863D01*
X1299248Y611279D01*
Y613781D01*
X1298600Y616197D01*
X1297350Y618363D01*
X1295581Y620132D01*
X1293415Y621383D01*
X1290999Y622030D01*
D02*
G37*
G36*
X799230Y602090D02*
X791210D01*
Y595820D01*
X799230D01*
Y602090D01*
D02*
G37*
G36*
X788670D02*
X780650D01*
Y595820D01*
X788670D01*
Y602090D01*
D02*
G37*
G36*
X822820Y608730D02*
X805320D01*
Y596046D01*
X804780Y594270D01*
X804780Y593454D01*
Y588250D01*
X814070D01*
Y586980D01*
D01*
Y588250D01*
X823360D01*
Y593454D01*
X823360Y594270D01*
X822820Y596046D01*
Y598646D01*
X846979D01*
X849436Y596189D01*
X848900Y594189D01*
Y591991D01*
X849469Y589867D01*
X850568Y587963D01*
X852123Y586408D01*
X854027Y585309D01*
X856151Y584740D01*
X858349D01*
X860473Y585309D01*
X862377Y586408D01*
X863932Y587963D01*
X865031Y589867D01*
X865600Y591991D01*
Y594189D01*
X865031Y596313D01*
X863932Y598217D01*
X862377Y599772D01*
X860473Y600871D01*
X858349Y601440D01*
X856151D01*
X854151Y600904D01*
X850717Y604338D01*
X849636Y605060D01*
X848360Y605314D01*
X822820D01*
Y608730D01*
D02*
G37*
G36*
X720716Y621230D02*
X716924D01*
X713205Y620490D01*
X709702Y619039D01*
X706549Y616932D01*
X703868Y614251D01*
X701761Y611098D01*
X700310Y607595D01*
X699570Y603876D01*
Y600084D01*
X700310Y596365D01*
X701761Y592862D01*
X703868Y589709D01*
X706549Y587028D01*
X709702Y584921D01*
X713205Y583470D01*
X716924Y582730D01*
X720716D01*
X724435Y583470D01*
X727938Y584921D01*
X731091Y587028D01*
X733772Y589709D01*
X735879Y592862D01*
X737330Y596365D01*
X738070Y600084D01*
Y603876D01*
X737330Y607595D01*
X735879Y611098D01*
X733772Y614251D01*
X731091Y616932D01*
X727938Y619039D01*
X724435Y620490D01*
X720716Y621230D01*
D02*
G37*
G36*
X482416D02*
X478624D01*
X474905Y620490D01*
X471402Y619039D01*
X468249Y616932D01*
X465568Y614251D01*
X463461Y611098D01*
X462010Y607595D01*
X461270Y603876D01*
Y600084D01*
X462010Y596365D01*
X463461Y592862D01*
X465568Y589709D01*
X468249Y587028D01*
X471402Y584921D01*
X474905Y583470D01*
X478624Y582730D01*
X482416D01*
X486135Y583470D01*
X489638Y584921D01*
X492791Y587028D01*
X495472Y589709D01*
X497579Y592862D01*
X499030Y596365D01*
X499770Y600084D01*
Y603876D01*
X499030Y607595D01*
X497579Y611098D01*
X495472Y614251D01*
X492791Y616932D01*
X489638Y619039D01*
X486135Y620490D01*
X482416Y621230D01*
D02*
G37*
G36*
X823360Y585710D02*
X815340D01*
Y579690D01*
X823360D01*
Y585710D01*
D02*
G37*
G36*
X812800D02*
X804780D01*
Y579690D01*
X812800D01*
Y585710D01*
D02*
G37*
G36*
X766909Y593820D02*
X764711D01*
X762587Y593251D01*
X760683Y592152D01*
X759128Y590597D01*
X758029Y588693D01*
X757460Y586569D01*
Y584371D01*
X758029Y582247D01*
X759128Y580343D01*
X760683Y578788D01*
X762587Y577689D01*
X764711Y577120D01*
X766909D01*
X769033Y577689D01*
X770937Y578788D01*
X772492Y580343D01*
X773527Y582136D01*
X781190D01*
Y578360D01*
X798690D01*
Y592360D01*
X781190D01*
Y588804D01*
X773527D01*
X772492Y590597D01*
X770937Y592152D01*
X769033Y593251D01*
X766909Y593820D01*
D02*
G37*
G36*
X872505Y565160D02*
X863360D01*
Y562490D01*
X872505D01*
Y565160D01*
D02*
G37*
G36*
X914229Y588740D02*
X912031D01*
X909907Y588171D01*
X908003Y587072D01*
X906448Y585517D01*
X905349Y583613D01*
X904780Y581489D01*
Y579291D01*
X905316Y577291D01*
X882579Y554554D01*
X872505D01*
Y554950D01*
X862090D01*
Y557490D01*
X872505D01*
Y559950D01*
X862090D01*
Y561220D01*
X860820D01*
Y565160D01*
X852990D01*
Y577725D01*
X841190D01*
Y564620D01*
X822215D01*
Y564554D01*
X753341D01*
X750764Y567131D01*
X751300Y569131D01*
Y571329D01*
X750731Y573453D01*
X749632Y575357D01*
X748077Y576912D01*
X746173Y578011D01*
X744049Y578580D01*
X741851D01*
X739727Y578011D01*
X737823Y576912D01*
X736268Y575357D01*
X735169Y573453D01*
X734600Y571329D01*
Y569131D01*
X735169Y567007D01*
X736268Y565103D01*
X737823Y563548D01*
X739727Y562449D01*
X741851Y561880D01*
X744049D01*
X746049Y562416D01*
X749602Y558862D01*
X750684Y558140D01*
X751960Y557886D01*
X822215D01*
Y554279D01*
X733914D01*
X732250Y555161D01*
Y557359D01*
X731681Y559483D01*
X730582Y561387D01*
X729027Y562942D01*
X727123Y564041D01*
X724999Y564610D01*
X722801D01*
X720677Y564041D01*
X718773Y562942D01*
X717218Y561387D01*
X716119Y559483D01*
X715550Y557359D01*
Y555161D01*
X716119Y553037D01*
X717218Y551133D01*
X718773Y549578D01*
X720677Y548479D01*
X722801Y547910D01*
X724999D01*
X727123Y548479D01*
X729027Y549578D01*
X729672Y549057D01*
X730665Y548394D01*
X731835Y548161D01*
X774312D01*
X774840Y546380D01*
X774840Y546161D01*
Y542964D01*
X730768D01*
X729492Y542710D01*
X728411Y541988D01*
X726963Y540540D01*
X725853Y541181D01*
X723729Y541750D01*
X721531D01*
X719407Y541181D01*
X717503Y540082D01*
X715948Y538527D01*
X714849Y536623D01*
X714280Y534499D01*
Y532301D01*
X714849Y530177D01*
X715948Y528273D01*
X717503Y526718D01*
X719407Y525619D01*
X721531Y525050D01*
X723729D01*
X725853Y525619D01*
X727757Y526718D01*
X729312Y528273D01*
X730411Y530177D01*
X730980Y532301D01*
Y534499D01*
X730895Y534815D01*
X732178Y536296D01*
X774840D01*
Y533380D01*
X774840Y532880D01*
Y531380D01*
X774840Y530880D01*
Y517880D01*
X779788D01*
X780110Y517816D01*
X780432Y517880D01*
X792340D01*
Y518636D01*
X843062D01*
X844338Y518890D01*
X844531Y519019D01*
X846531Y517950D01*
Y516765D01*
X846471Y514790D01*
X838451D01*
Y507500D01*
X837181D01*
Y506230D01*
X826686D01*
X826043Y505964D01*
X821843Y510163D01*
X820851Y510826D01*
X819681Y511059D01*
X819680Y511059D01*
X809195D01*
X809151Y511223D01*
X808052Y513127D01*
X806497Y514682D01*
X804593Y515781D01*
X802469Y516350D01*
X800271D01*
X798147Y515781D01*
X796243Y514682D01*
X794688Y513127D01*
X793589Y511223D01*
X793020Y509099D01*
Y506901D01*
X793589Y504777D01*
X794688Y502873D01*
X796243Y501318D01*
X798147Y500219D01*
X800271Y499650D01*
X802469D01*
X804593Y500219D01*
X806497Y501318D01*
X808052Y502873D01*
X809151Y504777D01*
X809195Y504941D01*
X818414D01*
X828431Y494924D01*
Y490108D01*
X826654Y488474D01*
X812270D01*
Y495125D01*
X807810D01*
Y495665D01*
X805140D01*
Y485250D01*
X802600D01*
Y495665D01*
X800140D01*
Y485250D01*
X797600D01*
Y495665D01*
X794930D01*
Y495125D01*
X790470D01*
Y477570D01*
X788510D01*
Y473630D01*
X787240D01*
Y472360D01*
X776825D01*
Y471964D01*
X764637D01*
X763602Y473757D01*
X762047Y475312D01*
X760143Y476411D01*
X758019Y476980D01*
X755821D01*
X753697Y476411D01*
X751793Y475312D01*
X750238Y473757D01*
X749139Y471853D01*
X748570Y469729D01*
Y467531D01*
X749139Y465407D01*
X750238Y463503D01*
X751793Y461948D01*
X753697Y460849D01*
X755821Y460280D01*
X758019D01*
X760143Y460849D01*
X761786Y461798D01*
X762312Y461273D01*
X763393Y460550D01*
X764669Y460296D01*
X777365D01*
Y460230D01*
X789930D01*
Y453280D01*
X793870D01*
Y452010D01*
X795140D01*
Y441595D01*
X797810D01*
Y442135D01*
X812270D01*
Y460230D01*
X825375D01*
Y460296D01*
X1042012D01*
X1044386Y457923D01*
X1045468Y457200D01*
X1046743Y456946D01*
X1312700D01*
X1312964Y454946D01*
X1312497Y454821D01*
X1310593Y453722D01*
X1309038Y452167D01*
X1308003Y450374D01*
X1106170D01*
X1104894Y450120D01*
X1103812Y449398D01*
X1079389Y424974D01*
X878937D01*
X877902Y426767D01*
X876347Y428322D01*
X874443Y429421D01*
X872319Y429990D01*
X870121D01*
X867997Y429421D01*
X866093Y428322D01*
X864538Y426767D01*
X863503Y424974D01*
X826557D01*
X825281Y424720D01*
X824200Y423997D01*
X821816Y421614D01*
X782665D01*
X780281Y423997D01*
X779200Y424720D01*
X777924Y424974D01*
X750667D01*
X749632Y426767D01*
X748077Y428322D01*
X746173Y429421D01*
X744049Y429990D01*
X741851D01*
X739727Y429421D01*
X737823Y428322D01*
X736268Y426767D01*
X735169Y424863D01*
X734600Y422739D01*
Y420541D01*
X735169Y418417D01*
X736268Y416513D01*
X737823Y414958D01*
X739727Y413859D01*
X741851Y413290D01*
X744049D01*
X746173Y413859D01*
X748077Y414958D01*
X749632Y416513D01*
X750667Y418306D01*
X776543D01*
X778926Y415923D01*
X780008Y415200D01*
X781284Y414946D01*
X823197D01*
X824473Y415200D01*
X825555Y415923D01*
X827938Y418306D01*
X863503D01*
X864538Y416513D01*
X866093Y414958D01*
X867997Y413859D01*
X870121Y413290D01*
X872319D01*
X874443Y413859D01*
X876347Y414958D01*
X877902Y416513D01*
X878937Y418306D01*
X1080770D01*
X1082046Y418560D01*
X1083128Y419282D01*
X1107551Y443706D01*
X1308003D01*
X1309038Y441913D01*
X1310593Y440358D01*
X1312497Y439259D01*
X1314621Y438690D01*
X1316819D01*
X1318943Y439259D01*
X1320847Y440358D01*
X1322402Y441913D01*
X1323501Y443817D01*
X1324070Y445941D01*
Y448139D01*
X1323501Y450263D01*
X1322402Y452167D01*
X1320847Y453722D01*
X1318943Y454821D01*
X1318477Y454946D01*
X1318740Y456946D01*
X1342930D01*
X1344206Y457200D01*
X1345287Y457923D01*
X1362151Y474786D01*
X1364151Y474250D01*
X1366349D01*
X1368473Y474819D01*
X1370377Y475918D01*
X1371932Y477473D01*
X1373031Y479377D01*
X1373600Y481501D01*
Y483699D01*
X1373031Y485823D01*
X1371932Y487727D01*
X1370377Y489282D01*
X1368473Y490381D01*
X1366349Y490950D01*
X1364151D01*
X1362027Y490381D01*
X1360123Y489282D01*
X1358568Y487727D01*
X1357469Y485823D01*
X1356900Y483699D01*
Y481501D01*
X1357436Y479501D01*
X1341549Y463614D01*
X1315103D01*
X1314338Y465462D01*
X1336480Y487604D01*
X1336627Y487519D01*
X1338751Y486950D01*
X1340949D01*
X1343073Y487519D01*
X1344977Y488618D01*
X1346532Y490173D01*
X1347631Y492077D01*
X1348200Y494201D01*
Y496399D01*
X1347631Y498523D01*
X1346532Y500427D01*
X1344977Y501982D01*
X1343073Y503081D01*
X1340949Y503650D01*
X1338751D01*
X1336627Y503081D01*
X1334723Y501982D01*
X1333168Y500427D01*
X1332069Y498523D01*
X1331500Y496399D01*
Y494201D01*
X1332069Y492077D01*
X1332154Y491930D01*
X1308373Y468149D01*
X1275266D01*
X1274661Y469066D01*
X1274312Y470149D01*
X1275241Y471757D01*
X1275810Y473881D01*
Y476079D01*
X1275241Y478203D01*
X1274142Y480107D01*
X1272587Y481662D01*
X1270683Y482761D01*
X1268559Y483330D01*
X1266361D01*
X1264237Y482761D01*
X1262333Y481662D01*
X1260778Y480107D01*
X1259679Y478203D01*
X1259308Y476819D01*
X825375D01*
Y477030D01*
X815952D01*
X815630Y477094D01*
X815308Y477030D01*
X812270D01*
Y481806D01*
X825273D01*
X825497Y481582D01*
X826579Y480860D01*
X827854Y480606D01*
X1062202D01*
X1063477Y480860D01*
X1064559Y481582D01*
X1079643Y496666D01*
X1307641D01*
X1308676Y494873D01*
X1310231Y493318D01*
X1312135Y492219D01*
X1314259Y491650D01*
X1316457D01*
X1318581Y492219D01*
X1320485Y493318D01*
X1322040Y494873D01*
X1323139Y496777D01*
X1323708Y498901D01*
Y501099D01*
X1323139Y503223D01*
X1322040Y505127D01*
X1320485Y506682D01*
X1318581Y507781D01*
X1316457Y508350D01*
X1314259D01*
X1312135Y507781D01*
X1310231Y506682D01*
X1308676Y505127D01*
X1307641Y503334D01*
X1296481D01*
X1295653Y505334D01*
X1295732Y505413D01*
X1296831Y507317D01*
X1297400Y509441D01*
Y511639D01*
X1296831Y513763D01*
X1295732Y515667D01*
X1294177Y517222D01*
X1292273Y518321D01*
X1290149Y518890D01*
X1287951D01*
X1285827Y518321D01*
X1284869Y517768D01*
X1283389Y519248D01*
X1282307Y519970D01*
X1281032Y520224D01*
X913227D01*
X912192Y522017D01*
X910637Y523572D01*
X908733Y524671D01*
X906609Y525240D01*
X904411D01*
X902287Y524671D01*
X900383Y523572D01*
X898828Y522017D01*
X897729Y520113D01*
X897160Y517989D01*
Y515791D01*
X897729Y513667D01*
X898828Y511763D01*
X900383Y510208D01*
X902287Y509109D01*
X904411Y508540D01*
X906609D01*
X908733Y509109D01*
X910637Y510208D01*
X912192Y511763D01*
X913227Y513556D01*
X1279500D01*
X1280806Y512034D01*
X1280700Y511639D01*
Y509441D01*
X1281269Y507317D01*
X1282368Y505413D01*
X1282447Y505334D01*
X1281619Y503334D01*
X1078262D01*
X1076986Y503080D01*
X1075904Y502357D01*
X1060821Y487274D01*
X845931D01*
Y494924D01*
X851753Y500746D01*
X851753Y500746D01*
X852416Y501739D01*
X852649Y502909D01*
X852649Y502910D01*
Y529715D01*
X852990D01*
Y542820D01*
X871965D01*
Y543161D01*
X877453D01*
X886837Y533777D01*
X887830Y533114D01*
X889000Y532881D01*
X920927D01*
X922560Y531959D01*
Y529761D01*
X923129Y527637D01*
X924228Y525733D01*
X925783Y524178D01*
X927687Y523079D01*
X929811Y522510D01*
X932009D01*
X934133Y523079D01*
X936037Y524178D01*
X937592Y525733D01*
X938691Y527637D01*
X939260Y529761D01*
Y531959D01*
X938691Y534083D01*
X938606Y534230D01*
X947417Y543041D01*
X1410765D01*
X1410809Y542877D01*
X1411908Y540973D01*
X1413463Y539418D01*
X1415367Y538319D01*
X1417491Y537750D01*
X1419689D01*
X1421813Y538319D01*
X1423717Y539418D01*
X1425272Y540973D01*
X1426371Y542877D01*
X1426940Y545001D01*
Y547199D01*
X1426371Y549323D01*
X1425272Y551227D01*
X1423717Y552782D01*
X1421813Y553881D01*
X1419689Y554450D01*
X1417491D01*
X1415367Y553881D01*
X1413463Y552782D01*
X1411908Y551227D01*
X1410809Y549323D01*
X1410765Y549159D01*
X946150D01*
X944979Y548926D01*
X943987Y548263D01*
X934280Y538556D01*
X934133Y538641D01*
X932009Y539210D01*
X929811D01*
X927687Y538641D01*
X925783Y537542D01*
X925721Y537480D01*
X925098Y538103D01*
X924105Y538766D01*
X922935Y538999D01*
X922934Y538999D01*
X890267D01*
X883204Y546062D01*
X883584Y546977D01*
X884167Y547927D01*
X885236Y548140D01*
X886318Y548862D01*
X910031Y572576D01*
X912031Y572040D01*
X914229D01*
X916353Y572609D01*
X918257Y573708D01*
X919812Y575263D01*
X920911Y577167D01*
X921480Y579291D01*
Y581489D01*
X920911Y583613D01*
X919812Y585517D01*
X918257Y587072D01*
X916353Y588171D01*
X914229Y588740D01*
D02*
G37*
G36*
X328753Y569500D02*
X326251D01*
X323835Y568853D01*
X321669Y567602D01*
X319900Y565833D01*
X318650Y563667D01*
X318002Y561251D01*
Y558749D01*
X318650Y556333D01*
X319900Y554167D01*
X321669Y552398D01*
X323835Y551147D01*
X326251Y550500D01*
X328753D01*
X331169Y551147D01*
X333335Y552398D01*
X335104Y554167D01*
X336355Y556333D01*
X337002Y558749D01*
Y561251D01*
X336355Y563667D01*
X335104Y565833D01*
X333335Y567602D01*
X331169Y568853D01*
X328753Y569500D01*
D02*
G37*
G36*
X1467949Y544290D02*
X1465751D01*
X1463627Y543721D01*
X1461723Y542622D01*
X1460168Y541067D01*
X1459069Y539163D01*
X1458500Y537039D01*
Y535464D01*
X1155797D01*
X1154762Y537257D01*
X1153207Y538812D01*
X1151303Y539911D01*
X1149179Y540480D01*
X1146981D01*
X1144857Y539911D01*
X1142953Y538812D01*
X1141398Y537257D01*
X1140299Y535353D01*
X1139730Y533229D01*
Y531031D01*
X1140299Y528907D01*
X1141398Y527003D01*
X1142953Y525448D01*
X1144857Y524349D01*
X1146981Y523780D01*
X1149179D01*
X1151303Y524349D01*
X1153207Y525448D01*
X1154762Y527003D01*
X1155797Y528796D01*
X1460291D01*
X1461567Y529050D01*
X1461807Y529210D01*
X1463627Y528159D01*
X1465751Y527590D01*
X1467949D01*
X1470073Y528159D01*
X1471977Y529258D01*
X1473532Y530813D01*
X1474631Y532717D01*
X1475200Y534841D01*
Y537039D01*
X1474631Y539163D01*
X1473532Y541067D01*
X1471977Y542622D01*
X1470073Y543721D01*
X1467949Y544290D01*
D02*
G37*
G36*
X139976Y548100D02*
X137343D01*
X134800Y547419D01*
X132519Y546102D01*
X130657Y544240D01*
X129341Y541960D01*
X128659Y539417D01*
Y536783D01*
X129341Y534240D01*
X130657Y531960D01*
X132519Y530098D01*
X134800Y528782D01*
X137343Y528100D01*
X139976D01*
X142519Y528782D01*
X144799Y530098D01*
X146661Y531960D01*
X147978Y534240D01*
X148659Y536783D01*
Y539417D01*
X147978Y541960D01*
X146661Y544240D01*
X144799Y546102D01*
X142519Y547419D01*
X139976Y548100D01*
D02*
G37*
G36*
X835911Y514790D02*
X827891D01*
Y508770D01*
X835911D01*
Y514790D01*
D02*
G37*
G36*
X139976Y522700D02*
X137343D01*
X134800Y522019D01*
X132519Y520702D01*
X130657Y518840D01*
X129341Y516560D01*
X128659Y514016D01*
Y511384D01*
X129341Y508840D01*
X130657Y506560D01*
X132519Y504698D01*
X134800Y503382D01*
X137343Y502700D01*
X139976D01*
X142519Y503382D01*
X144799Y504698D01*
X146661Y506560D01*
X147978Y508840D01*
X148119Y509366D01*
X365177D01*
X366453Y509620D01*
X366642Y509746D01*
X414863D01*
X415692Y507746D01*
X414700Y506754D01*
X413252Y504246D01*
X412502Y501448D01*
Y498552D01*
X413252Y495754D01*
X414700Y493246D01*
X416202Y491744D01*
X415429Y489744D01*
X390400D01*
X389448Y490380D01*
X388172Y490634D01*
X148119D01*
X147978Y491160D01*
X146661Y493440D01*
X144799Y495302D01*
X142519Y496618D01*
X139976Y497300D01*
X137343D01*
X134800Y496618D01*
X132519Y495302D01*
X130657Y493440D01*
X129341Y491160D01*
X128659Y488616D01*
Y485984D01*
X129341Y483440D01*
X130657Y481160D01*
X132519Y479298D01*
X134800Y477981D01*
X137343Y477300D01*
X139976D01*
X142519Y477981D01*
X144799Y479298D01*
X146661Y481160D01*
X147978Y483440D01*
X148119Y483966D01*
X386834D01*
X387786Y483330D01*
X389062Y483076D01*
X628553D01*
X629588Y481283D01*
X631143Y479728D01*
X633047Y478629D01*
X635171Y478060D01*
X637369D01*
X639493Y478629D01*
X641397Y479728D01*
X642952Y481283D01*
X644051Y483187D01*
X644620Y485311D01*
Y487509D01*
X644051Y489633D01*
X642952Y491537D01*
X641397Y493092D01*
X639493Y494191D01*
X637369Y494760D01*
X635171D01*
X633047Y494191D01*
X631143Y493092D01*
X629588Y491537D01*
X628553Y489744D01*
X431575D01*
X430802Y491744D01*
X432304Y493246D01*
X433752Y495754D01*
X434502Y498552D01*
Y501448D01*
X433752Y504246D01*
X432304Y506754D01*
X431312Y507746D01*
X432141Y509746D01*
X582833D01*
X583868Y507953D01*
X585423Y506398D01*
X587327Y505299D01*
X589451Y504730D01*
X591649D01*
X593773Y505299D01*
X595677Y506398D01*
X597232Y507953D01*
X598331Y509857D01*
X598900Y511981D01*
Y514179D01*
X598331Y516303D01*
X597232Y518207D01*
X595677Y519762D01*
X593773Y520861D01*
X591649Y521430D01*
X589451D01*
X587327Y520861D01*
X585423Y519762D01*
X583868Y518207D01*
X582833Y516414D01*
X365557D01*
X364281Y516160D01*
X364092Y516034D01*
X148119D01*
X147978Y516560D01*
X146661Y518840D01*
X144799Y520702D01*
X142519Y522019D01*
X139976Y522700D01*
D02*
G37*
G36*
X785970Y477570D02*
X776825D01*
Y474900D01*
X785970D01*
Y477570D01*
D02*
G37*
G36*
X142659Y472496D02*
X139929D01*
Y463170D01*
X149256D01*
Y465900D01*
X149031Y467607D01*
X148372Y469198D01*
X147324Y470564D01*
X145958Y471613D01*
X144367Y472272D01*
X142659Y472496D01*
D02*
G37*
G36*
X137389D02*
X134659D01*
X132952Y472272D01*
X131361Y471613D01*
X129995Y470564D01*
X128947Y469198D01*
X128288Y467607D01*
X128063Y465900D01*
Y463170D01*
X137389D01*
Y472496D01*
D02*
G37*
G36*
X149256Y460630D02*
X139929D01*
Y451304D01*
X142659D01*
X144367Y451528D01*
X145958Y452187D01*
X147324Y453236D01*
X148372Y454602D01*
X149031Y456193D01*
X149256Y457900D01*
Y460630D01*
D02*
G37*
G36*
X137389D02*
X128063D01*
Y457900D01*
X128288Y456193D01*
X128947Y454602D01*
X129995Y453236D01*
X131361Y452187D01*
X132952Y451528D01*
X134659Y451304D01*
X137389D01*
Y460630D01*
D02*
G37*
G36*
X792600Y450740D02*
X789930D01*
Y441595D01*
X792600D01*
Y450740D01*
D02*
G37*
G36*
X1377779Y441420D02*
X1375581D01*
X1373457Y440851D01*
X1371553Y439752D01*
X1369998Y438197D01*
X1368963Y436404D01*
X1298037D01*
X1297002Y438197D01*
X1295447Y439752D01*
X1293543Y440851D01*
X1291419Y441420D01*
X1289221D01*
X1287097Y440851D01*
X1285193Y439752D01*
X1283638Y438197D01*
X1282539Y436293D01*
X1281970Y434169D01*
Y431971D01*
X1282539Y429847D01*
X1283638Y427943D01*
X1285193Y426388D01*
X1287097Y425289D01*
X1289221Y424720D01*
X1291419D01*
X1293543Y425289D01*
X1295447Y426388D01*
X1297002Y427943D01*
X1298037Y429736D01*
X1368963D01*
X1369998Y427943D01*
X1371553Y426388D01*
X1373457Y425289D01*
X1375581Y424720D01*
X1377779D01*
X1379903Y425289D01*
X1381807Y426388D01*
X1383362Y427943D01*
X1384461Y429847D01*
X1385030Y431971D01*
Y434169D01*
X1384461Y436293D01*
X1383362Y438197D01*
X1381807Y439752D01*
X1379903Y440851D01*
X1377779Y441420D01*
D02*
G37*
G36*
X284950Y430000D02*
X282054D01*
X279256Y429250D01*
X276748Y427802D01*
X274700Y425754D01*
X273252Y423246D01*
X272502Y420448D01*
Y417552D01*
X273252Y414754D01*
X274700Y412246D01*
X276748Y410198D01*
X279256Y408750D01*
X282054Y408000D01*
X284950D01*
X287748Y408750D01*
X290256Y410198D01*
X292304Y412246D01*
X293752Y414754D01*
X294502Y417552D01*
Y420448D01*
X293752Y423246D01*
X292304Y425754D01*
X290256Y427802D01*
X287748Y429250D01*
X284950Y430000D01*
D02*
G37*
G36*
X1468799Y395970D02*
X1466297D01*
X1463881Y395323D01*
X1461715Y394072D01*
X1459946Y392303D01*
X1458695Y390137D01*
X1458048Y387721D01*
Y385219D01*
X1458695Y382803D01*
X1459946Y380637D01*
X1461715Y378868D01*
X1463881Y377617D01*
X1466297Y376970D01*
X1468799D01*
X1471215Y377617D01*
X1473381Y378868D01*
X1475150Y380637D01*
X1476400Y382803D01*
X1477048Y385219D01*
Y387721D01*
X1476400Y390137D01*
X1475150Y392303D01*
X1473381Y394072D01*
X1471215Y395323D01*
X1468799Y395970D01*
D02*
G37*
G36*
X1367199D02*
X1364697D01*
X1362281Y395323D01*
X1360115Y394072D01*
X1358346Y392303D01*
X1357095Y390137D01*
X1356448Y387721D01*
Y385219D01*
X1357095Y382803D01*
X1358346Y380637D01*
X1360115Y378868D01*
X1362281Y377617D01*
X1364697Y376970D01*
X1367199D01*
X1369615Y377617D01*
X1371781Y378868D01*
X1373550Y380637D01*
X1374801Y382803D01*
X1375448Y385219D01*
Y387721D01*
X1374801Y390137D01*
X1373550Y392303D01*
X1371781Y394072D01*
X1369615Y395323D01*
X1367199Y395970D01*
D02*
G37*
G36*
X1316399D02*
X1313897D01*
X1311481Y395323D01*
X1309315Y394072D01*
X1307546Y392303D01*
X1306295Y390137D01*
X1305648Y387721D01*
Y385219D01*
X1306295Y382803D01*
X1307546Y380637D01*
X1309315Y378868D01*
X1311481Y377617D01*
X1313897Y376970D01*
X1316399D01*
X1318815Y377617D01*
X1320981Y378868D01*
X1322750Y380637D01*
X1324001Y382803D01*
X1324648Y385219D01*
Y387721D01*
X1324001Y390137D01*
X1322750Y392303D01*
X1320981Y394072D01*
X1318815Y395323D01*
X1316399Y395970D01*
D02*
G37*
G36*
X1265599D02*
X1263097D01*
X1260681Y395323D01*
X1258515Y394072D01*
X1256746Y392303D01*
X1255495Y390137D01*
X1254848Y387721D01*
Y385219D01*
X1255495Y382803D01*
X1256746Y380637D01*
X1258515Y378868D01*
X1260681Y377617D01*
X1263097Y376970D01*
X1265599D01*
X1268015Y377617D01*
X1270181Y378868D01*
X1271950Y380637D01*
X1273201Y382803D01*
X1273848Y385219D01*
Y387721D01*
X1273201Y390137D01*
X1271950Y392303D01*
X1270181Y394072D01*
X1268015Y395323D01*
X1265599Y395970D01*
D02*
G37*
G36*
X1036979D02*
X1034477D01*
X1032061Y395323D01*
X1029895Y394072D01*
X1028126Y392303D01*
X1026875Y390137D01*
X1026228Y387721D01*
Y385219D01*
X1026875Y382803D01*
X1028126Y380637D01*
X1029895Y378868D01*
X1032061Y377617D01*
X1034477Y376970D01*
X1036979D01*
X1039395Y377617D01*
X1041561Y378868D01*
X1043330Y380637D01*
X1044581Y382803D01*
X1045228Y385219D01*
Y387721D01*
X1044581Y390137D01*
X1043330Y392303D01*
X1041561Y394072D01*
X1039395Y395323D01*
X1036979Y395970D01*
D02*
G37*
G36*
X986179D02*
X983677D01*
X981261Y395323D01*
X979095Y394072D01*
X977326Y392303D01*
X976075Y390137D01*
X975428Y387721D01*
Y385219D01*
X976075Y382803D01*
X977326Y380637D01*
X979095Y378868D01*
X981261Y377617D01*
X983677Y376970D01*
X986179D01*
X988595Y377617D01*
X990761Y378868D01*
X992530Y380637D01*
X993781Y382803D01*
X994428Y385219D01*
Y387721D01*
X993781Y390137D01*
X992530Y392303D01*
X990761Y394072D01*
X988595Y395323D01*
X986179Y395970D01*
D02*
G37*
G36*
X935379D02*
X932877D01*
X930461Y395323D01*
X928295Y394072D01*
X926526Y392303D01*
X925275Y390137D01*
X924628Y387721D01*
Y385219D01*
X925275Y382803D01*
X926526Y380637D01*
X928295Y378868D01*
X930461Y377617D01*
X932877Y376970D01*
X935379D01*
X937795Y377617D01*
X939961Y378868D01*
X941730Y380637D01*
X942980Y382803D01*
X943628Y385219D01*
Y387721D01*
X942980Y390137D01*
X941730Y392303D01*
X939961Y394072D01*
X937795Y395323D01*
X935379Y395970D01*
D02*
G37*
G36*
X1494199Y393430D02*
X1491697D01*
X1489281Y392783D01*
X1487115Y391532D01*
X1485346Y389763D01*
X1484095Y387597D01*
X1483448Y385181D01*
Y382679D01*
X1484095Y380263D01*
X1485346Y378097D01*
X1487115Y376328D01*
X1489281Y375077D01*
X1491697Y374430D01*
X1494199D01*
X1496615Y375077D01*
X1498781Y376328D01*
X1500550Y378097D01*
X1501801Y380263D01*
X1502448Y382679D01*
Y385181D01*
X1501801Y387597D01*
X1500550Y389763D01*
X1498781Y391532D01*
X1496615Y392783D01*
X1494199Y393430D01*
D02*
G37*
G36*
X1443399D02*
X1440897D01*
X1438481Y392783D01*
X1436315Y391532D01*
X1434546Y389763D01*
X1433295Y387597D01*
X1432648Y385181D01*
Y382679D01*
X1433295Y380263D01*
X1434546Y378097D01*
X1436315Y376328D01*
X1438481Y375077D01*
X1440897Y374430D01*
X1443399D01*
X1445815Y375077D01*
X1447981Y376328D01*
X1449750Y378097D01*
X1451001Y380263D01*
X1451648Y382679D01*
Y385181D01*
X1451001Y387597D01*
X1449750Y389763D01*
X1447981Y391532D01*
X1445815Y392783D01*
X1443399Y393430D01*
D02*
G37*
G36*
X1341799D02*
X1339297D01*
X1336881Y392783D01*
X1334715Y391532D01*
X1332946Y389763D01*
X1331695Y387597D01*
X1331048Y385181D01*
Y382679D01*
X1331695Y380263D01*
X1332946Y378097D01*
X1334715Y376328D01*
X1336881Y375077D01*
X1339297Y374430D01*
X1341799D01*
X1344215Y375077D01*
X1346381Y376328D01*
X1348150Y378097D01*
X1349400Y380263D01*
X1350048Y382679D01*
Y385181D01*
X1349400Y387597D01*
X1348150Y389763D01*
X1346381Y391532D01*
X1344215Y392783D01*
X1341799Y393430D01*
D02*
G37*
G36*
X1290999D02*
X1288497D01*
X1286081Y392783D01*
X1283915Y391532D01*
X1282146Y389763D01*
X1280895Y387597D01*
X1280248Y385181D01*
Y382679D01*
X1280895Y380263D01*
X1282146Y378097D01*
X1283915Y376328D01*
X1286081Y375077D01*
X1288497Y374430D01*
X1290999D01*
X1293415Y375077D01*
X1295581Y376328D01*
X1297350Y378097D01*
X1298600Y380263D01*
X1299248Y382679D01*
Y385181D01*
X1298600Y387597D01*
X1297350Y389763D01*
X1295581Y391532D01*
X1293415Y392783D01*
X1290999Y393430D01*
D02*
G37*
G36*
X1240199D02*
X1237697D01*
X1235281Y392783D01*
X1233115Y391532D01*
X1231346Y389763D01*
X1230095Y387597D01*
X1229448Y385181D01*
Y382679D01*
X1230095Y380263D01*
X1231346Y378097D01*
X1233115Y376328D01*
X1235281Y375077D01*
X1237697Y374430D01*
X1240199D01*
X1242615Y375077D01*
X1244781Y376328D01*
X1246550Y378097D01*
X1247801Y380263D01*
X1248448Y382679D01*
Y385181D01*
X1247801Y387597D01*
X1246550Y389763D01*
X1244781Y391532D01*
X1242615Y392783D01*
X1240199Y393430D01*
D02*
G37*
G36*
X1070628D02*
X1051628D01*
Y374430D01*
X1070628D01*
Y393430D01*
D02*
G37*
G36*
X1011579D02*
X1009077D01*
X1006661Y392783D01*
X1004495Y391532D01*
X1002726Y389763D01*
X1001475Y387597D01*
X1000828Y385181D01*
Y382679D01*
X1001475Y380263D01*
X1002726Y378097D01*
X1004495Y376328D01*
X1006661Y375077D01*
X1009077Y374430D01*
X1011579D01*
X1013995Y375077D01*
X1016161Y376328D01*
X1017930Y378097D01*
X1019181Y380263D01*
X1019828Y382679D01*
Y385181D01*
X1019181Y387597D01*
X1017930Y389763D01*
X1016161Y391532D01*
X1013995Y392783D01*
X1011579Y393430D01*
D02*
G37*
G36*
X960779D02*
X958277D01*
X955861Y392783D01*
X953695Y391532D01*
X951926Y389763D01*
X950675Y387597D01*
X950028Y385181D01*
Y382679D01*
X950675Y380263D01*
X951926Y378097D01*
X953695Y376328D01*
X955861Y375077D01*
X958277Y374430D01*
X960779D01*
X963195Y375077D01*
X965361Y376328D01*
X967130Y378097D01*
X968381Y380263D01*
X969028Y382679D01*
Y385181D01*
X968381Y387597D01*
X967130Y389763D01*
X965361Y391532D01*
X963195Y392783D01*
X960779Y393430D01*
D02*
G37*
G36*
X909979D02*
X907477D01*
X905061Y392783D01*
X902895Y391532D01*
X901126Y389763D01*
X899875Y387597D01*
X899228Y385181D01*
Y382679D01*
X899875Y380263D01*
X901126Y378097D01*
X902895Y376328D01*
X905061Y375077D01*
X907477Y374430D01*
X909979D01*
X912395Y375077D01*
X914561Y376328D01*
X916330Y378097D01*
X917580Y380263D01*
X918228Y382679D01*
Y385181D01*
X917580Y387597D01*
X916330Y389763D01*
X914561Y391532D01*
X912395Y392783D01*
X909979Y393430D01*
D02*
G37*
G36*
X720716Y398930D02*
X716924D01*
X713205Y398190D01*
X709702Y396739D01*
X706549Y394632D01*
X703868Y391951D01*
X701761Y388798D01*
X700310Y385295D01*
X699570Y381576D01*
Y377784D01*
X700310Y374065D01*
X701761Y370562D01*
X703868Y367409D01*
X706549Y364728D01*
X709702Y362621D01*
X713205Y361170D01*
X716924Y360430D01*
X720716D01*
X724435Y361170D01*
X727938Y362621D01*
X731091Y364728D01*
X733772Y367409D01*
X735879Y370562D01*
X737330Y374065D01*
X738070Y377784D01*
Y381576D01*
X737330Y385295D01*
X735879Y388798D01*
X733772Y391951D01*
X731091Y394632D01*
X727938Y396739D01*
X724435Y398190D01*
X720716Y398930D01*
D02*
G37*
G36*
X482416D02*
X478624D01*
X474905Y398190D01*
X471402Y396739D01*
X468249Y394632D01*
X465568Y391951D01*
X463461Y388798D01*
X462010Y385295D01*
X461270Y381576D01*
Y377784D01*
X462010Y374065D01*
X463461Y370562D01*
X465568Y367409D01*
X468249Y364728D01*
X471402Y362621D01*
X474905Y361170D01*
X478624Y360430D01*
X482416D01*
X486135Y361170D01*
X489638Y362621D01*
X492791Y364728D01*
X495472Y367409D01*
X497579Y370562D01*
X499030Y374065D01*
X499770Y377784D01*
Y381576D01*
X499030Y385295D01*
X497579Y388798D01*
X495472Y391951D01*
X492791Y394632D01*
X489638Y396739D01*
X486135Y398190D01*
X482416Y398930D01*
D02*
G37*
G36*
X328753Y369500D02*
X326251D01*
X323835Y368853D01*
X321669Y367602D01*
X319900Y365833D01*
X318650Y363667D01*
X318002Y361251D01*
Y358749D01*
X318650Y356333D01*
X318822Y356035D01*
X266882Y304095D01*
X266160Y303014D01*
X265906Y301738D01*
Y234552D01*
X266160Y233276D01*
X266882Y232194D01*
X277034Y222043D01*
X278116Y221320D01*
X279392Y221066D01*
X313230D01*
X314506Y221320D01*
X315588Y222043D01*
X319701Y226156D01*
X322290D01*
X323363Y226370D01*
X324273Y226977D01*
X324880Y227887D01*
X325094Y228960D01*
Y247160D01*
X324880Y248233D01*
X324273Y249143D01*
X323363Y249750D01*
X322290Y249964D01*
X317790D01*
X317739Y249954D01*
X315861Y251255D01*
X315754Y251443D01*
Y259186D01*
X315804Y259220D01*
X323220D01*
X323220Y259220D01*
X324720D01*
Y259220D01*
X325220Y259220D01*
X329406D01*
Y249743D01*
X328507Y249143D01*
X327900Y248233D01*
X327686Y247160D01*
Y228960D01*
X327900Y227887D01*
X328507Y226977D01*
X329417Y226370D01*
X330490Y226156D01*
X334990D01*
X336063Y226370D01*
X336973Y226977D01*
X337580Y227887D01*
X337794Y228960D01*
Y247160D01*
X337580Y248233D01*
X336973Y249143D01*
X336074Y249743D01*
Y259220D01*
X338220D01*
Y271856D01*
X340070Y272668D01*
X341350Y271652D01*
Y259220D01*
X344766D01*
Y249964D01*
X343190D01*
X342117Y249750D01*
X341207Y249143D01*
X340600Y248233D01*
X340386Y247160D01*
Y228960D01*
X340600Y227887D01*
X341207Y226977D01*
X342117Y226370D01*
X343190Y226156D01*
X343358D01*
X344123Y224308D01*
X320379Y200564D01*
X317790D01*
X316717Y200350D01*
X315807Y199743D01*
X315200Y198833D01*
X314986Y197760D01*
Y179560D01*
X315200Y178487D01*
X315807Y177577D01*
X316706Y176977D01*
Y172210D01*
X305196Y172210D01*
X304982Y172488D01*
X304375Y174130D01*
X307001Y176756D01*
X309590D01*
X310663Y176970D01*
X311573Y177577D01*
X312180Y178487D01*
X312394Y179560D01*
Y197760D01*
X312180Y198833D01*
X311573Y199743D01*
X310663Y200350D01*
X309590Y200564D01*
X305090D01*
X304017Y200350D01*
X303107Y199743D01*
X302500Y198833D01*
X302286Y197760D01*
Y181471D01*
X300637Y179822D01*
X297108D01*
X295832Y179568D01*
X294750Y178845D01*
X292283Y176378D01*
X291560Y175296D01*
X291306Y174020D01*
Y172210D01*
X285890D01*
Y168434D01*
X268067D01*
X267032Y170227D01*
X265477Y171782D01*
X263573Y172881D01*
X261449Y173450D01*
X259251D01*
X257127Y172881D01*
X255223Y171782D01*
X253668Y170227D01*
X252569Y168323D01*
X252000Y166199D01*
Y164001D01*
X252569Y161877D01*
X253668Y159973D01*
X255223Y158418D01*
X257127Y157319D01*
X259251Y156750D01*
X261449D01*
X263573Y157319D01*
X265477Y158418D01*
X267032Y159973D01*
X268067Y161766D01*
X285890D01*
Y158210D01*
X302940D01*
X303390Y158210D01*
X304940D01*
X305390Y158210D01*
X321990D01*
X322440Y158210D01*
Y158210D01*
X323990D01*
Y158210D01*
X341350D01*
X341490Y158210D01*
X342777Y157976D01*
X343036Y156334D01*
X341653Y154750D01*
X334010D01*
Y148480D01*
X342030D01*
Y151817D01*
X343350Y153270D01*
X344030Y153270D01*
X349370D01*
Y162560D01*
Y171850D01*
X343490D01*
X343350Y171850D01*
X341490Y172188D01*
Y172210D01*
X336074D01*
Y176977D01*
X336973Y177577D01*
X337580Y178487D01*
X337794Y179560D01*
Y193743D01*
X337836Y193771D01*
X339836Y192702D01*
Y189930D01*
X345440D01*
X351045D01*
Y197760D01*
X352051Y198986D01*
X416324D01*
X416399Y198707D01*
X417498Y196803D01*
X419053Y195248D01*
X420957Y194149D01*
X423081Y193580D01*
X425279D01*
X427403Y194149D01*
X429307Y195248D01*
X430862Y196803D01*
X431961Y198707D01*
X432530Y200831D01*
Y203029D01*
X431961Y205153D01*
X430862Y207057D01*
X429307Y208612D01*
X427403Y209711D01*
X425279Y210280D01*
X423081D01*
X420957Y209711D01*
X419053Y208612D01*
X417498Y207057D01*
X416688Y205654D01*
X339550D01*
X338274Y205400D01*
X337192Y204678D01*
X334297Y201782D01*
X333929Y201856D01*
X333271Y204026D01*
X350311Y221066D01*
X521516D01*
X522791Y221320D01*
X523873Y222043D01*
X582976Y281146D01*
X846993D01*
X848028Y279353D01*
X849583Y277798D01*
X851487Y276699D01*
X853611Y276130D01*
X855809D01*
X857933Y276699D01*
X859837Y277798D01*
X861392Y279353D01*
X862491Y281257D01*
X863060Y283381D01*
Y285579D01*
X862491Y287703D01*
X861392Y289607D01*
X859837Y291162D01*
X857933Y292261D01*
X855809Y292830D01*
X853611D01*
X851487Y292261D01*
X849583Y291162D01*
X848028Y289607D01*
X846993Y287814D01*
X581595D01*
X580320Y287560D01*
X579238Y286838D01*
X520135Y227734D01*
X352289D01*
X350494Y228960D01*
Y245267D01*
X351180Y246294D01*
X351434Y247570D01*
Y259220D01*
X354350D01*
X354850Y259220D01*
X356350D01*
X356850Y259220D01*
X365135D01*
X368921Y255434D01*
X368745Y253346D01*
X368253Y253062D01*
X366698Y251507D01*
X365599Y249603D01*
X365030Y247479D01*
Y245281D01*
X365599Y243157D01*
X366698Y241253D01*
X368253Y239698D01*
X370157Y238599D01*
X372281Y238030D01*
X374479D01*
X376603Y238599D01*
X378507Y239698D01*
X380062Y241253D01*
X381161Y243157D01*
X381730Y245281D01*
Y247479D01*
X381161Y249603D01*
X380062Y251507D01*
X378507Y253062D01*
X376603Y254161D01*
X375864Y254359D01*
Y256540D01*
X375610Y257816D01*
X374888Y258897D01*
X369850Y263935D01*
Y276720D01*
X356850D01*
X356350Y276720D01*
X354850D01*
X354350Y276720D01*
X346065D01*
X344764Y278021D01*
Y286950D01*
X348930D01*
Y309950D01*
X333930D01*
Y286950D01*
X338096D01*
Y277965D01*
X338096Y276720D01*
X329435Y276720D01*
X321205Y284950D01*
X322034Y286950D01*
X323930D01*
Y309950D01*
X308930D01*
Y286950D01*
X313096D01*
Y285010D01*
X313350Y283734D01*
X314072Y282652D01*
X318157Y278568D01*
X317392Y276720D01*
X309720D01*
Y264855D01*
X309340Y264286D01*
X309086Y263010D01*
Y251371D01*
X307679Y249964D01*
X305090D01*
X304017Y249750D01*
X303107Y249143D01*
X302500Y248233D01*
X302286Y247160D01*
Y242094D01*
X287117D01*
X286082Y243887D01*
X284527Y245442D01*
X282623Y246541D01*
X280499Y247110D01*
X278301D01*
X276177Y246541D01*
X274574Y245616D01*
X273478Y245970D01*
X272574Y246571D01*
Y300357D01*
X323537Y351320D01*
X323835Y351147D01*
X326251Y350500D01*
X328753D01*
X331169Y351147D01*
X333335Y352398D01*
X335104Y354167D01*
X336355Y356333D01*
X337002Y358749D01*
Y361251D01*
X336355Y363667D01*
X335104Y365833D01*
X333335Y367602D01*
X331169Y368853D01*
X328753Y369500D01*
D02*
G37*
G36*
X1009575Y312810D02*
X1009090D01*
Y304460D01*
Y296110D01*
X1009575D01*
X1010759Y296346D01*
X1011556Y296879D01*
X1011591Y296855D01*
X1012565Y296661D01*
X1016075D01*
X1017048Y296855D01*
X1017874Y297406D01*
X1018425Y298232D01*
X1018619Y299205D01*
Y300196D01*
X1088293D01*
X1089328Y298403D01*
X1090883Y296848D01*
X1092787Y295749D01*
X1094911Y295180D01*
X1097109D01*
X1099233Y295749D01*
X1101137Y296848D01*
X1102692Y298403D01*
X1103791Y300307D01*
X1104360Y302431D01*
Y304629D01*
X1103791Y306753D01*
X1102692Y308657D01*
X1101137Y310212D01*
X1099233Y311311D01*
X1097109Y311880D01*
X1094911D01*
X1092787Y311311D01*
X1090883Y310212D01*
X1089328Y308657D01*
X1088293Y306864D01*
X1018619D01*
Y309715D01*
X1018425Y310688D01*
X1017874Y311514D01*
X1017048Y312065D01*
X1016075Y312259D01*
X1012565D01*
X1011591Y312065D01*
X1011556Y312041D01*
X1010759Y312574D01*
X1009575Y312810D01*
D02*
G37*
G36*
X927480Y312480D02*
X918210D01*
Y293710D01*
X927480D01*
Y312480D01*
D02*
G37*
G36*
X915670D02*
X906400D01*
Y293710D01*
X915670D01*
Y312480D01*
D02*
G37*
G36*
X1789259Y292830D02*
X1787061D01*
X1784937Y292261D01*
X1783033Y291162D01*
X1781478Y289607D01*
X1780379Y287703D01*
X1779810Y285579D01*
Y283381D01*
X1779916Y282985D01*
X1778610Y281464D01*
X1324707D01*
X1323672Y283257D01*
X1322117Y284812D01*
X1320213Y285911D01*
X1318089Y286480D01*
X1315891D01*
X1313767Y285911D01*
X1311863Y284812D01*
X1310308Y283257D01*
X1309209Y281353D01*
X1308640Y279229D01*
Y277031D01*
X1309209Y274907D01*
X1310308Y273003D01*
X1311863Y271448D01*
X1313767Y270349D01*
X1315891Y269780D01*
X1318089D01*
X1320213Y270349D01*
X1322117Y271448D01*
X1323672Y273003D01*
X1324707Y274796D01*
X1780142D01*
X1781418Y275050D01*
X1782499Y275772D01*
X1783979Y277252D01*
X1784937Y276699D01*
X1787061Y276130D01*
X1789259D01*
X1791383Y276699D01*
X1793287Y277798D01*
X1794842Y279353D01*
X1795941Y281257D01*
X1796510Y283381D01*
Y285579D01*
X1795941Y287703D01*
X1794842Y289607D01*
X1793287Y291162D01*
X1791383Y292261D01*
X1789259Y292830D01*
D02*
G37*
G36*
X1865603Y270510D02*
X1858010D01*
Y262917D01*
X1860171Y263496D01*
X1862199Y264666D01*
X1863854Y266321D01*
X1865024Y268349D01*
X1865603Y270510D01*
D02*
G37*
G36*
X1855470D02*
X1847877D01*
X1848456Y268349D01*
X1849626Y266321D01*
X1851281Y264666D01*
X1853309Y263496D01*
X1855470Y262917D01*
Y270510D01*
D02*
G37*
G36*
X829139Y272510D02*
X826941D01*
X824817Y271941D01*
X822913Y270842D01*
X821358Y269287D01*
X820323Y267494D01*
X688276D01*
X687000Y267240D01*
X685918Y266518D01*
X653484Y234084D01*
X555358D01*
X554082Y233830D01*
X553000Y233107D01*
X552278Y232026D01*
X552024Y230750D01*
Y187982D01*
X552278Y186706D01*
X553000Y185624D01*
X602405Y136220D01*
X603486Y135497D01*
X604762Y135243D01*
X606402D01*
X609644Y132001D01*
X608659Y130158D01*
X608624Y130165D01*
X605496D01*
X602429Y129555D01*
X599540Y128358D01*
X596940Y126621D01*
X594729Y124410D01*
X592992Y121810D01*
X591795Y118921D01*
X591185Y115854D01*
Y112726D01*
X591795Y109659D01*
X592992Y106770D01*
X594729Y104170D01*
X596940Y101959D01*
X599540Y100222D01*
X602429Y99025D01*
X605496Y98415D01*
X608624D01*
X611691Y99025D01*
X614580Y100222D01*
X615679Y100956D01*
X632990Y83645D01*
X634072Y82922D01*
X635348Y82668D01*
X652985D01*
X654399Y81254D01*
X654399Y78974D01*
X654399Y76974D01*
Y74454D01*
X641447D01*
X640412Y76247D01*
X638857Y77802D01*
X636953Y78901D01*
X634829Y79470D01*
X632631D01*
X630507Y78901D01*
X628603Y77802D01*
X627048Y76247D01*
X625949Y74343D01*
X625380Y72219D01*
Y70021D01*
X625949Y67897D01*
X627048Y65993D01*
X628603Y64438D01*
X630507Y63339D01*
X632631Y62770D01*
X634829D01*
X636953Y63339D01*
X638857Y64438D01*
X640412Y65993D01*
X641447Y67786D01*
X654399D01*
Y64449D01*
X671481D01*
Y68144D01*
X683609D01*
Y64449D01*
X700691D01*
Y67906D01*
X711340D01*
Y64490D01*
X728840D01*
Y67906D01*
X731489D01*
X744610Y54785D01*
Y46500D01*
X761610D01*
Y59500D01*
X749325D01*
X735228Y73597D01*
X734146Y74320D01*
X732870Y74574D01*
X728840D01*
Y77490D01*
X728840Y77990D01*
Y79490D01*
X728840Y79990D01*
Y92990D01*
X711340D01*
Y89574D01*
X700691D01*
Y93031D01*
X695484D01*
Y97213D01*
X700865Y102594D01*
X700896Y102588D01*
X708118D01*
X709937Y102950D01*
X711479Y103980D01*
X712509Y105521D01*
X712870Y107340D01*
X712509Y109158D01*
X711479Y110700D01*
X711198Y110887D01*
Y113293D01*
X711479Y113480D01*
X712509Y115021D01*
X712870Y116840D01*
X712509Y118659D01*
X711826Y119679D01*
X712488Y121410D01*
X712712Y121679D01*
X712779D01*
Y131001D01*
X710724D01*
Y135793D01*
X712517Y136828D01*
X714072Y138383D01*
X715171Y140287D01*
X715740Y142411D01*
Y144609D01*
X715171Y146733D01*
X714072Y148637D01*
X712517Y150192D01*
X710613Y151291D01*
X708489Y151860D01*
X706291D01*
X704167Y151291D01*
X702263Y150192D01*
X700708Y148637D01*
X698098Y148116D01*
X697759Y148372D01*
Y153714D01*
X709285Y165240D01*
X717570D01*
X718070Y165240D01*
Y165240D01*
X719570D01*
Y165240D01*
X722179D01*
Y131092D01*
X721902D01*
X720083Y130730D01*
X718541Y129700D01*
X717511Y128159D01*
X717150Y126340D01*
X717511Y124522D01*
X718541Y122980D01*
X718822Y122793D01*
Y120387D01*
X718541Y120200D01*
X717511Y118659D01*
X717150Y116840D01*
X717511Y115021D01*
X718541Y113480D01*
X718822Y113293D01*
Y110887D01*
X718541Y110700D01*
X717511Y109158D01*
X717150Y107340D01*
X717511Y105521D01*
X718541Y103980D01*
X720083Y102950D01*
X721902Y102588D01*
X729124D01*
X730943Y102950D01*
X732484Y103980D01*
X732502Y104006D01*
X736769D01*
X739659Y101116D01*
Y87209D01*
X745098D01*
Y80500D01*
X744610D01*
Y67500D01*
X761610D01*
Y80500D01*
X751766D01*
Y87209D01*
X756858Y87209D01*
X758635Y86669D01*
X758982Y86669D01*
X766678D01*
Y96520D01*
X767948D01*
D01*
X766678D01*
Y106371D01*
X758982D01*
X758635Y106371D01*
X756858Y105831D01*
X756635Y105831D01*
X744374D01*
X740507Y109698D01*
X739426Y110420D01*
X738150Y110674D01*
X734086D01*
X733269Y112674D01*
X734116Y113506D01*
X741340D01*
X742616Y113760D01*
X743698Y114482D01*
X743841Y114626D01*
X744460D01*
X744782Y114690D01*
X754190D01*
Y131690D01*
X741190D01*
Y121041D01*
X741184Y121040D01*
X740102Y120317D01*
X739959Y120174D01*
X732502D01*
X732484Y120200D01*
X732204Y120387D01*
Y122793D01*
X732484Y122980D01*
X733514Y124522D01*
X733876Y126340D01*
X733514Y128159D01*
X732484Y129700D01*
X730943Y130730D01*
X729124Y131092D01*
X728847D01*
Y165240D01*
X733070D01*
Y181216D01*
X750090D01*
Y139450D01*
X774090D01*
Y203450D01*
X750090D01*
Y187884D01*
X719880D01*
X718604Y187630D01*
X717523Y186908D01*
X713355Y182740D01*
X704570D01*
Y169955D01*
X692068Y157453D01*
X691345Y156371D01*
X691091Y155095D01*
Y122101D01*
X691345Y120825D01*
X692068Y119744D01*
X694299Y117512D01*
X695381Y116789D01*
X695503Y116765D01*
X696321Y115947D01*
X696506Y115021D01*
X697536Y113480D01*
X697816Y113293D01*
Y110887D01*
X697536Y110700D01*
X696506Y109158D01*
X696144Y107340D01*
X696150Y107309D01*
X689792Y100952D01*
X689070Y99870D01*
X688816Y98594D01*
Y93031D01*
X683609D01*
Y89337D01*
X671481D01*
Y93031D01*
X657578D01*
X656750Y95031D01*
X656922Y95203D01*
X658021Y97107D01*
X658512Y98940D01*
X659122D01*
X660398Y99194D01*
X661479Y99916D01*
X670669Y109106D01*
X683541D01*
Y118974D01*
X665954D01*
Y113821D01*
X657741Y105608D01*
X656771D01*
X655367Y107012D01*
X653463Y108111D01*
X651339Y108680D01*
X649141D01*
X647017Y108111D01*
X645113Y107012D01*
X643558Y105457D01*
X642459Y103553D01*
X641890Y101429D01*
Y99231D01*
X642459Y97107D01*
X643558Y95203D01*
X645113Y93648D01*
X647017Y92549D01*
X649141Y91980D01*
X651339D01*
X652112Y92187D01*
X653676Y90915D01*
X653219Y89337D01*
X636729D01*
X620394Y105671D01*
X621128Y106770D01*
X622325Y109659D01*
X622935Y112726D01*
Y115854D01*
X622519Y117946D01*
X622658Y118353D01*
X623779Y119686D01*
X624102Y119856D01*
X648647D01*
X648796Y119633D01*
X650428Y118542D01*
X652354Y118159D01*
X660072D01*
X661998Y118542D01*
X663630Y119633D01*
X664720Y121265D01*
X665103Y123190D01*
X664720Y125115D01*
X663630Y126747D01*
X661998Y127838D01*
X660072Y128221D01*
X652354D01*
X650428Y127838D01*
X648796Y126747D01*
X648647Y126524D01*
X624551D01*
X610140Y140935D01*
X609059Y141658D01*
X607783Y141911D01*
X606143D01*
X604476Y143579D01*
X605461Y145422D01*
X605496Y145415D01*
X608624D01*
X611691Y146025D01*
X614580Y147222D01*
X617180Y148959D01*
X619391Y151170D01*
X621128Y153770D01*
X622325Y156659D01*
X622583Y157956D01*
X640557D01*
X665909Y132603D01*
X665857Y132340D01*
X666240Y130415D01*
X667330Y128783D01*
X668962Y127692D01*
X670888Y127309D01*
X678606D01*
X680532Y127692D01*
X682164Y128783D01*
X683254Y130415D01*
X683637Y132340D01*
X683254Y134265D01*
X682164Y135897D01*
X680532Y136988D01*
X678606Y137371D01*
X670888D01*
X670624Y137318D01*
X644295Y163647D01*
X643214Y164370D01*
X641938Y164624D01*
X622583D01*
X622325Y165921D01*
X621128Y168810D01*
X619391Y171410D01*
X617180Y173621D01*
X614580Y175358D01*
X611691Y176555D01*
X608624Y177165D01*
X605496D01*
X602429Y176555D01*
X599540Y175358D01*
X596940Y173621D01*
X594729Y171410D01*
X592992Y168810D01*
X591795Y165921D01*
X591185Y162854D01*
Y159726D01*
X591192Y159691D01*
X589349Y158706D01*
X558692Y189363D01*
Y227416D01*
X654865D01*
X656141Y227670D01*
X657223Y228393D01*
X689657Y260826D01*
X820323D01*
X821358Y259033D01*
X822913Y257478D01*
X824817Y256379D01*
X826941Y255810D01*
X829139D01*
X831263Y256379D01*
X833167Y257478D01*
X834722Y259033D01*
X835821Y260937D01*
X836390Y263061D01*
Y265259D01*
X835821Y267383D01*
X834722Y269287D01*
X833167Y270842D01*
X831263Y271941D01*
X829139Y272510D01*
D02*
G37*
G36*
X1823549Y268700D02*
X1821351D01*
X1819227Y268131D01*
X1817323Y267032D01*
X1815768Y265477D01*
X1814669Y263573D01*
X1814100Y261449D01*
Y259251D01*
X1814636Y257251D01*
X1800749Y243364D01*
X1351377D01*
X1350342Y245157D01*
X1348787Y246712D01*
X1346883Y247811D01*
X1344759Y248380D01*
X1342561D01*
X1340437Y247811D01*
X1338533Y246712D01*
X1336978Y245157D01*
X1335879Y243253D01*
X1335310Y241129D01*
Y238931D01*
X1335879Y236807D01*
X1336978Y234903D01*
X1338533Y233348D01*
X1340437Y232249D01*
X1342561Y231680D01*
X1344759D01*
X1346883Y232249D01*
X1348787Y233348D01*
X1350342Y234903D01*
X1351377Y236696D01*
X1802130D01*
X1803406Y236950D01*
X1804487Y237673D01*
X1819351Y252536D01*
X1821351Y252000D01*
X1823549D01*
X1825673Y252569D01*
X1827577Y253668D01*
X1829132Y255223D01*
X1830231Y257127D01*
X1830800Y259251D01*
Y261449D01*
X1830231Y263573D01*
X1829132Y265477D01*
X1827577Y267032D01*
X1825673Y268131D01*
X1823549Y268700D01*
D02*
G37*
G36*
X981590Y209960D02*
X972820D01*
Y202190D01*
X981590D01*
Y209960D01*
D02*
G37*
G36*
X970280D02*
X961510D01*
Y202190D01*
X970280D01*
Y209960D01*
D02*
G37*
G36*
X1006180Y212980D02*
X985180D01*
Y199980D01*
X1001465D01*
X1017113Y184333D01*
X1018194Y183610D01*
X1019470Y183356D01*
X1035060D01*
Y177440D01*
X1068060D01*
Y182086D01*
X1163223D01*
X1164258Y180293D01*
X1165813Y178738D01*
X1167717Y177639D01*
X1169841Y177070D01*
X1172039D01*
X1174163Y177639D01*
X1176067Y178738D01*
X1177622Y180293D01*
X1178721Y182197D01*
X1179290Y184321D01*
Y186519D01*
X1178721Y188643D01*
X1177622Y190547D01*
X1176067Y192102D01*
X1174163Y193201D01*
X1172039Y193770D01*
X1169841D01*
X1167717Y193201D01*
X1165813Y192102D01*
X1164258Y190547D01*
X1163223Y188754D01*
X1068060D01*
Y195940D01*
X1035060D01*
Y190024D01*
X1020851D01*
X1006180Y204695D01*
Y212980D01*
D02*
G37*
G36*
X351045Y187390D02*
X346710D01*
Y176206D01*
X347690D01*
X348974Y176461D01*
X350062Y177188D01*
X350789Y178276D01*
X351045Y179560D01*
Y187390D01*
D02*
G37*
G36*
X344170D02*
X339836D01*
Y179560D01*
X340091Y178276D01*
X340818Y177188D01*
X341906Y176461D01*
X343190Y176206D01*
X344170D01*
Y187390D01*
D02*
G37*
G36*
X817630Y203990D02*
X806360D01*
Y172720D01*
X817630D01*
Y203990D01*
D02*
G37*
G36*
X803820D02*
X792550D01*
Y172720D01*
X803820D01*
Y203990D01*
D02*
G37*
G36*
X357930Y171850D02*
X357114Y171850D01*
X351910D01*
Y162560D01*
Y153270D01*
X357114D01*
X357930Y153270D01*
X359706Y153810D01*
X362306D01*
Y151250D01*
X362560Y149974D01*
X363283Y148892D01*
X371916Y140259D01*
X371380Y138259D01*
Y136061D01*
X371949Y133937D01*
X373048Y132033D01*
X374603Y130478D01*
X376507Y129379D01*
X378631Y128810D01*
X380829D01*
X382953Y129379D01*
X384857Y130478D01*
X386412Y132033D01*
X387511Y133937D01*
X388080Y136061D01*
Y138259D01*
X387511Y140383D01*
X386412Y142287D01*
X384857Y143842D01*
X382953Y144941D01*
X380829Y145510D01*
X378631D01*
X376631Y144974D01*
X369795Y151810D01*
X370624Y153810D01*
X372390D01*
Y171310D01*
X359706D01*
X357930Y171850D01*
D02*
G37*
G36*
X878501Y174551D02*
X869950D01*
Y167008D01*
X878501D01*
Y174551D01*
D02*
G37*
G36*
X850561D02*
X842010D01*
Y167008D01*
X850561D01*
Y174551D01*
D02*
G37*
G36*
X839470D02*
X830919D01*
Y167008D01*
X839470D01*
Y174551D01*
D02*
G37*
G36*
X867410D02*
X858859D01*
Y167008D01*
X867410D01*
Y174551D01*
D02*
G37*
G36*
X466537Y171790D02*
X466090D01*
Y160020D01*
X477860D01*
Y160467D01*
X476971Y163783D01*
X475255Y166757D01*
X472827Y169185D01*
X469853Y170901D01*
X466537Y171790D01*
D02*
G37*
G36*
X463550D02*
X463103D01*
X459787Y170901D01*
X456813Y169185D01*
X454385Y166757D01*
X452669Y163783D01*
X451780Y160467D01*
Y160020D01*
X463550D01*
Y171790D01*
D02*
G37*
G36*
X323450Y154750D02*
X321450Y154750D01*
X314960D01*
Y147210D01*
Y139670D01*
X321450D01*
X322980Y139670D01*
X324980Y139670D01*
X331470D01*
Y147210D01*
X332740D01*
D01*
X331470D01*
Y154750D01*
X324980D01*
X323450Y154750D01*
D02*
G37*
G36*
X293370Y154750D02*
X285350D01*
Y148480D01*
X293370D01*
Y154750D01*
D02*
G37*
G36*
X477860Y157480D02*
X466090D01*
Y145710D01*
X466537D01*
X469853Y146599D01*
X472827Y148315D01*
X475255Y150743D01*
X476971Y153717D01*
X477860Y157033D01*
Y157480D01*
D02*
G37*
G36*
X463550D02*
X451780D01*
Y157033D01*
X452669Y153717D01*
X454385Y150743D01*
X456813Y148315D01*
X459787Y146599D01*
X463103Y145710D01*
X463550D01*
Y157480D01*
D02*
G37*
G36*
X342030Y145940D02*
X334010D01*
Y139670D01*
X342030D01*
Y145940D01*
D02*
G37*
G36*
X304400Y154750D02*
X302400Y154750D01*
X295910D01*
Y147210D01*
Y139670D01*
X302400D01*
X303930Y139670D01*
X305930Y139670D01*
X312420D01*
Y147210D01*
Y154750D01*
X305930D01*
X304400Y154750D01*
D02*
G37*
G36*
X293370Y145940D02*
X285350D01*
Y139670D01*
X293370D01*
Y145940D01*
D02*
G37*
G36*
X817630Y170180D02*
X806360D01*
Y138910D01*
X817630D01*
Y170180D01*
D02*
G37*
G36*
X803820D02*
X792550D01*
Y138910D01*
X803820D01*
Y170180D01*
D02*
G37*
G36*
X850561Y164468D02*
X840740D01*
X830919D01*
Y156925D01*
X831459D01*
Y140949D01*
X850021D01*
Y145888D01*
X859399D01*
Y140949D01*
X865346D01*
Y132177D01*
X863553Y131142D01*
X861998Y129587D01*
X860899Y127683D01*
X860330Y125559D01*
Y123361D01*
X860899Y121237D01*
X861998Y119333D01*
X863553Y117778D01*
X865457Y116679D01*
X867581Y116110D01*
X869779D01*
X871903Y116679D01*
X873807Y117778D01*
X875362Y119333D01*
X876461Y121237D01*
X877030Y123361D01*
Y125559D01*
X876461Y127683D01*
X875362Y129587D01*
X873807Y131142D01*
X872014Y132177D01*
Y140949D01*
X877961D01*
Y156925D01*
X878501D01*
Y164468D01*
X868680D01*
X858859D01*
Y156925D01*
X859399D01*
Y152556D01*
X850021D01*
Y156925D01*
X850561D01*
Y164468D01*
D02*
G37*
G36*
X775190Y131690D02*
X762190D01*
Y114690D01*
X775190D01*
Y118586D01*
X820323D01*
X821358Y116793D01*
X822913Y115238D01*
X824817Y114139D01*
X826941Y113570D01*
X829139D01*
X831263Y114139D01*
X833167Y115238D01*
X834722Y116793D01*
X835821Y118697D01*
X836390Y120821D01*
Y123019D01*
X835821Y125143D01*
X834722Y127047D01*
X833167Y128602D01*
X831263Y129701D01*
X829139Y130270D01*
X826941D01*
X824817Y129701D01*
X822913Y128602D01*
X821358Y127047D01*
X820323Y125254D01*
X775190D01*
Y131690D01*
D02*
G37*
G36*
X769218Y106371D02*
Y97790D01*
X777261D01*
Y106371D01*
X769218D01*
D02*
G37*
G36*
X990920Y103190D02*
X967420D01*
Y96044D01*
X918307D01*
X917272Y97837D01*
X915717Y99392D01*
X913813Y100491D01*
X911689Y101060D01*
X909491D01*
X907367Y100491D01*
X905463Y99392D01*
X903908Y97837D01*
X902809Y95933D01*
X902240Y93809D01*
Y91611D01*
X902809Y89487D01*
X903908Y87583D01*
X905463Y86028D01*
X907367Y84929D01*
X909491Y84360D01*
X911689D01*
X913813Y84929D01*
X915717Y86028D01*
X917272Y87583D01*
X918307Y89376D01*
X967420D01*
Y79690D01*
X990920D01*
Y103190D01*
D02*
G37*
G36*
X777261Y95250D02*
X769218D01*
Y86669D01*
X777261D01*
Y95250D01*
D02*
G37*
G36*
X1031517Y103190D02*
X1028423D01*
X1025435Y102389D01*
X1022755Y100842D01*
X1020568Y98655D01*
X1019021Y95975D01*
X1018220Y92987D01*
Y89893D01*
X1019021Y86905D01*
X1020568Y84225D01*
X1022755Y82038D01*
X1025435Y80491D01*
X1028423Y79690D01*
X1031517D01*
X1034505Y80491D01*
X1037185Y82038D01*
X1039372Y84225D01*
X1040919Y86905D01*
X1041241Y88106D01*
X1089563D01*
X1090598Y86313D01*
X1092153Y84758D01*
X1094057Y83659D01*
X1096181Y83090D01*
X1098379D01*
X1100503Y83659D01*
X1102407Y84758D01*
X1103962Y86313D01*
X1105061Y88217D01*
X1105630Y90341D01*
Y92539D01*
X1105061Y94663D01*
X1103962Y96567D01*
X1102407Y98122D01*
X1100503Y99221D01*
X1098379Y99790D01*
X1096181D01*
X1094057Y99221D01*
X1092153Y98122D01*
X1090598Y96567D01*
X1089563Y94774D01*
X1041241D01*
X1040919Y95975D01*
X1039372Y98655D01*
X1037185Y100842D01*
X1034505Y102389D01*
X1031517Y103190D01*
D02*
G37*
G36*
X552279Y148050D02*
X550081D01*
X547957Y147481D01*
X546053Y146382D01*
X544498Y144827D01*
X543399Y142923D01*
X542830Y140799D01*
Y138601D01*
X543399Y136477D01*
X544498Y134573D01*
X546053Y133018D01*
X547846Y131983D01*
Y124990D01*
X542430D01*
Y111990D01*
X542430Y110490D01*
X542430Y108990D01*
Y95990D01*
X547846D01*
Y85310D01*
X542680D01*
Y70310D01*
X559680D01*
Y85310D01*
X554514D01*
Y95990D01*
X559930D01*
Y108990D01*
X559930Y110490D01*
X559930Y111990D01*
Y124990D01*
X554514D01*
Y131983D01*
X556307Y133018D01*
X557862Y134573D01*
X558961Y136477D01*
X559530Y138601D01*
Y140799D01*
X558961Y142923D01*
X557862Y144827D01*
X556307Y146382D01*
X554403Y147481D01*
X552279Y148050D01*
D02*
G37*
G36*
X1239638Y76580D02*
X1239520D01*
Y67310D01*
X1248790D01*
Y67428D01*
X1248072Y70108D01*
X1246684Y72512D01*
X1244722Y74474D01*
X1242318Y75862D01*
X1239638Y76580D01*
D02*
G37*
G36*
X1236980D02*
X1236862D01*
X1234182Y75862D01*
X1231778Y74474D01*
X1229816Y72512D01*
X1228428Y70108D01*
X1227710Y67428D01*
Y67310D01*
X1236980D01*
Y76580D01*
D02*
G37*
G36*
X560220Y64850D02*
X552450D01*
Y58080D01*
X560220D01*
Y64850D01*
D02*
G37*
G36*
X549910D02*
X542140D01*
Y58080D01*
X549910D01*
Y64850D01*
D02*
G37*
G36*
X1545257Y77428D02*
X1542623D01*
X1540080Y76746D01*
X1537800Y75430D01*
X1535938Y73568D01*
X1534621Y71287D01*
X1533940Y68744D01*
Y66111D01*
X1534621Y63568D01*
X1535938Y61287D01*
X1537800Y59426D01*
X1540080Y58109D01*
X1542623Y57428D01*
X1545257D01*
X1547800Y58109D01*
X1550080Y59426D01*
X1551942Y61287D01*
X1553259Y63568D01*
X1553940Y66111D01*
Y68744D01*
X1553259Y71287D01*
X1551942Y73568D01*
X1550080Y75430D01*
X1547800Y76746D01*
X1545257Y77428D01*
D02*
G37*
G36*
X1519857D02*
X1517224D01*
X1514680Y76746D01*
X1512400Y75430D01*
X1510538Y73568D01*
X1509221Y71287D01*
X1508540Y68744D01*
Y66111D01*
X1509221Y63568D01*
X1510538Y61287D01*
X1512400Y59426D01*
X1514680Y58109D01*
X1517224Y57428D01*
X1519857D01*
X1522400Y58109D01*
X1524680Y59426D01*
X1526542Y61287D01*
X1527858Y63568D01*
X1528540Y66111D01*
Y68744D01*
X1527858Y71287D01*
X1526542Y73568D01*
X1524680Y75430D01*
X1522400Y76746D01*
X1519857Y77428D01*
D02*
G37*
G36*
X1494456D02*
X1491823D01*
X1489280Y76746D01*
X1487000Y75430D01*
X1485138Y73568D01*
X1483822Y71287D01*
X1483140Y68744D01*
Y66111D01*
X1483822Y63568D01*
X1485138Y61287D01*
X1487000Y59426D01*
X1489280Y58109D01*
X1491823Y57428D01*
X1494456D01*
X1497000Y58109D01*
X1499280Y59426D01*
X1501142Y61287D01*
X1502458Y63568D01*
X1503140Y66111D01*
Y68744D01*
X1502458Y71287D01*
X1501142Y73568D01*
X1499280Y75430D01*
X1497000Y76746D01*
X1494456Y77428D01*
D02*
G37*
G36*
X1469057D02*
X1466423D01*
X1463880Y76746D01*
X1461600Y75430D01*
X1459738Y73568D01*
X1458421Y71287D01*
X1457740Y68744D01*
Y66111D01*
X1458421Y63568D01*
X1459738Y61287D01*
X1461600Y59426D01*
X1463880Y58109D01*
X1466423Y57428D01*
X1469057D01*
X1471600Y58109D01*
X1473880Y59426D01*
X1475742Y61287D01*
X1477059Y63568D01*
X1477740Y66111D01*
Y68744D01*
X1477059Y71287D01*
X1475742Y73568D01*
X1473880Y75430D01*
X1471600Y76746D01*
X1469057Y77428D01*
D02*
G37*
G36*
X1443656D02*
X1441024D01*
X1438480Y76746D01*
X1436200Y75430D01*
X1434338Y73568D01*
X1433022Y71287D01*
X1432340Y68744D01*
Y66111D01*
X1433022Y63568D01*
X1434338Y61287D01*
X1436200Y59426D01*
X1438480Y58109D01*
X1441024Y57428D01*
X1443656D01*
X1446200Y58109D01*
X1448480Y59426D01*
X1450342Y61287D01*
X1451658Y63568D01*
X1452340Y66111D01*
Y68744D01*
X1451658Y71287D01*
X1450342Y73568D01*
X1448480Y75430D01*
X1446200Y76746D01*
X1443656Y77428D01*
D02*
G37*
G36*
X1420940Y77545D02*
X1412940D01*
X1410599Y77080D01*
X1408614Y75753D01*
X1407288Y73769D01*
X1406823Y71428D01*
Y63428D01*
X1407288Y61087D01*
X1408614Y59102D01*
X1410599Y57776D01*
X1412940Y57310D01*
X1420940D01*
X1423281Y57776D01*
X1425266Y59102D01*
X1426592Y61087D01*
X1427057Y63428D01*
Y71428D01*
X1426592Y73769D01*
X1425266Y75753D01*
X1423281Y77080D01*
X1420940Y77545D01*
D02*
G37*
G36*
X1341167Y76040D02*
X1338533D01*
X1335990Y75359D01*
X1333710Y74042D01*
X1331848Y72180D01*
X1330531Y69900D01*
X1329850Y67357D01*
Y64724D01*
X1330531Y62180D01*
X1331848Y59900D01*
X1333710Y58038D01*
X1335990Y56722D01*
X1338533Y56040D01*
X1341167D01*
X1343710Y56722D01*
X1345990Y58038D01*
X1347852Y59900D01*
X1349169Y62180D01*
X1349850Y64724D01*
Y67357D01*
X1349169Y69900D01*
X1347852Y72180D01*
X1345990Y74042D01*
X1343710Y75359D01*
X1341167Y76040D01*
D02*
G37*
G36*
X1315766D02*
X1313134D01*
X1310590Y75359D01*
X1308310Y74042D01*
X1306448Y72180D01*
X1305132Y69900D01*
X1304450Y67357D01*
Y64724D01*
X1305132Y62180D01*
X1306448Y59900D01*
X1308310Y58038D01*
X1310590Y56722D01*
X1313134Y56040D01*
X1315766D01*
X1318310Y56722D01*
X1320590Y58038D01*
X1322452Y59900D01*
X1323768Y62180D01*
X1324450Y64724D01*
Y67357D01*
X1323768Y69900D01*
X1322452Y72180D01*
X1320590Y74042D01*
X1318310Y75359D01*
X1315766Y76040D01*
D02*
G37*
G36*
X1290367D02*
X1287733D01*
X1285190Y75359D01*
X1282910Y74042D01*
X1281048Y72180D01*
X1279732Y69900D01*
X1279050Y67357D01*
Y64724D01*
X1279732Y62180D01*
X1281048Y59900D01*
X1282910Y58038D01*
X1285190Y56722D01*
X1287733Y56040D01*
X1290367D01*
X1292910Y56722D01*
X1295190Y58038D01*
X1297052Y59900D01*
X1298369Y62180D01*
X1299050Y64724D01*
Y67357D01*
X1298369Y69900D01*
X1297052Y72180D01*
X1295190Y74042D01*
X1292910Y75359D01*
X1290367Y76040D01*
D02*
G37*
G36*
X1264967D02*
X1262334D01*
X1259790Y75359D01*
X1257510Y74042D01*
X1255648Y72180D01*
X1254332Y69900D01*
X1253650Y67357D01*
Y64724D01*
X1254332Y62180D01*
X1255648Y59900D01*
X1257510Y58038D01*
X1259790Y56722D01*
X1262334Y56040D01*
X1264967D01*
X1267510Y56722D01*
X1269790Y58038D01*
X1271652Y59900D01*
X1272969Y62180D01*
X1273650Y64724D01*
Y67357D01*
X1272969Y69900D01*
X1271652Y72180D01*
X1269790Y74042D01*
X1267510Y75359D01*
X1264967Y76040D01*
D02*
G37*
G36*
X1216850Y76157D02*
X1208850D01*
X1206509Y75692D01*
X1204524Y74366D01*
X1203198Y72381D01*
X1202732Y70040D01*
Y62040D01*
X1203198Y59699D01*
X1204524Y57714D01*
X1206509Y56388D01*
X1208850Y55922D01*
X1216850D01*
X1219191Y56388D01*
X1221176Y57714D01*
X1222502Y59699D01*
X1222968Y62040D01*
Y70040D01*
X1222502Y72381D01*
X1221176Y74366D01*
X1219191Y75692D01*
X1216850Y76157D01*
D02*
G37*
G36*
X1248790Y64770D02*
X1239520D01*
Y55500D01*
X1239638D01*
X1242318Y56218D01*
X1244722Y57606D01*
X1246684Y59568D01*
X1248072Y61972D01*
X1248790Y64652D01*
Y64770D01*
D02*
G37*
G36*
X1236980D02*
X1227710D01*
Y64652D01*
X1228428Y61972D01*
X1229816Y59568D01*
X1231778Y57606D01*
X1234182Y56218D01*
X1236862Y55500D01*
X1236980D01*
Y64770D01*
D02*
G37*
G36*
X622935Y83165D02*
X591185D01*
Y51415D01*
X622935D01*
Y83165D01*
D02*
G37*
G36*
X560220Y55540D02*
X552450D01*
Y48770D01*
X560220D01*
Y55540D01*
D02*
G37*
G36*
X549910D02*
X542140D01*
Y48770D01*
X549910D01*
Y55540D01*
D02*
G37*
G36*
X260179Y37560D02*
X257981D01*
X255857Y36991D01*
X253953Y35892D01*
X252398Y34337D01*
X251299Y32433D01*
X250730Y30309D01*
Y28111D01*
X251299Y25987D01*
X252398Y24083D01*
X253953Y22528D01*
X255857Y21429D01*
X257981Y20860D01*
X260179D01*
X262303Y21429D01*
X264207Y22528D01*
X265762Y24083D01*
X266430Y25241D01*
X1166829D01*
X1166969Y24717D01*
X1168068Y22813D01*
X1169623Y21258D01*
X1171527Y20159D01*
X1173651Y19590D01*
X1175849D01*
X1177973Y20159D01*
X1179877Y21258D01*
X1181432Y22813D01*
X1182531Y24717D01*
X1183100Y26841D01*
Y29039D01*
X1182531Y31163D01*
X1181432Y33067D01*
X1179877Y34622D01*
X1177973Y35721D01*
X1175849Y36290D01*
X1173651D01*
X1171527Y35721D01*
X1169623Y34622D01*
X1168068Y33067D01*
X1167400Y31909D01*
X267001D01*
X266861Y32433D01*
X265762Y34337D01*
X264207Y35892D01*
X262303Y36991D01*
X260179Y37560D01*
D02*
G37*
%LPD*%
D10*
X849590Y502909D02*
Y539590D01*
X819681Y508000D02*
X835181Y492500D01*
X839181D02*
X849590Y502909D01*
X835181Y492500D02*
X837181D01*
X839181D01*
X801370Y508000D02*
X819681D01*
X862090Y546220D02*
X878720D01*
X889000Y535940D01*
X815630Y473760D02*
X1266240D01*
X815500Y468630D02*
X1045196D01*
X1048736Y465090D02*
X1309640D01*
X1045196Y468630D02*
X1048736Y465090D01*
X1309640D02*
X1339850Y495300D01*
X928015Y530860D02*
X930910D01*
X922935Y535940D02*
X928015Y530860D01*
X889000Y535940D02*
X922935D01*
X930910Y530860D02*
X946150Y546100D01*
X1418590D01*
X731835Y551220D02*
X832090D01*
X723900Y556260D02*
X726795D01*
X731835Y551220D01*
D12*
X1342930Y460280D02*
X1365250Y482600D01*
X320040Y169810D02*
Y188660D01*
X315440Y165210D02*
X320040Y169810D01*
X313690Y165210D02*
X315440D01*
X320040Y188660D02*
Y195510D01*
X348930Y224400D01*
X521516D01*
X742950Y421640D02*
X777924D01*
X781284Y418280D01*
X521516Y224400D02*
X581595Y284480D01*
X854710D01*
X751960Y561220D02*
X832090D01*
X742950Y570230D02*
X751960Y561220D01*
X826557Y421640D02*
X871220D01*
X781284Y418280D02*
X823197D01*
X826557Y421640D01*
X871220D02*
X1080770D01*
X1106170Y447040D01*
X1315720D01*
X1976000Y708660D02*
Y762890D01*
X1968100Y770890D02*
Y847090D01*
X1969270Y769620D02*
X1976000Y762890D01*
X1975880Y678180D02*
X1976000Y678300D01*
Y708660D01*
X1975880Y676180D02*
Y678180D01*
X1925810Y881380D02*
X1960100Y847090D01*
X1968100D01*
X1893570Y881380D02*
X1925810D01*
X1966830Y769620D02*
X1968100Y770890D01*
X1966830Y769620D02*
X1969270D01*
X1948180Y609720D02*
X1976120D01*
X1875650Y624840D02*
X1880928Y619562D01*
X1867150Y624840D02*
X1871400D01*
X1875650D01*
X1880928Y619562D02*
X1884878D01*
X1898650Y605790D01*
X822328Y899160D02*
Y914048D01*
Y868680D02*
Y899160D01*
X749698Y950000D02*
X786376D01*
X746760Y947062D02*
X749698Y950000D01*
X760074Y923699D02*
X786376Y950000D01*
X822328Y914048D01*
X1842040Y600590D02*
X1844040D01*
X1807870Y566420D02*
X1842040Y600590D01*
X1807210Y566420D02*
X1807870D01*
X848360Y601980D02*
X857250Y593090D01*
X814070Y601980D02*
X848360D01*
X883960Y551220D02*
X913130Y580390D01*
X862090Y551220D02*
X883960D01*
X1948180Y532257D02*
Y609720D01*
Y532257D02*
X1962150Y518287D01*
Y422910D02*
Y518287D01*
X1001320Y286460D02*
Y304460D01*
X1010679Y277101D02*
X1020547D01*
X1053060Y244588D01*
Y241450D02*
Y244588D01*
Y241450D02*
X1058290Y236220D01*
X1001320Y286460D02*
X1004570Y283210D01*
X1002760Y281400D02*
X1004570Y283210D01*
X971390Y281400D02*
X1002760D01*
X756920Y468630D02*
X759669D01*
X756920D02*
X787240D01*
X759669D02*
X764669Y463630D01*
X969010Y279020D02*
X971390Y281400D01*
X968260Y279020D02*
X969010D01*
X916940Y257750D02*
X946990D01*
X968260Y279020D01*
X868680Y124460D02*
Y149222D01*
X840740D02*
X868680D01*
X764669Y463630D02*
X787240D01*
X751110Y53000D02*
X753110D01*
X718820Y947062D02*
X746760D01*
X717550Y945792D02*
X718820Y947062D01*
X689848Y945792D02*
X717550D01*
X711810Y905698D02*
X729811Y923699D01*
X760074D01*
X711810Y888073D02*
Y905698D01*
X688340Y947300D02*
X689848Y945792D01*
X640080Y936388D02*
X650992Y947300D01*
X688340D01*
X640080Y923976D02*
X672090Y891966D01*
X640080Y923976D02*
Y936388D01*
X682570Y827010D02*
X685800Y830240D01*
X672090Y888107D02*
Y891966D01*
X675155Y827010D02*
X682570D01*
X656539Y808394D02*
X675155Y827010D01*
X648374Y808394D02*
X656539D01*
X646430Y806450D02*
X648374Y808394D01*
X543560Y867410D02*
Y887970D01*
X431800Y680720D02*
Y702430D01*
X78340Y762000D02*
X79610Y763270D01*
Y842010D01*
X70340Y762000D02*
X78340D01*
X63610Y755270D02*
X70340Y762000D01*
X63610Y746250D02*
Y755270D01*
X41460Y671430D02*
X54828D01*
X39250Y721890D02*
X63610Y746250D01*
X39250Y707390D02*
Y721890D01*
Y678180D02*
Y707390D01*
X37980Y674910D02*
X41460Y671430D01*
X37980Y676910D02*
X39250Y678180D01*
X37980Y674910D02*
Y676910D01*
X156210Y616070D02*
X200331D01*
X204261Y612140D01*
X207010D01*
X117912Y600908D02*
X121862D01*
X93960Y624860D02*
X98425Y620395D01*
X54828Y671430D02*
X93960Y632298D01*
Y624860D02*
Y632298D01*
X49856Y604640D02*
X50000Y604784D01*
X19050Y604640D02*
X49856D01*
X724538Y533400D02*
X730768Y539630D01*
X783590D01*
X722630Y533400D02*
X724538D01*
X705999Y126340D02*
X707390Y127731D01*
Y143510D01*
X704507Y126340D02*
X705999D01*
X365640Y151250D02*
X379730Y137160D01*
X659122Y102274D02*
X670888Y114040D01*
X551180Y117990D02*
Y139700D01*
X692150Y71478D02*
X692388Y71240D01*
X720090D01*
X670888Y114040D02*
X674747D01*
X662940Y71478D02*
X692150D01*
X720090Y71240D02*
X732870D01*
X751110Y53000D01*
X652184Y102274D02*
X659122D01*
X633730Y71120D02*
X662582D01*
X650240Y100330D02*
X652184Y102274D01*
X662582Y71120D02*
X662940Y71478D01*
X131390Y595630D02*
X135640D01*
X121862Y600908D02*
X127140Y595630D01*
X131390D01*
X104140Y614680D02*
X117912Y600908D01*
X50000Y593958D02*
Y604784D01*
X57150Y586740D02*
Y586808D01*
X50000Y593958D02*
X57150Y586808D01*
X363100Y265970D02*
X372530Y256540D01*
Y247230D02*
Y256540D01*
X363100Y265970D02*
Y267970D01*
X312420Y263010D02*
X313690Y261740D01*
X372530Y247230D02*
X373380Y246380D01*
X365640Y151250D02*
Y162560D01*
X312420Y249990D02*
Y263010D01*
X307340Y244910D02*
X312420Y249990D01*
X279400Y238760D02*
X306640D01*
X307340Y238060D01*
Y244910D01*
X1856740Y271780D02*
Y454660D01*
X1854200Y457200D02*
X1856740Y454660D01*
X1845190Y586740D02*
X1871400D01*
X1844040Y585590D02*
X1846040D01*
X1854200Y457200D02*
X1865470Y468470D01*
Y538068D01*
X1849520Y554018D02*
X1865470Y538068D01*
X1849520Y554018D02*
Y582110D01*
X1846040Y585590D02*
X1849520Y582110D01*
X1844040Y585590D02*
X1845190Y586740D01*
X1464101Y535940D02*
X1466850D01*
X1460291Y532130D02*
X1464101Y535940D01*
X1148080Y532130D02*
X1460291D01*
X430530Y572770D02*
X690880D01*
X410030Y593270D02*
X430530Y572770D01*
X162886Y593270D02*
X410030D01*
X147825Y608330D02*
X162886Y593270D01*
X131390Y608330D02*
X147825D01*
X905510Y516890D02*
X1281032D01*
X1287382Y510540D02*
X1289050D01*
X1281032Y516890D02*
X1287382Y510540D01*
X1062202Y483940D02*
X1078262Y500000D01*
X1315358D01*
X1061128Y613530D02*
X1064818Y617220D01*
X1131570D01*
X1063080Y704850D02*
X1131570D01*
X1062990Y704940D02*
X1063080Y704850D01*
X636810Y780740D02*
X663170Y754380D01*
X636810Y780740D02*
Y839584D01*
X662940Y865714D01*
Y869573D01*
X663170Y754380D02*
X706120Y797330D01*
Y830240D01*
X934495Y332740D02*
X1363018D01*
X899385D02*
X905705Y339060D01*
X928175D01*
X934495Y332740D01*
X1363018D02*
X1416748Y386470D01*
X612140Y332740D02*
X899385D01*
X926294Y334520D02*
X938234Y322580D01*
X907586Y334520D02*
X926294D01*
X588010Y356870D02*
X612140Y332740D01*
X895646Y322580D02*
X907586Y334520D01*
X636270Y406400D02*
X1368878D01*
X949960Y312960D02*
X951904Y311016D01*
X958984D02*
X961555Y308445D01*
X938234Y322580D02*
X1556058D01*
X444500D02*
X895646D01*
X429260Y337820D02*
X444500Y322580D01*
X1556058D02*
X1619948Y386470D01*
X951904Y311016D02*
X958984D01*
X961555Y308445D02*
X993840D01*
X862090Y556220D02*
Y561220D01*
X688276Y264160D02*
X828040D01*
X768690Y123190D02*
X769960Y121920D01*
X828040D01*
X654865Y230750D02*
X688276Y264160D01*
X604762Y138577D02*
X607783D01*
X555358Y230750D02*
X654865D01*
X555358Y187982D02*
X604762Y138577D01*
X623170Y123190D02*
X656213D01*
X607783Y138577D02*
X623170Y123190D01*
X555358Y187982D02*
Y230750D01*
X1766946Y612140D02*
X1831518D01*
X1756026Y601220D02*
X1766946Y612140D01*
X1831518D02*
X1833608Y614230D01*
X1582998Y601220D02*
X1756026D01*
X1833608Y614230D02*
X1854472D01*
X1560138Y596140D02*
X1822702D01*
X1835712Y609150D01*
X1543748Y612530D02*
X1560138Y596140D01*
X1569148Y615070D02*
X1582998Y601220D01*
X1930150Y599440D02*
X1939290Y590300D01*
Y521970D02*
Y590300D01*
X1925900Y599440D02*
X1930150D01*
Y624840D02*
X1949200Y643890D01*
X1925900Y624840D02*
X1930150D01*
X1949200Y643890D02*
X1979930D01*
X1925900Y612140D02*
X1935480D01*
X1937620Y614280D02*
Y616298D01*
X1935480Y612140D02*
X1937620Y614280D01*
Y616298D02*
X1942312Y620990D01*
X827854Y483940D02*
X1062202D01*
X826654Y485140D02*
X827854Y483940D01*
X808980Y485140D02*
X826654D01*
X1046743Y460280D02*
X1342930D01*
X815500Y463630D02*
X1043393D01*
X1046743Y460280D01*
X808870Y485250D02*
X808980Y485140D01*
X1266240Y473760D02*
X1267460Y474980D01*
X815500Y473630D02*
X815630Y473760D01*
X1290320Y433070D02*
X1376680D01*
X783590Y524630D02*
X786250Y521970D01*
X843062D01*
X844550Y523458D01*
Y539550D01*
X844590Y539590D01*
X811530Y541020D02*
X814279D01*
X819479Y546220D01*
X832090D01*
X780110Y521150D02*
X783590Y524630D01*
X1861770Y599440D02*
X1871400D01*
X1857069Y604141D02*
X1861770Y599440D01*
X1857069Y604141D02*
Y604449D01*
X1852368Y609150D02*
X1857069Y604449D01*
X1835712Y609150D02*
X1852368D01*
X332740Y165210D02*
Y188660D01*
Y195510D01*
X339550Y202320D01*
X423790D01*
X424180Y201930D01*
X1449279Y482600D02*
X1854200D01*
X1445469Y486410D02*
X1449279Y482600D01*
X1442720Y486410D02*
X1445469D01*
X138659Y487300D02*
X388172D01*
X389062Y486410D01*
X636270D01*
X1368878Y406400D02*
X1391348Y383930D01*
X1343660Y240030D02*
X1802130D01*
X1822450Y260350D01*
X1234440Y425450D02*
X1248410Y411480D01*
X1566998D01*
X1594548Y383930D01*
X1316990Y278130D02*
X1780142D01*
X1786492Y284480D01*
X1788160D01*
X127140Y621030D02*
X131390D01*
X1265743Y655320D02*
X1504950D01*
X1027253Y640540D02*
X1047038Y620755D01*
X122562Y640540D02*
X1027253D01*
X120330Y627840D02*
X127140Y621030D01*
X120330Y627840D02*
Y638308D01*
X122562Y640540D01*
X1047038Y607232D02*
Y620755D01*
Y607232D02*
X1052050Y602220D01*
X1212643D01*
X1265743Y655320D01*
X1059560Y186690D02*
X1060830Y185420D01*
X1170940D01*
X1430203Y612530D02*
X1442148D01*
X1392983Y575310D02*
X1430203Y612530D01*
X1172210Y575310D02*
X1392983D01*
X138659Y512700D02*
X365177D01*
X365557Y513080D01*
X590550D01*
X1854472Y614230D02*
X1856562Y612140D01*
X1871400D01*
X1474679Y508000D02*
X1854200D01*
X1470869Y504190D02*
X1474679Y508000D01*
X1468120Y504190D02*
X1470869D01*
X789830Y585470D02*
X789940Y585360D01*
X765810Y585470D02*
X789830D01*
X1174115Y28575D02*
X1174750Y27940D01*
X259715Y28575D02*
X1174115D01*
X259080Y29210D02*
X259715Y28575D01*
X260350Y165100D02*
X294530D01*
X294640Y165210D01*
X995680Y206480D02*
X999680D01*
X1019470Y186690D01*
X1043560D01*
X1014320Y248378D02*
Y261960D01*
X1010040Y244098D02*
X1014320Y248378D01*
X1010040Y231458D02*
Y244098D01*
Y231458D02*
X1015120Y226378D01*
Y212250D02*
Y226378D01*
Y212250D02*
X1018350Y209020D01*
X1022350D01*
X1002910Y245640D02*
X1007820Y250550D01*
Y261960D01*
X1002910Y238710D02*
Y245640D01*
X994820Y304460D02*
Y307465D01*
X993840Y308445D02*
X994820Y307465D01*
X910590Y92710D02*
X977900D01*
X979170Y91440D01*
X1014320Y304460D02*
X1015250Y303530D01*
X1096010D01*
X1029970Y91440D02*
X1097280D01*
X994820Y258460D02*
Y261960D01*
X977780Y241420D02*
X994820Y258460D01*
X977780Y235960D02*
Y241420D01*
X972550Y230730D02*
X977780Y235960D01*
X971550Y230730D02*
X972550D01*
X999680Y235480D02*
X1002910Y238710D01*
X995680Y235480D02*
X999680D01*
X1022350Y238020D02*
X1024150Y236220D01*
X1042290D01*
X551180Y77810D02*
Y102990D01*
X751662Y74000D02*
X753110D01*
X748432Y77230D02*
X751662Y74000D01*
X748432Y77230D02*
Y96520D01*
Y97058D01*
X738150Y107340D02*
X748432Y97058D01*
X725513Y107340D02*
X738150D01*
X711320Y171990D02*
Y173990D01*
X694425Y155095D02*
X711320Y171990D01*
X694425Y122101D02*
Y155095D01*
Y122101D02*
X696657Y119869D01*
X697114D01*
X700143Y116840D01*
X704507D01*
X762090Y171450D02*
Y175820D01*
X753360Y184550D02*
X762090Y175820D01*
X719880Y184550D02*
X753360D01*
X711320Y175990D02*
X719880Y184550D01*
X711320Y173990D02*
Y175990D01*
X607060Y161290D02*
X641938D01*
X670888Y132340D01*
X674747D01*
X607060Y114290D02*
X635348Y86002D01*
X662940D01*
X692150D02*
X692388Y86240D01*
X720090D01*
X662940Y86002D02*
X692150D01*
Y98594D01*
X700896Y107340D01*
X704507D01*
X725513Y116840D02*
X741340D01*
X742460Y117960D01*
X744460D01*
X747690Y121190D01*
Y123190D01*
X725513Y173183D02*
X726320Y173990D01*
X725513Y126340D02*
Y173183D01*
X431800Y717430D02*
Y741340D01*
X705339Y880223D02*
X707571Y877991D01*
X702310Y883709D02*
X705339Y880680D01*
Y880223D02*
Y880680D01*
X707571Y877991D02*
X729491D01*
X702310Y883709D02*
Y888073D01*
X688340Y896365D02*
Y932300D01*
Y896365D02*
X692810Y891895D01*
Y888073D02*
Y891895D01*
X650240Y932180D02*
X688220D01*
X688340Y932300D01*
X729491Y877991D02*
X736690Y885190D01*
X745490Y931268D02*
X746760Y932538D01*
X717550Y931268D02*
X745490D01*
X716518Y932300D02*
X717550Y931268D01*
X688340Y932300D02*
X716518D01*
X736690Y865190D02*
Y885190D01*
Y865190D02*
X749180Y852700D01*
Y835660D02*
Y852700D01*
X730700Y839140D02*
X734180Y835660D01*
X730700Y839140D02*
Y844566D01*
X711810Y863456D02*
X730700Y844566D01*
X711810Y863456D02*
Y867067D01*
X705540Y851240D02*
X706120D01*
X702310Y854470D02*
X705540Y851240D01*
X702310Y854470D02*
Y867067D01*
X665480Y849760D02*
X666960Y851240D01*
X685800D01*
X687800D01*
X692810Y856250D01*
Y867067D01*
X543560Y902970D02*
Y922950D01*
X653790Y888107D02*
Y891066D01*
X612676Y932180D02*
X653790Y891066D01*
X608330Y932180D02*
X612676D01*
X269240Y301738D02*
X327502Y360000D01*
X269240Y234552D02*
Y301738D01*
Y234552D02*
X279392Y224400D01*
X313230D01*
X320040Y231210D01*
Y238060D01*
X345440D02*
Y244910D01*
X348100Y247570D01*
Y267970D01*
Y269970D01*
X341430Y276640D02*
X348100Y269970D01*
X341430Y276640D02*
Y298450D01*
X332740Y238060D02*
Y266700D01*
X331470Y267970D02*
X332740Y266700D01*
X331470Y267970D02*
Y269970D01*
X316430Y285010D02*
X331470Y269970D01*
X316430Y285010D02*
Y298450D01*
X294640Y165210D02*
Y174020D01*
X297108Y176488D01*
X302018D01*
X307340Y181810D01*
Y188660D01*
X1948180Y624720D02*
X1976120D01*
X1944450Y620990D02*
X1948180Y624720D01*
X1942312Y620990D02*
X1944450D01*
X92710Y577850D02*
Y595030D01*
X88880Y598860D02*
X92710Y595030D01*
X88880Y598860D02*
Y613290D01*
X81140Y621030D02*
X88880Y613290D01*
X76890Y621030D02*
X81140D01*
X76890Y544480D02*
Y595630D01*
Y544480D02*
X84680Y536690D01*
X64916Y616054D02*
X72640Y608330D01*
X50000Y619784D02*
X53730Y616054D01*
X64916D01*
X71120Y473710D02*
X84680Y487270D01*
Y536690D01*
X72640Y608330D02*
X76890D01*
X49856Y619640D02*
X50000Y619784D01*
X19050Y619640D02*
X49856D01*
D20*
X320040Y188660D02*
D03*
X307340Y238060D02*
D03*
X332740Y188660D02*
D03*
X345440D02*
D03*
X307340D02*
D03*
X320040Y238060D02*
D03*
X332740D02*
D03*
X345440D02*
D03*
D21*
X313690Y165210D02*
D03*
X1948180Y609720D02*
D03*
X1976120D02*
D03*
X543560Y887970D02*
D03*
X431800Y702430D02*
D03*
X551180Y117990D02*
D03*
X50000Y604784D02*
D03*
X19050Y604640D02*
D03*
X332740Y165210D02*
D03*
X431800Y717430D02*
D03*
X789940Y585360D02*
D03*
Y603360D02*
D03*
X543560Y902970D02*
D03*
X551180Y102990D02*
D03*
X332740Y147210D02*
D03*
X313690D02*
D03*
X294640Y165210D02*
D03*
Y147210D02*
D03*
X1976120Y624720D02*
D03*
X1948180D02*
D03*
X50000Y619784D02*
D03*
X19050Y619640D02*
D03*
D22*
X1976000Y708660D02*
D03*
X1975880Y678180D02*
D03*
X39250Y707390D02*
D03*
X37980Y676910D02*
D03*
X363100Y267970D02*
D03*
X316470D02*
D03*
X365640Y162560D02*
D03*
X1961000Y708660D02*
D03*
X1960880Y678180D02*
D03*
X24250Y707390D02*
D03*
X22980Y676910D02*
D03*
X749180Y835660D02*
D03*
X734180D02*
D03*
X726320Y173990D02*
D03*
X711320D02*
D03*
X350640Y162560D02*
D03*
X331470Y267970D02*
D03*
X348100D02*
D03*
D23*
X1968100Y847090D02*
D03*
X1966830Y769620D02*
D03*
X79610Y842010D02*
D03*
X78340Y762000D02*
D03*
X1918100Y847090D02*
D03*
X1916830Y769620D02*
D03*
X29610Y842010D02*
D03*
X28340Y762000D02*
D03*
D24*
X1898650Y605790D02*
D03*
X104140Y614680D02*
D03*
D25*
X1871400Y624840D02*
D03*
X131390Y595630D02*
D03*
X1925900Y586740D02*
D03*
X76890Y633730D02*
D03*
X1925900Y599440D02*
D03*
Y624840D02*
D03*
X1871400Y599440D02*
D03*
X131390Y608330D02*
D03*
Y621030D02*
D03*
X1871400Y612140D02*
D03*
X76890Y621030D02*
D03*
Y608330D02*
D03*
Y595630D02*
D03*
X131390Y633730D02*
D03*
X1871400Y586740D02*
D03*
X1925900Y612140D02*
D03*
D26*
X746760Y947062D02*
D03*
X717550Y945792D02*
D03*
X692150Y71478D02*
D03*
X662940D02*
D03*
X746760Y932538D02*
D03*
X717550Y931268D02*
D03*
X692150Y86002D02*
D03*
X662940D02*
D03*
D27*
X822328Y899160D02*
D03*
Y868680D02*
D03*
X805812D02*
D03*
Y899160D02*
D03*
D28*
X1844040Y600590D02*
D03*
X814070Y601980D02*
D03*
X837181Y492500D02*
D03*
X783590Y539630D02*
D03*
X688340Y947300D02*
D03*
X156210Y616070D02*
D03*
X720090Y71240D02*
D03*
X783590Y524630D02*
D03*
X156210Y631070D02*
D03*
X1844040Y585590D02*
D03*
X814070Y586980D02*
D03*
X837181Y507500D02*
D03*
X688340Y932300D02*
D03*
X720090Y86240D02*
D03*
D29*
X1001320Y304460D02*
D03*
X994820Y261960D02*
D03*
X1001320D02*
D03*
X1007820D02*
D03*
X1014320D02*
D03*
X994820Y304460D02*
D03*
X1007820D02*
D03*
X1014320D02*
D03*
D30*
X1058290Y236220D02*
D03*
X1059560Y186690D02*
D03*
X1043560D02*
D03*
X1042290Y236220D02*
D03*
D31*
X1004570Y283210D02*
D03*
D32*
X787240Y468630D02*
D03*
Y463630D02*
D03*
X815500Y473630D02*
D03*
Y463630D02*
D03*
Y468630D02*
D03*
X787240Y473630D02*
D03*
D33*
X969010Y279020D02*
D03*
Y295020D02*
D03*
D34*
X916940Y257750D02*
D03*
Y313750D02*
D03*
D35*
X868680Y149222D02*
D03*
X840740D02*
D03*
Y165738D02*
D03*
X868680D02*
D03*
D36*
X753110Y53000D02*
D03*
X685800Y830240D02*
D03*
X706120D02*
D03*
X685800Y851240D02*
D03*
X706120D02*
D03*
X753110Y74000D02*
D03*
D37*
X711810Y888073D02*
D03*
D38*
X672090Y888107D02*
D03*
D39*
X704507Y126340D02*
D03*
D40*
X674747Y114040D02*
D03*
D41*
X1062990Y747940D02*
D03*
Y704940D02*
D03*
D42*
X543560Y943950D02*
D03*
X431800Y762340D02*
D03*
Y741340D02*
D03*
X543560Y922950D02*
D03*
X551180Y56810D02*
D03*
Y77810D02*
D03*
D43*
X665480Y834260D02*
D03*
Y849760D02*
D03*
D44*
X779690Y885190D02*
D03*
X736690D02*
D03*
X805090Y171450D02*
D03*
X762090D02*
D03*
D45*
X662940Y869573D02*
D03*
X653790Y888107D02*
D03*
D46*
X768690Y123190D02*
D03*
X747690D02*
D03*
D47*
X656213D02*
D03*
X674747Y132340D02*
D03*
D48*
X725513Y126340D02*
D03*
Y116840D02*
D03*
Y107340D02*
D03*
X704507D02*
D03*
Y116840D02*
D03*
D49*
X971550Y230730D02*
D03*
Y211230D02*
D03*
D50*
X995680Y206480D02*
D03*
Y235480D02*
D03*
X1022350Y238020D02*
D03*
Y209020D02*
D03*
D51*
X793870Y452010D02*
D03*
X798870D02*
D03*
X803870D02*
D03*
X808870D02*
D03*
Y485250D02*
D03*
X798870D02*
D03*
X803870D02*
D03*
X793870D02*
D03*
D52*
X702310Y888073D02*
D03*
X692810D02*
D03*
Y867067D02*
D03*
X702310D02*
D03*
X711810D02*
D03*
D53*
X767948Y96520D02*
D03*
X748432D02*
D03*
D54*
X341430Y298450D02*
D03*
X316430D02*
D03*
D58*
X832090Y561220D02*
D03*
X862090Y551220D02*
D03*
Y561220D02*
D03*
X832090Y556220D02*
D03*
Y551220D02*
D03*
Y546220D02*
D03*
X862090D02*
D03*
Y556220D02*
D03*
D64*
X849590Y539590D02*
D03*
X844590D02*
D03*
X849590Y567850D02*
D03*
X844590D02*
D03*
D87*
X1440180Y814070D02*
D03*
X1548130Y811530D02*
D03*
X857250Y941070D02*
D03*
X334010Y820420D02*
D03*
X1492250Y812800D02*
D03*
X464820Y158750D02*
D03*
D88*
X1263650Y66040D02*
D03*
X1357630Y935990D02*
D03*
X1383030D02*
D03*
X1408430D02*
D03*
X1854200Y533400D02*
D03*
X138659Y538100D02*
D03*
X1253490Y937260D02*
D03*
X1854200Y482600D02*
D03*
Y508000D02*
D03*
X1467740Y67428D02*
D03*
X138659Y487300D02*
D03*
X1442340Y67428D02*
D03*
X1339850Y66040D02*
D03*
X1228090Y937260D02*
D03*
X1543940Y67428D02*
D03*
X1314450Y66040D02*
D03*
X138659Y512700D02*
D03*
X1493140Y67428D02*
D03*
X1518540D02*
D03*
X1289050Y66040D02*
D03*
X1238250D02*
D03*
D89*
X1315148Y386470D02*
D03*
X1035728Y616070D02*
D03*
X1721548Y615070D02*
D03*
X1238948Y612530D02*
D03*
X1721548Y386470D02*
D03*
X1238948Y383930D02*
D03*
X327502Y560000D02*
D03*
X1696148Y612530D02*
D03*
X1645348D02*
D03*
X1594548D02*
D03*
X1543748D02*
D03*
X1492948D02*
D03*
X1442148D02*
D03*
X1391348D02*
D03*
X1340548D02*
D03*
X1289748D02*
D03*
X1264348Y615070D02*
D03*
X1315148D02*
D03*
X1365948D02*
D03*
X1416748D02*
D03*
X1467548D02*
D03*
X1518348D02*
D03*
X1569148D02*
D03*
X1619948D02*
D03*
X1670748D02*
D03*
Y386470D02*
D03*
X1619948D02*
D03*
X1569148D02*
D03*
X1518348D02*
D03*
X1467548D02*
D03*
X1416748D02*
D03*
X1365948D02*
D03*
X1264348D02*
D03*
X1289748Y383930D02*
D03*
X1340548D02*
D03*
X1391348D02*
D03*
X1442148D02*
D03*
X1492948D02*
D03*
X1543748D02*
D03*
X1594548D02*
D03*
X1645348D02*
D03*
X1696148D02*
D03*
X1035728Y386470D02*
D03*
X984928D02*
D03*
X934128D02*
D03*
X908728Y383930D02*
D03*
X959528D02*
D03*
X1010328D02*
D03*
X984928Y616070D02*
D03*
X934128D02*
D03*
X908728Y613530D02*
D03*
X959528D02*
D03*
X1010328D02*
D03*
X327502Y360000D02*
D03*
D90*
X1433830Y935990D02*
D03*
X1278890Y937260D02*
D03*
X1212850Y66040D02*
D03*
X1416940Y67428D02*
D03*
D91*
X1892300Y612140D02*
D03*
X1905000D02*
D03*
X1892300Y600710D02*
D03*
X1905000D02*
D03*
X110490Y619760D02*
D03*
X97790Y608330D02*
D03*
X110490D02*
D03*
X97790Y619760D02*
D03*
D92*
X1061128Y383930D02*
D03*
X1746948Y612530D02*
D03*
Y383930D02*
D03*
X1061128Y613530D02*
D03*
D93*
X536170Y754380D02*
D03*
X663170D02*
D03*
D94*
X71120Y524510D02*
D03*
X1939290Y521970D02*
D03*
X1029970Y91440D02*
D03*
D95*
X71120Y473710D02*
D03*
X1939290Y471170D02*
D03*
D96*
X1854200Y457200D02*
D03*
X138659Y461900D02*
D03*
D97*
X480520Y601980D02*
D03*
Y379680D02*
D03*
X718820Y601980D02*
D03*
Y379680D02*
D03*
D98*
X979170Y91440D02*
D03*
D99*
X423502Y500000D02*
D03*
X283502Y581000D02*
D03*
Y419000D02*
D03*
D100*
X608330Y885180D02*
D03*
Y932180D02*
D03*
X607060Y114290D02*
D03*
Y161290D02*
D03*
D101*
X608330Y838180D02*
D03*
X607060Y67290D02*
D03*
D102*
X1950000Y950000D02*
D03*
Y50000D02*
D03*
X50000Y950000D02*
D03*
Y50000D02*
D03*
D103*
X1365250Y482600D02*
D03*
X742950Y421640D02*
D03*
X854710Y284480D02*
D03*
X742950Y570230D02*
D03*
X871220Y421640D02*
D03*
X1315720Y447040D02*
D03*
X1893570Y881380D02*
D03*
X1791970Y643890D02*
D03*
X786376Y950000D02*
D03*
X1807210Y566420D02*
D03*
X857250Y593090D02*
D03*
X913130Y580390D02*
D03*
X1962150Y422910D02*
D03*
X801370Y508000D02*
D03*
X756920Y468630D02*
D03*
X868680Y124460D02*
D03*
X646430Y806450D02*
D03*
X543560Y867410D02*
D03*
X431800Y680720D02*
D03*
X207010Y612140D02*
D03*
X722630Y533400D02*
D03*
X707390Y143510D02*
D03*
X551180Y139700D02*
D03*
X379730Y137160D02*
D03*
X650240Y100330D02*
D03*
X633730Y71120D02*
D03*
X57150Y586740D02*
D03*
X373380Y246380D02*
D03*
X279400Y238760D02*
D03*
X1856740Y271780D02*
D03*
X1466850Y535940D02*
D03*
X1148080Y532130D02*
D03*
X690880Y572770D02*
D03*
X1131570Y617220D02*
D03*
Y704850D02*
D03*
X636270Y406400D02*
D03*
X949960Y312960D02*
D03*
X828040Y121920D02*
D03*
Y264160D02*
D03*
X1979930Y643890D02*
D03*
X930910Y530860D02*
D03*
X1315358Y500000D02*
D03*
X1290320Y433070D02*
D03*
X1339850Y495300D02*
D03*
X1267460Y474980D02*
D03*
X1418590Y546100D02*
D03*
X1289050Y510540D02*
D03*
X905510Y516890D02*
D03*
X811530Y541020D02*
D03*
X424180Y201930D02*
D03*
X429260Y337820D02*
D03*
X1442720Y486410D02*
D03*
X636270D02*
D03*
X1343660Y240030D02*
D03*
X1822450Y260350D02*
D03*
X1234440Y425450D02*
D03*
X1316990Y278130D02*
D03*
X1788160Y284480D02*
D03*
X1504950Y655320D02*
D03*
X1170940Y185420D02*
D03*
X1172210Y575310D02*
D03*
X590550Y513080D02*
D03*
X588010Y356870D02*
D03*
X1468120Y504190D02*
D03*
X765810Y585470D02*
D03*
X723900Y556260D02*
D03*
X1174750Y27940D02*
D03*
X259080Y29210D02*
D03*
X260350Y165100D02*
D03*
X910590Y92710D02*
D03*
X1096010Y303530D02*
D03*
X1097280Y91440D02*
D03*
X650240Y932180D02*
D03*
X1376680Y433070D02*
D03*
X92710Y577850D02*
D03*
D104*
X1010570Y287710D02*
D03*
Y278710D02*
D03*
X998570Y287710D02*
D03*
X1004570Y283210D02*
D03*
X998570Y278710D02*
D03*
M02*
