G04*
G04 #@! TF.GenerationSoftware,Altium Limited,Altium Designer,25.8.1 (18)*
G04*
G04 Layer_Physical_Order=2*
G04 Layer_Color=16711680*
%FSLAX44Y44*%
%MOMM*%
G71*
G04*
G04 #@! TF.SameCoordinates,3252FE53-E486-4FD3-897B-B0AFD7199433*
G04*
G04*
G04 #@! TF.FilePolarity,Positive*
G04*
G01*
G75*
%ADD10C,0.2000*%
%ADD12C,0.2540*%
%ADD87C,2.1000*%
%ADD88C,1.6000*%
%ADD89C,1.5000*%
G04:AMPARAMS|DCode=90|XSize=1.6mm|YSize=1.6mm|CornerRadius=0.4mm|HoleSize=0mm|Usage=FLASHONLY|Rotation=180.000|XOffset=0mm|YOffset=0mm|HoleType=Round|Shape=RoundedRectangle|*
%AMROUNDEDRECTD90*
21,1,1.6000,0.8000,0,0,180.0*
21,1,0.8000,1.6000,0,0,180.0*
1,1,0.8000,-0.4000,0.4000*
1,1,0.8000,0.4000,0.4000*
1,1,0.8000,0.4000,-0.4000*
1,1,0.8000,-0.4000,-0.4000*
%
%ADD90ROUNDEDRECTD90*%
%ADD91C,0.8000*%
%ADD92R,1.5000X1.5000*%
%ADD93C,3.1260*%
%ADD94C,1.9500*%
%ADD95R,1.9500X1.9500*%
G04:AMPARAMS|DCode=96|XSize=1.6mm|YSize=1.6mm|CornerRadius=0.4mm|HoleSize=0mm|Usage=FLASHONLY|Rotation=90.000|XOffset=0mm|YOffset=0mm|HoleType=Round|Shape=RoundedRectangle|*
%AMROUNDEDRECTD96*
21,1,1.6000,0.8000,0,0,90.0*
21,1,0.8000,1.6000,0,0,90.0*
1,1,0.8000,0.4000,0.4000*
1,1,0.8000,0.4000,-0.4000*
1,1,0.8000,-0.4000,-0.4000*
1,1,0.8000,-0.4000,0.4000*
%
%ADD96ROUNDEDRECTD96*%
%ADD97C,3.4500*%
%ADD98R,1.9500X1.9500*%
%ADD99C,1.8000*%
%ADD100C,2.7750*%
%ADD101R,2.7750X2.7750*%
%ADD102C,4.4000*%
%ADD103C,1.2700*%
%ADD104C,0.5000*%
G36*
X1995396Y995396D02*
X1995396Y595630D01*
X1983264D01*
Y636173D01*
X1985057Y637208D01*
X1986612Y638763D01*
X1987711Y640667D01*
X1988280Y642791D01*
Y644989D01*
X1987711Y647113D01*
X1986612Y649017D01*
X1985057Y650572D01*
X1983153Y651671D01*
X1981029Y652240D01*
X1978831D01*
X1976707Y651671D01*
X1974803Y650572D01*
X1973248Y649017D01*
X1972149Y647113D01*
X1971580Y644989D01*
Y642791D01*
X1972149Y640667D01*
X1973248Y638763D01*
X1974803Y637208D01*
X1976596Y636173D01*
Y595630D01*
X1911882D01*
X1910773Y597630D01*
X1911094Y598186D01*
X1911430Y599440D01*
X1905000D01*
Y601980D01*
X1911430D01*
X1911094Y603234D01*
X1910233Y604726D01*
X1909869Y605090D01*
X1909242Y606425D01*
X1909869Y607760D01*
X1910233Y608124D01*
X1911094Y609616D01*
X1911430Y610870D01*
X1905000D01*
Y612140D01*
X1903730D01*
Y618570D01*
X1902476Y618234D01*
X1900984Y617373D01*
X1899767Y616156D01*
X1897533D01*
X1896316Y617373D01*
X1894824Y618234D01*
X1893570Y618570D01*
Y612140D01*
X1892300D01*
Y610870D01*
X1885870D01*
X1886206Y609616D01*
X1887067Y608124D01*
X1887431Y607760D01*
X1888058Y606425D01*
X1887431Y605090D01*
X1887067Y604726D01*
X1886206Y603234D01*
X1885870Y601980D01*
X1892300D01*
Y599440D01*
X1885870D01*
X1886206Y598186D01*
X1886526Y597630D01*
X1885419Y595630D01*
X1795304D01*
Y635580D01*
X1795401Y635606D01*
X1797429Y636776D01*
X1799084Y638431D01*
X1800254Y640459D01*
X1800833Y642620D01*
X1783107D01*
X1783686Y640459D01*
X1784856Y638431D01*
X1786511Y636776D01*
X1788539Y635606D01*
X1788636Y635580D01*
Y595630D01*
X1674147D01*
X1674082Y595695D01*
Y606128D01*
X1674415Y606217D01*
X1676581Y607468D01*
X1678350Y609237D01*
X1679601Y611403D01*
X1680248Y613819D01*
Y616321D01*
X1679601Y618737D01*
X1678350Y620903D01*
X1676581Y622672D01*
X1674415Y623923D01*
X1671999Y624570D01*
X1669497D01*
X1667081Y623923D01*
X1664915Y622672D01*
X1663146Y620903D01*
X1661895Y618737D01*
X1661248Y616321D01*
Y613819D01*
X1661895Y611403D01*
X1663146Y609237D01*
X1664915Y607468D01*
X1667081Y606217D01*
X1667414Y606128D01*
Y598008D01*
X1665414Y597179D01*
X1654028Y608565D01*
X1654200Y608863D01*
X1654848Y611279D01*
Y613781D01*
X1654200Y616197D01*
X1652950Y618363D01*
X1651181Y620132D01*
X1649015Y621383D01*
X1646599Y622030D01*
X1644097D01*
X1641681Y621383D01*
X1639515Y620132D01*
X1637746Y618363D01*
X1636495Y616197D01*
X1635848Y613781D01*
Y611279D01*
X1636495Y608863D01*
X1637746Y606697D01*
X1639515Y604928D01*
X1641681Y603677D01*
X1644097Y603030D01*
X1646599D01*
X1649015Y603677D01*
X1649313Y603850D01*
X1655685Y597478D01*
X1654920Y595630D01*
X1508284D01*
Y609501D01*
X1510284Y610037D01*
X1510746Y609237D01*
X1512515Y607468D01*
X1514681Y606217D01*
X1517097Y605570D01*
X1519599D01*
X1522015Y606217D01*
X1524181Y607468D01*
X1525950Y609237D01*
X1527200Y611403D01*
X1527848Y613819D01*
Y616321D01*
X1527200Y618737D01*
X1525950Y620903D01*
X1524181Y622672D01*
X1522015Y623923D01*
X1519599Y624570D01*
X1517097D01*
X1514681Y623923D01*
X1512515Y622672D01*
X1510746Y620903D01*
X1510284Y620103D01*
X1508284Y620639D01*
Y647603D01*
X1510077Y648638D01*
X1511632Y650193D01*
X1512731Y652097D01*
X1513300Y654221D01*
Y656419D01*
X1512731Y658543D01*
X1511632Y660447D01*
X1510077Y662002D01*
X1508173Y663101D01*
X1506049Y663670D01*
X1503851D01*
X1501727Y663101D01*
X1499823Y662002D01*
X1498268Y660447D01*
X1497169Y658543D01*
X1496600Y656419D01*
Y654221D01*
X1497169Y652097D01*
X1498268Y650193D01*
X1499823Y648638D01*
X1501616Y647603D01*
Y620125D01*
X1499616Y619297D01*
X1498781Y620132D01*
X1496615Y621383D01*
X1494199Y622030D01*
X1491697D01*
X1489281Y621383D01*
X1487115Y620132D01*
X1485346Y618363D01*
X1484095Y616197D01*
X1483448Y613781D01*
Y611279D01*
X1484095Y608863D01*
X1485346Y606697D01*
X1487115Y604928D01*
X1489281Y603677D01*
X1491697Y603030D01*
X1494199D01*
X1496615Y603677D01*
X1498781Y604928D01*
X1499616Y605763D01*
X1501616Y604935D01*
Y595630D01*
X1496060D01*
Y401320D01*
X1496300Y401560D01*
X1501616D01*
Y397313D01*
X1496913Y392610D01*
X1496615Y392783D01*
X1494199Y393430D01*
X1491697D01*
X1489281Y392783D01*
X1487115Y391532D01*
X1485346Y389763D01*
X1484095Y387597D01*
X1483448Y385181D01*
Y382679D01*
X1484095Y380263D01*
X1485346Y378097D01*
X1487115Y376328D01*
X1489281Y375077D01*
X1491697Y374430D01*
X1494199D01*
X1496615Y375077D01*
X1498781Y376328D01*
X1500550Y378097D01*
X1501801Y380263D01*
X1502448Y382679D01*
Y385181D01*
X1501801Y387597D01*
X1501628Y387895D01*
X1507307Y393574D01*
X1508030Y394656D01*
X1508284Y395932D01*
Y401560D01*
X1784826D01*
Y292197D01*
X1783033Y291162D01*
X1781478Y289607D01*
X1780379Y287703D01*
X1779810Y285579D01*
Y283381D01*
X1780379Y281257D01*
X1781478Y279353D01*
X1783033Y277798D01*
X1784937Y276699D01*
X1787061Y276130D01*
X1789259D01*
X1791383Y276699D01*
X1793287Y277798D01*
X1794842Y279353D01*
X1795941Y281257D01*
X1796510Y283381D01*
Y285579D01*
X1795941Y287703D01*
X1794842Y289607D01*
X1793287Y291162D01*
X1791494Y292197D01*
Y401560D01*
X1819116D01*
Y268067D01*
X1817323Y267032D01*
X1815768Y265477D01*
X1814669Y263573D01*
X1814100Y261449D01*
Y259251D01*
X1814669Y257127D01*
X1815768Y255223D01*
X1817323Y253668D01*
X1819227Y252569D01*
X1821351Y252000D01*
X1823549D01*
X1825673Y252569D01*
X1827577Y253668D01*
X1829132Y255223D01*
X1830231Y257127D01*
X1830800Y259251D01*
Y261449D01*
X1830231Y263573D01*
X1829132Y265477D01*
X1827577Y267032D01*
X1825784Y268067D01*
Y401560D01*
X1995396D01*
X1995396Y4604D01*
X4604D01*
Y995396D01*
X1995396Y995396D01*
D02*
G37*
%LPC*%
G36*
X787646Y958863D02*
Y951270D01*
X795239D01*
X794660Y953431D01*
X793489Y955459D01*
X791834Y957114D01*
X789807Y958284D01*
X787646Y958863D01*
D02*
G37*
G36*
X785106D02*
X782944Y958284D01*
X780917Y957114D01*
X779262Y955459D01*
X778092Y953431D01*
X777512Y951270D01*
X785106D01*
Y958863D01*
D02*
G37*
G36*
X795239Y948730D02*
X787646D01*
Y941137D01*
X789807Y941716D01*
X791834Y942886D01*
X793489Y944541D01*
X794660Y946569D01*
X795239Y948730D01*
D02*
G37*
G36*
X785106D02*
X777512D01*
X778092Y946569D01*
X779262Y944541D01*
X780917Y942886D01*
X782944Y941716D01*
X785106Y941137D01*
Y948730D01*
D02*
G37*
G36*
X1282890Y947856D02*
X1280160D01*
Y938530D01*
X1289486D01*
Y941260D01*
X1289262Y942967D01*
X1288603Y944558D01*
X1287554Y945924D01*
X1286188Y946973D01*
X1284597Y947632D01*
X1282890Y947856D01*
D02*
G37*
G36*
X1277620D02*
X1274890D01*
X1273183Y947632D01*
X1271592Y946973D01*
X1270226Y945924D01*
X1269177Y944558D01*
X1268518Y942967D01*
X1268294Y941260D01*
Y938530D01*
X1277620D01*
Y947856D01*
D02*
G37*
G36*
X1437830Y946586D02*
X1435100D01*
Y937260D01*
X1444426D01*
Y939990D01*
X1444202Y941697D01*
X1443543Y943288D01*
X1442494Y944654D01*
X1441128Y945703D01*
X1439537Y946362D01*
X1437830Y946586D01*
D02*
G37*
G36*
X1432560D02*
X1429830D01*
X1428123Y946362D01*
X1426532Y945703D01*
X1425166Y944654D01*
X1424117Y943288D01*
X1423458Y941697D01*
X1423234Y939990D01*
Y937260D01*
X1432560D01*
Y946586D01*
D02*
G37*
G36*
X858896Y953570D02*
X855604D01*
X852425Y952718D01*
X849575Y951072D01*
X847247Y948745D01*
X845602Y945895D01*
X844750Y942716D01*
Y939424D01*
X845602Y936245D01*
X847247Y933395D01*
X849575Y931068D01*
X852425Y929422D01*
X855604Y928570D01*
X858896D01*
X862075Y929422D01*
X864925Y931068D01*
X867253Y933395D01*
X868898Y936245D01*
X869750Y939424D01*
Y942716D01*
X868898Y945895D01*
X867253Y948745D01*
X864925Y951072D01*
X862075Y952718D01*
X858896Y953570D01*
D02*
G37*
G36*
X1254807Y947260D02*
X1252173D01*
X1249630Y946579D01*
X1247350Y945262D01*
X1245488Y943400D01*
X1244172Y941120D01*
X1243490Y938577D01*
Y935944D01*
X1244172Y933400D01*
X1245488Y931120D01*
X1247350Y929258D01*
X1249630Y927942D01*
X1252173Y927260D01*
X1254807D01*
X1257350Y927942D01*
X1259630Y929258D01*
X1261492Y931120D01*
X1262809Y933400D01*
X1263490Y935944D01*
Y938577D01*
X1262809Y941120D01*
X1261492Y943400D01*
X1259630Y945262D01*
X1257350Y946579D01*
X1254807Y947260D01*
D02*
G37*
G36*
X1289486Y935990D02*
X1280160D01*
Y926664D01*
X1282890D01*
X1284597Y926888D01*
X1286188Y927547D01*
X1287554Y928596D01*
X1288603Y929962D01*
X1289262Y931553D01*
X1289486Y933260D01*
Y935990D01*
D02*
G37*
G36*
X1277620D02*
X1268294D01*
Y933260D01*
X1268518Y931553D01*
X1269177Y929962D01*
X1270226Y928596D01*
X1271592Y927547D01*
X1273183Y926888D01*
X1274890Y926664D01*
X1277620D01*
Y935990D01*
D02*
G37*
G36*
X1409747Y945990D02*
X1407113D01*
X1404570Y945309D01*
X1402290Y943992D01*
X1400428Y942130D01*
X1399111Y939850D01*
X1398430Y937307D01*
Y934673D01*
X1399111Y932130D01*
X1400428Y929850D01*
X1402290Y927988D01*
X1404570Y926672D01*
X1407113Y925990D01*
X1409747D01*
X1412290Y926672D01*
X1414570Y927988D01*
X1416432Y929850D01*
X1417749Y932130D01*
X1418430Y934673D01*
Y937307D01*
X1417749Y939850D01*
X1416432Y942130D01*
X1414570Y943992D01*
X1412290Y945309D01*
X1409747Y945990D01*
D02*
G37*
G36*
X1444426Y934720D02*
X1435100D01*
Y925394D01*
X1437830D01*
X1439537Y925618D01*
X1441128Y926277D01*
X1442494Y927326D01*
X1443543Y928692D01*
X1444202Y930283D01*
X1444426Y931990D01*
Y934720D01*
D02*
G37*
G36*
X1432560D02*
X1423234D01*
Y931990D01*
X1423458Y930283D01*
X1424117Y928692D01*
X1425166Y927326D01*
X1426532Y926277D01*
X1428123Y925618D01*
X1429830Y925394D01*
X1432560D01*
Y934720D01*
D02*
G37*
G36*
X1950000Y983373D02*
X1944779Y982962D01*
X1939687Y981740D01*
X1934849Y979735D01*
X1930384Y976999D01*
X1926402Y973598D01*
X1923001Y969616D01*
X1920265Y965151D01*
X1918260Y960313D01*
X1917038Y955221D01*
X1916627Y950000D01*
X1917038Y944779D01*
X1918260Y939687D01*
X1920265Y934849D01*
X1923001Y930384D01*
X1926402Y926402D01*
X1930384Y923001D01*
X1934849Y920265D01*
X1939687Y918260D01*
X1944779Y917038D01*
X1950000Y916627D01*
X1955221Y917038D01*
X1960313Y918260D01*
X1965151Y920265D01*
X1969616Y923001D01*
X1973598Y926402D01*
X1976999Y930384D01*
X1979735Y934849D01*
X1981740Y939687D01*
X1982962Y944779D01*
X1983373Y950000D01*
X1982962Y955221D01*
X1981740Y960313D01*
X1979735Y965151D01*
X1976999Y969616D01*
X1973598Y973598D01*
X1969616Y976999D01*
X1965151Y979735D01*
X1960313Y981740D01*
X1955221Y982962D01*
X1950000Y983373D01*
D02*
G37*
G36*
X50000D02*
X44779Y982962D01*
X39687Y981740D01*
X34849Y979735D01*
X30384Y976999D01*
X26402Y973598D01*
X23001Y969616D01*
X20265Y965151D01*
X18261Y960313D01*
X17038Y955221D01*
X16627Y950000D01*
X17038Y944779D01*
X18261Y939687D01*
X20265Y934849D01*
X23001Y930384D01*
X26402Y926402D01*
X30384Y923001D01*
X34849Y920265D01*
X39687Y918260D01*
X44779Y917038D01*
X50000Y916627D01*
X55221Y917038D01*
X60313Y918260D01*
X65151Y920265D01*
X69616Y923001D01*
X73598Y926402D01*
X76999Y930384D01*
X79735Y934849D01*
X81740Y939687D01*
X82962Y944779D01*
X83373Y950000D01*
X82962Y955221D01*
X81740Y960313D01*
X79735Y965151D01*
X76999Y969616D01*
X73598Y973598D01*
X69616Y976999D01*
X65151Y979735D01*
X60313Y981740D01*
X55221Y982962D01*
X50000Y983373D01*
D02*
G37*
G36*
X609893Y948055D02*
X606767D01*
X603699Y947445D01*
X600810Y946248D01*
X598210Y944511D01*
X595999Y942300D01*
X594262Y939700D01*
X593065Y936811D01*
X592455Y933744D01*
Y930617D01*
X593065Y927549D01*
X594262Y924660D01*
X595999Y922060D01*
X598210Y919849D01*
X600810Y918112D01*
X603699Y916915D01*
X606767Y916305D01*
X609893D01*
X612961Y916915D01*
X615850Y918112D01*
X618450Y919849D01*
X620661Y922060D01*
X622398Y924660D01*
X623595Y927549D01*
X624205Y930617D01*
Y933744D01*
X623595Y936811D01*
X622398Y939700D01*
X620661Y942300D01*
X618450Y944511D01*
X615850Y946248D01*
X612961Y947445D01*
X609893Y948055D01*
D02*
G37*
G36*
X651339Y940530D02*
X649141D01*
X647017Y939961D01*
X645113Y938862D01*
X643558Y937307D01*
X642459Y935403D01*
X641890Y933279D01*
Y931081D01*
X642459Y928957D01*
X643333Y927443D01*
X615346Y899457D01*
X612961Y900445D01*
X609893Y901055D01*
X606767D01*
X603699Y900445D01*
X600810Y899248D01*
X598210Y897511D01*
X595999Y895300D01*
X594262Y892700D01*
X593065Y889811D01*
X592455Y886743D01*
Y883616D01*
X593065Y880549D01*
X594262Y877660D01*
X595999Y875060D01*
X598210Y872849D01*
X600810Y871112D01*
X603699Y869915D01*
X606767Y869305D01*
X609893D01*
X612961Y869915D01*
X615850Y871112D01*
X618450Y872849D01*
X620661Y875060D01*
X622398Y877660D01*
X623595Y880549D01*
X624205Y883616D01*
Y886743D01*
X623595Y889811D01*
X622398Y892700D01*
X620661Y895300D01*
X620640Y895320D01*
X649150Y923830D01*
X651339D01*
X653463Y924399D01*
X655367Y925498D01*
X656922Y927053D01*
X658021Y928957D01*
X658590Y931081D01*
Y933279D01*
X658021Y935403D01*
X656922Y937307D01*
X655367Y938862D01*
X653463Y939961D01*
X651339Y940530D01*
D02*
G37*
G36*
X1894840Y890243D02*
Y882650D01*
X1902433D01*
X1901854Y884811D01*
X1900684Y886839D01*
X1899029Y888494D01*
X1897001Y889664D01*
X1894840Y890243D01*
D02*
G37*
G36*
X1892300D02*
X1890139Y889664D01*
X1888111Y888494D01*
X1886456Y886839D01*
X1885286Y884811D01*
X1884707Y882650D01*
X1892300D01*
Y890243D01*
D02*
G37*
G36*
X1902433Y880110D02*
X1894840D01*
Y872517D01*
X1897001Y873096D01*
X1899029Y874266D01*
X1900684Y875921D01*
X1901854Y877949D01*
X1902433Y880110D01*
D02*
G37*
G36*
X1892300D02*
X1884707D01*
X1885286Y877949D01*
X1886456Y875921D01*
X1888111Y874266D01*
X1890139Y873096D01*
X1892300Y872517D01*
Y880110D01*
D02*
G37*
G36*
X544830Y876273D02*
Y868680D01*
X552423D01*
X551844Y870841D01*
X550674Y872869D01*
X549019Y874524D01*
X546991Y875694D01*
X544830Y876273D01*
D02*
G37*
G36*
X542290D02*
X540129Y875694D01*
X538101Y874524D01*
X536446Y872869D01*
X535276Y870841D01*
X534697Y868680D01*
X542290D01*
Y876273D01*
D02*
G37*
G36*
X552423Y866140D02*
X544830D01*
Y858547D01*
X546991Y859126D01*
X549019Y860296D01*
X550674Y861951D01*
X551844Y863979D01*
X552423Y866140D01*
D02*
G37*
G36*
X542290D02*
X534697D01*
X535276Y863979D01*
X536446Y861951D01*
X538101Y860296D01*
X540129Y859126D01*
X542290Y858547D01*
Y866140D01*
D02*
G37*
G36*
X624205Y854055D02*
X592455D01*
Y822305D01*
X624205D01*
Y854055D01*
D02*
G37*
G36*
X1549847Y824570D02*
X1549400D01*
Y812800D01*
X1561170D01*
Y813247D01*
X1560281Y816563D01*
X1558565Y819537D01*
X1556137Y821965D01*
X1553163Y823681D01*
X1549847Y824570D01*
D02*
G37*
G36*
X1546860D02*
X1546413D01*
X1543097Y823681D01*
X1540123Y821965D01*
X1537695Y819537D01*
X1535979Y816563D01*
X1535090Y813247D01*
Y812800D01*
X1546860D01*
Y824570D01*
D02*
G37*
G36*
X335656Y832920D02*
X332364D01*
X329185Y832068D01*
X326335Y830423D01*
X324007Y828095D01*
X322362Y825245D01*
X321510Y822066D01*
Y818774D01*
X322362Y815595D01*
X324007Y812745D01*
X326335Y810417D01*
X329185Y808772D01*
X332364Y807920D01*
X335656D01*
X338835Y808772D01*
X341685Y810417D01*
X344012Y812745D01*
X345658Y815595D01*
X346510Y818774D01*
Y822066D01*
X345658Y825245D01*
X344012Y828095D01*
X341685Y830423D01*
X338835Y832068D01*
X335656Y832920D01*
D02*
G37*
G36*
X647700Y815313D02*
Y807720D01*
X655293D01*
X654714Y809881D01*
X653544Y811909D01*
X651889Y813564D01*
X649861Y814734D01*
X647700Y815313D01*
D02*
G37*
G36*
X645160D02*
X642999Y814734D01*
X640971Y813564D01*
X639316Y811909D01*
X638146Y809881D01*
X637567Y807720D01*
X645160D01*
Y815313D01*
D02*
G37*
G36*
X1384346Y945990D02*
X1381714D01*
X1379170Y945309D01*
X1376890Y943992D01*
X1375028Y942130D01*
X1373712Y939850D01*
X1373030Y937307D01*
Y934673D01*
X1373712Y932130D01*
X1375028Y929850D01*
X1376890Y927988D01*
X1379170Y926672D01*
X1381714Y925990D01*
X1384346D01*
X1386890Y926672D01*
X1387361Y926944D01*
X1487710Y826595D01*
X1487538Y825298D01*
X1487181Y824307D01*
X1484575Y822803D01*
X1482247Y820475D01*
X1480602Y817625D01*
X1479750Y814446D01*
Y811154D01*
X1480602Y807975D01*
X1482247Y805125D01*
X1484575Y802797D01*
X1487425Y801152D01*
X1488916Y800752D01*
Y730808D01*
X1376685Y618577D01*
X1374514Y619234D01*
X1373550Y620903D01*
X1371781Y622672D01*
X1369615Y623923D01*
X1367199Y624570D01*
X1364697D01*
X1362281Y623923D01*
X1360512Y622901D01*
X1358512Y623618D01*
Y727687D01*
X1434019Y803194D01*
X1435355Y802422D01*
X1438534Y801570D01*
X1441826D01*
X1445005Y802422D01*
X1447855Y804068D01*
X1450182Y806395D01*
X1451828Y809245D01*
X1452680Y812424D01*
Y815716D01*
X1451828Y818895D01*
X1450182Y821745D01*
X1447855Y824072D01*
X1445005Y825718D01*
X1441826Y826570D01*
X1438534D01*
X1435355Y825718D01*
X1434019Y824947D01*
X1360964Y898001D01*
Y926531D01*
X1361490Y926672D01*
X1363770Y927988D01*
X1365632Y929850D01*
X1366949Y932130D01*
X1367630Y934673D01*
Y937307D01*
X1366949Y939850D01*
X1365632Y942130D01*
X1363770Y943992D01*
X1361490Y945309D01*
X1358947Y945990D01*
X1356313D01*
X1353770Y945309D01*
X1351490Y943992D01*
X1349628Y942130D01*
X1348311Y939850D01*
X1347630Y937307D01*
Y934673D01*
X1348311Y932130D01*
X1349628Y929850D01*
X1351490Y927988D01*
X1353770Y926672D01*
X1354296Y926531D01*
Y896620D01*
X1354550Y895344D01*
X1355273Y894262D01*
X1429303Y820231D01*
X1428532Y818895D01*
X1427680Y815716D01*
Y812424D01*
X1428532Y809245D01*
X1429303Y807909D01*
X1352820Y731425D01*
X1352098Y730344D01*
X1351844Y729068D01*
Y614805D01*
X1349844Y614542D01*
X1349400Y616197D01*
X1348150Y618363D01*
X1346381Y620132D01*
X1344215Y621383D01*
X1341799Y622030D01*
X1339297D01*
X1336881Y621383D01*
X1334715Y620132D01*
X1332946Y618363D01*
X1331695Y616197D01*
X1331048Y613781D01*
Y611279D01*
X1331695Y608863D01*
X1332946Y606697D01*
X1334715Y604928D01*
X1336881Y603677D01*
X1337140Y603608D01*
Y503218D01*
X1336627Y503081D01*
X1334723Y501982D01*
X1333168Y500427D01*
X1332069Y498523D01*
X1331500Y496399D01*
Y494201D01*
X1332069Y492077D01*
X1333168Y490173D01*
X1334723Y488618D01*
X1336627Y487519D01*
X1338751Y486950D01*
X1340949D01*
X1343073Y487519D01*
X1344977Y488618D01*
X1346532Y490173D01*
X1347631Y492077D01*
X1348200Y494201D01*
Y496399D01*
X1347631Y498523D01*
X1346532Y500427D01*
X1344977Y501982D01*
X1343258Y502974D01*
Y603421D01*
X1344215Y603677D01*
X1346381Y604928D01*
X1348150Y606697D01*
X1349400Y608863D01*
X1349844Y610518D01*
X1351844Y610255D01*
Y487879D01*
X1318819Y454854D01*
X1316819Y455390D01*
X1314621D01*
X1312497Y454821D01*
X1310593Y453722D01*
X1309038Y452167D01*
X1307939Y450263D01*
X1307370Y448139D01*
Y445941D01*
X1307939Y443817D01*
X1309038Y441913D01*
X1310593Y440358D01*
X1312100Y439488D01*
Y395488D01*
X1311481Y395323D01*
X1309315Y394072D01*
X1307546Y392303D01*
X1306295Y390137D01*
X1305648Y387721D01*
Y385219D01*
X1306295Y382803D01*
X1306468Y382505D01*
X1261292Y337330D01*
X1260570Y336248D01*
X1260316Y334972D01*
Y75499D01*
X1259790Y75359D01*
X1257510Y74042D01*
X1255648Y72180D01*
X1254332Y69900D01*
X1253650Y67357D01*
Y64724D01*
X1254332Y62180D01*
X1255648Y59900D01*
X1257510Y58038D01*
X1259790Y56722D01*
X1262334Y56040D01*
X1264967D01*
X1267510Y56722D01*
X1269790Y58038D01*
X1271652Y59900D01*
X1272969Y62180D01*
X1273650Y64724D01*
Y67357D01*
X1272969Y69900D01*
X1271652Y72180D01*
X1269790Y74042D01*
X1267510Y75359D01*
X1266984Y75499D01*
Y333591D01*
X1311183Y377790D01*
X1311481Y377617D01*
X1313897Y376970D01*
X1316399D01*
X1318815Y377617D01*
X1320981Y378868D01*
X1322750Y380637D01*
X1324001Y382803D01*
X1324648Y385219D01*
Y387721D01*
X1324001Y390137D01*
X1322750Y392303D01*
X1320981Y394072D01*
X1318815Y395323D01*
X1318768Y395335D01*
Y439212D01*
X1318943Y439259D01*
X1320847Y440358D01*
X1322402Y441913D01*
X1323501Y443817D01*
X1324070Y445941D01*
Y448139D01*
X1323534Y450139D01*
X1355058Y481662D01*
X1357074Y480851D01*
X1357469Y479377D01*
X1358568Y477473D01*
X1360123Y475918D01*
X1362027Y474819D01*
X1364151Y474250D01*
X1366349D01*
X1368473Y474819D01*
X1370377Y475918D01*
X1371924Y477465D01*
X1371961Y477465D01*
X1373924Y476924D01*
Y440976D01*
X1373457Y440851D01*
X1371553Y439752D01*
X1369998Y438197D01*
X1368899Y436293D01*
X1368330Y434169D01*
Y431971D01*
X1368899Y429847D01*
X1369998Y427943D01*
X1371553Y426388D01*
X1373457Y425289D01*
X1375581Y424720D01*
X1377779D01*
X1379903Y425289D01*
X1381807Y426388D01*
X1383362Y427943D01*
X1384461Y429847D01*
X1385030Y431971D01*
Y434169D01*
X1384461Y436293D01*
X1383362Y438197D01*
X1381807Y439752D01*
X1380592Y440453D01*
Y607677D01*
X1380843Y607823D01*
X1383503Y607118D01*
X1383746Y606697D01*
X1385515Y604928D01*
X1387681Y603677D01*
X1390097Y603030D01*
X1392599D01*
X1395015Y603677D01*
X1395313Y603850D01*
X1402002Y597161D01*
Y388284D01*
X1401325Y388026D01*
X1400002Y387941D01*
X1398950Y389763D01*
X1397181Y391532D01*
X1395015Y392783D01*
X1392599Y393430D01*
X1390097D01*
X1387681Y392783D01*
X1385515Y391532D01*
X1383746Y389763D01*
X1382495Y387597D01*
X1381848Y385181D01*
Y382679D01*
X1382495Y380263D01*
X1383746Y378097D01*
X1385515Y376328D01*
X1387681Y375077D01*
X1390097Y374430D01*
X1392599D01*
X1395015Y375077D01*
X1397181Y376328D01*
X1398950Y378097D01*
X1400201Y380263D01*
X1400249Y380446D01*
X1401788Y380573D01*
X1402333Y380495D01*
X1402979Y379530D01*
X1413606Y368902D01*
Y77545D01*
X1412940D01*
X1410599Y77080D01*
X1408614Y75753D01*
X1407288Y73769D01*
X1406823Y71428D01*
Y63428D01*
X1407288Y61087D01*
X1408614Y59102D01*
X1410599Y57776D01*
X1412940Y57310D01*
X1420940D01*
X1423281Y57776D01*
X1425266Y59102D01*
X1426592Y61087D01*
X1427057Y63428D01*
Y71428D01*
X1426592Y73769D01*
X1425266Y75753D01*
X1423281Y77080D01*
X1420940Y77545D01*
X1420274D01*
Y370283D01*
X1420020Y371559D01*
X1419297Y372641D01*
X1416968Y374970D01*
X1417797Y376970D01*
X1417999D01*
X1420415Y377617D01*
X1422581Y378868D01*
X1424350Y380637D01*
X1425600Y382803D01*
X1426248Y385219D01*
Y387721D01*
X1425600Y390137D01*
X1424350Y392303D01*
X1422581Y394072D01*
X1420415Y395323D01*
X1417999Y395970D01*
X1415497D01*
X1413081Y395323D01*
X1410915Y394072D01*
X1410670Y393827D01*
X1408670Y394655D01*
Y543132D01*
X1410670Y543396D01*
X1410809Y542877D01*
X1411908Y540973D01*
X1413463Y539418D01*
X1415367Y538319D01*
X1417491Y537750D01*
X1419689D01*
X1421813Y538319D01*
X1423717Y539418D01*
X1425272Y540973D01*
X1426371Y542877D01*
X1426940Y545001D01*
Y547199D01*
X1426371Y549323D01*
X1425272Y551227D01*
X1423717Y552782D01*
X1421813Y553881D01*
X1420728Y554172D01*
Y606398D01*
X1422581Y607468D01*
X1424350Y609237D01*
X1425600Y611403D01*
X1426248Y613819D01*
Y616321D01*
X1425600Y618737D01*
X1424350Y620903D01*
X1422581Y622672D01*
X1420415Y623923D01*
X1417999Y624570D01*
X1415497D01*
X1413081Y623923D01*
X1410915Y622672D01*
X1409146Y620903D01*
X1407895Y618737D01*
X1407248Y616321D01*
Y613819D01*
X1407895Y611403D01*
X1409146Y609237D01*
X1410915Y607468D01*
X1413081Y606217D01*
X1414610Y605808D01*
Y553444D01*
X1413463Y552782D01*
X1411908Y551227D01*
X1410809Y549323D01*
X1410670Y548804D01*
X1408670Y549068D01*
Y598542D01*
X1408416Y599818D01*
X1407693Y600900D01*
X1400028Y608565D01*
X1400201Y608863D01*
X1400848Y611279D01*
Y613781D01*
X1400201Y616197D01*
X1398950Y618363D01*
X1397181Y620132D01*
X1395015Y621383D01*
X1392599Y622030D01*
X1392397D01*
X1391568Y624030D01*
X1494608Y727069D01*
X1495330Y728151D01*
X1495584Y729427D01*
Y800752D01*
X1497075Y801152D01*
X1499925Y802797D01*
X1502253Y805125D01*
X1503898Y807975D01*
X1504750Y811154D01*
Y814446D01*
X1503898Y817625D01*
X1502253Y820475D01*
X1499925Y822803D01*
X1497075Y824448D01*
X1495244Y824939D01*
Y827110D01*
X1494990Y828386D01*
X1494267Y829467D01*
X1392076Y931659D01*
X1392348Y932130D01*
X1393030Y934673D01*
Y937307D01*
X1392348Y939850D01*
X1391032Y942130D01*
X1389170Y943992D01*
X1386890Y945309D01*
X1384346Y945990D01*
D02*
G37*
G36*
X1561170Y810260D02*
X1549400D01*
Y798490D01*
X1549847D01*
X1553163Y799379D01*
X1556137Y801095D01*
X1558565Y803523D01*
X1560281Y806497D01*
X1561170Y809813D01*
Y810260D01*
D02*
G37*
G36*
X1546860D02*
X1535090D01*
Y809813D01*
X1535979Y806497D01*
X1537695Y803523D01*
X1540123Y801095D01*
X1543097Y799379D01*
X1546413Y798490D01*
X1546860D01*
Y810260D01*
D02*
G37*
G36*
X655293Y805180D02*
X647700D01*
Y797587D01*
X649861Y798166D01*
X651889Y799336D01*
X653544Y800991D01*
X654714Y803019D01*
X655293Y805180D01*
D02*
G37*
G36*
X645160D02*
X637567D01*
X638146Y803019D01*
X639316Y800991D01*
X640971Y799336D01*
X642999Y798166D01*
X645160Y797587D01*
Y805180D01*
D02*
G37*
G36*
X537960Y772550D02*
X537440D01*
Y755650D01*
X554340D01*
Y756170D01*
X553642Y759680D01*
X552272Y762987D01*
X550284Y765963D01*
X547753Y768494D01*
X544777Y770482D01*
X541470Y771852D01*
X537960Y772550D01*
D02*
G37*
G36*
X534900D02*
X534380D01*
X530870Y771852D01*
X527563Y770482D01*
X524587Y768494D01*
X522056Y765963D01*
X520068Y762987D01*
X518698Y759680D01*
X518000Y756170D01*
Y755650D01*
X534900D01*
Y772550D01*
D02*
G37*
G36*
X554340Y753110D02*
X537440D01*
Y736210D01*
X537960D01*
X541470Y736908D01*
X544777Y738278D01*
X547753Y740266D01*
X550284Y742797D01*
X552272Y745773D01*
X553642Y749080D01*
X554340Y752590D01*
Y753110D01*
D02*
G37*
G36*
X534900D02*
X518000D01*
Y752590D01*
X518698Y749080D01*
X520068Y745773D01*
X522056Y742797D01*
X524587Y740266D01*
X527563Y738278D01*
X530870Y736908D01*
X534380Y736210D01*
X534900D01*
Y753110D01*
D02*
G37*
G36*
X433070Y689583D02*
Y681990D01*
X440663D01*
X440084Y684151D01*
X438914Y686179D01*
X437259Y687834D01*
X435231Y689004D01*
X433070Y689583D01*
D02*
G37*
G36*
X430530D02*
X428369Y689004D01*
X426341Y687834D01*
X424686Y686179D01*
X423516Y684151D01*
X422937Y681990D01*
X430530D01*
Y689583D01*
D02*
G37*
G36*
X440663Y679450D02*
X433070D01*
Y671857D01*
X435231Y672436D01*
X437259Y673606D01*
X438914Y675261D01*
X440084Y677289D01*
X440663Y679450D01*
D02*
G37*
G36*
X430530D02*
X422937D01*
X423516Y677289D01*
X424686Y675261D01*
X426341Y673606D01*
X428369Y672436D01*
X430530Y671857D01*
Y679450D01*
D02*
G37*
G36*
X1793240Y652753D02*
Y645160D01*
X1800833D01*
X1800254Y647321D01*
X1799084Y649349D01*
X1797429Y651004D01*
X1795401Y652174D01*
X1793240Y652753D01*
D02*
G37*
G36*
X1790700D02*
X1788539Y652174D01*
X1786511Y651004D01*
X1784856Y649349D01*
X1783686Y647321D01*
X1783107Y645160D01*
X1790700D01*
Y652753D01*
D02*
G37*
G36*
X111760Y626190D02*
Y621030D01*
X116920D01*
X116584Y622284D01*
X115723Y623776D01*
X114506Y624993D01*
X113014Y625854D01*
X111760Y626190D01*
D02*
G37*
G36*
X96520D02*
X95266Y625854D01*
X93774Y624993D01*
X92557Y623776D01*
X91696Y622284D01*
X91360Y621030D01*
X96520D01*
Y626190D01*
D02*
G37*
G36*
X1037050Y626110D02*
X1036998D01*
Y617340D01*
X1045768D01*
Y617392D01*
X1045084Y619945D01*
X1043762Y622235D01*
X1041893Y624104D01*
X1039603Y625426D01*
X1037050Y626110D01*
D02*
G37*
G36*
X1034458D02*
X1034406D01*
X1031853Y625426D01*
X1029563Y624104D01*
X1027694Y622235D01*
X1026372Y619945D01*
X1025688Y617392D01*
Y617340D01*
X1034458D01*
Y626110D01*
D02*
G37*
G36*
X1722870Y625110D02*
X1722818D01*
Y616340D01*
X1731588D01*
Y616392D01*
X1730904Y618945D01*
X1729582Y621235D01*
X1727713Y623104D01*
X1725423Y624426D01*
X1722870Y625110D01*
D02*
G37*
G36*
X1720278D02*
X1720226D01*
X1717673Y624426D01*
X1715383Y623104D01*
X1713514Y621235D01*
X1712192Y618945D01*
X1711508Y616392D01*
Y616340D01*
X1720278D01*
Y625110D01*
D02*
G37*
G36*
X1240270Y622570D02*
X1240218D01*
Y613800D01*
X1248988D01*
Y613852D01*
X1248304Y616405D01*
X1246982Y618695D01*
X1245113Y620564D01*
X1242823Y621886D01*
X1240270Y622570D01*
D02*
G37*
G36*
X1906270Y618570D02*
Y613410D01*
X1911430D01*
X1911094Y614664D01*
X1910233Y616156D01*
X1909016Y617373D01*
X1907524Y618234D01*
X1906270Y618570D01*
D02*
G37*
G36*
X1891030D02*
X1889776Y618234D01*
X1888284Y617373D01*
X1887067Y616156D01*
X1886206Y614664D01*
X1885870Y613410D01*
X1891030D01*
Y618570D01*
D02*
G37*
G36*
X208280Y621003D02*
Y613410D01*
X215873D01*
X215294Y615571D01*
X214124Y617599D01*
X212469Y619254D01*
X210441Y620424D01*
X208280Y621003D01*
D02*
G37*
G36*
X205740D02*
X203579Y620424D01*
X201551Y619254D01*
X199896Y617599D01*
X198726Y615571D01*
X198147Y613410D01*
X205740D01*
Y621003D01*
D02*
G37*
G36*
X1132669Y713200D02*
X1130471D01*
X1128347Y712631D01*
X1126443Y711532D01*
X1124888Y709977D01*
X1123789Y708073D01*
X1123220Y705949D01*
Y703751D01*
X1123789Y701627D01*
X1124888Y699723D01*
X1126443Y698168D01*
X1128236Y697133D01*
Y624937D01*
X1126443Y623902D01*
X1124888Y622347D01*
X1123789Y620443D01*
X1123220Y618319D01*
Y616121D01*
X1123789Y613997D01*
X1124888Y612093D01*
X1126443Y610538D01*
X1128347Y609439D01*
X1130471Y608870D01*
X1132669D01*
X1134793Y609439D01*
X1136697Y610538D01*
X1138252Y612093D01*
X1139351Y613997D01*
X1139920Y616121D01*
Y618319D01*
X1139351Y620443D01*
X1138252Y622347D01*
X1136697Y623902D01*
X1134904Y624937D01*
Y697133D01*
X1136697Y698168D01*
X1138252Y699723D01*
X1139351Y701627D01*
X1139920Y703751D01*
Y705949D01*
X1139351Y708073D01*
X1138252Y709977D01*
X1136697Y711532D01*
X1134793Y712631D01*
X1132669Y713200D01*
D02*
G37*
G36*
X986179Y625570D02*
X983677D01*
X981261Y624922D01*
X979095Y623672D01*
X977326Y621903D01*
X976075Y619737D01*
X975428Y617321D01*
Y614819D01*
X976075Y612403D01*
X977326Y610237D01*
X979095Y608468D01*
X981261Y607217D01*
X983677Y606570D01*
X986179D01*
X988595Y607217D01*
X990761Y608468D01*
X992530Y610237D01*
X993781Y612403D01*
X994428Y614819D01*
Y617321D01*
X993781Y619737D01*
X992530Y621903D01*
X990761Y623672D01*
X988595Y624922D01*
X986179Y625570D01*
D02*
G37*
G36*
X935379D02*
X932877D01*
X930461Y624922D01*
X928295Y623672D01*
X926526Y621903D01*
X925275Y619737D01*
X924628Y617321D01*
Y614819D01*
X925275Y612403D01*
X926526Y610237D01*
X928295Y608468D01*
X930461Y607217D01*
X932877Y606570D01*
X935379D01*
X937795Y607217D01*
X939961Y608468D01*
X941730Y610237D01*
X942980Y612403D01*
X943628Y614819D01*
Y617321D01*
X942980Y619737D01*
X941730Y621903D01*
X939961Y623672D01*
X937795Y624922D01*
X935379Y625570D01*
D02*
G37*
G36*
X1045768Y614800D02*
X1036998D01*
Y606030D01*
X1037050D01*
X1039603Y606714D01*
X1041893Y608036D01*
X1043762Y609905D01*
X1045084Y612195D01*
X1045768Y614748D01*
Y614800D01*
D02*
G37*
G36*
X1034458D02*
X1025688D01*
Y614748D01*
X1026372Y612195D01*
X1027694Y609905D01*
X1029563Y608036D01*
X1031853Y606714D01*
X1034406Y606030D01*
X1034458D01*
Y614800D01*
D02*
G37*
G36*
X1621199Y624570D02*
X1618697D01*
X1616281Y623923D01*
X1614115Y622672D01*
X1612346Y620903D01*
X1611095Y618737D01*
X1610448Y616321D01*
Y613819D01*
X1611095Y611403D01*
X1612346Y609237D01*
X1614115Y607468D01*
X1616281Y606217D01*
X1618697Y605570D01*
X1621199D01*
X1623615Y606217D01*
X1625781Y607468D01*
X1627550Y609237D01*
X1628801Y611403D01*
X1629448Y613819D01*
Y616321D01*
X1628801Y618737D01*
X1627550Y620903D01*
X1625781Y622672D01*
X1623615Y623923D01*
X1621199Y624570D01*
D02*
G37*
G36*
X1570399D02*
X1567897D01*
X1565481Y623923D01*
X1563315Y622672D01*
X1561546Y620903D01*
X1560295Y618737D01*
X1559648Y616321D01*
Y613819D01*
X1560295Y611403D01*
X1561546Y609237D01*
X1563315Y607468D01*
X1565481Y606217D01*
X1567897Y605570D01*
X1570399D01*
X1572815Y606217D01*
X1574981Y607468D01*
X1576750Y609237D01*
X1578000Y611403D01*
X1578648Y613819D01*
Y616321D01*
X1578000Y618737D01*
X1576750Y620903D01*
X1574981Y622672D01*
X1572815Y623923D01*
X1570399Y624570D01*
D02*
G37*
G36*
X1265599D02*
X1263097D01*
X1260681Y623923D01*
X1258515Y622672D01*
X1256746Y620903D01*
X1255495Y618737D01*
X1254848Y616321D01*
Y613819D01*
X1255495Y611403D01*
X1256746Y609237D01*
X1258515Y607468D01*
X1260681Y606217D01*
X1263097Y605570D01*
X1265599D01*
X1268015Y606217D01*
X1270181Y607468D01*
X1271950Y609237D01*
X1273201Y611403D01*
X1273848Y613819D01*
Y616321D01*
X1273201Y618737D01*
X1271950Y620903D01*
X1270181Y622672D01*
X1268015Y623923D01*
X1265599Y624570D01*
D02*
G37*
G36*
X1731588Y613800D02*
X1722818D01*
Y605030D01*
X1722870D01*
X1725423Y605714D01*
X1727713Y607036D01*
X1729582Y608905D01*
X1730904Y611195D01*
X1731588Y613748D01*
Y613800D01*
D02*
G37*
G36*
X1720278D02*
X1711508D01*
Y613748D01*
X1712192Y611195D01*
X1713514Y608905D01*
X1715383Y607036D01*
X1717673Y605714D01*
X1720226Y605030D01*
X1720278D01*
Y613800D01*
D02*
G37*
G36*
X1070628Y623030D02*
X1051628D01*
Y604030D01*
X1070628D01*
Y623030D01*
D02*
G37*
G36*
X1011579D02*
X1009077D01*
X1006661Y622383D01*
X1004495Y621132D01*
X1002726Y619363D01*
X1001475Y617197D01*
X1000828Y614781D01*
Y612279D01*
X1001475Y609863D01*
X1002726Y607697D01*
X1004495Y605928D01*
X1006661Y604677D01*
X1009077Y604030D01*
X1011579D01*
X1013995Y604677D01*
X1016161Y605928D01*
X1017930Y607697D01*
X1019181Y609863D01*
X1019828Y612279D01*
Y614781D01*
X1019181Y617197D01*
X1017930Y619363D01*
X1016161Y621132D01*
X1013995Y622383D01*
X1011579Y623030D01*
D02*
G37*
G36*
X960779D02*
X958277D01*
X955861Y622383D01*
X953695Y621132D01*
X951926Y619363D01*
X950675Y617197D01*
X950028Y614781D01*
Y612279D01*
X950675Y609863D01*
X951926Y607697D01*
X953695Y605928D01*
X955861Y604677D01*
X958277Y604030D01*
X960779D01*
X963195Y604677D01*
X965361Y605928D01*
X967130Y607697D01*
X968381Y609863D01*
X969028Y612279D01*
Y614781D01*
X968381Y617197D01*
X967130Y619363D01*
X965361Y621132D01*
X963195Y622383D01*
X960779Y623030D01*
D02*
G37*
G36*
X909979D02*
X907477D01*
X905061Y622383D01*
X902895Y621132D01*
X901126Y619363D01*
X899875Y617197D01*
X899228Y614781D01*
Y612279D01*
X899875Y609863D01*
X901126Y607697D01*
X902895Y605928D01*
X905061Y604677D01*
X907477Y604030D01*
X909979D01*
X912395Y604677D01*
X914561Y605928D01*
X916330Y607697D01*
X917580Y609863D01*
X918228Y612279D01*
Y614781D01*
X917580Y617197D01*
X916330Y619363D01*
X914561Y621132D01*
X912395Y622383D01*
X909979Y623030D01*
D02*
G37*
G36*
X215873Y610870D02*
X208280D01*
Y603277D01*
X210441Y603856D01*
X212469Y605026D01*
X214124Y606681D01*
X215294Y608709D01*
X215873Y610870D01*
D02*
G37*
G36*
X205740D02*
X198147D01*
X198726Y608709D01*
X199896Y606681D01*
X201551Y605026D01*
X203579Y603856D01*
X205740Y603277D01*
Y610870D01*
D02*
G37*
G36*
X1756448Y622030D02*
X1737448D01*
Y603030D01*
X1756448D01*
Y622030D01*
D02*
G37*
G36*
X1697399D02*
X1694897D01*
X1692481Y621383D01*
X1690315Y620132D01*
X1688546Y618363D01*
X1687295Y616197D01*
X1686648Y613781D01*
Y611279D01*
X1687295Y608863D01*
X1688546Y606697D01*
X1690315Y604928D01*
X1692481Y603677D01*
X1694897Y603030D01*
X1697399D01*
X1699815Y603677D01*
X1701981Y604928D01*
X1703750Y606697D01*
X1705000Y608863D01*
X1705648Y611279D01*
Y613781D01*
X1705000Y616197D01*
X1703750Y618363D01*
X1701981Y620132D01*
X1699815Y621383D01*
X1697399Y622030D01*
D02*
G37*
G36*
X1595799D02*
X1593297D01*
X1590881Y621383D01*
X1588715Y620132D01*
X1586946Y618363D01*
X1585695Y616197D01*
X1585048Y613781D01*
Y611279D01*
X1585695Y608863D01*
X1586946Y606697D01*
X1588715Y604928D01*
X1590881Y603677D01*
X1593297Y603030D01*
X1595799D01*
X1598215Y603677D01*
X1600381Y604928D01*
X1602150Y606697D01*
X1603401Y608863D01*
X1604048Y611279D01*
Y613781D01*
X1603401Y616197D01*
X1602150Y618363D01*
X1600381Y620132D01*
X1598215Y621383D01*
X1595799Y622030D01*
D02*
G37*
G36*
X1544999D02*
X1542497D01*
X1540081Y621383D01*
X1537915Y620132D01*
X1536146Y618363D01*
X1534895Y616197D01*
X1534248Y613781D01*
Y611279D01*
X1534895Y608863D01*
X1536146Y606697D01*
X1537915Y604928D01*
X1540081Y603677D01*
X1542497Y603030D01*
X1544999D01*
X1547415Y603677D01*
X1549581Y604928D01*
X1551350Y606697D01*
X1552601Y608863D01*
X1553248Y611279D01*
Y613781D01*
X1552601Y616197D01*
X1551350Y618363D01*
X1549581Y620132D01*
X1547415Y621383D01*
X1544999Y622030D01*
D02*
G37*
G36*
X1443399D02*
X1440897D01*
X1438481Y621383D01*
X1436315Y620132D01*
X1434546Y618363D01*
X1433295Y616197D01*
X1432648Y613781D01*
Y611279D01*
X1433295Y608863D01*
X1434546Y606697D01*
X1436315Y604928D01*
X1438481Y603677D01*
X1440897Y603030D01*
X1443399D01*
X1445815Y603677D01*
X1447981Y604928D01*
X1449750Y606697D01*
X1451001Y608863D01*
X1451648Y611279D01*
Y613781D01*
X1451001Y616197D01*
X1449750Y618363D01*
X1447981Y620132D01*
X1445815Y621383D01*
X1443399Y622030D01*
D02*
G37*
G36*
X1290999D02*
X1288497D01*
X1286081Y621383D01*
X1283915Y620132D01*
X1282146Y618363D01*
X1280895Y616197D01*
X1280248Y613781D01*
Y611279D01*
X1280895Y608863D01*
X1281068Y608565D01*
X1265102Y592600D01*
X1264380Y591518D01*
X1264126Y590242D01*
Y482697D01*
X1262333Y481662D01*
X1260778Y480107D01*
X1259679Y478203D01*
X1259110Y476079D01*
Y473881D01*
X1259679Y471757D01*
X1260778Y469853D01*
X1262333Y468298D01*
X1264237Y467199D01*
X1266361Y466630D01*
X1268559D01*
X1270683Y467199D01*
X1272587Y468298D01*
X1274142Y469853D01*
X1275241Y471757D01*
X1275810Y473881D01*
Y476079D01*
X1275241Y478203D01*
X1274142Y480107D01*
X1272587Y481662D01*
X1270794Y482697D01*
Y588861D01*
X1285783Y603850D01*
X1286081Y603677D01*
X1288497Y603030D01*
X1290999D01*
X1293415Y603677D01*
X1295581Y604928D01*
X1297350Y606697D01*
X1298600Y608863D01*
X1299248Y611279D01*
Y613781D01*
X1298600Y616197D01*
X1297350Y618363D01*
X1295581Y620132D01*
X1293415Y621383D01*
X1290999Y622030D01*
D02*
G37*
G36*
X1248988Y611260D02*
X1240218D01*
Y602490D01*
X1240270D01*
X1242823Y603174D01*
X1245113Y604496D01*
X1246982Y606365D01*
X1248304Y608655D01*
X1248988Y611208D01*
Y611260D01*
D02*
G37*
G36*
X1229407Y947260D02*
X1226774D01*
X1224230Y946579D01*
X1221950Y945262D01*
X1220088Y943400D01*
X1218772Y941120D01*
X1218090Y938577D01*
Y935944D01*
X1218772Y933400D01*
X1220088Y931120D01*
X1221950Y929258D01*
X1224230Y927942D01*
X1224304Y927922D01*
Y433016D01*
X1224558Y431740D01*
X1225280Y430659D01*
X1226881Y429058D01*
X1226659Y428673D01*
X1226090Y426549D01*
Y424351D01*
X1226659Y422227D01*
X1227758Y420323D01*
X1229313Y418768D01*
X1231217Y417669D01*
X1233341Y417100D01*
X1235539D01*
X1237663Y417669D01*
X1239567Y418768D01*
X1241122Y420323D01*
X1242221Y422227D01*
X1242790Y424351D01*
Y426549D01*
X1242221Y428673D01*
X1241122Y430577D01*
X1239567Y432132D01*
X1237663Y433231D01*
X1235539Y433800D01*
X1233341D01*
X1232648Y433614D01*
X1230972Y435009D01*
Y603746D01*
X1231546Y603984D01*
X1232972Y604387D01*
X1235073Y603174D01*
X1237626Y602490D01*
X1237678D01*
Y612530D01*
Y622570D01*
X1237626D01*
X1235073Y621886D01*
X1232972Y620673D01*
X1231546Y621076D01*
X1230972Y621314D01*
Y927680D01*
X1231950Y927942D01*
X1234230Y929258D01*
X1236092Y931120D01*
X1237409Y933400D01*
X1238090Y935944D01*
Y938577D01*
X1237409Y941120D01*
X1236092Y943400D01*
X1234230Y945262D01*
X1231950Y946579D01*
X1229407Y947260D01*
D02*
G37*
G36*
X116920Y607060D02*
X111760D01*
Y601900D01*
X113014Y602236D01*
X114506Y603097D01*
X115723Y604314D01*
X116584Y605806D01*
X116920Y607060D01*
D02*
G37*
G36*
X99060Y626190D02*
Y619760D01*
X97790D01*
Y618490D01*
X91360D01*
X91696Y617236D01*
X92557Y615744D01*
X92921Y615380D01*
X93548Y614045D01*
X92921Y612710D01*
X92557Y612346D01*
X91696Y610854D01*
X91360Y609600D01*
X97790D01*
Y608330D01*
X99060D01*
Y601900D01*
X100314Y602236D01*
X101806Y603097D01*
X103023Y604314D01*
X105257D01*
X106474Y603097D01*
X107966Y602236D01*
X109220Y601900D01*
Y608330D01*
X110490D01*
Y609600D01*
X116920D01*
X116584Y610854D01*
X115723Y612346D01*
X115359Y612710D01*
X114732Y614045D01*
X115359Y615380D01*
X115723Y615744D01*
X116584Y617236D01*
X116920Y618490D01*
X110490D01*
Y619760D01*
X109220D01*
Y626190D01*
X107966Y625854D01*
X106474Y624993D01*
X105257Y623776D01*
X103023D01*
X101806Y624993D01*
X100314Y625854D01*
X99060Y626190D01*
D02*
G37*
G36*
X96520Y607060D02*
X91360D01*
X91696Y605806D01*
X92557Y604314D01*
X93774Y603097D01*
X95266Y602236D01*
X96520Y601900D01*
Y607060D01*
D02*
G37*
G36*
X858520Y601953D02*
Y594360D01*
X866113D01*
X865534Y596521D01*
X864364Y598549D01*
X862709Y600204D01*
X860681Y601374D01*
X858520Y601953D01*
D02*
G37*
G36*
X855980D02*
X853819Y601374D01*
X851791Y600204D01*
X850136Y598549D01*
X848966Y596521D01*
X848387Y594360D01*
X855980D01*
Y601953D01*
D02*
G37*
G36*
X58420Y595603D02*
Y588010D01*
X66013D01*
X65434Y590171D01*
X64264Y592199D01*
X62609Y593854D01*
X60581Y595024D01*
X58420Y595603D01*
D02*
G37*
G36*
X55880D02*
X53719Y595024D01*
X51691Y593854D01*
X50036Y592199D01*
X48866Y590171D01*
X48287Y588010D01*
X55880D01*
Y595603D01*
D02*
G37*
G36*
X866113Y591820D02*
X858520D01*
Y584227D01*
X860681Y584806D01*
X862709Y585976D01*
X864364Y587631D01*
X865534Y589659D01*
X866113Y591820D01*
D02*
G37*
G36*
X855980D02*
X848387D01*
X848966Y589659D01*
X850136Y587631D01*
X851791Y585976D01*
X853819Y584806D01*
X855980Y584227D01*
Y591820D01*
D02*
G37*
G36*
X720716Y621230D02*
X716924D01*
X713205Y620490D01*
X709702Y619039D01*
X706549Y616932D01*
X703868Y614251D01*
X701761Y611098D01*
X700310Y607595D01*
X699570Y603876D01*
Y600084D01*
X700310Y596365D01*
X701761Y592862D01*
X703868Y589709D01*
X706549Y587028D01*
X709702Y584921D01*
X713205Y583470D01*
X716924Y582730D01*
X720716D01*
X724435Y583470D01*
X727938Y584921D01*
X731091Y587028D01*
X733772Y589709D01*
X735879Y592862D01*
X737330Y596365D01*
X738070Y600084D01*
Y603876D01*
X737330Y607595D01*
X735879Y611098D01*
X733772Y614251D01*
X731091Y616932D01*
X727938Y619039D01*
X724435Y620490D01*
X720716Y621230D01*
D02*
G37*
G36*
X482416D02*
X478624D01*
X474905Y620490D01*
X471402Y619039D01*
X468249Y616932D01*
X465568Y614251D01*
X463461Y611098D01*
X462010Y607595D01*
X461270Y603876D01*
Y600084D01*
X462010Y596365D01*
X463461Y592862D01*
X465568Y589709D01*
X468249Y587028D01*
X471402Y584921D01*
X474905Y583470D01*
X478624Y582730D01*
X482416D01*
X486135Y583470D01*
X489638Y584921D01*
X492791Y587028D01*
X495472Y589709D01*
X497579Y592862D01*
X499030Y596365D01*
X499770Y600084D01*
Y603876D01*
X499030Y607595D01*
X497579Y611098D01*
X495472Y614251D01*
X492791Y616932D01*
X489638Y619039D01*
X486135Y620490D01*
X482416Y621230D01*
D02*
G37*
G36*
X914400Y589253D02*
Y581660D01*
X921993D01*
X921414Y583821D01*
X920244Y585849D01*
X918589Y587504D01*
X916561Y588674D01*
X914400Y589253D01*
D02*
G37*
G36*
X911860D02*
X909699Y588674D01*
X907671Y587504D01*
X906016Y585849D01*
X904846Y583821D01*
X904267Y581660D01*
X911860D01*
Y589253D01*
D02*
G37*
G36*
X66013Y585470D02*
X58420D01*
Y577877D01*
X60581Y578456D01*
X62609Y579626D01*
X64264Y581281D01*
X65434Y583309D01*
X66013Y585470D01*
D02*
G37*
G36*
X55880D02*
X48287D01*
X48866Y583309D01*
X50036Y581281D01*
X51691Y579626D01*
X53719Y578456D01*
X55880Y577877D01*
Y585470D01*
D02*
G37*
G36*
X921993Y579120D02*
X914400D01*
Y571527D01*
X916561Y572106D01*
X918589Y573276D01*
X920244Y574931D01*
X921414Y576959D01*
X921993Y579120D01*
D02*
G37*
G36*
X911860D02*
X904267D01*
X904846Y576959D01*
X906016Y574931D01*
X907671Y573276D01*
X909699Y572106D01*
X911860Y571527D01*
Y579120D01*
D02*
G37*
G36*
X284950Y592000D02*
X282054D01*
X279256Y591250D01*
X276748Y589802D01*
X274700Y587754D01*
X273252Y585246D01*
X272502Y582448D01*
Y579552D01*
X273252Y576754D01*
X274700Y574246D01*
X276748Y572198D01*
X279256Y570750D01*
X282054Y570000D01*
X284950D01*
X287748Y570750D01*
X290256Y572198D01*
X292304Y574246D01*
X293752Y576754D01*
X294502Y579552D01*
Y582448D01*
X293752Y585246D01*
X292304Y587754D01*
X290256Y589802D01*
X287748Y591250D01*
X284950Y592000D01*
D02*
G37*
G36*
X328824Y570040D02*
X328772D01*
Y561270D01*
X337542D01*
Y561322D01*
X336858Y563875D01*
X335536Y566165D01*
X333667Y568034D01*
X331377Y569356D01*
X328824Y570040D01*
D02*
G37*
G36*
X326232D02*
X326180D01*
X323627Y569356D01*
X321337Y568034D01*
X319468Y566165D01*
X318146Y563875D01*
X317462Y561322D01*
Y561270D01*
X326232D01*
Y570040D01*
D02*
G37*
G36*
X766909Y593820D02*
X764711D01*
X762587Y593251D01*
X760683Y592152D01*
X759128Y590597D01*
X758093Y588804D01*
X738165D01*
X736889Y588550D01*
X735807Y587827D01*
X721543Y573563D01*
X720820Y572481D01*
X720566Y571205D01*
Y563977D01*
X718773Y562942D01*
X717218Y561387D01*
X716119Y559483D01*
X715550Y557359D01*
Y555644D01*
X714310Y554886D01*
X713630Y554735D01*
X698694Y569671D01*
X699230Y571671D01*
Y573869D01*
X698661Y575993D01*
X697562Y577897D01*
X696007Y579452D01*
X694103Y580551D01*
X691979Y581120D01*
X689781D01*
X687657Y580551D01*
X685753Y579452D01*
X684198Y577897D01*
X683099Y575993D01*
X682530Y573869D01*
Y571671D01*
X683099Y569547D01*
X684198Y567643D01*
X685753Y566088D01*
X687657Y564989D01*
X689781Y564420D01*
X691979D01*
X693979Y564956D01*
X714652Y544282D01*
X715734Y543560D01*
X717010Y543306D01*
X718008D01*
X718543Y541306D01*
X717171Y540514D01*
X715516Y538859D01*
X714346Y536831D01*
X713767Y534670D01*
X731493D01*
X730914Y536831D01*
X729744Y538859D01*
X728089Y540514D01*
X726717Y541306D01*
X727252Y543306D01*
X727885D01*
X729161Y543560D01*
X730242Y544282D01*
X735878Y549918D01*
X736600Y550999D01*
X736854Y552275D01*
Y560369D01*
X738854Y561523D01*
X739616Y561083D01*
Y429357D01*
X737823Y428322D01*
X736268Y426767D01*
X735169Y424863D01*
X734600Y422739D01*
Y420541D01*
X735169Y418417D01*
X736268Y416513D01*
X737823Y414958D01*
X739727Y413859D01*
X741851Y413290D01*
X744049D01*
X746173Y413859D01*
X748077Y414958D01*
X749632Y416513D01*
X750731Y418417D01*
X751300Y420541D01*
Y422739D01*
X750731Y424863D01*
X749632Y426767D01*
X748077Y428322D01*
X746284Y429357D01*
Y466248D01*
X748284Y466511D01*
X748636Y465199D01*
X749806Y463171D01*
X751461Y461516D01*
X753489Y460346D01*
X755650Y459767D01*
Y468630D01*
Y477493D01*
X753489Y476914D01*
X751461Y475744D01*
X749806Y474089D01*
X748636Y472061D01*
X748284Y470748D01*
X746284Y471012D01*
Y562513D01*
X748077Y563548D01*
X749632Y565103D01*
X750731Y567007D01*
X751300Y569131D01*
Y571329D01*
X750731Y573453D01*
X750117Y574516D01*
X751157Y576516D01*
X756444D01*
X784678Y548282D01*
X785759Y547560D01*
X787035Y547306D01*
X803323D01*
X804363Y545306D01*
X803749Y544243D01*
X803180Y542119D01*
Y539921D01*
X803749Y537797D01*
X804848Y535893D01*
X806403Y534338D01*
X808307Y533239D01*
X810431Y532670D01*
X812629D01*
X814629Y533206D01*
X833303Y514533D01*
X834384Y513810D01*
X835660Y513556D01*
X897793D01*
X898828Y511763D01*
X900383Y510208D01*
X902287Y509109D01*
X904411Y508540D01*
X906609D01*
X908733Y509109D01*
X910637Y510208D01*
X912192Y511763D01*
X913291Y513667D01*
X913860Y515791D01*
Y516047D01*
X914765Y517906D01*
X1137190D01*
X1138466Y518160D01*
X1139548Y518882D01*
X1144981Y524316D01*
X1146981Y523780D01*
X1149179D01*
X1151303Y524349D01*
X1153207Y525448D01*
X1154762Y527003D01*
X1155861Y528907D01*
X1156430Y531031D01*
Y533229D01*
X1155861Y535353D01*
X1154762Y537257D01*
X1153207Y538812D01*
X1151303Y539911D01*
X1149179Y540480D01*
X1146981D01*
X1144857Y539911D01*
X1142953Y538812D01*
X1141398Y537257D01*
X1140299Y535353D01*
X1139730Y533229D01*
Y531031D01*
X1140266Y529031D01*
X1135809Y524574D01*
X939117D01*
X938077Y526574D01*
X938691Y527637D01*
X939260Y529761D01*
Y531959D01*
X938691Y534083D01*
X937592Y535987D01*
X936037Y537542D01*
X934133Y538641D01*
X932009Y539210D01*
X929811D01*
X927687Y538641D01*
X925783Y537542D01*
X924228Y535987D01*
X923129Y534083D01*
X922560Y531959D01*
Y529761D01*
X923129Y527637D01*
X923743Y526574D01*
X922703Y524574D01*
X916146D01*
X887722Y552998D01*
X886641Y553720D01*
X885365Y553974D01*
X788416D01*
X767168Y575222D01*
X767847Y577371D01*
X769033Y577689D01*
X770937Y578788D01*
X772492Y580343D01*
X773591Y582247D01*
X774160Y584371D01*
Y586569D01*
X773591Y588693D01*
X772492Y590597D01*
X770937Y592152D01*
X769033Y593251D01*
X766909Y593820D01*
D02*
G37*
G36*
X337542Y558730D02*
X328772D01*
Y549960D01*
X328824D01*
X331377Y550644D01*
X333667Y551966D01*
X335536Y553835D01*
X336858Y556125D01*
X337542Y558678D01*
Y558730D01*
D02*
G37*
G36*
X326232D02*
X317462D01*
Y558678D01*
X318146Y556125D01*
X319468Y553835D01*
X321337Y551966D01*
X323627Y550644D01*
X326180Y549960D01*
X326232D01*
Y558730D01*
D02*
G37*
G36*
X140047Y548640D02*
X139929D01*
Y539370D01*
X149199D01*
Y539488D01*
X148481Y542168D01*
X147093Y544572D01*
X145131Y546534D01*
X142728Y547922D01*
X140047Y548640D01*
D02*
G37*
G36*
X137389D02*
X137272D01*
X134591Y547922D01*
X132188Y546534D01*
X130225Y544572D01*
X128838Y542168D01*
X128119Y539488D01*
Y539370D01*
X137389D01*
Y548640D01*
D02*
G37*
G36*
X93809Y586200D02*
X91611D01*
X89487Y585631D01*
X87583Y584532D01*
X86028Y582977D01*
X84929Y581073D01*
X84360Y578949D01*
Y576751D01*
X84929Y574627D01*
X86028Y572723D01*
X87583Y571168D01*
X89376Y570133D01*
Y547481D01*
X76732Y534837D01*
X75655Y535459D01*
X72667Y536260D01*
X69573D01*
X66585Y535459D01*
X63905Y533912D01*
X61718Y531725D01*
X60171Y529045D01*
X59370Y526057D01*
Y522963D01*
X60171Y519975D01*
X61718Y517295D01*
X63905Y515108D01*
X66585Y513561D01*
X69573Y512760D01*
X72667D01*
X75655Y513561D01*
X78335Y515108D01*
X80522Y517295D01*
X82069Y519975D01*
X82870Y522963D01*
Y526057D01*
X82069Y529045D01*
X81447Y530122D01*
X95068Y543742D01*
X95790Y544824D01*
X96044Y546100D01*
Y570133D01*
X97837Y571168D01*
X99392Y572723D01*
X100491Y574627D01*
X101060Y576751D01*
Y578949D01*
X100491Y581073D01*
X99392Y582977D01*
X97837Y584532D01*
X95933Y585631D01*
X93809Y586200D01*
D02*
G37*
G36*
X1468799Y624570D02*
X1466297D01*
X1463881Y623923D01*
X1461715Y622672D01*
X1459946Y620903D01*
X1458695Y618737D01*
X1458048Y616321D01*
Y613819D01*
X1458695Y611403D01*
X1459946Y609237D01*
X1461715Y607468D01*
X1463865Y606227D01*
Y543785D01*
X1463627Y543721D01*
X1461723Y542622D01*
X1460168Y541067D01*
X1459069Y539163D01*
X1458500Y537039D01*
Y534841D01*
X1459069Y532717D01*
X1460168Y530813D01*
X1461723Y529258D01*
X1463627Y528159D01*
X1465751Y527590D01*
X1467949D01*
X1470073Y528159D01*
X1471977Y529258D01*
X1473532Y530813D01*
X1474631Y532717D01*
X1475200Y534841D01*
Y537039D01*
X1474631Y539163D01*
X1473532Y541067D01*
X1471977Y542622D01*
X1470533Y543455D01*
Y606035D01*
X1471215Y606217D01*
X1473381Y607468D01*
X1475150Y609237D01*
X1476400Y611403D01*
X1477048Y613819D01*
Y616321D01*
X1476400Y618737D01*
X1475150Y620903D01*
X1473381Y622672D01*
X1471215Y623923D01*
X1468799Y624570D01*
D02*
G37*
G36*
X149199Y536830D02*
X139929D01*
Y527560D01*
X140047D01*
X142728Y528278D01*
X145131Y529666D01*
X147093Y531628D01*
X148481Y534032D01*
X149199Y536712D01*
Y536830D01*
D02*
G37*
G36*
X137389D02*
X128119D01*
Y536712D01*
X128838Y534032D01*
X130225Y531628D01*
X132188Y529666D01*
X134591Y528278D01*
X137272Y527560D01*
X137389D01*
Y536830D01*
D02*
G37*
G36*
X731493Y532130D02*
X723900D01*
Y524537D01*
X726061Y525116D01*
X728089Y526286D01*
X729744Y527941D01*
X730914Y529969D01*
X731493Y532130D01*
D02*
G37*
G36*
X721360D02*
X713767D01*
X714346Y529969D01*
X715516Y527941D01*
X717171Y526286D01*
X719199Y525116D01*
X721360Y524537D01*
Y532130D01*
D02*
G37*
G36*
X802640Y516863D02*
Y509270D01*
X810233D01*
X809654Y511431D01*
X808484Y513459D01*
X806829Y515114D01*
X804801Y516284D01*
X802640Y516863D01*
D02*
G37*
G36*
X800100D02*
X797939Y516284D01*
X795911Y515114D01*
X794256Y513459D01*
X793086Y511431D01*
X792507Y509270D01*
X800100D01*
Y516863D01*
D02*
G37*
G36*
X139976Y522700D02*
X137343D01*
X134800Y522019D01*
X132519Y520702D01*
X130657Y518840D01*
X129341Y516560D01*
X128659Y514016D01*
Y511384D01*
X129341Y508840D01*
X130657Y506560D01*
X132519Y504698D01*
X134800Y503382D01*
X137343Y502700D01*
X139976D01*
X142519Y503382D01*
X144799Y504698D01*
X146661Y506560D01*
X147978Y508840D01*
X148659Y511384D01*
Y514016D01*
X147978Y516560D01*
X146661Y518840D01*
X144799Y520702D01*
X142519Y522019D01*
X139976Y522700D01*
D02*
G37*
G36*
X810233Y506730D02*
X802640D01*
Y499137D01*
X804801Y499716D01*
X806829Y500886D01*
X808484Y502541D01*
X809654Y504569D01*
X810233Y506730D01*
D02*
G37*
G36*
X800100D02*
X792507D01*
X793086Y504569D01*
X794256Y502541D01*
X795911Y500886D01*
X797939Y499716D01*
X800100Y499137D01*
Y506730D01*
D02*
G37*
G36*
X1316399Y624570D02*
X1313897D01*
X1311481Y623923D01*
X1309315Y622672D01*
X1307546Y620903D01*
X1306295Y618737D01*
X1305648Y616321D01*
Y613819D01*
X1306295Y611403D01*
X1307546Y609237D01*
X1309315Y607468D01*
X1311481Y606217D01*
X1311919Y606100D01*
Y507656D01*
X1310231Y506682D01*
X1308676Y505127D01*
X1307577Y503223D01*
X1307008Y501099D01*
Y498901D01*
X1307577Y496777D01*
X1308676Y494873D01*
X1310231Y493318D01*
X1312135Y492219D01*
X1314259Y491650D01*
X1316457D01*
X1318581Y492219D01*
X1320485Y493318D01*
X1322040Y494873D01*
X1323139Y496777D01*
X1323708Y498901D01*
Y501099D01*
X1323139Y503223D01*
X1322040Y505127D01*
X1320485Y506682D01*
X1318587Y507777D01*
Y606156D01*
X1318815Y606217D01*
X1320981Y607468D01*
X1322750Y609237D01*
X1324001Y611403D01*
X1324648Y613819D01*
Y616321D01*
X1324001Y618737D01*
X1322750Y620903D01*
X1320981Y622672D01*
X1318815Y623923D01*
X1316399Y624570D01*
D02*
G37*
G36*
X424950Y511000D02*
X422054D01*
X419256Y510250D01*
X416748Y508802D01*
X414700Y506754D01*
X413252Y504246D01*
X412502Y501448D01*
Y498552D01*
X413252Y495754D01*
X414700Y493246D01*
X416748Y491198D01*
X419256Y489750D01*
X422054Y489000D01*
X424950D01*
X427748Y489750D01*
X430256Y491198D01*
X432304Y493246D01*
X433752Y495754D01*
X434502Y498552D01*
Y501448D01*
X433752Y504246D01*
X432304Y506754D01*
X430256Y508802D01*
X427748Y510250D01*
X424950Y511000D01*
D02*
G37*
G36*
X139976Y497300D02*
X137343D01*
X134800Y496618D01*
X132519Y495302D01*
X130657Y493440D01*
X129341Y491160D01*
X128659Y488616D01*
Y485984D01*
X129341Y483440D01*
X130657Y481160D01*
X132519Y479298D01*
X134800Y477981D01*
X137343Y477300D01*
X139976D01*
X142519Y477981D01*
X144799Y479298D01*
X146661Y481160D01*
X147978Y483440D01*
X148659Y485984D01*
Y488616D01*
X147978Y491160D01*
X146661Y493440D01*
X144799Y495302D01*
X142519Y496618D01*
X139976Y497300D01*
D02*
G37*
G36*
X758190Y477493D02*
Y469900D01*
X765783D01*
X765204Y472061D01*
X764034Y474089D01*
X762379Y475744D01*
X760351Y476914D01*
X758190Y477493D01*
D02*
G37*
G36*
X82870Y485460D02*
X59370D01*
Y461960D01*
X82870D01*
Y485460D01*
D02*
G37*
G36*
X765783Y467360D02*
X758190D01*
Y459767D01*
X760351Y460346D01*
X762379Y461516D01*
X764034Y463171D01*
X765204Y465199D01*
X765783Y467360D01*
D02*
G37*
G36*
X142659Y472018D02*
X134659D01*
X132318Y471552D01*
X130334Y470226D01*
X129008Y468241D01*
X128542Y465900D01*
Y457900D01*
X129008Y455559D01*
X130334Y453574D01*
X132318Y452248D01*
X134659Y451782D01*
X142659D01*
X145000Y452248D01*
X146985Y453574D01*
X148311Y455559D01*
X148777Y457900D01*
Y465900D01*
X148311Y468241D01*
X146985Y470226D01*
X145000Y471552D01*
X142659Y472018D01*
D02*
G37*
G36*
X284950Y430000D02*
X282054D01*
X279256Y429250D01*
X276748Y427802D01*
X274700Y425754D01*
X273252Y423246D01*
X272502Y420448D01*
Y417552D01*
X273252Y414754D01*
X274700Y412246D01*
X276748Y410198D01*
X279256Y408750D01*
X282054Y408000D01*
X284950D01*
X287748Y408750D01*
X290256Y410198D01*
X292304Y412246D01*
X293752Y414754D01*
X294502Y417552D01*
Y420448D01*
X293752Y423246D01*
X292304Y425754D01*
X290256Y427802D01*
X287748Y429250D01*
X284950Y430000D01*
D02*
G37*
G36*
X637369Y494760D02*
X635171D01*
X633047Y494191D01*
X631143Y493092D01*
X629588Y491537D01*
X628489Y489633D01*
X627920Y487509D01*
Y485311D01*
X628489Y483187D01*
X629588Y481283D01*
X631143Y479728D01*
X632936Y478693D01*
Y414117D01*
X631143Y413082D01*
X629588Y411527D01*
X628489Y409623D01*
X627920Y407499D01*
Y405301D01*
X628489Y403177D01*
X629588Y401273D01*
X631143Y399718D01*
X633047Y398619D01*
X635171Y398050D01*
X637369D01*
X639493Y398619D01*
X641397Y399718D01*
X642952Y401273D01*
X644051Y403177D01*
X644620Y405301D01*
Y407499D01*
X644051Y409623D01*
X642952Y411527D01*
X641397Y413082D01*
X639604Y414117D01*
Y478693D01*
X641397Y479728D01*
X642952Y481283D01*
X644051Y483187D01*
X644620Y485311D01*
Y487509D01*
X644051Y489633D01*
X642952Y491537D01*
X641397Y493092D01*
X639493Y494191D01*
X637369Y494760D01*
D02*
G37*
G36*
X1722870Y396510D02*
X1722818D01*
Y387740D01*
X1731588D01*
Y387792D01*
X1730904Y390345D01*
X1729582Y392635D01*
X1727713Y394504D01*
X1725423Y395826D01*
X1722870Y396510D01*
D02*
G37*
G36*
X1720278D02*
X1720226D01*
X1717673Y395826D01*
X1715383Y394504D01*
X1713514Y392635D01*
X1712192Y390345D01*
X1711508Y387792D01*
Y387740D01*
X1720278D01*
Y396510D01*
D02*
G37*
G36*
X1071168Y393970D02*
X1062398D01*
Y385200D01*
X1071168D01*
Y393970D01*
D02*
G37*
G36*
X1059858D02*
X1051088D01*
Y385200D01*
X1059858D01*
Y393970D01*
D02*
G37*
G36*
X1240270D02*
X1240218D01*
Y385200D01*
X1248988D01*
Y385252D01*
X1248304Y387805D01*
X1246982Y390095D01*
X1245113Y391964D01*
X1242823Y393286D01*
X1240270Y393970D01*
D02*
G37*
G36*
X1237678D02*
X1237626D01*
X1235073Y393286D01*
X1232783Y391964D01*
X1230914Y390095D01*
X1229592Y387805D01*
X1228908Y385252D01*
Y385200D01*
X1237678D01*
Y393970D01*
D02*
G37*
G36*
X1621199Y395970D02*
X1618697D01*
X1616281Y395323D01*
X1614115Y394072D01*
X1612346Y392303D01*
X1611095Y390137D01*
X1610448Y387721D01*
Y385219D01*
X1611095Y382803D01*
X1612346Y380637D01*
X1614115Y378868D01*
X1616281Y377617D01*
X1618697Y376970D01*
X1621199D01*
X1623615Y377617D01*
X1625781Y378868D01*
X1627550Y380637D01*
X1628801Y382803D01*
X1629448Y385219D01*
Y387721D01*
X1628801Y390137D01*
X1627550Y392303D01*
X1625781Y394072D01*
X1623615Y395323D01*
X1621199Y395970D01*
D02*
G37*
G36*
X1469219Y512540D02*
X1467021D01*
X1464897Y511971D01*
X1462993Y510872D01*
X1461438Y509317D01*
X1460339Y507413D01*
X1459770Y505289D01*
Y503091D01*
X1460339Y500967D01*
X1461438Y499063D01*
X1462993Y497508D01*
X1464500Y496638D01*
Y395488D01*
X1463881Y395323D01*
X1461715Y394072D01*
X1459946Y392303D01*
X1458695Y390137D01*
X1458048Y387721D01*
Y385219D01*
X1458695Y382803D01*
X1459946Y380637D01*
X1461715Y378868D01*
X1463881Y377617D01*
X1466297Y376970D01*
X1468799D01*
X1471215Y377617D01*
X1473381Y378868D01*
X1475150Y380637D01*
X1476400Y382803D01*
X1477048Y385219D01*
Y387721D01*
X1476400Y390137D01*
X1475150Y392303D01*
X1473381Y394072D01*
X1471215Y395323D01*
X1471168Y395335D01*
Y496362D01*
X1471343Y496409D01*
X1473247Y497508D01*
X1474802Y499063D01*
X1475901Y500967D01*
X1476470Y503091D01*
Y505289D01*
X1475901Y507413D01*
X1474802Y509317D01*
X1473247Y510872D01*
X1471343Y511971D01*
X1469219Y512540D01*
D02*
G37*
G36*
X1367199Y395970D02*
X1364697D01*
X1362281Y395323D01*
X1360115Y394072D01*
X1358346Y392303D01*
X1357095Y390137D01*
X1356448Y387721D01*
Y385219D01*
X1357095Y382803D01*
X1358346Y380637D01*
X1360115Y378868D01*
X1362281Y377617D01*
X1364697Y376970D01*
X1367199D01*
X1369615Y377617D01*
X1371781Y378868D01*
X1373550Y380637D01*
X1374801Y382803D01*
X1375448Y385219D01*
Y387721D01*
X1374801Y390137D01*
X1373550Y392303D01*
X1371781Y394072D01*
X1369615Y395323D01*
X1367199Y395970D01*
D02*
G37*
G36*
X1265599D02*
X1263097D01*
X1260681Y395323D01*
X1258515Y394072D01*
X1256746Y392303D01*
X1255495Y390137D01*
X1254848Y387721D01*
Y385219D01*
X1255495Y382803D01*
X1256746Y380637D01*
X1258515Y378868D01*
X1260681Y377617D01*
X1263097Y376970D01*
X1265599D01*
X1268015Y377617D01*
X1270181Y378868D01*
X1271950Y380637D01*
X1273201Y382803D01*
X1273848Y385219D01*
Y387721D01*
X1273201Y390137D01*
X1271950Y392303D01*
X1270181Y394072D01*
X1268015Y395323D01*
X1265599Y395970D01*
D02*
G37*
G36*
X1036979D02*
X1034477D01*
X1032061Y395323D01*
X1029895Y394072D01*
X1028126Y392303D01*
X1026875Y390137D01*
X1026228Y387721D01*
Y385219D01*
X1026875Y382803D01*
X1028126Y380637D01*
X1029895Y378868D01*
X1032061Y377617D01*
X1034477Y376970D01*
X1036979D01*
X1039395Y377617D01*
X1041561Y378868D01*
X1043330Y380637D01*
X1044581Y382803D01*
X1045228Y385219D01*
Y387721D01*
X1044581Y390137D01*
X1043330Y392303D01*
X1041561Y394072D01*
X1039395Y395323D01*
X1036979Y395970D01*
D02*
G37*
G36*
X986179D02*
X983677D01*
X981261Y395323D01*
X979095Y394072D01*
X977326Y392303D01*
X976075Y390137D01*
X975428Y387721D01*
Y385219D01*
X976075Y382803D01*
X977326Y380637D01*
X979095Y378868D01*
X981261Y377617D01*
X983677Y376970D01*
X986179D01*
X988595Y377617D01*
X990761Y378868D01*
X992530Y380637D01*
X993781Y382803D01*
X994428Y385219D01*
Y387721D01*
X993781Y390137D01*
X992530Y392303D01*
X990761Y394072D01*
X988595Y395323D01*
X986179Y395970D01*
D02*
G37*
G36*
X935379D02*
X932877D01*
X930461Y395323D01*
X928295Y394072D01*
X926526Y392303D01*
X925275Y390137D01*
X924628Y387721D01*
Y385219D01*
X925275Y382803D01*
X926526Y380637D01*
X928295Y378868D01*
X930461Y377617D01*
X932877Y376970D01*
X935379D01*
X937795Y377617D01*
X939961Y378868D01*
X941730Y380637D01*
X942980Y382803D01*
X943628Y385219D01*
Y387721D01*
X942980Y390137D01*
X941730Y392303D01*
X939961Y394072D01*
X937795Y395323D01*
X935379Y395970D01*
D02*
G37*
G36*
X1731588Y385200D02*
X1722818D01*
Y376430D01*
X1722870D01*
X1725423Y377114D01*
X1727713Y378436D01*
X1729582Y380305D01*
X1730904Y382595D01*
X1731588Y385148D01*
Y385200D01*
D02*
G37*
G36*
X1720278D02*
X1711508D01*
Y385148D01*
X1712192Y382595D01*
X1713514Y380305D01*
X1715383Y378436D01*
X1717673Y377114D01*
X1720226Y376430D01*
X1720278D01*
Y385200D01*
D02*
G37*
G36*
X1756448Y393430D02*
X1737448D01*
Y374430D01*
X1756448D01*
Y393430D01*
D02*
G37*
G36*
X1697399D02*
X1694897D01*
X1692481Y392783D01*
X1690315Y391532D01*
X1688546Y389763D01*
X1687295Y387597D01*
X1686648Y385181D01*
Y382679D01*
X1687295Y380263D01*
X1688546Y378097D01*
X1690315Y376328D01*
X1692481Y375077D01*
X1694897Y374430D01*
X1697399D01*
X1699815Y375077D01*
X1701981Y376328D01*
X1703750Y378097D01*
X1705000Y380263D01*
X1705648Y382679D01*
Y385181D01*
X1705000Y387597D01*
X1703750Y389763D01*
X1701981Y391532D01*
X1699815Y392783D01*
X1697399Y393430D01*
D02*
G37*
G36*
X1595799D02*
X1593297D01*
X1590881Y392783D01*
X1588715Y391532D01*
X1586946Y389763D01*
X1585695Y387597D01*
X1585048Y385181D01*
Y382679D01*
X1585695Y380263D01*
X1586946Y378097D01*
X1588715Y376328D01*
X1590881Y375077D01*
X1593297Y374430D01*
X1595799D01*
X1598215Y375077D01*
X1600381Y376328D01*
X1602150Y378097D01*
X1603401Y380263D01*
X1604048Y382679D01*
Y385181D01*
X1603401Y387597D01*
X1602150Y389763D01*
X1600381Y391532D01*
X1598215Y392783D01*
X1595799Y393430D01*
D02*
G37*
G36*
X1443819Y494760D02*
X1441621D01*
X1439497Y494191D01*
X1437593Y493092D01*
X1436038Y491537D01*
X1434939Y489633D01*
X1434370Y487509D01*
Y485311D01*
X1434939Y483187D01*
X1436038Y481283D01*
X1437593Y479728D01*
X1439100Y478858D01*
Y392948D01*
X1438481Y392783D01*
X1436315Y391532D01*
X1434546Y389763D01*
X1433295Y387597D01*
X1432648Y385181D01*
Y382679D01*
X1433295Y380263D01*
X1434546Y378097D01*
X1436315Y376328D01*
X1438481Y375077D01*
X1440897Y374430D01*
X1443399D01*
X1445815Y375077D01*
X1447981Y376328D01*
X1449750Y378097D01*
X1451001Y380263D01*
X1451648Y382679D01*
Y385181D01*
X1451001Y387597D01*
X1449750Y389763D01*
X1447981Y391532D01*
X1445815Y392783D01*
X1445768Y392795D01*
Y478582D01*
X1445943Y478629D01*
X1447847Y479728D01*
X1449402Y481283D01*
X1450501Y483187D01*
X1451070Y485311D01*
Y487509D01*
X1450501Y489633D01*
X1449402Y491537D01*
X1447847Y493092D01*
X1445943Y494191D01*
X1443819Y494760D01*
D02*
G37*
G36*
X1341799Y393430D02*
X1339297D01*
X1336881Y392783D01*
X1334715Y391532D01*
X1332946Y389763D01*
X1331695Y387597D01*
X1331048Y385181D01*
Y382679D01*
X1331695Y380263D01*
X1332946Y378097D01*
X1334715Y376328D01*
X1336881Y375077D01*
X1339297Y374430D01*
X1341799D01*
X1344215Y375077D01*
X1346381Y376328D01*
X1348150Y378097D01*
X1349400Y380263D01*
X1350048Y382679D01*
Y385181D01*
X1349400Y387597D01*
X1348150Y389763D01*
X1346381Y391532D01*
X1344215Y392783D01*
X1341799Y393430D01*
D02*
G37*
G36*
X1290149Y518890D02*
X1287951D01*
X1285827Y518321D01*
X1283923Y517222D01*
X1282368Y515667D01*
X1281269Y513763D01*
X1280700Y511639D01*
Y509441D01*
X1281269Y507317D01*
X1282368Y505413D01*
X1283923Y503858D01*
X1285827Y502759D01*
X1286351Y502619D01*
Y440420D01*
X1285193Y439752D01*
X1283638Y438197D01*
X1282539Y436293D01*
X1281970Y434169D01*
Y431971D01*
X1282539Y429847D01*
X1283638Y427943D01*
X1285193Y426388D01*
X1286700Y425518D01*
Y392948D01*
X1286081Y392783D01*
X1283915Y391532D01*
X1282146Y389763D01*
X1280895Y387597D01*
X1280248Y385181D01*
Y382679D01*
X1280895Y380263D01*
X1281068Y379965D01*
X1198682Y297580D01*
X1197960Y296498D01*
X1197706Y295222D01*
Y55611D01*
X1177849Y35754D01*
X1175849Y36290D01*
X1173651D01*
X1171527Y35721D01*
X1169623Y34622D01*
X1168068Y33067D01*
X1166969Y31163D01*
X1166400Y29039D01*
Y26841D01*
X1166969Y24717D01*
X1168068Y22813D01*
X1169623Y21258D01*
X1171527Y20159D01*
X1173651Y19590D01*
X1175849D01*
X1177973Y20159D01*
X1179877Y21258D01*
X1181432Y22813D01*
X1182467Y24606D01*
X1250950D01*
X1252226Y24860D01*
X1253307Y25582D01*
X1284719Y56994D01*
X1285190Y56722D01*
X1287733Y56040D01*
X1290367D01*
X1292910Y56722D01*
X1295190Y58038D01*
X1297052Y59900D01*
X1298369Y62180D01*
X1299050Y64724D01*
Y67357D01*
X1298369Y69900D01*
X1297052Y72180D01*
X1295190Y74042D01*
X1292910Y75359D01*
X1290367Y76040D01*
X1287733D01*
X1285190Y75359D01*
X1282910Y74042D01*
X1281048Y72180D01*
X1279732Y69900D01*
X1279050Y67357D01*
Y64724D01*
X1279732Y62180D01*
X1280004Y61709D01*
X1249569Y31274D01*
X1185412D01*
X1184647Y33122D01*
X1203398Y51873D01*
X1204120Y52954D01*
X1204374Y54230D01*
Y54892D01*
X1206374Y55987D01*
X1207143Y55668D01*
X1208850Y55444D01*
X1211580D01*
Y66040D01*
Y76636D01*
X1208850D01*
X1207143Y76412D01*
X1206374Y76093D01*
X1204374Y77188D01*
Y293841D01*
X1285783Y375250D01*
X1286081Y375077D01*
X1288497Y374430D01*
X1290999D01*
X1293415Y375077D01*
X1295581Y376328D01*
X1297350Y378097D01*
X1298600Y380263D01*
X1299248Y382679D01*
Y385181D01*
X1298600Y387597D01*
X1297350Y389763D01*
X1295581Y391532D01*
X1293415Y392783D01*
X1293368Y392795D01*
Y425242D01*
X1293543Y425289D01*
X1295447Y426388D01*
X1297002Y427943D01*
X1298101Y429847D01*
X1298670Y431971D01*
Y434169D01*
X1298101Y436293D01*
X1297002Y438197D01*
X1295447Y439752D01*
X1293543Y440851D01*
X1293019Y440991D01*
Y503190D01*
X1294177Y503858D01*
X1295732Y505413D01*
X1296831Y507317D01*
X1297400Y509441D01*
Y511639D01*
X1296831Y513763D01*
X1295732Y515667D01*
X1294177Y517222D01*
X1292273Y518321D01*
X1290149Y518890D01*
D02*
G37*
G36*
X1011579Y393430D02*
X1009077D01*
X1006661Y392783D01*
X1004495Y391532D01*
X1002726Y389763D01*
X1001475Y387597D01*
X1000828Y385181D01*
Y382679D01*
X1001475Y380263D01*
X1002726Y378097D01*
X1004495Y376328D01*
X1006661Y375077D01*
X1009077Y374430D01*
X1011579D01*
X1013995Y375077D01*
X1016161Y376328D01*
X1017930Y378097D01*
X1019181Y380263D01*
X1019828Y382679D01*
Y385181D01*
X1019181Y387597D01*
X1017930Y389763D01*
X1016161Y391532D01*
X1013995Y392783D01*
X1011579Y393430D01*
D02*
G37*
G36*
X960779D02*
X958277D01*
X955861Y392783D01*
X953695Y391532D01*
X951926Y389763D01*
X950675Y387597D01*
X950028Y385181D01*
Y382679D01*
X950675Y380263D01*
X951926Y378097D01*
X953695Y376328D01*
X955861Y375077D01*
X958277Y374430D01*
X960779D01*
X963195Y375077D01*
X965361Y376328D01*
X967130Y378097D01*
X968381Y380263D01*
X969028Y382679D01*
Y385181D01*
X968381Y387597D01*
X967130Y389763D01*
X965361Y391532D01*
X963195Y392783D01*
X960779Y393430D01*
D02*
G37*
G36*
X909979D02*
X907477D01*
X905061Y392783D01*
X902895Y391532D01*
X901126Y389763D01*
X899875Y387597D01*
X899228Y385181D01*
Y382679D01*
X899875Y380263D01*
X901126Y378097D01*
X902895Y376328D01*
X905061Y375077D01*
X907477Y374430D01*
X909979D01*
X912395Y375077D01*
X914561Y376328D01*
X916330Y378097D01*
X917580Y380263D01*
X918228Y382679D01*
Y385181D01*
X917580Y387597D01*
X916330Y389763D01*
X914561Y391532D01*
X912395Y392783D01*
X909979Y393430D01*
D02*
G37*
G36*
X1248988Y382660D02*
X1240218D01*
Y373890D01*
X1240270D01*
X1242823Y374574D01*
X1245113Y375896D01*
X1246982Y377765D01*
X1248304Y380055D01*
X1248988Y382608D01*
Y382660D01*
D02*
G37*
G36*
X1237678D02*
X1228908D01*
Y382608D01*
X1229592Y380055D01*
X1230914Y377765D01*
X1232783Y375896D01*
X1235073Y374574D01*
X1237626Y373890D01*
X1237678D01*
Y382660D01*
D02*
G37*
G36*
X1071168Y382660D02*
X1062398D01*
Y373890D01*
X1071168D01*
Y382660D01*
D02*
G37*
G36*
X1059858D02*
X1051088D01*
Y373890D01*
X1059858D01*
Y382660D01*
D02*
G37*
G36*
X664906Y772010D02*
X661434D01*
X658027Y771332D01*
X654819Y770004D01*
X651932Y768074D01*
X649476Y765619D01*
X647546Y762731D01*
X646217Y759522D01*
X645540Y756116D01*
Y752644D01*
X646217Y749238D01*
X647546Y746029D01*
X649476Y743141D01*
X651932Y740686D01*
X654819Y738756D01*
X658027Y737428D01*
X659836Y737068D01*
Y406310D01*
X660090Y405034D01*
X660813Y403953D01*
X802963Y261803D01*
X804044Y261080D01*
X805320Y260826D01*
X820323D01*
X821358Y259033D01*
X822913Y257478D01*
X824706Y256443D01*
Y129637D01*
X822913Y128602D01*
X821358Y127047D01*
X820259Y125143D01*
X819690Y123019D01*
Y120821D01*
X820259Y118697D01*
X821358Y116793D01*
X822913Y115238D01*
X824817Y114139D01*
X826941Y113570D01*
X829139D01*
X831263Y114139D01*
X833167Y115238D01*
X834722Y116793D01*
X835821Y118697D01*
X836390Y120821D01*
Y123019D01*
X835821Y125143D01*
X834722Y127047D01*
X833167Y128602D01*
X831374Y129637D01*
Y256443D01*
X833167Y257478D01*
X834722Y259033D01*
X835821Y260937D01*
X836390Y263061D01*
Y265259D01*
X835821Y267383D01*
X834722Y269287D01*
X833167Y270842D01*
X831263Y271941D01*
X829139Y272510D01*
X826941D01*
X824817Y271941D01*
X822913Y270842D01*
X821358Y269287D01*
X820323Y267494D01*
X806701D01*
X715527Y358669D01*
X716512Y360512D01*
X716924Y360430D01*
X720716D01*
X724435Y361170D01*
X727938Y362621D01*
X731091Y364728D01*
X733772Y367409D01*
X735879Y370562D01*
X737330Y374065D01*
X738070Y377784D01*
Y381576D01*
X737330Y385295D01*
X735879Y388798D01*
X733772Y391951D01*
X731091Y394632D01*
X727938Y396739D01*
X724435Y398190D01*
X720716Y398930D01*
X716924D01*
X713205Y398190D01*
X709702Y396739D01*
X706549Y394632D01*
X703868Y391951D01*
X701761Y388798D01*
X700310Y385295D01*
X699570Y381576D01*
Y377784D01*
X699652Y377372D01*
X697809Y376387D01*
X666504Y407691D01*
Y737068D01*
X668313Y737428D01*
X671521Y738756D01*
X674408Y740686D01*
X676864Y743141D01*
X678793Y746029D01*
X680123Y749238D01*
X680800Y752644D01*
Y756116D01*
X680123Y759522D01*
X678793Y762731D01*
X676864Y765619D01*
X674408Y768074D01*
X671521Y770004D01*
X668313Y771332D01*
X664906Y772010D01*
D02*
G37*
G36*
X482416Y398930D02*
X478624D01*
X474905Y398190D01*
X471402Y396739D01*
X468249Y394632D01*
X465568Y391951D01*
X463461Y388798D01*
X462010Y385295D01*
X461270Y381576D01*
Y377784D01*
X462010Y374065D01*
X463461Y370562D01*
X465568Y367409D01*
X468249Y364728D01*
X471402Y362621D01*
X474905Y361170D01*
X478624Y360430D01*
X482416D01*
X486135Y361170D01*
X489638Y362621D01*
X492791Y364728D01*
X495472Y367409D01*
X497579Y370562D01*
X499030Y374065D01*
X499770Y377784D01*
Y381576D01*
X499030Y385295D01*
X497579Y388798D01*
X495472Y391951D01*
X492791Y394632D01*
X489638Y396739D01*
X486135Y398190D01*
X482416Y398930D01*
D02*
G37*
G36*
X328753Y369500D02*
X326251D01*
X323835Y368853D01*
X321669Y367602D01*
X319900Y365833D01*
X318650Y363667D01*
X318002Y361251D01*
Y358749D01*
X318650Y356333D01*
X319900Y354167D01*
X321669Y352398D01*
X323835Y351147D01*
X326251Y350500D01*
X328753D01*
X331169Y351147D01*
X333335Y352398D01*
X335104Y354167D01*
X336355Y356333D01*
X337002Y358749D01*
Y361251D01*
X336355Y363667D01*
X335104Y365833D01*
X333335Y367602D01*
X331169Y368853D01*
X328753Y369500D01*
D02*
G37*
G36*
X591649Y521430D02*
X589451D01*
X587327Y520861D01*
X585423Y519762D01*
X583868Y518207D01*
X582769Y516303D01*
X582200Y514179D01*
Y511981D01*
X582769Y509857D01*
X583868Y507953D01*
X585423Y506398D01*
X585946Y506096D01*
Y364962D01*
X584787Y364651D01*
X582883Y363552D01*
X581328Y361997D01*
X580229Y360093D01*
X579660Y357969D01*
Y355771D01*
X580229Y353647D01*
X581328Y351743D01*
X582883Y350188D01*
X584787Y349089D01*
X586911Y348520D01*
X589109D01*
X591233Y349089D01*
X593137Y350188D01*
X594692Y351743D01*
X595791Y353647D01*
X596360Y355771D01*
Y357969D01*
X595791Y360093D01*
X594692Y361997D01*
X593137Y363552D01*
X592614Y363854D01*
Y504989D01*
X593773Y505299D01*
X595677Y506398D01*
X597232Y507953D01*
X598331Y509857D01*
X598900Y511981D01*
Y514179D01*
X598331Y516303D01*
X597232Y518207D01*
X595677Y519762D01*
X593773Y520861D01*
X591649Y521430D01*
D02*
G37*
G36*
X951059Y321310D02*
X948861D01*
X946737Y320741D01*
X944833Y319642D01*
X943278Y318087D01*
X942179Y316183D01*
X941610Y314059D01*
Y311861D01*
X942146Y309861D01*
X931462Y299177D01*
X925763D01*
X924487Y298923D01*
X923405Y298200D01*
X908232Y283027D01*
X907510Y281946D01*
X907256Y280670D01*
Y100427D01*
X905463Y99392D01*
X903908Y97837D01*
X902809Y95933D01*
X902240Y93809D01*
Y91611D01*
X902809Y89487D01*
X903908Y87583D01*
X905463Y86028D01*
X907367Y84929D01*
X909491Y84360D01*
X911689D01*
X913813Y84929D01*
X915717Y86028D01*
X917272Y87583D01*
X918371Y89487D01*
X918940Y91611D01*
Y93809D01*
X918371Y95933D01*
X917272Y97837D01*
X915717Y99392D01*
X913924Y100427D01*
Y279289D01*
X927144Y292509D01*
X932843D01*
X934119Y292763D01*
X935201Y293486D01*
X946861Y305146D01*
X948861Y304610D01*
X951059D01*
X953183Y305179D01*
X955087Y306278D01*
X956642Y307833D01*
X957741Y309737D01*
X958310Y311861D01*
Y314059D01*
X957741Y316183D01*
X956642Y318087D01*
X955087Y319642D01*
X953183Y320741D01*
X951059Y321310D01*
D02*
G37*
G36*
X872319Y429990D02*
X870121D01*
X867997Y429421D01*
X866093Y428322D01*
X864538Y426767D01*
X863439Y424863D01*
X862870Y422739D01*
Y420541D01*
X863439Y418417D01*
X864538Y416513D01*
X866093Y414958D01*
X867886Y413923D01*
Y302371D01*
X857809Y292294D01*
X855809Y292830D01*
X853611D01*
X851487Y292261D01*
X849583Y291162D01*
X848028Y289607D01*
X846929Y287703D01*
X846360Y285579D01*
Y283381D01*
X846929Y281257D01*
X848028Y279353D01*
X849583Y277798D01*
X851487Y276699D01*
X853611Y276130D01*
X855809D01*
X857933Y276699D01*
X859837Y277798D01*
X861392Y279353D01*
X862491Y281257D01*
X863060Y283381D01*
Y285579D01*
X862524Y287579D01*
X873577Y298633D01*
X874300Y299714D01*
X874554Y300990D01*
Y413923D01*
X876347Y414958D01*
X877902Y416513D01*
X879001Y418417D01*
X879570Y420541D01*
Y422739D01*
X879001Y424863D01*
X877902Y426767D01*
X876347Y428322D01*
X874443Y429421D01*
X872319Y429990D01*
D02*
G37*
G36*
X1011840Y292639D02*
Y288980D01*
X1015499D01*
X1014843Y290565D01*
X1013425Y291983D01*
X1011840Y292639D01*
D02*
G37*
G36*
X997300D02*
X995715Y291983D01*
X994297Y290565D01*
X993641Y288980D01*
X997300D01*
Y292639D01*
D02*
G37*
G36*
X1009300D02*
X1007715Y291983D01*
X1006297Y290565D01*
X1005530Y288713D01*
X1003610D01*
X1002843Y290565D01*
X1001425Y291983D01*
X999840Y292639D01*
Y287710D01*
X998570D01*
Y286440D01*
X993641D01*
X994297Y284855D01*
X994636Y284517D01*
X995555Y283210D01*
X994636Y281903D01*
X994297Y281565D01*
X993641Y279980D01*
X998570D01*
Y278710D01*
X999840D01*
Y273781D01*
X1001425Y274437D01*
X1002843Y275855D01*
X1003610Y277708D01*
X1005530D01*
X1006297Y275855D01*
X1007715Y274437D01*
X1009300Y273781D01*
Y278710D01*
X1010570D01*
Y279980D01*
X1015499D01*
X1014843Y281565D01*
X1014504Y281903D01*
X1013585Y283210D01*
X1014504Y284517D01*
X1014843Y284855D01*
X1015499Y286440D01*
X1010570D01*
Y287710D01*
X1009300D01*
Y292639D01*
D02*
G37*
G36*
X1015499Y277440D02*
X1011840D01*
Y273781D01*
X1013425Y274437D01*
X1014843Y275855D01*
X1015499Y277440D01*
D02*
G37*
G36*
X997300D02*
X993641D01*
X994297Y275855D01*
X995715Y274437D01*
X997300Y273781D01*
Y277440D01*
D02*
G37*
G36*
X1857839Y280130D02*
X1855641D01*
X1853517Y279561D01*
X1851613Y278462D01*
X1850058Y276907D01*
X1848959Y275003D01*
X1848390Y272879D01*
Y270681D01*
X1848959Y268557D01*
X1850058Y266653D01*
X1851613Y265098D01*
X1853517Y263999D01*
X1855641Y263430D01*
X1857839D01*
X1859963Y263999D01*
X1861867Y265098D01*
X1863422Y266653D01*
X1864521Y268557D01*
X1865090Y270681D01*
Y272879D01*
X1864521Y275003D01*
X1863422Y276907D01*
X1861867Y278462D01*
X1859963Y279561D01*
X1857839Y280130D01*
D02*
G37*
G36*
X374650Y255243D02*
Y247650D01*
X382243D01*
X381664Y249811D01*
X380494Y251839D01*
X378839Y253494D01*
X376811Y254664D01*
X374650Y255243D01*
D02*
G37*
G36*
X372110D02*
X369949Y254664D01*
X367921Y253494D01*
X366266Y251839D01*
X365096Y249811D01*
X364517Y247650D01*
X372110D01*
Y255243D01*
D02*
G37*
G36*
X280670Y247623D02*
Y240030D01*
X288263D01*
X287684Y242191D01*
X286514Y244219D01*
X284859Y245874D01*
X282831Y247044D01*
X280670Y247623D01*
D02*
G37*
G36*
X278130D02*
X275969Y247044D01*
X273941Y245874D01*
X272286Y244219D01*
X271116Y242191D01*
X270537Y240030D01*
X278130D01*
Y247623D01*
D02*
G37*
G36*
X382243Y245110D02*
X374650D01*
Y237517D01*
X376811Y238096D01*
X378839Y239266D01*
X380494Y240921D01*
X381664Y242949D01*
X382243Y245110D01*
D02*
G37*
G36*
X372110D02*
X364517D01*
X365096Y242949D01*
X366266Y240921D01*
X367921Y239266D01*
X369949Y238096D01*
X372110Y237517D01*
Y245110D01*
D02*
G37*
G36*
X288263Y237490D02*
X280670D01*
Y229897D01*
X282831Y230476D01*
X284859Y231646D01*
X286514Y233301D01*
X287684Y235329D01*
X288263Y237490D01*
D02*
G37*
G36*
X278130D02*
X270537D01*
X271116Y235329D01*
X272286Y233301D01*
X273941Y231646D01*
X275969Y230476D01*
X278130Y229897D01*
Y237490D01*
D02*
G37*
G36*
X430359Y346170D02*
X428161D01*
X426037Y345601D01*
X424133Y344502D01*
X422578Y342947D01*
X421479Y341043D01*
X420910Y338919D01*
Y336721D01*
X421479Y334597D01*
X422578Y332693D01*
X424133Y331138D01*
X425926Y330103D01*
Y272824D01*
X421823Y268720D01*
X421100Y267639D01*
X420846Y266363D01*
Y209647D01*
X419053Y208612D01*
X417498Y207057D01*
X416399Y205153D01*
X415830Y203029D01*
Y200831D01*
X416399Y198707D01*
X417498Y196803D01*
X419053Y195248D01*
X420957Y194149D01*
X423081Y193580D01*
X425279D01*
X427403Y194149D01*
X429307Y195248D01*
X430862Y196803D01*
X431961Y198707D01*
X432530Y200831D01*
Y203029D01*
X431961Y205153D01*
X430862Y207057D01*
X429307Y208612D01*
X427514Y209647D01*
Y264982D01*
X431618Y269086D01*
X432340Y270167D01*
X432594Y271443D01*
Y330103D01*
X434387Y331138D01*
X435942Y332693D01*
X437041Y334597D01*
X437610Y336721D01*
Y338919D01*
X437041Y341043D01*
X435942Y342947D01*
X434387Y344502D01*
X432483Y345601D01*
X430359Y346170D01*
D02*
G37*
G36*
X1173309Y583660D02*
X1171111D01*
X1168987Y583091D01*
X1167083Y581992D01*
X1165528Y580437D01*
X1164429Y578533D01*
X1163860Y576409D01*
Y574211D01*
X1164429Y572087D01*
X1165528Y570183D01*
X1167083Y568628D01*
X1168241Y567960D01*
Y193341D01*
X1167717Y193201D01*
X1165813Y192102D01*
X1164258Y190547D01*
X1163159Y188643D01*
X1162590Y186519D01*
Y184321D01*
X1163159Y182197D01*
X1164258Y180293D01*
X1165813Y178738D01*
X1167717Y177639D01*
X1169841Y177070D01*
X1172039D01*
X1174163Y177639D01*
X1176067Y178738D01*
X1177622Y180293D01*
X1178721Y182197D01*
X1179290Y184321D01*
Y186519D01*
X1178721Y188643D01*
X1177622Y190547D01*
X1176067Y192102D01*
X1174909Y192770D01*
Y567389D01*
X1175433Y567529D01*
X1177337Y568628D01*
X1178892Y570183D01*
X1179991Y572087D01*
X1180560Y574211D01*
Y576409D01*
X1179991Y578533D01*
X1178892Y580437D01*
X1177337Y581992D01*
X1175433Y583091D01*
X1173309Y583660D01*
D02*
G37*
G36*
X466466Y171250D02*
X463174D01*
X459995Y170398D01*
X457145Y168752D01*
X454818Y166425D01*
X453172Y163575D01*
X452320Y160396D01*
Y157104D01*
X453172Y153925D01*
X454818Y151075D01*
X457145Y148748D01*
X459995Y147102D01*
X463174Y146250D01*
X466466D01*
X469645Y147102D01*
X472495Y148748D01*
X474823Y151075D01*
X476468Y153925D01*
X477320Y157104D01*
Y160396D01*
X476468Y163575D01*
X474823Y166425D01*
X472495Y168752D01*
X469645Y170398D01*
X466466Y171250D01*
D02*
G37*
G36*
X608624Y177165D02*
X605496D01*
X602429Y176555D01*
X599540Y175358D01*
X596940Y173621D01*
X594729Y171410D01*
X592992Y168810D01*
X591795Y165921D01*
X591185Y162854D01*
Y159726D01*
X591795Y156659D01*
X592992Y153770D01*
X594729Y151170D01*
X596940Y148959D01*
X599540Y147222D01*
X602429Y146025D01*
X605496Y145415D01*
X608624D01*
X611691Y146025D01*
X614580Y147222D01*
X617180Y148959D01*
X619391Y151170D01*
X621128Y153770D01*
X622325Y156659D01*
X622935Y159726D01*
Y162854D01*
X622325Y165921D01*
X621128Y168810D01*
X619391Y171410D01*
X617180Y173621D01*
X614580Y175358D01*
X611691Y176555D01*
X608624Y177165D01*
D02*
G37*
G36*
X708660Y152373D02*
Y144780D01*
X716253D01*
X715674Y146941D01*
X714504Y148969D01*
X712849Y150624D01*
X710821Y151794D01*
X708660Y152373D01*
D02*
G37*
G36*
X706120D02*
X703959Y151794D01*
X701931Y150624D01*
X700276Y148969D01*
X699106Y146941D01*
X698527Y144780D01*
X706120D01*
Y152373D01*
D02*
G37*
G36*
X552450Y148563D02*
Y140970D01*
X560043D01*
X559464Y143131D01*
X558294Y145159D01*
X556639Y146814D01*
X554611Y147984D01*
X552450Y148563D01*
D02*
G37*
G36*
X549910D02*
X547749Y147984D01*
X545721Y146814D01*
X544066Y145159D01*
X542896Y143131D01*
X542317Y140970D01*
X549910D01*
Y148563D01*
D02*
G37*
G36*
X381000Y146023D02*
Y138430D01*
X388593D01*
X388014Y140591D01*
X386844Y142619D01*
X385189Y144274D01*
X383161Y145444D01*
X381000Y146023D01*
D02*
G37*
G36*
X378460D02*
X376299Y145444D01*
X374271Y144274D01*
X372616Y142619D01*
X371446Y140591D01*
X370867Y138430D01*
X378460D01*
Y146023D01*
D02*
G37*
G36*
X716253Y142240D02*
X708660D01*
Y134647D01*
X710821Y135226D01*
X712849Y136396D01*
X714504Y138051D01*
X715674Y140079D01*
X716253Y142240D01*
D02*
G37*
G36*
X706120D02*
X698527D01*
X699106Y140079D01*
X700276Y138051D01*
X701931Y136396D01*
X703959Y135226D01*
X706120Y134647D01*
Y142240D01*
D02*
G37*
G36*
X560043Y138430D02*
X552450D01*
Y130837D01*
X554611Y131416D01*
X556639Y132586D01*
X558294Y134241D01*
X559464Y136269D01*
X560043Y138430D01*
D02*
G37*
G36*
X549910D02*
X542317D01*
X542896Y136269D01*
X544066Y134241D01*
X545721Y132586D01*
X547749Y131416D01*
X549910Y130837D01*
Y138430D01*
D02*
G37*
G36*
X388593Y135890D02*
X381000D01*
Y128297D01*
X383161Y128876D01*
X385189Y130046D01*
X386844Y131701D01*
X388014Y133729D01*
X388593Y135890D01*
D02*
G37*
G36*
X378460D02*
X370867D01*
X371446Y133729D01*
X372616Y131701D01*
X374271Y130046D01*
X376299Y128876D01*
X378460Y128297D01*
Y135890D01*
D02*
G37*
G36*
X869950Y133323D02*
Y125730D01*
X877543D01*
X876964Y127891D01*
X875794Y129919D01*
X874139Y131574D01*
X872111Y132744D01*
X869950Y133323D01*
D02*
G37*
G36*
X867410D02*
X865249Y132744D01*
X863221Y131574D01*
X861566Y129919D01*
X860396Y127891D01*
X859817Y125730D01*
X867410D01*
Y133323D01*
D02*
G37*
G36*
X877543Y123190D02*
X869950D01*
Y115597D01*
X872111Y116176D01*
X874139Y117346D01*
X875794Y119001D01*
X876964Y121029D01*
X877543Y123190D01*
D02*
G37*
G36*
X867410D02*
X859817D01*
X860396Y121029D01*
X861566Y119001D01*
X863221Y117346D01*
X865249Y116176D01*
X867410Y115597D01*
Y123190D01*
D02*
G37*
G36*
X651510Y109193D02*
Y101600D01*
X659103D01*
X658524Y103761D01*
X657354Y105789D01*
X655699Y107444D01*
X653671Y108614D01*
X651510Y109193D01*
D02*
G37*
G36*
X648970D02*
X646809Y108614D01*
X644781Y107444D01*
X643126Y105789D01*
X641956Y103761D01*
X641377Y101600D01*
X648970D01*
Y109193D01*
D02*
G37*
G36*
X608624Y130165D02*
X605496D01*
X602429Y129555D01*
X599540Y128358D01*
X596940Y126621D01*
X594729Y124410D01*
X592992Y121810D01*
X591795Y118921D01*
X591185Y115854D01*
Y112726D01*
X591795Y109659D01*
X592992Y106770D01*
X594729Y104170D01*
X596940Y101959D01*
X599540Y100222D01*
X602429Y99025D01*
X605496Y98415D01*
X608624D01*
X611691Y99025D01*
X614580Y100222D01*
X617180Y101959D01*
X619391Y104170D01*
X621128Y106770D01*
X622325Y109659D01*
X622935Y112726D01*
Y115854D01*
X622325Y118921D01*
X621128Y121810D01*
X619391Y124410D01*
X617180Y126621D01*
X614580Y128358D01*
X611691Y129555D01*
X608624Y130165D01*
D02*
G37*
G36*
X659103Y99060D02*
X651510D01*
Y91467D01*
X653671Y92046D01*
X655699Y93216D01*
X657354Y94871D01*
X658524Y96899D01*
X659103Y99060D01*
D02*
G37*
G36*
X648970D02*
X641377D01*
X641956Y96899D01*
X643126Y94871D01*
X644781Y93216D01*
X646809Y92046D01*
X648970Y91467D01*
Y99060D01*
D02*
G37*
G36*
X1097109Y311880D02*
X1094911D01*
X1092787Y311311D01*
X1090883Y310212D01*
X1089328Y308657D01*
X1088229Y306753D01*
X1087660Y304629D01*
Y302431D01*
X1088229Y300307D01*
X1089328Y298403D01*
X1090883Y296848D01*
X1092787Y295749D01*
X1093311Y295609D01*
Y98790D01*
X1092153Y98122D01*
X1090598Y96567D01*
X1089499Y94663D01*
X1088930Y92539D01*
Y90341D01*
X1089499Y88217D01*
X1090598Y86313D01*
X1092153Y84758D01*
X1094057Y83659D01*
X1096181Y83090D01*
X1098379D01*
X1100503Y83659D01*
X1102407Y84758D01*
X1103962Y86313D01*
X1105061Y88217D01*
X1105630Y90341D01*
Y92539D01*
X1105061Y94663D01*
X1103962Y96567D01*
X1102407Y98122D01*
X1100503Y99221D01*
X1099979Y99361D01*
Y296180D01*
X1101137Y296848D01*
X1102692Y298403D01*
X1103791Y300307D01*
X1104360Y302431D01*
Y304629D01*
X1103791Y306753D01*
X1102692Y308657D01*
X1101137Y310212D01*
X1099233Y311311D01*
X1097109Y311880D01*
D02*
G37*
G36*
X1031517Y103190D02*
X1028423D01*
X1025435Y102389D01*
X1022755Y100842D01*
X1020568Y98655D01*
X1019021Y95975D01*
X1018220Y92987D01*
Y89893D01*
X1019021Y86905D01*
X1020568Y84225D01*
X1022755Y82038D01*
X1025435Y80491D01*
X1028423Y79690D01*
X1031517D01*
X1034505Y80491D01*
X1037185Y82038D01*
X1039372Y84225D01*
X1040919Y86905D01*
X1041720Y89893D01*
Y92987D01*
X1040919Y95975D01*
X1039372Y98655D01*
X1037185Y100842D01*
X1034505Y102389D01*
X1031517Y103190D01*
D02*
G37*
G36*
X990920D02*
X967420D01*
Y79690D01*
X990920D01*
Y103190D01*
D02*
G37*
G36*
X1671999Y395970D02*
X1669497D01*
X1667081Y395323D01*
X1664915Y394072D01*
X1663146Y392303D01*
X1661895Y390137D01*
X1661248Y387721D01*
Y385219D01*
X1661895Y382803D01*
X1663146Y380637D01*
X1664915Y378868D01*
X1667081Y377617D01*
X1667414Y377528D01*
Y195616D01*
X1548271Y76474D01*
X1547800Y76746D01*
X1545257Y77428D01*
X1542623D01*
X1540080Y76746D01*
X1537800Y75430D01*
X1535938Y73568D01*
X1534621Y71287D01*
X1533940Y68744D01*
Y66111D01*
X1534621Y63568D01*
X1535938Y61287D01*
X1537800Y59426D01*
X1540080Y58109D01*
X1542623Y57428D01*
X1545257D01*
X1547800Y58109D01*
X1550080Y59426D01*
X1551942Y61287D01*
X1553259Y63568D01*
X1553940Y66111D01*
Y68744D01*
X1553259Y71287D01*
X1552986Y71759D01*
X1673105Y191878D01*
X1673828Y192960D01*
X1674082Y194235D01*
Y377528D01*
X1674415Y377617D01*
X1676581Y378868D01*
X1678350Y380637D01*
X1679601Y382803D01*
X1680248Y385219D01*
Y387721D01*
X1679601Y390137D01*
X1678350Y392303D01*
X1676581Y394072D01*
X1674415Y395323D01*
X1671999Y395970D01*
D02*
G37*
G36*
X1646599Y393430D02*
X1644097D01*
X1641681Y392783D01*
X1639515Y391532D01*
X1637746Y389763D01*
X1636495Y387597D01*
X1635848Y385181D01*
Y382679D01*
X1636495Y380263D01*
X1637746Y378097D01*
X1639515Y376328D01*
X1641681Y375077D01*
X1642014Y374988D01*
Y195616D01*
X1522871Y76474D01*
X1522400Y76746D01*
X1519857Y77428D01*
X1517224D01*
X1514680Y76746D01*
X1512400Y75430D01*
X1510538Y73568D01*
X1509221Y71287D01*
X1508540Y68744D01*
Y66111D01*
X1509221Y63568D01*
X1510538Y61287D01*
X1512400Y59426D01*
X1514680Y58109D01*
X1517224Y57428D01*
X1519857D01*
X1522400Y58109D01*
X1524680Y59426D01*
X1526542Y61287D01*
X1527858Y63568D01*
X1528540Y66111D01*
Y68744D01*
X1527858Y71287D01*
X1527586Y71759D01*
X1647705Y191878D01*
X1648428Y192960D01*
X1648682Y194235D01*
Y374988D01*
X1649015Y375077D01*
X1651181Y376328D01*
X1652950Y378097D01*
X1654200Y380263D01*
X1654848Y382679D01*
Y385181D01*
X1654200Y387597D01*
X1652950Y389763D01*
X1651181Y391532D01*
X1649015Y392783D01*
X1646599Y393430D01*
D02*
G37*
G36*
X1570399Y395970D02*
X1567897D01*
X1565481Y395323D01*
X1563315Y394072D01*
X1561546Y392303D01*
X1560295Y390137D01*
X1559648Y387721D01*
Y385219D01*
X1560295Y382803D01*
X1561546Y380637D01*
X1563315Y378868D01*
X1565481Y377617D01*
X1565814Y377528D01*
Y144817D01*
X1497471Y76474D01*
X1497000Y76746D01*
X1494456Y77428D01*
X1491823D01*
X1489280Y76746D01*
X1487000Y75430D01*
X1485138Y73568D01*
X1483822Y71287D01*
X1483140Y68744D01*
Y66111D01*
X1483822Y63568D01*
X1485138Y61287D01*
X1487000Y59426D01*
X1489280Y58109D01*
X1491823Y57428D01*
X1494456D01*
X1497000Y58109D01*
X1499280Y59426D01*
X1501142Y61287D01*
X1502458Y63568D01*
X1503140Y66111D01*
Y68744D01*
X1502458Y71287D01*
X1502186Y71759D01*
X1571505Y141078D01*
X1572228Y142160D01*
X1572482Y143435D01*
Y377528D01*
X1572815Y377617D01*
X1574981Y378868D01*
X1576750Y380637D01*
X1578000Y382803D01*
X1578648Y385219D01*
Y387721D01*
X1578000Y390137D01*
X1576750Y392303D01*
X1574981Y394072D01*
X1572815Y395323D01*
X1570399Y395970D01*
D02*
G37*
G36*
X1544999Y393430D02*
X1542497D01*
X1540081Y392783D01*
X1537915Y391532D01*
X1536146Y389763D01*
X1534895Y387597D01*
X1534248Y385181D01*
Y382679D01*
X1534895Y380263D01*
X1536146Y378097D01*
X1537915Y376328D01*
X1540081Y375077D01*
X1540414Y374988D01*
Y144817D01*
X1472071Y76474D01*
X1471600Y76746D01*
X1469057Y77428D01*
X1466423D01*
X1463880Y76746D01*
X1461600Y75430D01*
X1459738Y73568D01*
X1458421Y71287D01*
X1457740Y68744D01*
Y66111D01*
X1458421Y63568D01*
X1459738Y61287D01*
X1461600Y59426D01*
X1463880Y58109D01*
X1466423Y57428D01*
X1469057D01*
X1471600Y58109D01*
X1473880Y59426D01*
X1475742Y61287D01*
X1477059Y63568D01*
X1477740Y66111D01*
Y68744D01*
X1477059Y71287D01*
X1476786Y71759D01*
X1546105Y141078D01*
X1546828Y142160D01*
X1547082Y143435D01*
Y374988D01*
X1547415Y375077D01*
X1549581Y376328D01*
X1551350Y378097D01*
X1552601Y380263D01*
X1553248Y382679D01*
Y385181D01*
X1552601Y387597D01*
X1551350Y389763D01*
X1549581Y391532D01*
X1547415Y392783D01*
X1544999Y393430D01*
D02*
G37*
G36*
X1519599Y395970D02*
X1517097D01*
X1514681Y395323D01*
X1512515Y394072D01*
X1510746Y392303D01*
X1509495Y390137D01*
X1508848Y387721D01*
Y385219D01*
X1509495Y382803D01*
X1510746Y380637D01*
X1512515Y378868D01*
X1514681Y377617D01*
X1515014Y377528D01*
Y144817D01*
X1446671Y76474D01*
X1446200Y76746D01*
X1443656Y77428D01*
X1441024D01*
X1438480Y76746D01*
X1436200Y75430D01*
X1434338Y73568D01*
X1433022Y71287D01*
X1432340Y68744D01*
Y66111D01*
X1433022Y63568D01*
X1434338Y61287D01*
X1436200Y59426D01*
X1438480Y58109D01*
X1441024Y57428D01*
X1443656D01*
X1446200Y58109D01*
X1448480Y59426D01*
X1450342Y61287D01*
X1451658Y63568D01*
X1452340Y66111D01*
Y68744D01*
X1451658Y71287D01*
X1451386Y71759D01*
X1520705Y141078D01*
X1521428Y142160D01*
X1521682Y143435D01*
Y377528D01*
X1522015Y377617D01*
X1524181Y378868D01*
X1525950Y380637D01*
X1527200Y382803D01*
X1527848Y385219D01*
Y387721D01*
X1527200Y390137D01*
X1525950Y392303D01*
X1524181Y394072D01*
X1522015Y395323D01*
X1519599Y395970D01*
D02*
G37*
G36*
X635000Y79983D02*
Y72390D01*
X642593D01*
X642014Y74551D01*
X640844Y76579D01*
X639189Y78234D01*
X637161Y79404D01*
X635000Y79983D01*
D02*
G37*
G36*
X1216850Y76636D02*
X1214120D01*
Y67310D01*
X1223446D01*
Y70040D01*
X1223222Y71747D01*
X1222563Y73338D01*
X1221514Y74704D01*
X1220148Y75753D01*
X1218557Y76412D01*
X1216850Y76636D01*
D02*
G37*
G36*
X642593Y69850D02*
X635000D01*
Y62257D01*
X637161Y62836D01*
X639189Y64006D01*
X640844Y65661D01*
X642014Y67689D01*
X642593Y69850D01*
D02*
G37*
G36*
X622935Y83165D02*
X591185D01*
Y51415D01*
X622935D01*
Y69332D01*
X624935Y69595D01*
X625446Y67689D01*
X626616Y65661D01*
X628271Y64006D01*
X630299Y62836D01*
X632460Y62257D01*
Y71120D01*
Y79983D01*
X630299Y79404D01*
X628271Y78234D01*
X626616Y76579D01*
X625446Y74551D01*
X624935Y72645D01*
X622935Y72908D01*
Y83165D01*
D02*
G37*
G36*
X1344759Y248380D02*
X1342561D01*
X1340437Y247811D01*
X1338533Y246712D01*
X1336978Y245157D01*
X1335879Y243253D01*
X1335310Y241129D01*
Y238931D01*
X1335879Y236807D01*
X1336930Y234987D01*
X1336770Y234747D01*
X1336516Y233471D01*
Y75499D01*
X1335990Y75359D01*
X1333710Y74042D01*
X1331848Y72180D01*
X1330531Y69900D01*
X1329850Y67357D01*
Y64724D01*
X1330531Y62180D01*
X1331848Y59900D01*
X1333710Y58038D01*
X1335990Y56722D01*
X1338533Y56040D01*
X1341167D01*
X1343710Y56722D01*
X1345990Y58038D01*
X1347852Y59900D01*
X1349169Y62180D01*
X1349850Y64724D01*
Y67357D01*
X1349169Y69900D01*
X1347852Y72180D01*
X1345990Y74042D01*
X1343710Y75359D01*
X1343184Y75499D01*
Y231680D01*
X1344759D01*
X1346883Y232249D01*
X1348787Y233348D01*
X1350342Y234903D01*
X1351441Y236807D01*
X1352010Y238931D01*
Y241129D01*
X1351441Y243253D01*
X1350342Y245157D01*
X1348787Y246712D01*
X1346883Y247811D01*
X1344759Y248380D01*
D02*
G37*
G36*
X1318089Y286480D02*
X1315891D01*
X1313767Y285911D01*
X1311863Y284812D01*
X1310308Y283257D01*
X1309209Y281353D01*
X1308640Y279229D01*
Y277031D01*
X1309209Y274907D01*
X1310308Y273003D01*
X1311863Y271448D01*
X1312386Y271146D01*
Y75840D01*
X1310590Y75359D01*
X1308310Y74042D01*
X1306448Y72180D01*
X1305132Y69900D01*
X1304450Y67357D01*
Y64724D01*
X1305132Y62180D01*
X1306448Y59900D01*
X1308310Y58038D01*
X1310590Y56722D01*
X1313134Y56040D01*
X1315766D01*
X1318310Y56722D01*
X1320590Y58038D01*
X1322452Y59900D01*
X1323768Y62180D01*
X1324450Y64724D01*
Y67357D01*
X1323768Y69900D01*
X1322452Y72180D01*
X1320590Y74042D01*
X1319054Y74929D01*
Y270039D01*
X1320213Y270349D01*
X1322117Y271448D01*
X1323672Y273003D01*
X1324771Y274907D01*
X1325340Y277031D01*
Y279229D01*
X1324771Y281353D01*
X1323672Y283257D01*
X1322117Y284812D01*
X1320213Y285911D01*
X1318089Y286480D01*
D02*
G37*
G36*
X1239566Y76040D02*
X1236934D01*
X1234390Y75359D01*
X1232110Y74042D01*
X1230248Y72180D01*
X1228932Y69900D01*
X1228250Y67357D01*
Y64724D01*
X1228932Y62180D01*
X1230248Y59900D01*
X1232110Y58038D01*
X1234390Y56722D01*
X1236934Y56040D01*
X1239566D01*
X1242110Y56722D01*
X1244390Y58038D01*
X1246252Y59900D01*
X1247569Y62180D01*
X1248250Y64724D01*
Y67357D01*
X1247569Y69900D01*
X1246252Y72180D01*
X1244390Y74042D01*
X1242110Y75359D01*
X1239566Y76040D01*
D02*
G37*
G36*
X1223446Y64770D02*
X1214120D01*
Y55444D01*
X1216850D01*
X1218557Y55668D01*
X1220148Y56327D01*
X1221514Y57376D01*
X1222563Y58742D01*
X1223222Y60333D01*
X1223446Y62040D01*
Y64770D01*
D02*
G37*
G36*
X261449Y173450D02*
X259251D01*
X257127Y172881D01*
X255223Y171782D01*
X253668Y170227D01*
X252569Y168323D01*
X252000Y166199D01*
Y164001D01*
X252569Y161877D01*
X253668Y159973D01*
X255223Y158418D01*
X256381Y157750D01*
Y37131D01*
X255857Y36991D01*
X253953Y35892D01*
X252398Y34337D01*
X251299Y32433D01*
X250730Y30309D01*
Y28111D01*
X251299Y25987D01*
X252398Y24083D01*
X253953Y22528D01*
X255857Y21429D01*
X257981Y20860D01*
X260179D01*
X262303Y21429D01*
X264207Y22528D01*
X265762Y24083D01*
X266861Y25987D01*
X267430Y28111D01*
Y30309D01*
X266861Y32433D01*
X265762Y34337D01*
X264207Y35892D01*
X263049Y36560D01*
Y157179D01*
X263573Y157319D01*
X265477Y158418D01*
X267032Y159973D01*
X268131Y161877D01*
X268700Y164001D01*
Y166199D01*
X268131Y168323D01*
X267032Y170227D01*
X265477Y171782D01*
X263573Y172881D01*
X261449Y173450D01*
D02*
G37*
G36*
X1950000Y83373D02*
X1944779Y82962D01*
X1939687Y81740D01*
X1934849Y79735D01*
X1930384Y76999D01*
X1926402Y73598D01*
X1923001Y69616D01*
X1920265Y65151D01*
X1918260Y60313D01*
X1917038Y55221D01*
X1916627Y50000D01*
X1917038Y44779D01*
X1918260Y39687D01*
X1920265Y34849D01*
X1923001Y30384D01*
X1926402Y26402D01*
X1930384Y23001D01*
X1934849Y20265D01*
X1939687Y18261D01*
X1944779Y17038D01*
X1950000Y16627D01*
X1955221Y17038D01*
X1960313Y18261D01*
X1965151Y20265D01*
X1969616Y23001D01*
X1973598Y26402D01*
X1976999Y30384D01*
X1979735Y34849D01*
X1981740Y39687D01*
X1982962Y44779D01*
X1983373Y50000D01*
X1982962Y55221D01*
X1981740Y60313D01*
X1979735Y65151D01*
X1976999Y69616D01*
X1973598Y73598D01*
X1969616Y76999D01*
X1965151Y79735D01*
X1960313Y81740D01*
X1955221Y82962D01*
X1950000Y83373D01*
D02*
G37*
G36*
X50000D02*
X44779Y82962D01*
X39687Y81740D01*
X34849Y79735D01*
X30384Y76999D01*
X26402Y73598D01*
X23001Y69616D01*
X20265Y65151D01*
X18261Y60313D01*
X17038Y55221D01*
X16627Y50000D01*
X17038Y44779D01*
X18261Y39687D01*
X20265Y34849D01*
X23001Y30384D01*
X26402Y26402D01*
X30384Y23001D01*
X34849Y20265D01*
X39687Y18261D01*
X44779Y17038D01*
X50000Y16627D01*
X55221Y17038D01*
X60313Y18261D01*
X65151Y20265D01*
X69616Y23001D01*
X73598Y26402D01*
X76999Y30384D01*
X79735Y34849D01*
X81740Y39687D01*
X82962Y44779D01*
X83373Y50000D01*
X82962Y55221D01*
X81740Y60313D01*
X79735Y65151D01*
X76999Y69616D01*
X73598Y73598D01*
X69616Y76999D01*
X65151Y79735D01*
X60313Y81740D01*
X55221Y82962D01*
X50000Y83373D01*
D02*
G37*
%LPD*%
G36*
X1954174Y976357D02*
X1958246Y975379D01*
X1962115Y973777D01*
X1965685Y971589D01*
X1968869Y968869D01*
X1971589Y965685D01*
X1973777Y962115D01*
X1975379Y958246D01*
X1976357Y954174D01*
X1976685Y950000D01*
X1976357Y945826D01*
X1975379Y941754D01*
X1973777Y937885D01*
X1971589Y934315D01*
X1968869Y931131D01*
X1965685Y928411D01*
X1962115Y926223D01*
X1958246Y924621D01*
X1954174Y923643D01*
X1950000Y923315D01*
X1945826Y923643D01*
X1941754Y924621D01*
X1937885Y926223D01*
X1934315Y928411D01*
X1931131Y931131D01*
X1928411Y934315D01*
X1926223Y937885D01*
X1924621Y941754D01*
X1923643Y945826D01*
X1923315Y950000D01*
X1923643Y954174D01*
X1924621Y958246D01*
X1926223Y962115D01*
X1928411Y965685D01*
X1931131Y968869D01*
X1934315Y971589D01*
X1937885Y973777D01*
X1941754Y975379D01*
X1945826Y976357D01*
X1950000Y976685D01*
X1954174Y976357D01*
D02*
G37*
%LPC*%
G36*
X1952364Y974000D02*
X1947636D01*
X1943000Y973078D01*
X1938632Y971268D01*
X1934701Y968642D01*
X1931358Y965299D01*
X1928732Y961368D01*
X1926922Y957001D01*
X1926000Y952364D01*
Y947636D01*
X1926922Y942999D01*
X1928732Y938632D01*
X1931358Y934701D01*
X1934701Y931358D01*
X1938632Y928732D01*
X1943000Y926922D01*
X1947636Y926000D01*
X1952364D01*
X1957001Y926922D01*
X1961368Y928732D01*
X1965299Y931358D01*
X1968642Y934701D01*
X1971268Y938632D01*
X1973078Y942999D01*
X1974000Y947636D01*
Y952364D01*
X1973078Y957001D01*
X1971268Y961368D01*
X1968642Y965299D01*
X1965299Y968642D01*
X1961368Y971268D01*
X1957001Y973078D01*
X1952364Y974000D01*
D02*
G37*
%LPD*%
G36*
X54174Y976357D02*
X58246Y975379D01*
X62115Y973777D01*
X65685Y971589D01*
X68869Y968869D01*
X71589Y965685D01*
X73777Y962115D01*
X75379Y958246D01*
X76357Y954174D01*
X76685Y950000D01*
X76357Y945826D01*
X75379Y941754D01*
X73777Y937885D01*
X71589Y934315D01*
X68869Y931131D01*
X65685Y928411D01*
X62115Y926223D01*
X58246Y924621D01*
X54174Y923643D01*
X50000Y923315D01*
X45826Y923643D01*
X41754Y924621D01*
X37885Y926223D01*
X34315Y928411D01*
X31131Y931131D01*
X28411Y934315D01*
X26223Y937885D01*
X24621Y941754D01*
X23643Y945826D01*
X23315Y950000D01*
X23643Y954174D01*
X24621Y958246D01*
X26223Y962115D01*
X28411Y965685D01*
X31131Y968869D01*
X34315Y971589D01*
X37885Y973777D01*
X41754Y975379D01*
X45826Y976357D01*
X50000Y976685D01*
X54174Y976357D01*
D02*
G37*
%LPC*%
G36*
X52364Y974000D02*
X47636D01*
X43000Y973078D01*
X38632Y971268D01*
X34701Y968642D01*
X31358Y965299D01*
X28732Y961368D01*
X26922Y957001D01*
X26000Y952364D01*
Y947636D01*
X26922Y942999D01*
X28732Y938632D01*
X31358Y934701D01*
X34701Y931358D01*
X38632Y928732D01*
X43000Y926922D01*
X47636Y926000D01*
X52364D01*
X57000Y926922D01*
X61368Y928732D01*
X65299Y931358D01*
X68642Y934701D01*
X71269Y938632D01*
X73078Y942999D01*
X74000Y947636D01*
Y952364D01*
X73078Y957001D01*
X71269Y961368D01*
X68642Y965299D01*
X65299Y968642D01*
X61368Y971268D01*
X57000Y973078D01*
X52364Y974000D01*
D02*
G37*
%LPD*%
G36*
X1362265Y606227D02*
Y490445D01*
X1362027Y490381D01*
X1360512Y489506D01*
X1359216Y489967D01*
X1358512Y490499D01*
Y606522D01*
X1360512Y607239D01*
X1362265Y606227D01*
D02*
G37*
G36*
X1373924Y606782D02*
Y488276D01*
X1371961Y487735D01*
X1371924Y487735D01*
X1370377Y489282D01*
X1368933Y490115D01*
Y606035D01*
X1369615Y606217D01*
X1371781Y607468D01*
X1371924Y607611D01*
X1373924Y606782D01*
D02*
G37*
G36*
X904152Y527138D02*
X903473Y524989D01*
X902287Y524671D01*
X900383Y523572D01*
X898828Y522017D01*
X897793Y520224D01*
X837041D01*
X819344Y537921D01*
X819880Y539921D01*
Y542119D01*
X819311Y544243D01*
X818697Y545306D01*
X819737Y547306D01*
X883984D01*
X904152Y527138D01*
D02*
G37*
G36*
X1954174Y76357D02*
X1958246Y75379D01*
X1962115Y73777D01*
X1965685Y71589D01*
X1968869Y68869D01*
X1971589Y65685D01*
X1973777Y62115D01*
X1975379Y58246D01*
X1976357Y54174D01*
X1976685Y50000D01*
X1976357Y45826D01*
X1975379Y41754D01*
X1973777Y37885D01*
X1971589Y34315D01*
X1968869Y31131D01*
X1965685Y28411D01*
X1962115Y26223D01*
X1958246Y24621D01*
X1954174Y23643D01*
X1950000Y23315D01*
X1945826Y23643D01*
X1941754Y24621D01*
X1937885Y26223D01*
X1934315Y28411D01*
X1931131Y31131D01*
X1928411Y34315D01*
X1926223Y37885D01*
X1924621Y41754D01*
X1923643Y45826D01*
X1923315Y50000D01*
X1923643Y54174D01*
X1924621Y58246D01*
X1926223Y62115D01*
X1928411Y65685D01*
X1931131Y68869D01*
X1934315Y71589D01*
X1937885Y73777D01*
X1941754Y75379D01*
X1945826Y76357D01*
X1950000Y76685D01*
X1954174Y76357D01*
D02*
G37*
%LPC*%
G36*
X1952364Y74000D02*
X1947636D01*
X1943000Y73078D01*
X1938632Y71269D01*
X1934701Y68642D01*
X1931358Y65299D01*
X1928732Y61368D01*
X1926922Y57000D01*
X1926000Y52364D01*
Y47636D01*
X1926922Y43000D01*
X1928732Y38632D01*
X1931358Y34701D01*
X1934701Y31358D01*
X1938632Y28732D01*
X1943000Y26922D01*
X1947636Y26000D01*
X1952364D01*
X1957001Y26922D01*
X1961368Y28732D01*
X1965299Y31358D01*
X1968642Y34701D01*
X1971268Y38632D01*
X1973078Y43000D01*
X1974000Y47636D01*
Y52364D01*
X1973078Y57000D01*
X1971268Y61368D01*
X1968642Y65299D01*
X1965299Y68642D01*
X1961368Y71269D01*
X1957001Y73078D01*
X1952364Y74000D01*
D02*
G37*
%LPD*%
G36*
X54174Y76357D02*
X58246Y75379D01*
X62115Y73777D01*
X65685Y71589D01*
X68869Y68869D01*
X71589Y65685D01*
X73777Y62115D01*
X75379Y58246D01*
X76357Y54174D01*
X76685Y50000D01*
X76357Y45826D01*
X75379Y41754D01*
X73777Y37885D01*
X71589Y34315D01*
X68869Y31131D01*
X65685Y28411D01*
X62115Y26223D01*
X58246Y24621D01*
X54174Y23643D01*
X50000Y23315D01*
X45826Y23643D01*
X41754Y24621D01*
X37885Y26223D01*
X34315Y28411D01*
X31131Y31131D01*
X28411Y34315D01*
X26223Y37885D01*
X24621Y41754D01*
X23643Y45826D01*
X23315Y50000D01*
X23643Y54174D01*
X24621Y58246D01*
X26223Y62115D01*
X28411Y65685D01*
X31131Y68869D01*
X34315Y71589D01*
X37885Y73777D01*
X41754Y75379D01*
X45826Y76357D01*
X50000Y76685D01*
X54174Y76357D01*
D02*
G37*
%LPC*%
G36*
X52364Y74000D02*
X47636D01*
X43000Y73078D01*
X38632Y71269D01*
X34701Y68642D01*
X31358Y65299D01*
X28732Y61368D01*
X26922Y57000D01*
X26000Y52364D01*
Y47636D01*
X26922Y43000D01*
X28732Y38632D01*
X31358Y34701D01*
X34701Y31358D01*
X38632Y28732D01*
X43000Y26922D01*
X47636Y26000D01*
X52364D01*
X57000Y26922D01*
X61368Y28732D01*
X65299Y31358D01*
X68642Y34701D01*
X71269Y38632D01*
X73078Y43000D01*
X74000Y47636D01*
Y52364D01*
X73078Y57000D01*
X71269Y61368D01*
X68642Y65299D01*
X65299Y68642D01*
X61368Y71269D01*
X57000Y73078D01*
X52364Y74000D01*
D02*
G37*
%LPD*%
D10*
X1340199Y612181D02*
X1340548Y612530D01*
X1340199Y495649D02*
Y612181D01*
X1339850Y495300D02*
X1340199Y495649D01*
X1416748Y615070D02*
X1417669Y614149D01*
Y547021D02*
Y614149D01*
Y547021D02*
X1418590Y546100D01*
D12*
X1377258Y614435D02*
X1492250Y729427D01*
Y812800D01*
X1491910Y813140D02*
X1492250Y812800D01*
X1491910Y813140D02*
Y827110D01*
X1383030Y935990D02*
X1491910Y827110D01*
X1315720Y447040D02*
X1355178Y486498D01*
Y729068D01*
X1440180Y814070D01*
X1357630Y896620D02*
X1440180Y814070D01*
X1357630Y896620D02*
Y935990D01*
X1377258Y433648D02*
Y614435D01*
X1365599Y482949D02*
Y614721D01*
X1376680Y433070D02*
X1377258Y433648D01*
X1365250Y482600D02*
X1365599Y482949D01*
X1263650Y66040D02*
Y334972D01*
X1315148Y386470D01*
X871220Y300990D02*
Y421640D01*
X854710Y284480D02*
X871220Y300990D01*
X1315434Y446754D02*
X1315720Y447040D01*
X1315434Y386756D02*
Y446754D01*
X1315148Y386470D02*
X1315434Y386756D01*
X742950Y421640D02*
Y570230D01*
X1791970Y581660D02*
Y643890D01*
Y581660D02*
X1807210Y566420D01*
X1853611Y533989D02*
X1854200Y533400D01*
Y532130D02*
Y533400D01*
X1962150Y422910D02*
Y424180D01*
X1854200Y532130D02*
X1962150Y424180D01*
X1839641Y533989D02*
X1853611D01*
X1807210Y566420D02*
X1839641Y533989D01*
X1467199Y614721D02*
X1467548Y615070D01*
X1467199Y536289D02*
Y614721D01*
X1466850Y535940D02*
X1467199Y536289D01*
X1137190Y521240D02*
X1148080Y532130D01*
X914765Y521240D02*
X1137190D01*
X885365Y550640D02*
X914765Y521240D01*
X787035Y550640D02*
X885365D01*
X757825Y579850D02*
X787035Y550640D01*
X738965Y579850D02*
X757825D01*
X733330Y574215D02*
X738965Y579850D01*
X733330Y563340D02*
Y574215D01*
Y563340D02*
X733520Y563150D01*
Y552275D02*
Y563150D01*
X727885Y546640D02*
X733520Y552275D01*
X717010Y546640D02*
X727885D01*
X690880Y572770D02*
X717010Y546640D01*
X723900Y556260D02*
Y571205D01*
X738165Y585470D01*
X765810D01*
X663170Y406310D02*
Y754380D01*
Y406310D02*
X805320Y264160D01*
X828040D01*
X1131570Y617220D02*
Y704850D01*
X636270Y406400D02*
Y486410D01*
X910590Y280670D02*
X925763Y295843D01*
X932843D01*
X949960Y312960D01*
X828040Y121920D02*
Y264160D01*
X1979930Y511810D02*
Y643890D01*
X1939290Y471170D02*
X1979930Y511810D01*
X1315148Y615070D02*
X1315253Y614965D01*
Y500105D02*
Y614965D01*
Y500105D02*
X1315358Y500000D01*
X1365599Y614721D02*
X1365948Y615070D01*
X1289685Y433705D02*
Y509905D01*
X1289050Y510540D02*
X1289685Y509905D01*
Y433705D02*
X1290320Y433070D01*
X1290034Y432784D02*
X1290320Y433070D01*
X1290034Y384216D02*
Y432784D01*
X1289748Y383930D02*
X1290034Y384216D01*
X1201040Y295222D02*
X1289748Y383930D01*
X1267460Y590242D02*
X1289748Y612530D01*
X1267460Y474980D02*
Y590242D01*
X835660Y516890D02*
X905510D01*
X811530Y541020D02*
X835660Y516890D01*
X1467740Y67428D02*
X1543748Y143435D01*
Y383930D01*
X424180Y201930D02*
Y266363D01*
X429260Y271443D01*
Y337820D01*
X1442434Y486124D02*
X1442720Y486410D01*
X1442434Y384216D02*
Y486124D01*
X1442148Y383930D02*
X1442434Y384216D01*
X1416940Y67428D02*
Y370283D01*
X1405336Y381887D02*
X1416940Y370283D01*
X1405336Y381887D02*
Y598542D01*
X1391348Y612530D02*
X1405336Y598542D01*
X1442340Y67428D02*
X1518348Y143435D01*
Y386470D01*
X1339850Y66040D02*
Y233471D01*
X1343660Y237281D01*
Y240030D01*
X1822450Y260350D02*
Y442612D01*
X1670748Y594314D02*
X1822450Y442612D01*
X1670748Y594314D02*
Y615070D01*
X1227638Y936808D02*
X1228090Y937260D01*
X1227638Y433016D02*
Y936808D01*
Y433016D02*
X1234440Y426214D01*
Y425450D02*
Y426214D01*
X1543940Y67428D02*
X1670748Y194235D01*
Y386470D01*
X1314450Y66040D02*
X1315720Y67310D01*
Y276860D01*
X1316990Y278130D01*
X1788160Y284480D02*
Y469718D01*
X1645348Y612530D02*
X1788160Y469718D01*
X1504950Y395932D02*
Y655320D01*
X1492948Y383930D02*
X1504950Y395932D01*
X1170940Y185420D02*
X1171575Y186055D01*
Y574675D01*
X1172210Y575310D01*
X589280Y511810D02*
X590550Y513080D01*
X589280Y358140D02*
Y511810D01*
X588010Y356870D02*
X589280Y358140D01*
X1493140Y67428D02*
X1569148Y143435D01*
Y386470D01*
X1518540Y67428D02*
X1645348Y194235D01*
Y383930D01*
X1467834Y503904D02*
X1468120Y504190D01*
X1467834Y386756D02*
Y503904D01*
X1467548Y386470D02*
X1467834Y386756D01*
X1174750Y27940D02*
X1250950D01*
X1289050Y66040D01*
X1201040Y54230D02*
Y295222D01*
X1174750Y27940D02*
X1201040Y54230D01*
X259080Y29210D02*
X259715Y29845D01*
Y164465D01*
X260350Y165100D01*
X910590Y92710D02*
Y280670D01*
X1096010Y303530D02*
X1096645Y302895D01*
Y92075D02*
Y302895D01*
Y92075D02*
X1097280Y91440D01*
X608330Y885180D02*
Y887725D01*
X650240Y929635D01*
Y932180D01*
X71120Y524510D02*
X92710Y546100D01*
Y577850D01*
D87*
X1440180Y814070D02*
D03*
X1548130Y811530D02*
D03*
X857250Y941070D02*
D03*
X334010Y820420D02*
D03*
X1492250Y812800D02*
D03*
X464820Y158750D02*
D03*
D88*
X1263650Y66040D02*
D03*
X1357630Y935990D02*
D03*
X1383030D02*
D03*
X1408430D02*
D03*
X1854200Y533400D02*
D03*
X138659Y538100D02*
D03*
X1253490Y937260D02*
D03*
X1854200Y482600D02*
D03*
Y508000D02*
D03*
X1467740Y67428D02*
D03*
X138659Y487300D02*
D03*
X1442340Y67428D02*
D03*
X1339850Y66040D02*
D03*
X1228090Y937260D02*
D03*
X1543940Y67428D02*
D03*
X1314450Y66040D02*
D03*
X138659Y512700D02*
D03*
X1493140Y67428D02*
D03*
X1518540D02*
D03*
X1289050Y66040D02*
D03*
X1238250D02*
D03*
D89*
X1315148Y386470D02*
D03*
X1035728Y616070D02*
D03*
X1721548Y615070D02*
D03*
X1238948Y612530D02*
D03*
X1721548Y386470D02*
D03*
X1238948Y383930D02*
D03*
X327502Y560000D02*
D03*
X1696148Y612530D02*
D03*
X1645348D02*
D03*
X1594548D02*
D03*
X1543748D02*
D03*
X1492948D02*
D03*
X1442148D02*
D03*
X1391348D02*
D03*
X1340548D02*
D03*
X1289748D02*
D03*
X1264348Y615070D02*
D03*
X1315148D02*
D03*
X1365948D02*
D03*
X1416748D02*
D03*
X1467548D02*
D03*
X1518348D02*
D03*
X1569148D02*
D03*
X1619948D02*
D03*
X1670748D02*
D03*
Y386470D02*
D03*
X1619948D02*
D03*
X1569148D02*
D03*
X1518348D02*
D03*
X1467548D02*
D03*
X1416748D02*
D03*
X1365948D02*
D03*
X1264348D02*
D03*
X1289748Y383930D02*
D03*
X1340548D02*
D03*
X1391348D02*
D03*
X1442148D02*
D03*
X1492948D02*
D03*
X1543748D02*
D03*
X1594548D02*
D03*
X1645348D02*
D03*
X1696148D02*
D03*
X1035728Y386470D02*
D03*
X984928D02*
D03*
X934128D02*
D03*
X908728Y383930D02*
D03*
X959528D02*
D03*
X1010328D02*
D03*
X984928Y616070D02*
D03*
X934128D02*
D03*
X908728Y613530D02*
D03*
X959528D02*
D03*
X1010328D02*
D03*
X327502Y360000D02*
D03*
D90*
X1433830Y935990D02*
D03*
X1278890Y937260D02*
D03*
X1212850Y66040D02*
D03*
X1416940Y67428D02*
D03*
D91*
X1892300Y612140D02*
D03*
X1905000D02*
D03*
X1892300Y600710D02*
D03*
X1905000D02*
D03*
X110490Y619760D02*
D03*
X97790Y608330D02*
D03*
X110490D02*
D03*
X97790Y619760D02*
D03*
D92*
X1061128Y383930D02*
D03*
X1746948Y612530D02*
D03*
Y383930D02*
D03*
X1061128Y613530D02*
D03*
D93*
X536170Y754380D02*
D03*
X663170D02*
D03*
D94*
X71120Y524510D02*
D03*
X1939290Y521970D02*
D03*
X1029970Y91440D02*
D03*
D95*
X71120Y473710D02*
D03*
X1939290Y471170D02*
D03*
D96*
X1854200Y457200D02*
D03*
X138659Y461900D02*
D03*
D97*
X480520Y601980D02*
D03*
Y379680D02*
D03*
X718820Y601980D02*
D03*
Y379680D02*
D03*
D98*
X979170Y91440D02*
D03*
D99*
X423502Y500000D02*
D03*
X283502Y581000D02*
D03*
Y419000D02*
D03*
D100*
X608330Y885180D02*
D03*
Y932180D02*
D03*
X607060Y114290D02*
D03*
Y161290D02*
D03*
D101*
X608330Y838180D02*
D03*
X607060Y67290D02*
D03*
D102*
X1950000Y950000D02*
D03*
Y50000D02*
D03*
X50000Y950000D02*
D03*
Y50000D02*
D03*
D103*
X1365250Y482600D02*
D03*
X742950Y421640D02*
D03*
X854710Y284480D02*
D03*
X742950Y570230D02*
D03*
X871220Y421640D02*
D03*
X1315720Y447040D02*
D03*
X1893570Y881380D02*
D03*
X1791970Y643890D02*
D03*
X786376Y950000D02*
D03*
X1807210Y566420D02*
D03*
X857250Y593090D02*
D03*
X913130Y580390D02*
D03*
X1962150Y422910D02*
D03*
X801370Y508000D02*
D03*
X756920Y468630D02*
D03*
X868680Y124460D02*
D03*
X646430Y806450D02*
D03*
X543560Y867410D02*
D03*
X431800Y680720D02*
D03*
X207010Y612140D02*
D03*
X722630Y533400D02*
D03*
X707390Y143510D02*
D03*
X551180Y139700D02*
D03*
X379730Y137160D02*
D03*
X650240Y100330D02*
D03*
X633730Y71120D02*
D03*
X57150Y586740D02*
D03*
X373380Y246380D02*
D03*
X279400Y238760D02*
D03*
X1856740Y271780D02*
D03*
X1466850Y535940D02*
D03*
X1148080Y532130D02*
D03*
X690880Y572770D02*
D03*
X1131570Y617220D02*
D03*
Y704850D02*
D03*
X636270Y406400D02*
D03*
X949960Y312960D02*
D03*
X828040Y121920D02*
D03*
Y264160D02*
D03*
X1979930Y643890D02*
D03*
X930910Y530860D02*
D03*
X1315358Y500000D02*
D03*
X1290320Y433070D02*
D03*
X1339850Y495300D02*
D03*
X1267460Y474980D02*
D03*
X1418590Y546100D02*
D03*
X1289050Y510540D02*
D03*
X905510Y516890D02*
D03*
X811530Y541020D02*
D03*
X424180Y201930D02*
D03*
X429260Y337820D02*
D03*
X1442720Y486410D02*
D03*
X636270D02*
D03*
X1343660Y240030D02*
D03*
X1822450Y260350D02*
D03*
X1234440Y425450D02*
D03*
X1316990Y278130D02*
D03*
X1788160Y284480D02*
D03*
X1504950Y655320D02*
D03*
X1170940Y185420D02*
D03*
X1172210Y575310D02*
D03*
X590550Y513080D02*
D03*
X588010Y356870D02*
D03*
X1468120Y504190D02*
D03*
X765810Y585470D02*
D03*
X723900Y556260D02*
D03*
X1174750Y27940D02*
D03*
X259080Y29210D02*
D03*
X260350Y165100D02*
D03*
X910590Y92710D02*
D03*
X1096010Y303530D02*
D03*
X1097280Y91440D02*
D03*
X650240Y932180D02*
D03*
X1376680Y433070D02*
D03*
X92710Y577850D02*
D03*
D104*
X1010570Y287710D02*
D03*
Y278710D02*
D03*
X998570Y287710D02*
D03*
X1004570Y283210D02*
D03*
X998570Y278710D02*
D03*
M02*
