G04*
G04 #@! TF.GenerationSoftware,Altium Limited,Altium Designer,25.8.1 (18)*
G04*
G04 Layer_Color=65535*
%FSLAX44Y44*%
%MOMM*%
G71*
G04*
G04 #@! TF.SameCoordinates,3252FE53-E486-4FD3-897B-B0AFD7199433*
G04*
G04*
G04 #@! TF.FilePolarity,Positive*
G04*
G01*
G75*
%ADD10C,0.2000*%
%ADD11C,0.2500*%
%ADD12C,0.2540*%
%ADD13C,0.1270*%
%ADD14C,0.5080*%
%ADD15C,0.1524*%
%ADD16R,1.2000X0.2000*%
D10*
X1456030Y814070D02*
G03*
X1456030Y814070I-15850J0D01*
G01*
X21120Y473710D02*
G03*
X21120Y473710I-1000J0D01*
G01*
X1889290Y471170D02*
G03*
X1889290Y471170I-1000J0D01*
G01*
X980170Y142440D02*
G03*
X980170Y142440I-1000J0D01*
G01*
X360503Y390881D02*
G03*
X294504Y390880I-33001J109119D01*
G01*
X319502Y344000D02*
G03*
X335502Y344000I8000J0D01*
G01*
X294502Y352000D02*
G03*
X302502Y344000I8000J0D01*
G01*
X294506Y390880D02*
G03*
X294502Y390879I-2J0D01*
G01*
X352502Y344000D02*
G03*
X360502Y352000I0J8000D01*
G01*
X360504Y390881D02*
G03*
X360502Y390880I-1J0D01*
G01*
X608330Y812180D02*
G03*
X608330Y812180I-1000J0D01*
G01*
X350440Y253760D02*
G03*
X350440Y253760I-1000J0D01*
G01*
X1508100Y812800D02*
G03*
X1508100Y812800I-15850J0D01*
G01*
X349860Y820420D02*
G03*
X349860Y820420I-15850J0D01*
G01*
X480670Y158750D02*
G03*
X480670Y158750I-15850J0D01*
G01*
X873100Y941070D02*
G03*
X873100Y941070I-15850J0D01*
G01*
X1563980Y811530D02*
G03*
X1563980Y811530I-15850J0D01*
G01*
X607060Y41290D02*
G03*
X607060Y41290I-1000J0D01*
G01*
X1343430Y922540D02*
Y949440D01*
Y922540D02*
X1448030D01*
Y949440D01*
X1343430D02*
X1448030D01*
X1840750Y547600D02*
X1867650D01*
X1840750Y443000D02*
Y547600D01*
Y443000D02*
X1867650D01*
Y547600D01*
X701010Y133840D02*
X729010D01*
X701010Y99840D02*
X729010D01*
X794340Y521130D02*
Y543130D01*
X772840Y521130D02*
Y543130D01*
X882940Y251750D02*
Y304250D01*
Y251750D02*
X905940D01*
X898440Y319750D02*
X905940D01*
X882940Y304250D02*
X898440Y319750D01*
X935440D02*
X950940Y304250D01*
X927940Y319750D02*
X935440D01*
X927940Y251750D02*
X950940D01*
Y304250D01*
X987680Y220980D02*
X1003680D01*
X1014350Y223520D02*
X1030350D01*
X784190Y593360D02*
Y595360D01*
X795690Y593360D02*
Y595360D01*
X833590Y567220D02*
X860590D01*
Y540220D02*
Y567220D01*
X833590Y540220D02*
X860590D01*
X833590D02*
Y567220D01*
X785620Y450380D02*
X790620D01*
X817120Y476880D02*
Y486880D01*
X785620D02*
X790620D01*
X812120D02*
X817120D01*
X812120Y450380D02*
X817120D01*
Y460380D01*
X785620Y450380D02*
Y460380D01*
Y476880D02*
Y486880D01*
X335502Y344000D02*
X352502D01*
X302502D02*
X319502D01*
X294502Y352000D02*
Y390879D01*
X360502Y352000D02*
Y390880D01*
X145460Y612570D02*
Y634570D01*
X166960Y612570D02*
Y634570D01*
X1854790Y582090D02*
Y604090D01*
X1833290Y582090D02*
Y604090D01*
X803320Y583480D02*
Y605480D01*
X824820Y583480D02*
Y605480D01*
X847931Y489000D02*
Y511000D01*
X826431Y489000D02*
Y511000D01*
X750440Y854190D02*
X765940D01*
X750440Y916190D02*
X765940D01*
X757760Y927509D02*
Y952091D01*
X735760Y927509D02*
Y952091D01*
X799539Y910441D02*
X828601D01*
X799539Y887879D02*
X828601D01*
X692550Y838490D02*
Y842990D01*
X679050Y838490D02*
Y842990D01*
X712870Y838490D02*
Y842990D01*
X699370Y838490D02*
Y842990D01*
X685310Y863570D02*
Y891570D01*
X719310Y863570D02*
Y891570D01*
X730680Y824910D02*
X752680D01*
X730680Y846410D02*
X752680D01*
X799539Y879961D02*
X828601D01*
X799539Y857399D02*
X828601D01*
X728550Y926239D02*
Y950821D01*
X706550Y926239D02*
Y950821D01*
X677590Y928800D02*
Y950800D01*
X699090Y928800D02*
Y950800D01*
X677440Y872340D02*
Y877563D01*
X648440Y872340D02*
X656256D01*
X669624D02*
X677440D01*
X648440D02*
Y877563D01*
X746360Y61250D02*
Y65750D01*
X759860Y61250D02*
Y65750D01*
X741659Y107831D02*
X774721D01*
X741659Y85209D02*
X774721D01*
X852021Y142949D02*
Y172011D01*
X829459Y142949D02*
Y172011D01*
X775840Y140450D02*
X791340D01*
X775840Y202450D02*
X791340D01*
X707820Y163240D02*
X729820D01*
X707820Y184740D02*
X729820D01*
X755940Y129940D02*
X760440D01*
X755940Y116440D02*
X760440D01*
X681150Y66449D02*
Y91031D01*
X703150Y66449D02*
Y91031D01*
X651940Y66449D02*
Y91031D01*
X673940Y66449D02*
Y91031D01*
X730840Y67740D02*
Y89740D01*
X709340Y67740D02*
Y89740D01*
X338490Y155210D02*
Y157210D01*
X326990Y155210D02*
Y157210D01*
X319440Y155210D02*
Y157210D01*
X307940Y155210D02*
Y157210D01*
X300390Y155210D02*
Y157210D01*
X288890Y155210D02*
Y157210D01*
X347140Y173310D02*
X369140D01*
X347140Y151810D02*
X369140D01*
X325680Y290450D02*
X332180D01*
X325680Y306450D02*
X332180D01*
X312970Y257220D02*
X334970D01*
X312970Y278720D02*
X334970D01*
X344600D02*
X366600D01*
X344600Y257220D02*
X366600D01*
X1975830Y781370D02*
Y803620D01*
Y735620D02*
Y757870D01*
X1917830Y735620D02*
X1975830D01*
X1917830Y803620D02*
X1975830D01*
X1907830Y745620D02*
Y757620D01*
Y781620D02*
Y793620D01*
Y745620D02*
X1917830Y735620D01*
X1907830Y793620D02*
X1917830Y803620D01*
X1977100Y858840D02*
Y881090D01*
Y813090D02*
Y835340D01*
X1919100Y813090D02*
X1977100D01*
X1919100Y881090D02*
X1977100D01*
X1909100Y823090D02*
Y835090D01*
Y859090D02*
Y871090D01*
Y823090D02*
X1919100Y813090D01*
X1909100Y871090D02*
X1919100Y881090D01*
X1957500Y719410D02*
X1979500D01*
X1957447Y697833D02*
X1979447D01*
X1957380Y688930D02*
X1979380D01*
X1957327Y667353D02*
X1979327D01*
X88140Y639680D02*
X120140D01*
X88140Y589680D02*
X120140D01*
X88140D02*
Y639680D01*
X120140Y589680D02*
Y639680D01*
X19340Y786000D02*
X29340Y796000D01*
X19340Y738000D02*
X29340Y728000D01*
X19340Y774000D02*
Y786000D01*
Y738000D02*
Y750000D01*
X29340Y796000D02*
X87340D01*
X29340Y728000D02*
X87340D01*
Y750250D01*
Y773750D02*
Y796000D01*
X88610Y853760D02*
Y876010D01*
Y808010D02*
Y830260D01*
X30610Y808010D02*
X88610D01*
X30610Y876010D02*
X88610D01*
X20610Y818010D02*
Y830010D01*
Y854010D02*
Y866010D01*
Y818010D02*
X30610Y808010D01*
X20610Y866010D02*
X30610Y876010D01*
X20750Y718140D02*
X42750D01*
X20697Y696563D02*
X42697D01*
X19480Y687660D02*
X41480D01*
X19427Y666083D02*
X41427D01*
X1882650Y580790D02*
Y630790D01*
X1914650Y580790D02*
Y630790D01*
X1882650D02*
X1914650D01*
X1882650Y580790D02*
X1914650D01*
X989070Y271710D02*
Y294710D01*
X1020070Y271710D02*
Y294710D01*
X152109Y447700D02*
Y552300D01*
X125209Y447700D02*
X152109D01*
X125209D02*
Y552300D01*
X152109D01*
X1043290Y703590D02*
X1047740D01*
X1078240D02*
X1082690D01*
Y749290D01*
X1043290D02*
X1047740D01*
X1078240D02*
X1082690D01*
X1043290Y703590D02*
Y749290D01*
X658980Y137690D02*
X664203D01*
X658980Y108690D02*
Y116506D01*
Y129874D02*
Y137690D01*
Y108690D02*
X664203D01*
X857399Y142949D02*
Y172011D01*
X879961Y142949D02*
Y172011D01*
X1213890Y923810D02*
Y950710D01*
Y923810D02*
X1293090D01*
Y950710D01*
X1213890D02*
X1293090D01*
X1402740Y53978D02*
X1558140D01*
X1402740D02*
Y80878D01*
X1558140D01*
Y53978D02*
Y80878D01*
X1198650Y52590D02*
X1354050D01*
X1198650D02*
Y79490D01*
X1354050D01*
Y52590D02*
Y79490D01*
X1740031Y303380D02*
X1746696D01*
X1750028Y306712D01*
X1746696Y310044D01*
X1740031D01*
Y313377D02*
X1750028D01*
Y318375D01*
X1748362Y320041D01*
X1746696D01*
X1745029Y318375D01*
Y313377D01*
Y318375D01*
X1743363Y320041D01*
X1741697D01*
X1740031Y318375D01*
Y313377D01*
X1741697Y330038D02*
X1740031Y328372D01*
Y325040D01*
X1741697Y323374D01*
X1748362D01*
X1750028Y325040D01*
Y328372D01*
X1748362Y330038D01*
X1740031Y333370D02*
X1750028D01*
X1746696D01*
X1740031Y340035D01*
X1745029Y335037D01*
X1750028Y340035D01*
X1751298Y655770D02*
X1741301D01*
Y660768D01*
X1742967Y662434D01*
X1746299D01*
X1747966Y660768D01*
Y655770D01*
X1741301Y672431D02*
X1742967Y669099D01*
X1746299Y665767D01*
X1749632D01*
X1751298Y667433D01*
Y670765D01*
X1749632Y672431D01*
X1747966D01*
X1746299Y670765D01*
Y665767D01*
X1751298Y675763D02*
X1749632D01*
Y677430D01*
X1751298D01*
Y675763D01*
X1741301Y684094D02*
X1747966D01*
X1751298Y687426D01*
X1747966Y690759D01*
X1741301D01*
Y694091D02*
X1751298D01*
Y699089D01*
X1749632Y700755D01*
X1742967D01*
X1741301Y699089D01*
Y694091D01*
Y704088D02*
X1751298D01*
Y709086D01*
X1749632Y710752D01*
X1742967D01*
X1741301Y709086D01*
Y704088D01*
X1717567Y662434D02*
X1715901Y660768D01*
Y657436D01*
X1717567Y655770D01*
X1724232D01*
X1725898Y657436D01*
Y660768D01*
X1724232Y662434D01*
X1720900D01*
Y659102D01*
X1725898Y665767D02*
X1715901D01*
X1725898Y672431D01*
X1715901D01*
Y675764D02*
X1725898D01*
Y680762D01*
X1724232Y682428D01*
X1717567D01*
X1715901Y680762D01*
Y675764D01*
X1688835Y655770D02*
X1698832Y662434D01*
X1688835D02*
X1698832Y655770D01*
Y665767D02*
X1688835D01*
Y670765D01*
X1690501Y672431D01*
X1693833D01*
X1695500Y670765D01*
Y665767D01*
Y669099D02*
X1698832Y672431D01*
X1688835Y682428D02*
Y675764D01*
X1698832D01*
Y682428D01*
X1693833Y675764D02*
Y679096D01*
X1690501Y692425D02*
X1688835Y690759D01*
Y687427D01*
X1690501Y685760D01*
X1692167D01*
X1693833Y687427D01*
Y690759D01*
X1695500Y692425D01*
X1697166D01*
X1698832Y690759D01*
Y687427D01*
X1697166Y685760D01*
X1700498Y695757D02*
Y702422D01*
X1698832Y705754D02*
X1688835D01*
X1698832Y712418D01*
X1688835D01*
X1675098Y655770D02*
X1665101D01*
Y660768D01*
X1666767Y662434D01*
X1670099D01*
X1671766Y660768D01*
Y655770D01*
X1675098Y665767D02*
Y669099D01*
Y667433D01*
X1665101D01*
X1666767Y665767D01*
X1675098Y680762D02*
Y674097D01*
X1668433Y680762D01*
X1666767D01*
X1665101Y679096D01*
Y675763D01*
X1666767Y674097D01*
X1675098Y684094D02*
X1673432D01*
Y685760D01*
X1675098D01*
Y684094D01*
X1665101Y692425D02*
Y699089D01*
X1666767D01*
X1673432Y692425D01*
X1675098D01*
X1649698Y655770D02*
X1639701D01*
Y660768D01*
X1641367Y662434D01*
X1644700D01*
X1646366Y660768D01*
Y655770D01*
X1649698Y665767D02*
Y669099D01*
Y667433D01*
X1639701D01*
X1641367Y665767D01*
X1649698Y680762D02*
Y674097D01*
X1643033Y680762D01*
X1641367D01*
X1639701Y679096D01*
Y675763D01*
X1641367Y674097D01*
X1649698Y684094D02*
X1648032D01*
Y685760D01*
X1649698D01*
Y684094D01*
X1639701Y699089D02*
X1641367Y695757D01*
X1644700Y692425D01*
X1648032D01*
X1649698Y694091D01*
Y697423D01*
X1648032Y699089D01*
X1646366D01*
X1644700Y697423D01*
Y692425D01*
X1624298Y655770D02*
X1614301D01*
Y660768D01*
X1615967Y662434D01*
X1619299D01*
X1620966Y660768D01*
Y655770D01*
X1615967Y665767D02*
X1614301Y667433D01*
Y670765D01*
X1615967Y672431D01*
X1622632D01*
X1624298Y670765D01*
Y667433D01*
X1622632Y665767D01*
X1615967D01*
X1624298Y675763D02*
X1622632D01*
Y677430D01*
X1624298D01*
Y675763D01*
X1614301Y690759D02*
Y684094D01*
X1619299D01*
X1617633Y687426D01*
Y689093D01*
X1619299Y690759D01*
X1622632D01*
X1624298Y689093D01*
Y685760D01*
X1622632Y684094D01*
X1598898Y655770D02*
X1588901D01*
Y660768D01*
X1590567Y662434D01*
X1593900D01*
X1595566Y660768D01*
Y655770D01*
X1590567Y665767D02*
X1588901Y667433D01*
Y670765D01*
X1590567Y672431D01*
X1597232D01*
X1598898Y670765D01*
Y667433D01*
X1597232Y665767D01*
X1590567D01*
X1598898Y675763D02*
X1597232D01*
Y677430D01*
X1598898D01*
Y675763D01*
Y689093D02*
X1588901D01*
X1593900Y684094D01*
Y690759D01*
X1573498Y655770D02*
X1563501D01*
Y660768D01*
X1565167Y662434D01*
X1568499D01*
X1570166Y660768D01*
Y655770D01*
X1563501Y665767D02*
Y672431D01*
X1565167D01*
X1571832Y665767D01*
X1573498D01*
Y675763D02*
X1571832D01*
Y677430D01*
X1573498D01*
Y675763D01*
X1563501Y684094D02*
Y690759D01*
X1565167D01*
X1571832Y684094D01*
X1573498D01*
X1548098Y655770D02*
X1538101D01*
Y660768D01*
X1539767Y662434D01*
X1543100D01*
X1544766Y660768D01*
Y655770D01*
X1538101Y665767D02*
Y672431D01*
X1539767D01*
X1546432Y665767D01*
X1548098D01*
Y675763D02*
X1546432D01*
Y677430D01*
X1548098D01*
Y675763D01*
Y690759D02*
Y684094D01*
X1541433Y690759D01*
X1539767D01*
X1538101Y689093D01*
Y685760D01*
X1539767Y684094D01*
X1527080Y658590D02*
X1517083D01*
Y663588D01*
X1518749Y665255D01*
X1522082D01*
X1523748Y663588D01*
Y658590D01*
X1517083Y668587D02*
Y675251D01*
X1518749D01*
X1525414Y668587D01*
X1527080D01*
Y678584D02*
X1525414D01*
Y680250D01*
X1527080D01*
Y678584D01*
Y686914D02*
Y690246D01*
Y688580D01*
X1517083D01*
X1518749Y686914D01*
X1492790Y658590D02*
X1482793D01*
Y663588D01*
X1484459Y665255D01*
X1487792D01*
X1489458Y663588D01*
Y658590D01*
X1482793Y675251D02*
X1484459Y671919D01*
X1487792Y668587D01*
X1491124D01*
X1492790Y670253D01*
Y673585D01*
X1491124Y675251D01*
X1489458D01*
X1487792Y673585D01*
Y668587D01*
X1492790Y678584D02*
X1491124D01*
Y680250D01*
X1492790D01*
Y678584D01*
X1484459Y686914D02*
X1482793Y688580D01*
Y691913D01*
X1484459Y693579D01*
X1486125D01*
X1487792Y691913D01*
Y690246D01*
Y691913D01*
X1489458Y693579D01*
X1491124D01*
X1492790Y691913D01*
Y688580D01*
X1491124Y686914D01*
X1471898Y655770D02*
X1461901D01*
Y660768D01*
X1463567Y662434D01*
X1466900D01*
X1468566Y660768D01*
Y655770D01*
X1461901Y672431D02*
X1463567Y669099D01*
X1466900Y665767D01*
X1470232D01*
X1471898Y667433D01*
Y670765D01*
X1470232Y672431D01*
X1468566D01*
X1466900Y670765D01*
Y665767D01*
X1471898Y675763D02*
X1470232D01*
Y677430D01*
X1471898D01*
Y675763D01*
Y690759D02*
Y684094D01*
X1465233Y690759D01*
X1463567D01*
X1461901Y689093D01*
Y685760D01*
X1463567Y684094D01*
X1446498Y655770D02*
X1436501D01*
Y660768D01*
X1438167Y662434D01*
X1441499D01*
X1443166Y660768D01*
Y655770D01*
X1444832Y665767D02*
X1446498Y667433D01*
Y670765D01*
X1444832Y672431D01*
X1438167D01*
X1436501Y670765D01*
Y667433D01*
X1438167Y665767D01*
X1439833D01*
X1441499Y667433D01*
Y672431D01*
X1446498Y675763D02*
X1444832D01*
Y677430D01*
X1446498D01*
Y675763D01*
X1436501Y690759D02*
X1438167Y687426D01*
X1441499Y684094D01*
X1444832D01*
X1446498Y685760D01*
Y689093D01*
X1444832Y690759D01*
X1443166D01*
X1441499Y689093D01*
Y684094D01*
X1421098Y655770D02*
X1411101D01*
Y660768D01*
X1412767Y662434D01*
X1416100D01*
X1417766Y660768D01*
Y655770D01*
X1419432Y665767D02*
X1421098Y667433D01*
Y670765D01*
X1419432Y672431D01*
X1412767D01*
X1411101Y670765D01*
Y667433D01*
X1412767Y665767D01*
X1414433D01*
X1416100Y667433D01*
Y672431D01*
X1421098Y675763D02*
X1419432D01*
Y677430D01*
X1421098D01*
Y675763D01*
X1411101Y690759D02*
Y684094D01*
X1416100D01*
X1414433Y687426D01*
Y689093D01*
X1416100Y690759D01*
X1419432D01*
X1421098Y689093D01*
Y685760D01*
X1419432Y684094D01*
X1395698Y655770D02*
X1385701D01*
Y660768D01*
X1387367Y662434D01*
X1390699D01*
X1392366Y660768D01*
Y655770D01*
X1394032Y665767D02*
X1395698Y667433D01*
Y670765D01*
X1394032Y672431D01*
X1387367D01*
X1385701Y670765D01*
Y667433D01*
X1387367Y665767D01*
X1389033D01*
X1390699Y667433D01*
Y672431D01*
X1395698Y675763D02*
X1394032D01*
Y677430D01*
X1395698D01*
Y675763D01*
Y689093D02*
X1385701D01*
X1390699Y684094D01*
Y690759D01*
X1370298Y655770D02*
X1360301D01*
Y660768D01*
X1361967Y662434D01*
X1365300D01*
X1366966Y660768D01*
Y655770D01*
X1368632Y665767D02*
X1370298Y667433D01*
Y670765D01*
X1368632Y672431D01*
X1361967D01*
X1360301Y670765D01*
Y667433D01*
X1361967Y665767D01*
X1363633D01*
X1365300Y667433D01*
Y672431D01*
X1370298Y675763D02*
X1368632D01*
Y677430D01*
X1370298D01*
Y675763D01*
X1361967Y684094D02*
X1360301Y685760D01*
Y689093D01*
X1361967Y690759D01*
X1363633D01*
X1365300Y689093D01*
Y687426D01*
Y689093D01*
X1366966Y690759D01*
X1368632D01*
X1370298Y689093D01*
Y685760D01*
X1368632Y684094D01*
X1344898Y655770D02*
X1334901D01*
Y660768D01*
X1336567Y662434D01*
X1339899D01*
X1341566Y660768D01*
Y655770D01*
X1343232Y665767D02*
X1344898Y667433D01*
Y670765D01*
X1343232Y672431D01*
X1336567D01*
X1334901Y670765D01*
Y667433D01*
X1336567Y665767D01*
X1338233D01*
X1339899Y667433D01*
Y672431D01*
X1344898Y675763D02*
X1343232D01*
Y677430D01*
X1344898D01*
Y675763D01*
Y690759D02*
Y684094D01*
X1338233Y690759D01*
X1336567D01*
X1334901Y689093D01*
Y685760D01*
X1336567Y684094D01*
X1319498Y655770D02*
X1309501D01*
Y660768D01*
X1311167Y662434D01*
X1314500D01*
X1316166Y660768D01*
Y655770D01*
X1317832Y665767D02*
X1319498Y667433D01*
Y670765D01*
X1317832Y672431D01*
X1311167D01*
X1309501Y670765D01*
Y667433D01*
X1311167Y665767D01*
X1312833D01*
X1314500Y667433D01*
Y672431D01*
X1319498Y675763D02*
X1317832D01*
Y677430D01*
X1319498D01*
Y675763D01*
Y684094D02*
Y687426D01*
Y685760D01*
X1309501D01*
X1311167Y684094D01*
X1294098Y655770D02*
X1284101D01*
Y660768D01*
X1285767Y662434D01*
X1289099D01*
X1290766Y660768D01*
Y655770D01*
X1292432Y665767D02*
X1294098Y667433D01*
Y670765D01*
X1292432Y672431D01*
X1285767D01*
X1284101Y670765D01*
Y667433D01*
X1285767Y665767D01*
X1287433D01*
X1289099Y667433D01*
Y672431D01*
X1294098Y675763D02*
X1292432D01*
Y677430D01*
X1294098D01*
Y675763D01*
X1285767Y684094D02*
X1284101Y685760D01*
Y689093D01*
X1285767Y690759D01*
X1292432D01*
X1294098Y689093D01*
Y685760D01*
X1292432Y684094D01*
X1285767D01*
X1268698Y655770D02*
X1258701D01*
Y660768D01*
X1260367Y662434D01*
X1263699D01*
X1265366Y660768D01*
Y655770D01*
X1258701Y672431D02*
X1260367Y669099D01*
X1263699Y665767D01*
X1267032D01*
X1268698Y667433D01*
Y670765D01*
X1267032Y672431D01*
X1265366D01*
X1263699Y670765D01*
Y665767D01*
X1268698Y675763D02*
X1267032D01*
Y677430D01*
X1268698D01*
Y675763D01*
X1258701Y684094D02*
X1265366D01*
X1268698Y687426D01*
X1265366Y690759D01*
X1258701D01*
Y694091D02*
X1268698D01*
Y699089D01*
X1267032Y700755D01*
X1260367D01*
X1258701Y699089D01*
Y694091D01*
Y704088D02*
X1268698D01*
Y709086D01*
X1267032Y710752D01*
X1260367D01*
X1258701Y709086D01*
Y704088D01*
X1234967Y662434D02*
X1233301Y660768D01*
Y657436D01*
X1234967Y655770D01*
X1241632D01*
X1243298Y657436D01*
Y660768D01*
X1241632Y662434D01*
X1238299D01*
Y659102D01*
X1243298Y665767D02*
X1233301D01*
X1243298Y672431D01*
X1233301D01*
Y675764D02*
X1243298D01*
Y680762D01*
X1241632Y682428D01*
X1234967D01*
X1233301Y680762D01*
Y675764D01*
X1055501Y661834D02*
Y655170D01*
X1060499D01*
X1058833Y658502D01*
Y660168D01*
X1060499Y661834D01*
X1063832D01*
X1065498Y660168D01*
Y656836D01*
X1063832Y655170D01*
X1055501Y665167D02*
X1062166D01*
X1065498Y668499D01*
X1062166Y671831D01*
X1055501D01*
X1031767Y661834D02*
X1030101Y660168D01*
Y656836D01*
X1031767Y655170D01*
X1038432D01*
X1040098Y656836D01*
Y660168D01*
X1038432Y661834D01*
X1035099D01*
Y658502D01*
X1040098Y665167D02*
X1030101D01*
X1040098Y671831D01*
X1030101D01*
Y675164D02*
X1040098D01*
Y680162D01*
X1038432Y681828D01*
X1031767D01*
X1030101Y680162D01*
Y675164D01*
X980967Y661834D02*
X979301Y660168D01*
Y656836D01*
X980967Y655170D01*
X982633D01*
X984299Y656836D01*
Y660168D01*
X985966Y661834D01*
X987632D01*
X989298Y660168D01*
Y656836D01*
X987632Y655170D01*
X979301Y665167D02*
X989298D01*
Y670165D01*
X987632Y671831D01*
X980967D01*
X979301Y670165D01*
Y665167D01*
X989298Y675164D02*
X982633D01*
X979301Y678496D01*
X982633Y681828D01*
X989298D01*
X984299D01*
Y675164D01*
X955567Y661834D02*
X953901Y660168D01*
Y656836D01*
X955567Y655170D01*
X957233D01*
X958900Y656836D01*
Y660168D01*
X960566Y661834D01*
X962232D01*
X963898Y660168D01*
Y656836D01*
X962232Y655170D01*
X955567Y671831D02*
X953901Y670165D01*
Y666833D01*
X955567Y665167D01*
X962232D01*
X963898Y666833D01*
Y670165D01*
X962232Y671831D01*
X953901Y675164D02*
X963898D01*
Y681828D01*
X938498Y655170D02*
X928501D01*
Y660168D01*
X930167Y661834D01*
X933500D01*
X935166Y660168D01*
Y655170D01*
Y658502D02*
X938498Y661834D01*
X928501Y665167D02*
X938498Y671831D01*
X928501D02*
X938498Y665167D01*
X903101Y655170D02*
Y661834D01*
Y658502D01*
X913098D01*
X903101Y665167D02*
X913098Y671831D01*
X903101D02*
X913098Y665167D01*
X1716297Y310044D02*
X1714631Y308378D01*
Y305046D01*
X1716297Y303380D01*
X1722962D01*
X1724628Y305046D01*
Y308378D01*
X1722962Y310044D01*
X1719630D01*
Y306712D01*
X1724628Y313377D02*
X1714631D01*
X1724628Y320041D01*
X1714631D01*
Y323374D02*
X1724628D01*
Y328372D01*
X1722962Y330038D01*
X1716297D01*
X1714631Y328372D01*
Y323374D01*
X1689231Y303380D02*
X1695896D01*
X1699228Y306712D01*
X1695896Y310044D01*
X1689231D01*
X1699228Y313377D02*
X1689231D01*
Y318375D01*
X1690897Y320041D01*
X1694229D01*
X1695896Y318375D01*
Y313377D01*
Y316709D02*
X1699228Y320041D01*
X1689231Y330038D02*
Y323374D01*
X1699228D01*
Y330038D01*
X1694229Y323374D02*
Y326706D01*
X1689231Y340035D02*
Y333370D01*
X1694229D01*
Y336703D01*
Y333370D01*
X1699228D01*
X1673828Y303380D02*
X1663831D01*
Y308378D01*
X1665497Y310044D01*
X1668829D01*
X1670496Y308378D01*
Y303380D01*
X1673828Y313377D02*
Y316709D01*
Y315043D01*
X1663831D01*
X1665497Y313377D01*
Y321707D02*
X1663831Y323373D01*
Y326706D01*
X1665497Y328372D01*
X1672162D01*
X1673828Y326706D01*
Y323373D01*
X1672162Y321707D01*
X1665497D01*
X1673828Y331704D02*
X1672162D01*
Y333370D01*
X1673828D01*
Y331704D01*
X1663831Y346699D02*
X1665497Y343367D01*
X1668829Y340035D01*
X1672162D01*
X1673828Y341701D01*
Y345033D01*
X1672162Y346699D01*
X1670496D01*
X1668829Y345033D01*
Y340035D01*
X1648428Y303380D02*
X1638431D01*
Y308378D01*
X1640097Y310044D01*
X1643430D01*
X1645096Y308378D01*
Y303380D01*
X1648428Y313377D02*
Y316709D01*
Y315043D01*
X1638431D01*
X1640097Y313377D01*
Y321707D02*
X1638431Y323373D01*
Y326706D01*
X1640097Y328372D01*
X1646762D01*
X1648428Y326706D01*
Y323373D01*
X1646762Y321707D01*
X1640097D01*
X1648428Y331704D02*
X1646762D01*
Y333370D01*
X1648428D01*
Y331704D01*
X1638431Y346699D02*
Y340035D01*
X1643430D01*
X1641763Y343367D01*
Y345033D01*
X1643430Y346699D01*
X1646762D01*
X1648428Y345033D01*
Y341701D01*
X1646762Y340035D01*
X1623028Y303380D02*
X1613031D01*
Y308378D01*
X1614697Y310044D01*
X1618029D01*
X1619696Y308378D01*
Y303380D01*
X1623028Y313377D02*
Y316709D01*
Y315043D01*
X1613031D01*
X1614697Y313377D01*
Y321707D02*
X1613031Y323373D01*
Y326706D01*
X1614697Y328372D01*
X1621362D01*
X1623028Y326706D01*
Y323373D01*
X1621362Y321707D01*
X1614697D01*
X1623028Y331704D02*
X1621362D01*
Y333370D01*
X1623028D01*
Y331704D01*
Y345033D02*
X1613031D01*
X1618029Y340035D01*
Y346699D01*
X1597628Y303380D02*
X1587631D01*
Y308378D01*
X1589297Y310044D01*
X1592630D01*
X1594296Y308378D01*
Y303380D01*
X1597628Y313377D02*
Y316709D01*
Y315043D01*
X1587631D01*
X1589297Y313377D01*
Y321707D02*
X1587631Y323373D01*
Y326706D01*
X1589297Y328372D01*
X1595962D01*
X1597628Y326706D01*
Y323373D01*
X1595962Y321707D01*
X1589297D01*
X1597628Y331704D02*
X1595962D01*
Y333370D01*
X1597628D01*
Y331704D01*
X1589297Y340035D02*
X1587631Y341701D01*
Y345033D01*
X1589297Y346699D01*
X1590963D01*
X1592630Y345033D01*
Y343367D01*
Y345033D01*
X1594296Y346699D01*
X1595962D01*
X1597628Y345033D01*
Y341701D01*
X1595962Y340035D01*
X1572228Y303380D02*
X1562231D01*
Y308378D01*
X1563897Y310044D01*
X1567229D01*
X1568896Y308378D01*
Y303380D01*
X1572228Y313377D02*
Y316709D01*
Y315043D01*
X1562231D01*
X1563897Y313377D01*
Y321707D02*
X1562231Y323373D01*
Y326706D01*
X1563897Y328372D01*
X1570562D01*
X1572228Y326706D01*
Y323373D01*
X1570562Y321707D01*
X1563897D01*
X1572228Y331704D02*
X1570562D01*
Y333370D01*
X1572228D01*
Y331704D01*
Y346699D02*
Y340035D01*
X1565563Y346699D01*
X1563897D01*
X1562231Y345033D01*
Y341701D01*
X1563897Y340035D01*
X1546828Y303380D02*
X1536831D01*
Y308378D01*
X1538497Y310044D01*
X1541830D01*
X1543496Y308378D01*
Y303380D01*
X1546828Y313377D02*
Y316709D01*
Y315043D01*
X1536831D01*
X1538497Y313377D01*
Y321707D02*
X1536831Y323373D01*
Y326706D01*
X1538497Y328372D01*
X1545162D01*
X1546828Y326706D01*
Y323373D01*
X1545162Y321707D01*
X1538497D01*
X1546828Y331704D02*
X1545162D01*
Y333370D01*
X1546828D01*
Y331704D01*
Y340035D02*
Y343367D01*
Y341701D01*
X1536831D01*
X1538497Y340035D01*
X1521428Y303380D02*
X1511431D01*
Y308378D01*
X1513097Y310044D01*
X1516429D01*
X1518096Y308378D01*
Y303380D01*
X1521428Y313377D02*
Y316709D01*
Y315043D01*
X1511431D01*
X1513097Y313377D01*
Y321707D02*
X1511431Y323373D01*
Y326706D01*
X1513097Y328372D01*
X1519762D01*
X1521428Y326706D01*
Y323373D01*
X1519762Y321707D01*
X1513097D01*
X1521428Y331704D02*
X1519762D01*
Y333370D01*
X1521428D01*
Y331704D01*
X1513097Y340035D02*
X1511431Y341701D01*
Y345033D01*
X1513097Y346699D01*
X1519762D01*
X1521428Y345033D01*
Y341701D01*
X1519762Y340035D01*
X1513097D01*
X1496028Y303380D02*
X1486031D01*
Y308378D01*
X1487697Y310044D01*
X1491030D01*
X1492696Y308378D01*
Y303380D01*
X1486031Y320041D02*
Y313377D01*
X1491030D01*
X1489363Y316709D01*
Y318375D01*
X1491030Y320041D01*
X1494362D01*
X1496028Y318375D01*
Y315043D01*
X1494362Y313377D01*
X1496028Y323373D02*
X1494362D01*
Y325040D01*
X1496028D01*
Y323373D01*
X1486031Y338369D02*
X1487697Y335036D01*
X1491030Y331704D01*
X1494362D01*
X1496028Y333370D01*
Y336703D01*
X1494362Y338369D01*
X1492696D01*
X1491030Y336703D01*
Y331704D01*
X1470628Y303380D02*
X1460631D01*
Y308378D01*
X1462297Y310044D01*
X1465629D01*
X1467296Y308378D01*
Y303380D01*
X1460631Y320041D02*
Y313377D01*
X1465629D01*
X1463963Y316709D01*
Y318375D01*
X1465629Y320041D01*
X1468962D01*
X1470628Y318375D01*
Y315043D01*
X1468962Y313377D01*
X1470628Y323373D02*
X1468962D01*
Y325040D01*
X1470628D01*
Y323373D01*
X1460631Y338369D02*
Y331704D01*
X1465629D01*
X1463963Y335036D01*
Y336703D01*
X1465629Y338369D01*
X1468962D01*
X1470628Y336703D01*
Y333370D01*
X1468962Y331704D01*
X1445228Y303380D02*
X1435231D01*
Y308378D01*
X1436897Y310044D01*
X1440229D01*
X1441896Y308378D01*
Y303380D01*
X1435231Y320041D02*
Y313377D01*
X1440229D01*
X1438563Y316709D01*
Y318375D01*
X1440229Y320041D01*
X1443562D01*
X1445228Y318375D01*
Y315043D01*
X1443562Y313377D01*
X1445228Y323373D02*
X1443562D01*
Y325040D01*
X1445228D01*
Y323373D01*
Y336703D02*
X1435231D01*
X1440229Y331704D01*
Y338369D01*
X1419828Y303380D02*
X1409831D01*
Y308378D01*
X1411497Y310044D01*
X1414830D01*
X1416496Y308378D01*
Y303380D01*
X1409831Y320041D02*
Y313377D01*
X1414830D01*
X1413163Y316709D01*
Y318375D01*
X1414830Y320041D01*
X1418162D01*
X1419828Y318375D01*
Y315043D01*
X1418162Y313377D01*
X1419828Y323373D02*
X1418162D01*
Y325040D01*
X1419828D01*
Y323373D01*
X1411497Y331704D02*
X1409831Y333370D01*
Y336703D01*
X1411497Y338369D01*
X1413163D01*
X1414830Y336703D01*
Y335036D01*
Y336703D01*
X1416496Y338369D01*
X1418162D01*
X1419828Y336703D01*
Y333370D01*
X1418162Y331704D01*
X1394428Y303380D02*
X1384431D01*
Y308378D01*
X1386097Y310044D01*
X1389429D01*
X1391096Y308378D01*
Y303380D01*
X1384431Y320041D02*
Y313377D01*
X1389429D01*
X1387763Y316709D01*
Y318375D01*
X1389429Y320041D01*
X1392762D01*
X1394428Y318375D01*
Y315043D01*
X1392762Y313377D01*
X1394428Y323373D02*
X1392762D01*
Y325040D01*
X1394428D01*
Y323373D01*
Y338369D02*
Y331704D01*
X1387763Y338369D01*
X1386097D01*
X1384431Y336703D01*
Y333370D01*
X1386097Y331704D01*
X1369028Y303380D02*
X1359031D01*
Y308378D01*
X1360697Y310044D01*
X1364030D01*
X1365696Y308378D01*
Y303380D01*
X1359031Y320041D02*
Y313377D01*
X1364030D01*
X1362363Y316709D01*
Y318375D01*
X1364030Y320041D01*
X1367362D01*
X1369028Y318375D01*
Y315043D01*
X1367362Y313377D01*
X1369028Y323373D02*
X1367362D01*
Y325040D01*
X1369028D01*
Y323373D01*
X1360697Y331704D02*
X1359031Y333370D01*
Y336703D01*
X1360697Y338369D01*
X1367362D01*
X1369028Y336703D01*
Y333370D01*
X1367362Y331704D01*
X1360697D01*
X1343628Y303380D02*
X1333631D01*
Y308378D01*
X1335297Y310044D01*
X1338629D01*
X1340296Y308378D01*
Y303380D01*
X1333631Y320041D02*
Y313377D01*
X1338629D01*
X1336963Y316709D01*
Y318375D01*
X1338629Y320041D01*
X1341962D01*
X1343628Y318375D01*
Y315043D01*
X1341962Y313377D01*
X1343628Y323373D02*
X1341962D01*
Y325040D01*
X1343628D01*
Y323373D01*
Y331704D02*
Y335036D01*
Y333370D01*
X1333631D01*
X1335297Y331704D01*
X1318228Y303380D02*
X1308231D01*
Y308378D01*
X1309897Y310044D01*
X1313230D01*
X1314896Y308378D01*
Y303380D01*
X1308231Y320041D02*
X1309897Y316709D01*
X1313230Y313377D01*
X1316562D01*
X1318228Y315043D01*
Y318375D01*
X1316562Y320041D01*
X1314896D01*
X1313230Y318375D01*
Y313377D01*
X1318228Y323373D02*
X1316562D01*
Y325040D01*
X1318228D01*
Y323373D01*
Y336703D02*
X1308231D01*
X1313230Y331704D01*
Y338369D01*
X1292828Y303380D02*
X1282831D01*
Y308378D01*
X1284497Y310044D01*
X1287829D01*
X1289496Y308378D01*
Y303380D01*
X1282831Y320041D02*
X1284497Y316709D01*
X1287829Y313377D01*
X1291162D01*
X1292828Y315043D01*
Y318375D01*
X1291162Y320041D01*
X1289496D01*
X1287829Y318375D01*
Y313377D01*
X1292828Y323373D02*
X1291162D01*
Y325040D01*
X1292828D01*
Y323373D01*
X1282831Y338369D02*
Y331704D01*
X1287829D01*
X1286163Y335036D01*
Y336703D01*
X1287829Y338369D01*
X1291162D01*
X1292828Y336703D01*
Y333370D01*
X1291162Y331704D01*
X1257431Y303380D02*
X1264096D01*
X1267428Y306712D01*
X1264096Y310044D01*
X1257431D01*
Y313377D02*
Y316709D01*
Y315043D01*
X1267428D01*
Y313377D01*
Y316709D01*
Y321707D02*
X1257431D01*
X1267428Y328372D01*
X1257431D01*
X1233697Y310044D02*
X1232031Y308378D01*
Y305046D01*
X1233697Y303380D01*
X1240362D01*
X1242028Y305046D01*
Y308378D01*
X1240362Y310044D01*
X1237029D01*
Y306712D01*
X1242028Y313377D02*
X1232031D01*
X1242028Y320041D01*
X1232031D01*
Y323374D02*
X1242028D01*
Y328372D01*
X1240362Y330038D01*
X1233697D01*
X1232031Y328372D01*
Y323374D01*
X1055897Y310044D02*
X1054231Y308378D01*
Y305046D01*
X1055897Y303380D01*
X1062562D01*
X1064228Y305046D01*
Y308378D01*
X1062562Y310044D01*
X1059230D01*
Y306712D01*
X1064228Y313377D02*
X1054231D01*
X1064228Y320041D01*
X1054231D01*
Y323374D02*
X1064228D01*
Y328372D01*
X1062562Y330038D01*
X1055897D01*
X1054231Y328372D01*
Y323374D01*
D11*
X1453780Y935990D02*
G03*
X1453780Y935990I-1250J0D01*
G01*
X1855450Y438500D02*
G03*
X1855450Y438500I-1250J0D01*
G01*
X693760Y126340D02*
G03*
X693760Y126340I-1250J0D01*
G01*
X830560Y566425D02*
G03*
X830560Y566425I-1250J0D01*
G01*
X814988Y493596D02*
G03*
X814988Y493596I-1250J0D01*
G01*
X713060Y900070D02*
G03*
X713060Y900070I-1250J0D01*
G01*
X1990080Y769620D02*
G03*
X1990080Y769620I-1250J0D01*
G01*
X1991350Y847090D02*
G03*
X1991350Y847090I-1250J0D01*
G01*
X132640Y587130D02*
G03*
X132640Y587130I-1250J0D01*
G01*
X101590Y762000D02*
G03*
X101590Y762000I-1250J0D01*
G01*
X102860Y842010D02*
G03*
X102860Y842010I-1250J0D01*
G01*
X1872650Y633340D02*
G03*
X1872650Y633340I-1250J0D01*
G01*
X988320Y261960D02*
G03*
X988320Y261960I-1250J0D01*
G01*
X139909Y443200D02*
G03*
X139909Y443200I-1250J0D01*
G01*
X1063990Y686440D02*
G03*
X1063990Y686440I-1250J0D01*
G01*
X1298840Y937260D02*
G03*
X1298840Y937260I-1250J0D01*
G01*
X1399490Y67428D02*
G03*
X1399490Y67428I-1250J0D01*
G01*
X1195400Y66040D02*
G03*
X1195400Y66040I-1250J0D01*
G01*
D12*
X915670Y793750D02*
X1381760D01*
X915670Y914400D02*
X1381760D01*
Y793750D02*
Y914400D01*
X915670Y793750D02*
Y914400D01*
X1759448Y596300D02*
Y628800D01*
X1224448Y628800D02*
X1759448Y628800D01*
X1224448Y596300D02*
Y628800D01*
Y596300D02*
X1759448Y596300D01*
X1224448Y367700D02*
X1759448Y367700D01*
X1224448Y367700D02*
Y400200D01*
X1759448Y400200D01*
Y367700D02*
Y400200D01*
X893628Y367700D02*
X1073628D01*
X893628D02*
Y400200D01*
X1073628D01*
Y367700D02*
Y400200D01*
X893628Y597300D02*
X1073628D01*
X893628D02*
Y629800D01*
X1073628D01*
Y597300D02*
Y629800D01*
X1170940Y838037D02*
Y831372D01*
X1174272Y828040D01*
X1177605Y831372D01*
Y838037D01*
X1182603Y834705D02*
X1185935D01*
X1187601Y833038D01*
Y828040D01*
X1182603D01*
X1180937Y829706D01*
X1182603Y831372D01*
X1187601D01*
X1190934Y828040D02*
Y834705D01*
X1195932D01*
X1197598Y833038D01*
Y828040D01*
X1210927Y838037D02*
X1217592D01*
X1214259D01*
Y828040D01*
X1220924Y834705D02*
Y828040D01*
Y831372D01*
X1222590Y833038D01*
X1224256Y834705D01*
X1225922D01*
X1232587D02*
X1235919D01*
X1237585Y833038D01*
Y828040D01*
X1232587D01*
X1230921Y829706D01*
X1232587Y831372D01*
X1237585D01*
X1240918Y828040D02*
Y834705D01*
X1245916D01*
X1247582Y833038D01*
Y828040D01*
X1170940Y803910D02*
Y813907D01*
X1174272Y810574D01*
X1177605Y813907D01*
Y803910D01*
X1182603Y810574D02*
X1185935D01*
X1187601Y808908D01*
Y803910D01*
X1182603D01*
X1180937Y805576D01*
X1182603Y807242D01*
X1187601D01*
X1190934Y803910D02*
Y810574D01*
X1195932D01*
X1197598Y808908D01*
Y803910D01*
X1200930D02*
Y810574D01*
X1205929D01*
X1207595Y808908D01*
Y803910D01*
X1212593Y810574D02*
X1215926D01*
X1217592Y808908D01*
Y803910D01*
X1212593D01*
X1210927Y805576D01*
X1212593Y807242D01*
X1217592D01*
X1220924Y803910D02*
Y810574D01*
X1225922D01*
X1227588Y808908D01*
Y803910D01*
X1247582Y813907D02*
X1244250D01*
X1245916D01*
Y805576D01*
X1244250Y803910D01*
X1242584D01*
X1240918Y805576D01*
X1250914Y803910D02*
X1254247D01*
X1252580D01*
Y810574D01*
X1250914D01*
X1259245Y803910D02*
Y810574D01*
X1264243D01*
X1265909Y808908D01*
Y803910D01*
X1275906Y813907D02*
Y803910D01*
X1270908D01*
X1269242Y805576D01*
Y808908D01*
X1270908Y810574D01*
X1275906D01*
X1280905D02*
X1284237D01*
X1285903Y808908D01*
Y803910D01*
X1280905D01*
X1279238Y805576D01*
X1280905Y807242D01*
X1285903D01*
X1289235Y803910D02*
X1292567D01*
X1290901D01*
Y813907D01*
X1289235D01*
X1007110Y805972D02*
Y812637D01*
X1010442Y815969D01*
X1013774Y812637D01*
Y805972D01*
Y810971D01*
X1007110D01*
X1018773Y812637D02*
X1022105D01*
X1023771Y810971D01*
Y805972D01*
X1018773D01*
X1017107Y807638D01*
X1018773Y809305D01*
X1023771D01*
X1027104Y812637D02*
Y807638D01*
X1028770Y805972D01*
X1033768D01*
Y804306D01*
X1032102Y802640D01*
X1030436D01*
X1033768Y805972D02*
Y812637D01*
X1037100D02*
Y807638D01*
X1038766Y805972D01*
X1043765D01*
Y812637D01*
X1047097Y805972D02*
X1052095D01*
X1053762Y807638D01*
X1052095Y809305D01*
X1048763D01*
X1047097Y810971D01*
X1048763Y812637D01*
X1053762D01*
X1057094Y815969D02*
Y805972D01*
Y810971D01*
X1058760Y812637D01*
X1062092D01*
X1063758Y810971D01*
Y805972D01*
X1067091D02*
X1070423D01*
X1068757D01*
Y812637D01*
X1067091D01*
X1092083Y814303D02*
X1090416Y815969D01*
X1087084D01*
X1085418Y814303D01*
Y812637D01*
X1087084Y810971D01*
X1090416D01*
X1092083Y809305D01*
Y807638D01*
X1090416Y805972D01*
X1087084D01*
X1085418Y807638D01*
X1095415Y805972D02*
X1098747D01*
X1097081D01*
Y812637D01*
X1095415D01*
X1103745Y805972D02*
Y812637D01*
X1108744D01*
X1110410Y810971D01*
Y805972D01*
X1117075Y802640D02*
X1118741D01*
X1120407Y804306D01*
Y812637D01*
X1115408D01*
X1113742Y810971D01*
Y807638D01*
X1115408Y805972D01*
X1120407D01*
X1123739Y815969D02*
Y805972D01*
Y810971D01*
X1125405Y812637D01*
X1128737D01*
X1130404Y810971D01*
Y805972D01*
X1007110Y828832D02*
Y838829D01*
X1010442Y835497D01*
X1013774Y838829D01*
Y828832D01*
X1018773Y835497D02*
X1022105D01*
X1023771Y833831D01*
Y828832D01*
X1018773D01*
X1017107Y830498D01*
X1018773Y832165D01*
X1023771D01*
X1027104Y835497D02*
X1033768Y828832D01*
X1030436Y832165D01*
X1033768Y835497D01*
X1027104Y828832D01*
X1047097Y838829D02*
Y828832D01*
X1053762D01*
X1062092D02*
X1058760D01*
X1057094Y830498D01*
Y833831D01*
X1058760Y835497D01*
X1062092D01*
X1063758Y833831D01*
Y832165D01*
X1057094D01*
X1067091Y838829D02*
Y828832D01*
X1072089D01*
X1073755Y830498D01*
Y832165D01*
Y833831D01*
X1072089Y835497D01*
X1067091D01*
X1077087Y828832D02*
X1080420D01*
X1078754D01*
Y838829D01*
X1077087D01*
X1087084Y835497D02*
X1090416D01*
X1092083Y833831D01*
Y828832D01*
X1087084D01*
X1085418Y830498D01*
X1087084Y832165D01*
X1092083D01*
X1095415Y828832D02*
Y835497D01*
X1100413D01*
X1102079Y833831D01*
Y828832D01*
X1108744Y825500D02*
X1110410D01*
X1112076Y827166D01*
Y835497D01*
X1107078D01*
X1105412Y833831D01*
Y830498D01*
X1107078Y828832D01*
X1112076D01*
X1102360Y871215D02*
X1112517D01*
X1107438D01*
Y855980D01*
X1125213D02*
X1120134D01*
X1117595Y858519D01*
Y863597D01*
X1120134Y866137D01*
X1125213D01*
X1127752Y863597D01*
Y861058D01*
X1117595D01*
X1135369Y866137D02*
X1140448D01*
X1142987Y863597D01*
Y855980D01*
X1135369D01*
X1132830Y858519D01*
X1135369Y861058D01*
X1142987D01*
X1148065Y855980D02*
Y866137D01*
X1150604D01*
X1153144Y863597D01*
Y855980D01*
Y863597D01*
X1155683Y866137D01*
X1158222Y863597D01*
Y855980D01*
X1163300Y868676D02*
X1165839Y871215D01*
X1170918D01*
X1173457Y868676D01*
Y858519D01*
X1170918Y855980D01*
X1165839D01*
X1163300Y858519D01*
Y868676D01*
X1178535Y855980D02*
X1183614D01*
X1181075D01*
Y871215D01*
X1178535Y868676D01*
X953066Y905372D02*
X941070D01*
Y887378D01*
X953066D01*
X941070Y896375D02*
X947068D01*
X971060Y902373D02*
X968061Y905372D01*
X962063D01*
X959064Y902373D01*
Y890377D01*
X962063Y887378D01*
X968061D01*
X971060Y890377D01*
X989054Y905372D02*
X977058D01*
Y887378D01*
X989054D01*
X977058Y896375D02*
X983056D01*
X1004050Y887378D02*
Y905372D01*
X995052Y896375D01*
X1007049D01*
X1025043Y905372D02*
X1013047D01*
Y896375D01*
X1019045Y899374D01*
X1022044D01*
X1025043Y896375D01*
Y890377D01*
X1022044Y887378D01*
X1016046D01*
X1013047Y890377D01*
X1031041Y902373D02*
X1034040Y905372D01*
X1040038D01*
X1043037Y902373D01*
Y899374D01*
X1040038Y896375D01*
X1037039D01*
X1040038D01*
X1043037Y893376D01*
Y890377D01*
X1040038Y887378D01*
X1034040D01*
X1031041Y890377D01*
X1079025Y905372D02*
X1067029D01*
Y896375D01*
X1073027D01*
X1067029D01*
Y887378D01*
X1097020D02*
X1085023D01*
X1097020Y899374D01*
Y902373D01*
X1094020Y905372D01*
X1088022D01*
X1085023Y902373D01*
X1115014Y905372D02*
X1103018D01*
Y896375D01*
X1109016Y899374D01*
X1112015D01*
X1115014Y896375D01*
Y890377D01*
X1112015Y887378D01*
X1106017D01*
X1103018Y890377D01*
X1139006Y887378D02*
Y905372D01*
X1148003D01*
X1151002Y902373D01*
Y896375D01*
X1148003Y893376D01*
X1139006D01*
X1145004D02*
X1151002Y887378D01*
X1157000Y899374D02*
Y890377D01*
X1159999Y887378D01*
X1168996D01*
Y899374D01*
X1174994Y887378D02*
Y899374D01*
X1183991D01*
X1186990Y896375D01*
Y887378D01*
X1195987Y899374D02*
X1201985D01*
X1204985Y896375D01*
Y887378D01*
X1195987D01*
X1192988Y890377D01*
X1195987Y893376D01*
X1204985D01*
X1210983Y899374D02*
Y890377D01*
X1213982Y887378D01*
X1216981Y890377D01*
X1219980Y887378D01*
X1222979Y890377D01*
Y899374D01*
X1231976D02*
X1237974D01*
X1240973Y896375D01*
Y887378D01*
X1231976D01*
X1228977Y890377D01*
X1231976Y893376D01*
X1240973D01*
X1246971Y899374D02*
Y890377D01*
X1249970Y887378D01*
X1258967D01*
Y884379D01*
X1255968Y881380D01*
X1252969D01*
X1258967Y887378D02*
Y899374D01*
X1282959Y887378D02*
Y899374D01*
X1288957Y905372D01*
X1294955Y899374D01*
Y887378D01*
Y896375D01*
X1282959D01*
X1300954Y887378D02*
X1306951D01*
X1303952D01*
Y905372D01*
X1300954D01*
X1318948Y899374D02*
X1324946D01*
X1327945Y896375D01*
Y887378D01*
X1318948D01*
X1315949Y890377D01*
X1318948Y893376D01*
X1327945D01*
X1333943Y899374D02*
Y887378D01*
Y893376D01*
X1336942Y896375D01*
X1339941Y899374D01*
X1342940D01*
X1351937Y887378D02*
Y899374D01*
X1354936D01*
X1357935Y896375D01*
Y887378D01*
Y896375D01*
X1360934Y899374D01*
X1363933Y896375D01*
Y887378D01*
X1430017Y857246D02*
X1427478Y859785D01*
X1422399D01*
X1419860Y857246D01*
Y854707D01*
X1422399Y852168D01*
X1427478D01*
X1430017Y849628D01*
Y847089D01*
X1427478Y844550D01*
X1422399D01*
X1419860Y847089D01*
X1445252Y857246D02*
X1442713Y859785D01*
X1437634D01*
X1435095Y857246D01*
Y847089D01*
X1437634Y844550D01*
X1442713D01*
X1445252Y847089D01*
X1450330Y859785D02*
Y844550D01*
X1460487D01*
X1343660Y974593D02*
Y959358D01*
X1353817D01*
X1369052Y972054D02*
X1366513Y974593D01*
X1361434D01*
X1358895Y972054D01*
Y961897D01*
X1361434Y959358D01*
X1366513D01*
X1369052Y961897D01*
X1374130Y974593D02*
Y959358D01*
X1381748D01*
X1384287Y961897D01*
Y972054D01*
X1381748Y974593D01*
X1374130D01*
X451612Y814319D02*
Y799084D01*
X459230D01*
X461769Y801623D01*
Y804162D01*
X459230Y806702D01*
X451612D01*
X459230D01*
X461769Y809241D01*
Y811780D01*
X459230Y814319D01*
X451612D01*
X466847D02*
X477004D01*
X471925D01*
Y799084D01*
X492239D02*
X482082D01*
X492239Y809241D01*
Y811780D01*
X489700Y814319D01*
X484621D01*
X482082Y811780D01*
X182881Y628648D02*
X180342Y631188D01*
X175263D01*
X172724Y628648D01*
Y618492D01*
X175263Y615952D01*
X180342D01*
X182881Y618492D01*
X195577Y615952D02*
Y631188D01*
X187959Y623570D01*
X198116D01*
X1797053Y596898D02*
X1794514Y599437D01*
X1789436D01*
X1786897Y596898D01*
Y586742D01*
X1789436Y584202D01*
X1794514D01*
X1797053Y586742D01*
X1812288Y584202D02*
X1802132D01*
X1812288Y594359D01*
Y596898D01*
X1809749Y599437D01*
X1804671D01*
X1802132Y596898D01*
X1817367D02*
X1819906Y599437D01*
X1824984D01*
X1827523Y596898D01*
Y594359D01*
X1824984Y591820D01*
X1827523Y589281D01*
Y586742D01*
X1824984Y584202D01*
X1819906D01*
X1817367Y586742D01*
Y589281D01*
X1819906Y591820D01*
X1817367Y594359D01*
Y596898D01*
X1819906Y591820D02*
X1824984D01*
X120653Y767078D02*
X118114Y769617D01*
X113035D01*
X110496Y767078D01*
Y756922D01*
X113035Y754382D01*
X118114D01*
X120653Y756922D01*
X125731Y754382D02*
X130810D01*
X128270D01*
Y769617D01*
X125731Y767078D01*
X138427D02*
X140966Y769617D01*
X146045D01*
X148584Y767078D01*
Y764539D01*
X146045Y762000D01*
X148584Y759461D01*
Y756922D01*
X146045Y754382D01*
X140966D01*
X138427Y756922D01*
Y759461D01*
X140966Y762000D01*
X138427Y764539D01*
Y767078D01*
X140966Y762000D02*
X146045D01*
X883926Y570228D02*
Y557532D01*
X886465Y554992D01*
X891544D01*
X894083Y557532D01*
Y570228D01*
X899161Y554992D02*
X904240D01*
X901700D01*
Y570228D01*
X899161Y567688D01*
X919475Y554992D02*
Y570228D01*
X911857Y562610D01*
X922014D01*
X356873Y220977D02*
Y208282D01*
X359412Y205742D01*
X364491D01*
X367030Y208282D01*
Y220977D01*
X372108Y205742D02*
X377187D01*
X374648D01*
Y220977D01*
X372108Y218438D01*
X894842Y737357D02*
Y724661D01*
X897381Y722122D01*
X902459D01*
X904999Y724661D01*
Y737357D01*
X910077Y722122D02*
X915155D01*
X912616D01*
Y737357D01*
X910077Y734818D01*
X932930Y737357D02*
X927851Y734818D01*
X922773Y729740D01*
Y724661D01*
X925312Y722122D01*
X930390D01*
X932930Y724661D01*
Y727200D01*
X930390Y729740D01*
X922773D01*
X825506Y453387D02*
Y440692D01*
X828045Y438153D01*
X833124D01*
X835663Y440692D01*
Y453387D01*
X840741Y438153D02*
X845820D01*
X843280D01*
Y453387D01*
X840741Y450848D01*
X863594Y438153D02*
X853437D01*
X863594Y448309D01*
Y450848D01*
X861055Y453387D01*
X855976D01*
X853437Y450848D01*
X1863852Y658617D02*
Y645921D01*
X1866391Y643382D01*
X1871470D01*
X1874009Y645921D01*
Y658617D01*
X1879087Y643382D02*
X1884165D01*
X1881626D01*
Y658617D01*
X1879087Y656078D01*
X1891783Y643382D02*
X1896861D01*
X1894322D01*
Y658617D01*
X1891783Y656078D01*
X110496Y664208D02*
Y651512D01*
X113035Y648972D01*
X118114D01*
X120653Y651512D01*
Y664208D01*
X125731Y648972D02*
X130810D01*
X128270D01*
Y664208D01*
X125731Y661668D01*
X138427D02*
X140966Y664208D01*
X146045D01*
X148584Y661668D01*
Y651512D01*
X146045Y648972D01*
X140966D01*
X138427Y651512D01*
Y661668D01*
X1921256Y88900D02*
Y104135D01*
X1926334Y99057D01*
X1931413Y104135D01*
Y88900D01*
X1936491Y104135D02*
Y88900D01*
Y96517D01*
X1946648D01*
Y104135D01*
Y88900D01*
X1951726Y101596D02*
X1954265Y104135D01*
X1959344D01*
X1961883Y101596D01*
Y99057D01*
X1959344Y96517D01*
X1961883Y93978D01*
Y91439D01*
X1959344Y88900D01*
X1954265D01*
X1951726Y91439D01*
Y93978D01*
X1954265Y96517D01*
X1951726Y99057D01*
Y101596D01*
X1954265Y96517D02*
X1959344D01*
X21336Y988822D02*
Y1004057D01*
X26414Y998979D01*
X31493Y1004057D01*
Y988822D01*
X36571Y1004057D02*
Y988822D01*
Y996440D01*
X46728D01*
Y1004057D01*
Y988822D01*
X51806Y1004057D02*
X61963D01*
Y1001518D01*
X51806Y991361D01*
Y988822D01*
X21336Y88900D02*
Y104135D01*
X26414Y99057D01*
X31493Y104135D01*
Y88900D01*
X36571Y104135D02*
Y88900D01*
Y96517D01*
X46728D01*
Y104135D01*
Y88900D01*
X61963Y104135D02*
X56884Y101596D01*
X51806Y96517D01*
Y91439D01*
X54345Y88900D01*
X59424D01*
X61963Y91439D01*
Y93978D01*
X59424Y96517D01*
X51806D01*
X1921256Y988822D02*
Y1004057D01*
X1926334Y998979D01*
X1931413Y1004057D01*
Y988822D01*
X1936491Y1004057D02*
Y988822D01*
Y996440D01*
X1946648D01*
Y1004057D01*
Y988822D01*
X1961883Y1004057D02*
X1951726D01*
Y996440D01*
X1956805Y998979D01*
X1959344D01*
X1961883Y996440D01*
Y991361D01*
X1959344Y988822D01*
X1954265D01*
X1951726Y991361D01*
X922022Y71118D02*
X916944D01*
X919483D01*
Y58422D01*
X916944Y55883D01*
X914405D01*
X911865Y58422D01*
X927100Y55883D02*
X932179D01*
X929640D01*
Y71118D01*
X927100Y68578D01*
X939796Y55883D02*
X944875D01*
X942336D01*
Y71118D01*
X939796Y68578D01*
X1915164Y419103D02*
Y434338D01*
X1920242Y429259D01*
X1925321Y434338D01*
Y419103D01*
X1940556D02*
X1930399D01*
X1940556Y429259D01*
Y431798D01*
X1938017Y434338D01*
X1932938D01*
X1930399Y431798D01*
X54613Y421642D02*
Y436878D01*
X59692Y431799D01*
X64770Y436878D01*
Y421642D01*
X69848D02*
X74927D01*
X72388D01*
Y436878D01*
X69848Y434338D01*
X313690Y866135D02*
Y855978D01*
X318768Y850900D01*
X323847Y855978D01*
Y866135D01*
X328925D02*
Y850900D01*
X336543D01*
X339082Y853439D01*
Y855978D01*
X336543Y858518D01*
X328925D01*
X336543D01*
X339082Y861057D01*
Y863596D01*
X336543Y866135D01*
X328925D01*
X344160Y850900D02*
Y861057D01*
X349239Y866135D01*
X354317Y861057D01*
Y850900D01*
Y858518D01*
X344160D01*
X359395Y866135D02*
X369552D01*
X364474D01*
Y850900D01*
X374630Y866135D02*
X384787D01*
X379709D01*
Y850900D01*
X836930Y986785D02*
Y976628D01*
X842008Y971550D01*
X847087Y976628D01*
Y986785D01*
X862322D02*
X852165D01*
Y979167D01*
X857243Y981707D01*
X859783D01*
X862322Y979167D01*
Y974089D01*
X859783Y971550D01*
X854704D01*
X852165Y974089D01*
X867400Y971550D02*
Y986785D01*
X875018D01*
X877557Y984246D01*
Y979167D01*
X875018Y976628D01*
X867400D01*
X882635Y984246D02*
X885174Y986785D01*
X890253D01*
X892792Y984246D01*
Y974089D01*
X890253Y971550D01*
X885174D01*
X882635Y974089D01*
Y984246D01*
X444500Y204465D02*
Y194308D01*
X449578Y189230D01*
X454657Y194308D01*
Y204465D01*
X459735Y201926D02*
X462274Y204465D01*
X467353D01*
X469892Y201926D01*
Y199387D01*
X467353Y196847D01*
X464813D01*
X467353D01*
X469892Y194308D01*
Y191769D01*
X467353Y189230D01*
X462274D01*
X459735Y191769D01*
X474970Y189230D02*
Y204465D01*
X482588D01*
X485127Y201926D01*
Y196847D01*
X482588Y194308D01*
X474970D01*
X490205Y201926D02*
X492744Y204465D01*
X497823D01*
X500362Y201926D01*
Y199387D01*
X497823Y196847D01*
X495284D01*
X497823D01*
X500362Y194308D01*
Y191769D01*
X497823Y189230D01*
X492744D01*
X490205Y191769D01*
X1482087Y855976D02*
X1479547Y858515D01*
X1474469D01*
X1471930Y855976D01*
Y853437D01*
X1474469Y850898D01*
X1479547D01*
X1482087Y848358D01*
Y845819D01*
X1479547Y843280D01*
X1474469D01*
X1471930Y845819D01*
X1487165Y858515D02*
Y843280D01*
X1494783D01*
X1497322Y845819D01*
Y855976D01*
X1494783Y858515D01*
X1487165D01*
X1502400Y843280D02*
Y853437D01*
X1507478Y858515D01*
X1512557Y853437D01*
Y843280D01*
Y850898D01*
X1502400D01*
X1537967Y854706D02*
X1535428Y857245D01*
X1530349D01*
X1527810Y854706D01*
Y844549D01*
X1530349Y842010D01*
X1535428D01*
X1537967Y844549D01*
Y849628D01*
X1532888D01*
X1543045Y842010D02*
Y857245D01*
X1553202Y842010D01*
Y857245D01*
X1558280D02*
Y842010D01*
X1565898D01*
X1568437Y844549D01*
Y854706D01*
X1565898Y857245D01*
X1558280D01*
X351793Y307337D02*
Y304798D01*
X356872Y299720D01*
X361950Y304798D01*
Y307337D01*
X356872Y299720D02*
Y292103D01*
X367028D02*
X372107D01*
X369568D01*
Y307337D01*
X367028Y304798D01*
X987044Y334259D02*
Y321563D01*
X989583Y319024D01*
X994661D01*
X997201Y321563D01*
Y334259D01*
X1002279Y319024D02*
X1007357D01*
X1004818D01*
Y334259D01*
X1002279Y331720D01*
X1014975D02*
X1017514Y334259D01*
X1022592D01*
X1025132Y331720D01*
Y329181D01*
X1022592Y326642D01*
X1025132Y324102D01*
Y321563D01*
X1022592Y319024D01*
X1017514D01*
X1014975Y321563D01*
Y324102D01*
X1017514Y326642D01*
X1014975Y329181D01*
Y331720D01*
X1017514Y326642D02*
X1022592D01*
X683264Y918207D02*
Y905512D01*
X685803Y902972D01*
X690882D01*
X693421Y905512D01*
Y918207D01*
X698499Y905512D02*
X701038Y902972D01*
X706117D01*
X708656Y905512D01*
Y915668D01*
X706117Y918207D01*
X701038D01*
X698499Y915668D01*
Y913129D01*
X701038Y910590D01*
X708656D01*
X722634Y156208D02*
Y143512D01*
X725173Y140972D01*
X730252D01*
X732791Y143512D01*
Y156208D01*
X737869Y153668D02*
X740408Y156208D01*
X745487D01*
X748026Y153668D01*
Y151129D01*
X745487Y148590D01*
X748026Y146051D01*
Y143512D01*
X745487Y140972D01*
X740408D01*
X737869Y143512D01*
Y146051D01*
X740408Y148590D01*
X737869Y151129D01*
Y153668D01*
X740408Y148590D02*
X745487D01*
X1194308Y104643D02*
X1204465D01*
X1199386D01*
Y89408D01*
X1217161Y104643D02*
X1212082D01*
X1209543Y102104D01*
Y91947D01*
X1212082Y89408D01*
X1217161D01*
X1219700Y91947D01*
Y102104D01*
X1217161Y104643D01*
X1234935D02*
X1224778D01*
Y97025D01*
X1229856D01*
X1224778D01*
Y89408D01*
X1224277Y973324D02*
X1221738Y975863D01*
X1216659D01*
X1214120Y973324D01*
Y970785D01*
X1216659Y968245D01*
X1221738D01*
X1224277Y965706D01*
Y963167D01*
X1221738Y960628D01*
X1216659D01*
X1214120Y963167D01*
X1239512Y975863D02*
X1229355D01*
Y960628D01*
X1239512D01*
X1229355Y968245D02*
X1234433D01*
X1244590Y960628D02*
Y975863D01*
X1252208D01*
X1254747Y973324D01*
Y968245D01*
X1252208Y965706D01*
X1244590D01*
X1249669D02*
X1254747Y960628D01*
X1259825Y975863D02*
Y965706D01*
X1264904Y960628D01*
X1269982Y965706D01*
Y975863D01*
X1282678D02*
X1277599D01*
X1275060Y973324D01*
Y963167D01*
X1277599Y960628D01*
X1282678D01*
X1285217Y963167D01*
Y973324D01*
X1282678Y975863D01*
X1290295Y960628D02*
X1295374D01*
X1292834D01*
Y975863D01*
X1290295Y973324D01*
X570241Y974088D02*
X567701Y976627D01*
X562623D01*
X560084Y974088D01*
Y971549D01*
X562623Y969010D01*
X567701D01*
X570241Y966470D01*
Y963931D01*
X567701Y961392D01*
X562623D01*
X560084Y963931D01*
X575319Y958853D02*
X585476D01*
X590554Y976627D02*
Y966470D01*
X595633Y961392D01*
X600711Y966470D01*
Y976627D01*
X615946D02*
X605789D01*
Y969010D01*
X610868Y971549D01*
X613407D01*
X615946Y969010D01*
Y963931D01*
X613407Y961392D01*
X608328D01*
X605789Y963931D01*
X621024Y961392D02*
Y976627D01*
X628642D01*
X631181Y974088D01*
Y969010D01*
X628642Y966470D01*
X621024D01*
X636259Y974088D02*
X638798Y976627D01*
X643877D01*
X646416Y974088D01*
Y963931D01*
X643877Y961392D01*
X638798D01*
X636259Y963931D01*
Y974088D01*
X583943Y204212D02*
X581404Y206751D01*
X576325D01*
X573786Y204212D01*
Y201673D01*
X576325Y199133D01*
X581404D01*
X583943Y196594D01*
Y194055D01*
X581404Y191516D01*
X576325D01*
X573786Y194055D01*
X589021Y188977D02*
X599178D01*
X604256Y206751D02*
Y196594D01*
X609334Y191516D01*
X614413Y196594D01*
Y206751D01*
X619491Y204212D02*
X622030Y206751D01*
X627109D01*
X629648Y204212D01*
Y201673D01*
X627109Y199133D01*
X624570D01*
X627109D01*
X629648Y196594D01*
Y194055D01*
X627109Y191516D01*
X622030D01*
X619491Y194055D01*
X634726Y191516D02*
Y206751D01*
X642344D01*
X644883Y204212D01*
Y199133D01*
X642344Y196594D01*
X634726D01*
X649961Y204212D02*
X652501Y206751D01*
X657579D01*
X660118Y204212D01*
Y201673D01*
X657579Y199133D01*
X655040D01*
X657579D01*
X660118Y196594D01*
Y194055D01*
X657579Y191516D01*
X652501D01*
X649961Y194055D01*
X977897Y156217D02*
X962663D01*
Y163834D01*
X965202Y166373D01*
X970280D01*
X972819Y163834D01*
Y156217D01*
Y161295D02*
X977897Y166373D01*
X965202Y171452D02*
X962663Y173991D01*
Y179069D01*
X965202Y181608D01*
X967741D01*
X970280Y179069D01*
Y176530D01*
Y179069D01*
X972819Y181608D01*
X975358D01*
X977897Y179069D01*
Y173991D01*
X975358Y171452D01*
X962663Y196843D02*
X965202Y191765D01*
X970280Y186687D01*
X975358D01*
X977897Y189226D01*
Y194304D01*
X975358Y196843D01*
X972819D01*
X970280Y194304D01*
Y186687D01*
X1003298Y156217D02*
X988063D01*
Y163834D01*
X990602Y166373D01*
X995680D01*
X998219Y163834D01*
Y156217D01*
Y161295D02*
X1003298Y166373D01*
X990602Y171452D02*
X988063Y173991D01*
Y179069D01*
X990602Y181608D01*
X993141D01*
X995680Y179069D01*
Y176530D01*
Y179069D01*
X998219Y181608D01*
X1000758D01*
X1003298Y179069D01*
Y173991D01*
X1000758Y171452D01*
X988063Y196843D02*
Y186687D01*
X995680D01*
X993141Y191765D01*
Y194304D01*
X995680Y196843D01*
X1000758D01*
X1003298Y194304D01*
Y189226D01*
X1000758Y186687D01*
X1031237Y157487D02*
X1016003D01*
Y165104D01*
X1018542Y167643D01*
X1023620D01*
X1026159Y165104D01*
Y157487D01*
Y162565D02*
X1031237Y167643D01*
X1018542Y172722D02*
X1016003Y175261D01*
Y180339D01*
X1018542Y182878D01*
X1021081D01*
X1023620Y180339D01*
Y177800D01*
Y180339D01*
X1026159Y182878D01*
X1028698D01*
X1031237Y180339D01*
Y175261D01*
X1028698Y172722D01*
X1031237Y195574D02*
X1016003D01*
X1023620Y187957D01*
Y198113D01*
X774707Y618493D02*
Y633727D01*
X782324D01*
X784863Y631188D01*
Y626110D01*
X782324Y623571D01*
X774707D01*
X779785D02*
X784863Y618493D01*
X800098D02*
X789942D01*
X800098Y628649D01*
Y631188D01*
X797559Y633727D01*
X792481D01*
X789942Y631188D01*
X805177Y621032D02*
X807716Y618493D01*
X812794D01*
X815333Y621032D01*
Y631188D01*
X812794Y633727D01*
X807716D01*
X805177Y631188D01*
Y628649D01*
X807716Y626110D01*
X815333D01*
X1968503Y595623D02*
X1983737D01*
Y588006D01*
X1981198Y585467D01*
X1976120D01*
X1973581Y588006D01*
Y595623D01*
Y590545D02*
X1968503Y585467D01*
Y570232D02*
Y580388D01*
X1978659Y570232D01*
X1981198D01*
X1983737Y572771D01*
Y577849D01*
X1981198Y580388D01*
X1968503Y557536D02*
X1983737D01*
X1976120Y565153D01*
Y554997D01*
X1926597Y638812D02*
Y654047D01*
X1934214D01*
X1936753Y651508D01*
Y646430D01*
X1934214Y643891D01*
X1926597D01*
X1931675D02*
X1936753Y638812D01*
X1951988D02*
X1941832D01*
X1951988Y648969D01*
Y651508D01*
X1949449Y654047D01*
X1944371D01*
X1941832Y651508D01*
X1957067D02*
X1959606Y654047D01*
X1964684D01*
X1967223Y651508D01*
Y648969D01*
X1964684Y646430D01*
X1962145D01*
X1964684D01*
X1967223Y643891D01*
Y641352D01*
X1964684Y638812D01*
X1959606D01*
X1957067Y641352D01*
X377197Y703583D02*
Y718818D01*
X384814D01*
X387353Y716278D01*
Y711200D01*
X384814Y708661D01*
X377197D01*
X382275D02*
X387353Y703583D01*
X402588D02*
X392432D01*
X402588Y713739D01*
Y716278D01*
X400049Y718818D01*
X394971D01*
X392432Y716278D01*
X417823Y703583D02*
X407667D01*
X417823Y713739D01*
Y716278D01*
X415284Y718818D01*
X410206D01*
X407667Y716278D01*
X27946Y635003D02*
Y650238D01*
X35563D01*
X38103Y647698D01*
Y642620D01*
X35563Y640081D01*
X27946D01*
X33024D02*
X38103Y635003D01*
X53338D02*
X43181D01*
X53338Y645159D01*
Y647698D01*
X50798Y650238D01*
X45720D01*
X43181Y647698D01*
X58416Y635003D02*
X63494D01*
X60955D01*
Y650238D01*
X58416Y647698D01*
X25398Y551187D02*
X10163D01*
Y558804D01*
X12702Y561343D01*
X17780D01*
X20319Y558804D01*
Y551187D01*
Y556265D02*
X25398Y561343D01*
Y576578D02*
Y566422D01*
X15241Y576578D01*
X12702D01*
X10163Y574039D01*
Y568961D01*
X12702Y566422D01*
Y581657D02*
X10163Y584196D01*
Y589274D01*
X12702Y591813D01*
X22858D01*
X25398Y589274D01*
Y584196D01*
X22858Y581657D01*
X12702D01*
X491496Y886462D02*
Y901697D01*
X499114D01*
X501653Y899158D01*
Y894080D01*
X499114Y891541D01*
X491496D01*
X496575D02*
X501653Y886462D01*
X506731D02*
X511810D01*
X509270D01*
Y901697D01*
X506731Y899158D01*
X519427Y889002D02*
X521966Y886462D01*
X527045D01*
X529584Y889002D01*
Y899158D01*
X527045Y901697D01*
X521966D01*
X519427Y899158D01*
Y896619D01*
X521966Y894080D01*
X529584D01*
X715007Y778516D02*
X699772D01*
Y786134D01*
X702312Y788673D01*
X707390D01*
X709929Y786134D01*
Y778516D01*
Y783595D02*
X715007Y788673D01*
Y793751D02*
Y798830D01*
Y796290D01*
X699772D01*
X702312Y793751D01*
Y806447D02*
X699772Y808986D01*
Y814065D01*
X702312Y816604D01*
X704851D01*
X707390Y814065D01*
X709929Y816604D01*
X712468D01*
X715007Y814065D01*
Y808986D01*
X712468Y806447D01*
X709929D01*
X707390Y808986D01*
X704851Y806447D01*
X702312D01*
X707390Y808986D02*
Y814065D01*
X692148Y778516D02*
X676912D01*
Y786134D01*
X679452Y788673D01*
X684530D01*
X687069Y786134D01*
Y778516D01*
Y783595D02*
X692148Y788673D01*
Y793751D02*
Y798830D01*
Y796290D01*
X676912D01*
X679452Y793751D01*
X676912Y806447D02*
Y816604D01*
X679452D01*
X689608Y806447D01*
X692148D01*
X736598Y778516D02*
X721363D01*
Y786134D01*
X723902Y788673D01*
X728980D01*
X731519Y786134D01*
Y778516D01*
Y783595D02*
X736598Y788673D01*
Y793751D02*
Y798830D01*
Y796290D01*
X721363D01*
X723902Y793751D01*
X721363Y816604D02*
X723902Y811525D01*
X728980Y806447D01*
X734058D01*
X736598Y808986D01*
Y814065D01*
X734058Y816604D01*
X731519D01*
X728980Y814065D01*
Y806447D01*
X496576Y104143D02*
Y119377D01*
X504194D01*
X506733Y116838D01*
Y111760D01*
X504194Y109221D01*
X496576D01*
X501655D02*
X506733Y104143D01*
X511811D02*
X516890D01*
X514350D01*
Y119377D01*
X511811Y116838D01*
X534664Y119377D02*
X524507D01*
Y111760D01*
X529585Y114299D01*
X532125D01*
X534664Y111760D01*
Y106682D01*
X532125Y104143D01*
X527046D01*
X524507Y106682D01*
X765816Y58422D02*
Y73657D01*
X773434D01*
X775973Y71118D01*
Y66040D01*
X773434Y63501D01*
X765816D01*
X770894D02*
X775973Y58422D01*
X781051D02*
X786130D01*
X783590D01*
Y73657D01*
X781051Y71118D01*
X801365Y58422D02*
Y73657D01*
X793747Y66040D01*
X803904D01*
X783596Y86362D02*
Y101597D01*
X791214D01*
X793753Y99058D01*
Y93980D01*
X791214Y91441D01*
X783596D01*
X788674D02*
X793753Y86362D01*
X798831D02*
X803910D01*
X801370D01*
Y101597D01*
X798831Y99058D01*
X811527D02*
X814066Y101597D01*
X819145D01*
X821684Y99058D01*
Y96519D01*
X819145Y93980D01*
X816606D01*
X819145D01*
X821684Y91441D01*
Y88902D01*
X819145Y86362D01*
X814066D01*
X811527Y88902D01*
X778516Y115573D02*
Y130808D01*
X786134D01*
X788673Y128268D01*
Y123190D01*
X786134Y120651D01*
X778516D01*
X783595D02*
X788673Y115573D01*
X793751D02*
X798830D01*
X796290D01*
Y130808D01*
X793751Y128268D01*
X816604Y115573D02*
X806447D01*
X816604Y125729D01*
Y128268D01*
X814065Y130808D01*
X808986D01*
X806447Y128268D01*
X334014Y119382D02*
Y134618D01*
X341632D01*
X344171Y132078D01*
Y127000D01*
X341632Y124461D01*
X334014D01*
X339092D02*
X344171Y119382D01*
X349249Y132078D02*
X351788Y134618D01*
X356867D01*
X359406Y132078D01*
Y129539D01*
X356867Y127000D01*
X354328D01*
X356867D01*
X359406Y124461D01*
Y121922D01*
X356867Y119382D01*
X351788D01*
X349249Y121922D01*
X265434Y119382D02*
Y134618D01*
X273052D01*
X275591Y132078D01*
Y127000D01*
X273052Y124461D01*
X265434D01*
X270513D02*
X275591Y119382D01*
X290826D02*
X280669D01*
X290826Y129539D01*
Y132078D01*
X288287Y134618D01*
X283208D01*
X280669Y132078D01*
X303533Y119382D02*
Y134618D01*
X311151D01*
X313690Y132078D01*
Y127000D01*
X311151Y124461D01*
X303533D01*
X308612D02*
X313690Y119382D01*
X318768D02*
X323847D01*
X321308D01*
Y134618D01*
X318768Y132078D01*
X657861Y908052D02*
Y918208D01*
X655322Y920748D01*
X650243D01*
X647704Y918208D01*
Y908052D01*
X650243Y905512D01*
X655322D01*
X652783Y910591D02*
X657861Y905512D01*
X655322D02*
X657861Y908052D01*
X673096Y905512D02*
X662939D01*
X673096Y915669D01*
Y918208D01*
X670557Y920748D01*
X665478D01*
X662939Y918208D01*
X658619Y151383D02*
Y161540D01*
X656079Y164079D01*
X651001D01*
X648462Y161540D01*
Y151383D01*
X651001Y148844D01*
X656079D01*
X653540Y153922D02*
X658619Y148844D01*
X656079D02*
X658619Y151383D01*
X663697Y148844D02*
X668775D01*
X666236D01*
Y164079D01*
X663697Y161540D01*
X1783086Y502918D02*
X1772929D01*
Y487682D01*
X1783086D01*
X1772929Y495300D02*
X1778007D01*
X1788164Y487682D02*
Y502918D01*
X1798321Y487682D01*
Y502918D01*
X1813556Y500378D02*
X1811017Y502918D01*
X1805938D01*
X1803399Y500378D01*
Y490222D01*
X1805938Y487682D01*
X1811017D01*
X1813556Y490222D01*
X1828791Y487682D02*
X1818634D01*
X1828791Y497839D01*
Y500378D01*
X1826252Y502918D01*
X1821173D01*
X1818634Y500378D01*
X135633Y577337D02*
X125476D01*
Y562102D01*
X135633D01*
X125476Y569720D02*
X130554D01*
X140711Y562102D02*
Y577337D01*
X150868Y562102D01*
Y577337D01*
X166103Y574798D02*
X163564Y577337D01*
X158485D01*
X155946Y574798D01*
Y564641D01*
X158485Y562102D01*
X163564D01*
X166103Y564641D01*
X171181Y562102D02*
X176260D01*
X173720D01*
Y577337D01*
X171181Y574798D01*
X767084Y938528D02*
Y923292D01*
X777241D01*
X792476D02*
X782319D01*
X792476Y933449D01*
Y935988D01*
X789937Y938528D01*
X784858D01*
X782319Y935988D01*
X773433Y227327D02*
Y212092D01*
X783590D01*
X788668D02*
X793747D01*
X791208D01*
Y227327D01*
X788668Y224788D01*
X1408427Y110993D02*
X1398270D01*
Y95758D01*
X1408427D01*
X1398270Y103376D02*
X1403348D01*
X1413505Y105915D02*
X1423662Y95758D01*
X1418583Y100836D01*
X1423662Y105915D01*
X1413505Y95758D01*
X1428740Y90680D02*
Y105915D01*
X1436358D01*
X1438897Y103376D01*
Y98297D01*
X1436358Y95758D01*
X1428740D01*
X1446514D02*
X1451593D01*
X1454132Y98297D01*
Y103376D01*
X1451593Y105915D01*
X1446514D01*
X1443975Y103376D01*
Y98297D01*
X1446514Y95758D01*
X1459210D02*
X1466828D01*
X1469367Y98297D01*
X1466828Y100836D01*
X1461750D01*
X1459210Y103376D01*
X1461750Y105915D01*
X1469367D01*
X1482063Y95758D02*
X1476985D01*
X1474445Y98297D01*
Y103376D01*
X1476985Y105915D01*
X1482063D01*
X1484602Y103376D01*
Y100836D01*
X1474445D01*
X1499837Y110993D02*
Y95758D01*
X1492220D01*
X1489680Y98297D01*
Y103376D01*
X1492220Y105915D01*
X1499837D01*
X1520151Y95758D02*
Y110993D01*
X1527768D01*
X1530307Y108454D01*
Y103376D01*
X1527768Y100836D01*
X1520151D01*
X1535386Y95758D02*
X1540464D01*
X1537925D01*
Y105915D01*
X1535386D01*
X1548082Y95758D02*
Y105915D01*
X1555699D01*
X1558238Y103376D01*
Y95758D01*
X1563317D02*
X1570934D01*
X1573473Y98297D01*
X1570934Y100836D01*
X1565856D01*
X1563317Y103376D01*
X1565856Y105915D01*
X1573473D01*
X1043940Y785363D02*
Y770128D01*
X1051557D01*
X1054097Y772667D01*
Y782824D01*
X1051557Y785363D01*
X1043940D01*
X1059175Y782824D02*
X1061714Y785363D01*
X1066793D01*
X1069332Y782824D01*
Y780285D01*
X1066793Y777746D01*
X1069332Y775206D01*
Y772667D01*
X1066793Y770128D01*
X1061714D01*
X1059175Y772667D01*
Y775206D01*
X1061714Y777746D01*
X1059175Y780285D01*
Y782824D01*
X1061714Y777746D02*
X1066793D01*
X316246Y758187D02*
Y742952D01*
X323864D01*
X326403Y745491D01*
Y755648D01*
X323864Y758187D01*
X316246D01*
X331482Y740413D02*
X341638D01*
X346717Y758187D02*
Y748030D01*
X351795Y742952D01*
X356873Y748030D01*
Y758187D01*
X361952D02*
Y742952D01*
X369569D01*
X372108Y745491D01*
Y748030D01*
X369569Y750570D01*
X361952D01*
X369569D01*
X372108Y753109D01*
Y755648D01*
X369569Y758187D01*
X361952D01*
X377187Y742952D02*
Y753109D01*
X382265Y758187D01*
X387343Y753109D01*
Y742952D01*
Y750570D01*
X377187D01*
X392422Y758187D02*
X402579D01*
X397500D01*
Y742952D01*
X407657Y758187D02*
X417814D01*
X412735D01*
Y742952D01*
X441974Y942337D02*
Y927102D01*
X449591D01*
X452131Y929641D01*
Y939798D01*
X449591Y942337D01*
X441974D01*
X457209Y924563D02*
X467366D01*
X472444Y942337D02*
Y932180D01*
X477523Y927102D01*
X482601Y932180D01*
Y942337D01*
X497836D02*
X487679D01*
Y934720D01*
X492757Y937259D01*
X495297D01*
X497836Y934720D01*
Y929641D01*
X495297Y927102D01*
X490218D01*
X487679Y929641D01*
X502914Y927102D02*
Y942337D01*
X510532D01*
X513071Y939798D01*
Y934720D01*
X510532Y932180D01*
X502914D01*
X518149Y939798D02*
X520689Y942337D01*
X525767D01*
X528306Y939798D01*
Y929641D01*
X525767Y927102D01*
X520689D01*
X518149Y929641D01*
Y939798D01*
X449594Y74927D02*
Y59692D01*
X457211D01*
X459751Y62231D01*
Y72388D01*
X457211Y74927D01*
X449594D01*
X464829Y57153D02*
X474986D01*
X480064Y74927D02*
Y64770D01*
X485143Y59692D01*
X490221Y64770D01*
Y74927D01*
X495299Y72388D02*
X497838Y74927D01*
X502917D01*
X505456Y72388D01*
Y69849D01*
X502917Y67310D01*
X500378D01*
X502917D01*
X505456Y64770D01*
Y62231D01*
X502917Y59692D01*
X497838D01*
X495299Y62231D01*
X510534Y59692D02*
Y74927D01*
X518152D01*
X520691Y72388D01*
Y67310D01*
X518152Y64770D01*
X510534D01*
X525769Y72388D02*
X528308Y74927D01*
X533387D01*
X535926Y72388D01*
Y69849D01*
X533387Y67310D01*
X530848D01*
X533387D01*
X535926Y64770D01*
Y62231D01*
X533387Y59692D01*
X528308D01*
X525769Y62231D01*
X963932Y318773D02*
X961392Y316234D01*
Y311156D01*
X963932Y308617D01*
X974088D01*
X976628Y311156D01*
Y316234D01*
X974088Y318773D01*
X963932Y323852D02*
X961392Y326391D01*
Y331469D01*
X963932Y334008D01*
X966471D01*
X969010Y331469D01*
Y328930D01*
Y331469D01*
X971549Y334008D01*
X974088D01*
X976628Y331469D01*
Y326391D01*
X974088Y323852D01*
X961392Y339087D02*
Y349243D01*
X963932D01*
X974088Y339087D01*
X976628D01*
X902973Y229868D02*
X900434Y232407D01*
X895356D01*
X892817Y229868D01*
Y219712D01*
X895356Y217173D01*
X900434D01*
X902973Y219712D01*
X908052Y229868D02*
X910591Y232407D01*
X915669D01*
X918208Y229868D01*
Y227329D01*
X915669Y224790D01*
X913130D01*
X915669D01*
X918208Y222251D01*
Y219712D01*
X915669Y217173D01*
X910591D01*
X908052Y219712D01*
X933443Y232407D02*
X928365Y229868D01*
X923287Y224790D01*
Y219712D01*
X925826Y217173D01*
X930904D01*
X933443Y219712D01*
Y222251D01*
X930904Y224790D01*
X923287D01*
X1064263Y168908D02*
X1061724Y171448D01*
X1056646D01*
X1054107Y168908D01*
Y158752D01*
X1056646Y156213D01*
X1061724D01*
X1064263Y158752D01*
X1069342Y168908D02*
X1071881Y171448D01*
X1076959D01*
X1079498Y168908D01*
Y166369D01*
X1076959Y163830D01*
X1074420D01*
X1076959D01*
X1079498Y161291D01*
Y158752D01*
X1076959Y156213D01*
X1071881D01*
X1069342Y158752D01*
X1094733Y171448D02*
X1084577D01*
Y163830D01*
X1089655Y166369D01*
X1092194D01*
X1094733Y163830D01*
Y158752D01*
X1092194Y156213D01*
X1087116D01*
X1084577Y158752D01*
X1082043Y240028D02*
X1079504Y242568D01*
X1074426D01*
X1071887Y240028D01*
Y229872D01*
X1074426Y227332D01*
X1079504D01*
X1082043Y229872D01*
X1087122Y240028D02*
X1089661Y242568D01*
X1094739D01*
X1097278Y240028D01*
Y237489D01*
X1094739Y234950D01*
X1092200D01*
X1094739D01*
X1097278Y232411D01*
Y229872D01*
X1094739Y227332D01*
X1089661D01*
X1087122Y229872D01*
X1109974Y227332D02*
Y242568D01*
X1102357Y234950D01*
X1112513D01*
X842013Y627378D02*
X839474Y629917D01*
X834396D01*
X831857Y627378D01*
Y617222D01*
X834396Y614683D01*
X839474D01*
X842013Y617222D01*
X857248Y614683D02*
X847092D01*
X857248Y624839D01*
Y627378D01*
X854709Y629917D01*
X849631D01*
X847092Y627378D01*
X862327Y629917D02*
X872483D01*
Y627378D01*
X862327Y617222D01*
Y614683D01*
X868334Y505078D02*
X865795Y507617D01*
X860717D01*
X858178Y505078D01*
Y494922D01*
X860717Y492383D01*
X865795D01*
X868334Y494922D01*
X883569Y492383D02*
X873413D01*
X883569Y502539D01*
Y505078D01*
X881030Y507617D01*
X875952D01*
X873413Y505078D01*
X898805Y507617D02*
X893726Y505078D01*
X888648Y500000D01*
Y494922D01*
X891187Y492383D01*
X896265D01*
X898805Y494922D01*
Y497461D01*
X896265Y500000D01*
X888648D01*
X737873Y516888D02*
X735334Y519427D01*
X730256D01*
X727717Y516888D01*
Y506732D01*
X730256Y504193D01*
X735334D01*
X737873Y506732D01*
X753108Y504193D02*
X742952D01*
X753108Y514349D01*
Y516888D01*
X750569Y519427D01*
X745491D01*
X742952Y516888D01*
X768343Y519427D02*
X758187D01*
Y511810D01*
X763265Y514349D01*
X765804D01*
X768343Y511810D01*
Y506732D01*
X765804Y504193D01*
X760726D01*
X758187Y506732D01*
X1920243Y713738D02*
X1917704Y716277D01*
X1912626D01*
X1910087Y713738D01*
Y703582D01*
X1912626Y701042D01*
X1917704D01*
X1920243Y703582D01*
X1935478Y701042D02*
X1925322D01*
X1935478Y711199D01*
Y713738D01*
X1932939Y716277D01*
X1927861D01*
X1925322Y713738D01*
X1948174Y701042D02*
Y716277D01*
X1940557Y708660D01*
X1950713D01*
X1917703Y683258D02*
X1915164Y685798D01*
X1910086D01*
X1907547Y683258D01*
Y673102D01*
X1910086Y670563D01*
X1915164D01*
X1917703Y673102D01*
X1932938Y670563D02*
X1922782D01*
X1932938Y680719D01*
Y683258D01*
X1930399Y685798D01*
X1925321D01*
X1922782Y683258D01*
X1938017D02*
X1940556Y685798D01*
X1945634D01*
X1948173Y683258D01*
Y680719D01*
X1945634Y678180D01*
X1943095D01*
X1945634D01*
X1948173Y675641D01*
Y673102D01*
X1945634Y670563D01*
X1940556D01*
X1938017Y673102D01*
X1864363Y853438D02*
X1861824Y855977D01*
X1856746D01*
X1854207Y853438D01*
Y843282D01*
X1856746Y840742D01*
X1861824D01*
X1864363Y843282D01*
X1879598Y840742D02*
X1869442D01*
X1879598Y850899D01*
Y853438D01*
X1877059Y855977D01*
X1871981D01*
X1869442Y853438D01*
X1894833Y840742D02*
X1884677D01*
X1894833Y850899D01*
Y853438D01*
X1892294Y855977D01*
X1887216D01*
X1884677Y853438D01*
X1861823Y773428D02*
X1859283Y775967D01*
X1854205D01*
X1851666Y773428D01*
Y763272D01*
X1854205Y760732D01*
X1859283D01*
X1861823Y763272D01*
X1877058Y760732D02*
X1866901D01*
X1877058Y770889D01*
Y773428D01*
X1874518Y775967D01*
X1869440D01*
X1866901Y773428D01*
X1882136Y760732D02*
X1887214D01*
X1884675D01*
Y775967D01*
X1882136Y773428D01*
X65573Y713392D02*
X63034Y715931D01*
X57956D01*
X55417Y713392D01*
Y703235D01*
X57956Y700696D01*
X63034D01*
X65573Y703235D01*
X80808Y700696D02*
X70652D01*
X80808Y710853D01*
Y713392D01*
X78269Y715931D01*
X73191D01*
X70652Y713392D01*
X85887D02*
X88426Y715931D01*
X93504D01*
X96043Y713392D01*
Y703235D01*
X93504Y700696D01*
X88426D01*
X85887Y703235D01*
Y713392D01*
X65573Y683964D02*
X63034Y686504D01*
X57955D01*
X55416Y683964D01*
Y673808D01*
X57955Y671269D01*
X63034D01*
X65573Y673808D01*
X70651Y671269D02*
X75730D01*
X73190D01*
Y686504D01*
X70651Y683964D01*
X83347Y673808D02*
X85886Y671269D01*
X90965D01*
X93504Y673808D01*
Y683964D01*
X90965Y686504D01*
X85886D01*
X83347Y683964D01*
Y681425D01*
X85886Y678886D01*
X93504D01*
X121923Y848358D02*
X119384Y850898D01*
X114305D01*
X111766Y848358D01*
Y838202D01*
X114305Y835663D01*
X119384D01*
X121923Y838202D01*
X127001Y835663D02*
X132080D01*
X129540D01*
Y850898D01*
X127001Y848358D01*
X139697Y850898D02*
X149854D01*
Y848358D01*
X139697Y838202D01*
Y835663D01*
X770893Y840738D02*
X768354Y843278D01*
X763275D01*
X760736Y840738D01*
Y830582D01*
X763275Y828043D01*
X768354D01*
X770893Y830582D01*
X775971Y828043D02*
X781050D01*
X778510D01*
Y843278D01*
X775971Y840738D01*
X798824Y843278D02*
X793745Y840738D01*
X788667Y835660D01*
Y830582D01*
X791206Y828043D01*
X796285D01*
X798824Y830582D01*
Y833121D01*
X796285Y835660D01*
X788667D01*
X847093Y902968D02*
X844554Y905508D01*
X839475D01*
X836936Y902968D01*
Y892812D01*
X839475Y890273D01*
X844554D01*
X847093Y892812D01*
X852171Y890273D02*
X857250D01*
X854710D01*
Y905508D01*
X852171Y902968D01*
X875024Y905508D02*
X864867D01*
Y897890D01*
X869946Y900429D01*
X872485D01*
X875024Y897890D01*
Y892812D01*
X872485Y890273D01*
X867406D01*
X864867Y892812D01*
X844553Y873758D02*
X842014Y876298D01*
X836935D01*
X834396Y873758D01*
Y863602D01*
X836935Y861062D01*
X842014D01*
X844553Y863602D01*
X849631Y861062D02*
X854710D01*
X852170D01*
Y876298D01*
X849631Y873758D01*
X869945Y861062D02*
Y876298D01*
X862327Y868680D01*
X872484D01*
X684532Y965203D02*
X681992Y962664D01*
Y957585D01*
X684532Y955046D01*
X694688D01*
X697227Y957585D01*
Y962664D01*
X694688Y965203D01*
X697227Y970281D02*
Y975360D01*
Y972820D01*
X681992D01*
X684532Y970281D01*
Y982977D02*
X681992Y985516D01*
Y990595D01*
X684532Y993134D01*
X687071D01*
X689610Y990595D01*
Y988055D01*
Y990595D01*
X692149Y993134D01*
X694688D01*
X697227Y990595D01*
Y985516D01*
X694688Y982977D01*
X712472Y963933D02*
X709932Y961394D01*
Y956315D01*
X712472Y953776D01*
X722628D01*
X725167Y956315D01*
Y961394D01*
X722628Y963933D01*
X725167Y969011D02*
Y974090D01*
Y971550D01*
X709932D01*
X712472Y969011D01*
X725167Y991864D02*
Y981707D01*
X715011Y991864D01*
X712472D01*
X709932Y989325D01*
Y984246D01*
X712472Y981707D01*
X741682Y965202D02*
X739142Y962663D01*
Y957585D01*
X741682Y955045D01*
X751838D01*
X754378Y957585D01*
Y962663D01*
X751838Y965202D01*
X754378Y970280D02*
Y975359D01*
Y972820D01*
X739142D01*
X741682Y970280D01*
X754378Y982976D02*
Y988055D01*
Y985516D01*
X739142D01*
X741682Y982976D01*
X709933Y205738D02*
X707394Y208277D01*
X702315D01*
X699776Y205738D01*
Y195582D01*
X702315Y193043D01*
X707394D01*
X709933Y195582D01*
X715011Y193043D02*
X720090D01*
X717550D01*
Y208277D01*
X715011Y205738D01*
X727707D02*
X730246Y208277D01*
X735325D01*
X737864Y205738D01*
Y195582D01*
X735325Y193043D01*
X730246D01*
X727707Y195582D01*
Y205738D01*
X836931Y195578D02*
X834392Y198118D01*
X829313D01*
X826774Y195578D01*
Y185422D01*
X829313Y182882D01*
X834392D01*
X836931Y185422D01*
X842009D02*
X844548Y182882D01*
X849627D01*
X852166Y185422D01*
Y195578D01*
X849627Y198118D01*
X844548D01*
X842009Y195578D01*
Y193039D01*
X844548Y190500D01*
X852166D01*
X869185Y195830D02*
X866646Y198369D01*
X861567D01*
X859028Y195830D01*
Y185673D01*
X861567Y183134D01*
X866646D01*
X869185Y185673D01*
X874263Y195830D02*
X876802Y198369D01*
X881881D01*
X884420Y195830D01*
Y193291D01*
X881881Y190751D01*
X884420Y188212D01*
Y185673D01*
X881881Y183134D01*
X876802D01*
X874263Y185673D01*
Y188212D01*
X876802Y190751D01*
X874263Y193291D01*
Y195830D01*
X876802Y190751D02*
X881881D01*
X717552Y44451D02*
X715013Y41912D01*
Y36833D01*
X717552Y34294D01*
X727708D01*
X730247Y36833D01*
Y41912D01*
X727708Y44451D01*
X715013Y49529D02*
Y59686D01*
X717552D01*
X727708Y49529D01*
X730247D01*
X685802Y44451D02*
X683262Y41912D01*
Y36833D01*
X685802Y34294D01*
X695958D01*
X698497Y36833D01*
Y41912D01*
X695958Y44451D01*
X683262Y59686D02*
X685802Y54608D01*
X690880Y49529D01*
X695958D01*
X698497Y52068D01*
Y57147D01*
X695958Y59686D01*
X693419D01*
X690880Y57147D01*
Y49529D01*
X656592Y43181D02*
X654053Y40642D01*
Y35563D01*
X656592Y33024D01*
X666748D01*
X669287Y35563D01*
Y40642D01*
X666748Y43181D01*
X654053Y58416D02*
Y48259D01*
X661670D01*
X659131Y53337D01*
Y55877D01*
X661670Y58416D01*
X666748D01*
X669287Y55877D01*
Y50798D01*
X666748Y48259D01*
X384811Y167638D02*
X382272Y170177D01*
X377193D01*
X374654Y167638D01*
Y157482D01*
X377193Y154943D01*
X382272D01*
X384811Y157482D01*
X389889Y167638D02*
X392428Y170177D01*
X397507D01*
X400046Y167638D01*
Y165099D01*
X397507Y162560D01*
X394967D01*
X397507D01*
X400046Y160021D01*
Y157482D01*
X397507Y154943D01*
X392428D01*
X389889Y157482D01*
X384811Y273048D02*
X382272Y275588D01*
X377193D01*
X374654Y273048D01*
Y262892D01*
X377193Y260352D01*
X382272D01*
X384811Y262892D01*
X400046Y260352D02*
X389889D01*
X400046Y270509D01*
Y273048D01*
X397507Y275588D01*
X392428D01*
X389889Y273048D01*
X292100Y274318D02*
X289561Y276857D01*
X284482D01*
X281943Y274318D01*
Y264162D01*
X284482Y261623D01*
X289561D01*
X292100Y264162D01*
X297178Y261623D02*
X302257D01*
X299718D01*
Y276857D01*
X297178Y274318D01*
X302266Y642617D02*
Y627383D01*
X309883D01*
X312423Y629922D01*
Y632461D01*
X309883Y635000D01*
X302266D01*
X309883D01*
X312423Y637539D01*
Y640078D01*
X309883Y642617D01*
X302266D01*
X317501D02*
X327658D01*
X322579D01*
Y627383D01*
X332736D02*
X337814D01*
X335275D01*
Y642617D01*
X332736Y640078D01*
D13*
X112120Y448310D02*
Y549910D01*
X30120Y448310D02*
Y549910D01*
X112120D01*
X30120Y448310D02*
X112120D01*
X534470Y775730D02*
Y790730D01*
X556670Y754380D02*
X642670D01*
X451820D02*
X516170D01*
X451820Y215880D02*
Y754380D01*
Y215880D02*
X747520D01*
Y754380D01*
X683170D02*
X747520D01*
X654470Y783230D02*
X669470D01*
X661970Y775730D02*
Y790730D01*
X1898290Y445770D02*
X1980290D01*
X1898290Y547370D02*
X1980290D01*
X1898290Y445770D02*
Y547370D01*
X1980290Y445770D02*
Y547370D01*
X953770Y50440D02*
X1055370D01*
X953770Y132440D02*
X1055370D01*
Y50440D02*
Y132440D01*
X953770Y50440D02*
Y132440D01*
X575330Y820930D02*
Y949430D01*
X641330Y820930D02*
Y949430D01*
X625830Y820930D02*
X641330D01*
X575330D02*
X590830D01*
X575330Y949430D02*
X590830D01*
X625830D02*
X641330D01*
X301140Y193860D02*
Y232860D01*
X351640Y193860D02*
Y232860D01*
X624560Y178540D02*
X640060D01*
X574060D02*
X589560D01*
X574060Y50040D02*
X589560D01*
X624560D02*
X640060D01*
Y178540D01*
X574060Y50040D02*
Y178540D01*
D14*
X1745678Y345830D02*
Y355830D01*
X1237678Y339480D02*
Y349480D01*
X1263078Y339480D02*
Y349480D01*
X1288478Y345830D02*
Y355830D01*
X1313878Y345830D02*
Y355830D01*
X1339278Y345830D02*
Y355830D01*
X1364678Y345830D02*
Y355830D01*
X1390078Y345830D02*
Y355830D01*
X1415478Y345830D02*
Y355830D01*
X1440878Y345830D02*
Y355830D01*
X1466278Y345830D02*
Y355830D01*
X1491678Y345830D02*
Y355830D01*
X1517078Y352180D02*
Y362180D01*
X1542478Y352180D02*
Y362180D01*
X1567878Y352180D02*
Y362180D01*
X1593278Y352180D02*
Y362180D01*
X1618678Y352180D02*
Y362180D01*
X1644078Y352180D02*
Y362180D01*
X1669478Y352180D02*
Y362180D01*
X1694878Y345830D02*
Y355830D01*
X1720278Y339480D02*
Y349480D01*
X1746948Y637930D02*
Y647930D01*
X1721548Y637930D02*
Y647930D01*
X1696148Y637930D02*
Y647930D01*
X1670748Y637930D02*
Y647930D01*
X1645348Y637930D02*
Y647930D01*
X1619948Y637930D02*
Y647930D01*
X1594548Y637930D02*
Y647930D01*
X1569148Y637930D02*
Y647930D01*
X1543748Y637930D02*
Y647930D01*
X1518348Y637930D02*
Y647930D01*
X1492948Y637930D02*
Y647930D01*
X1467548Y637930D02*
Y647930D01*
X1442148Y637930D02*
Y647930D01*
X1416748Y637930D02*
Y647930D01*
X1391348Y637930D02*
Y647930D01*
X1365948Y637930D02*
Y647930D01*
X1340548Y637930D02*
Y647930D01*
X1315148Y637930D02*
Y647930D01*
X1289748Y637930D02*
Y647930D01*
X1264348Y637930D02*
Y647930D01*
X1238948Y637930D02*
Y647930D01*
X1061148Y637930D02*
Y647930D01*
X1035748Y637930D02*
Y647930D01*
X984948Y637930D02*
Y647930D01*
X959548Y637930D02*
Y647930D01*
X934148Y637930D02*
Y647930D01*
X908748Y637930D02*
Y647930D01*
X1059878Y345830D02*
Y355830D01*
D15*
X911492Y339474D02*
X921940D01*
X916716Y334250D02*
Y344698D01*
D16*
X431800Y732840D02*
D03*
X543560Y914450D02*
D03*
X551180Y86310D02*
D03*
M02*
